<?xml version="1.0" encoding="UTF-8"?>
<svg width="211.65" height="229.29" version="1.1" xmlns="http://www.w3.org/2000/svg">
 <polyline points="93.732 217.84 101.29 217.46 109.23 216.33 117.17 214.82 125.48 212.17 125.48 194.03 136.44 185.34 149.29 173.62 173.1 142.63 201.07 116.55 190.87 108.99 181.8 105.59 174.24 106.34 167.43 108.99 161.01 113.9 154.96 121.08 142.87 127.89 140.98 114.66 156.09 52.297 157.61 44.36 158.36 37.935 157.61 32.644 155.34 28.486 151.56 26.597 146.65 25.841 141.73 27.352 137.2 31.132 133.42 37.935 129.64 47.006 113.76 95.384 115.28 34.156 114.52 24.329 111.5 17.148 106.96 12.99 100.91 11.478 94.488 12.612 89.953 16.392 87.307 22.817 86.551 31.51 86.551 92.738 71.055 38.313 68.409 31.132 65.008 25.841 60.85 22.817 55.937 21.683 50.268 22.439 46.488 25.085 44.22 29.62 43.465 36.045 45.732 49.652 58.961 102.57 33.26 60.99 29.48 57.589 26.079 55.321 22.299 54.565 17.764 55.321 13.984 57.967 11.339 61.746 10.583 66.66 12.094 73.085 16.252 81.778 41.197 124.11 40.063 139.23 42.331 152.83 44.976 164.93 48.756 175.89 53.291 185.71 63.874 198.19 63.874 212.17 71.055 214.82 78.614 216.33 86.173 217.46 93.732 217.84" fill="none" stroke="#000"/>
</svg>
