<?xml version="1.0" encoding="UTF-8"?>
<svg width="48.96" height="48.96" version="1.1" xmlns="http://www.w3.org/2000/svg">
 <polygon points="21.12 48.96 24.48 48.96 48.96 24.48 48.96 21.12" stroke="#000"/>
 <polygon points="29.28 48.96 32.64 48.96 48.96 32.64 48.96 29.28" stroke="#000"/>
 <polygon points="37.44 48.96 40.8 48.96 48.96 40.8 48.96 37.44" stroke="#000"/>
 <polygon points="45.6 48.96 48.96 48.96 48.96 45.6" stroke="#000"/>
 <polygon points="0 8.16 8.16 0 4.8 0 0 4.8" stroke="#000"/>
 <polygon points="0 16.32 16.32 0 12.96 0 0 12.96" stroke="#000"/>
 <polygon points="0 24.48 24.48 0 21.12 0 0 21.12" stroke="#000"/>
 <polygon points="0 32.64 32.64 0 29.28 0 0 29.28" stroke="#000"/>
 <polygon points="0 40.8 40.8 0 37.44 0 0 37.44" stroke="#000"/>
 <polygon points="0 48.96 48.96 0 45.6 0 0 45.6" stroke="#000"/>
 <polygon points="4.8 48.96 8.16 48.96 48.96 8.16 48.96 4.8" stroke="#000"/>
 <polygon points="12.96 48.96 16.32 48.96 48.96 16.32 48.96 12.96" stroke="#000"/>
</svg>
