<?xml version="1.0" encoding="utf-8" standalone="no"?>
<!DOCTYPE svg PUBLIC "-//W3C//DTD SVG 1.1//EN"
  "http://www.w3.org/Graphics/SVG/1.1/DTD/svg11.dtd">
<svg xmlns:xlink="http://www.w3.org/1999/xlink" width="460.8pt" height="345.6pt" viewBox="0 0 460.8 345.6" xmlns="http://www.w3.org/2000/svg" version="1.1">
 <metadata>
  <rdf:RDF xmlns:dc="http://purl.org/dc/elements/1.1/" xmlns:cc="http://creativecommons.org/ns#" xmlns:rdf="http://www.w3.org/1999/02/22-rdf-syntax-ns#">
   <cc:Work>
    <dc:type rdf:resource="http://purl.org/dc/dcmitype/StillImage"/>
    <dc:date>2026-02-05T01:24:43.751189</dc:date>
    <dc:format>image/svg+xml</dc:format>
    <dc:creator>
     <cc:Agent>
      <dc:title>Matplotlib v3.10.8, https://matplotlib.org/</dc:title>
     </cc:Agent>
    </dc:creator>
   </cc:Work>
  </rdf:RDF>
 </metadata>
 <defs>
  <style type="text/css">*{stroke-linejoin: round; stroke-linecap: butt}</style>
 </defs>
 <g id="figure_1">
  <g id="patch_1">
   <path d="M 0 345.6 
L 460.8 345.6 
L 460.8 0 
L 0 0 
z
" style="fill: #ffffff"/>
  </g>
  <g id="axes_1">
   <g id="patch_2">
    <path d="M 57.6 307.584 
L 414.72 307.584 
L 414.72 41.472 
L 57.6 41.472 
z
" style="fill: #ffffff"/>
   </g>
   <g id="matplotlib.axis_1">
    <g id="xtick_1">
     <g id="line2d_1">
      <path d="M 414.72 307.584 
L 414.72 41.472 
" clip-path="url(#p02159db8db)" style="fill: none; stroke-dasharray: 0.5,0.825; stroke-dashoffset: 0; stroke: #b0b0b0; stroke-width: 0.5"/>
     </g>
     <g id="line2d_2">
      <defs>
       <path id="m7e6ba68549" d="M 0 0 
L 0 3.5 
" style="stroke: #000000; stroke-width: 0.8"/>
      </defs>
      <g>
       <use xlink:href="#m7e6ba68549" x="414.72" y="307.584" style="stroke: #000000; stroke-width: 0.8"/>
      </g>
     </g>
     <g id="text_1">
      <!-- 0.0 -->
      <g transform="translate(407.77 321.741812) scale(0.1 -0.1)">
       <defs>
        <path id="ArialMT-30" d="M 266 2259 
Q 266 3072 433 3567 
Q 600 4063 929 4331 
Q 1259 4600 1759 4600 
Q 2128 4600 2406 4451 
Q 2684 4303 2865 4023 
Q 3047 3744 3150 3342 
Q 3253 2941 3253 2259 
Q 3253 1453 3087 958 
Q 2922 463 2592 192 
Q 2263 -78 1759 -78 
Q 1097 -78 719 397 
Q 266 969 266 2259 
z
M 844 2259 
Q 844 1131 1108 757 
Q 1372 384 1759 384 
Q 2147 384 2411 759 
Q 2675 1134 2675 2259 
Q 2675 3391 2411 3762 
Q 2147 4134 1753 4134 
Q 1366 4134 1134 3806 
Q 844 3388 844 2259 
z
" transform="scale(0.015625)"/>
        <path id="ArialMT-2e" d="M 581 0 
L 581 641 
L 1222 641 
L 1222 0 
L 581 0 
z
" transform="scale(0.015625)"/>
       </defs>
       <use xlink:href="#ArialMT-30"/>
       <use xlink:href="#ArialMT-2e" transform="translate(55.615234 0)"/>
       <use xlink:href="#ArialMT-30" transform="translate(83.398438 0)"/>
      </g>
     </g>
    </g>
    <g id="xtick_2">
     <g id="line2d_3">
      <path d="M 343.296 307.584 
L 343.296 41.472 
" clip-path="url(#p02159db8db)" style="fill: none; stroke-dasharray: 0.5,0.825; stroke-dashoffset: 0; stroke: #b0b0b0; stroke-width: 0.5"/>
     </g>
     <g id="line2d_4">
      <g>
       <use xlink:href="#m7e6ba68549" x="343.296" y="307.584" style="stroke: #000000; stroke-width: 0.8"/>
      </g>
     </g>
     <g id="text_2">
      <!-- 0.2 -->
      <g transform="translate(336.346 321.741812) scale(0.1 -0.1)">
       <defs>
        <path id="ArialMT-32" d="M 3222 541 
L 3222 0 
L 194 0 
Q 188 203 259 391 
Q 375 700 629 1000 
Q 884 1300 1366 1694 
Q 2113 2306 2375 2664 
Q 2638 3022 2638 3341 
Q 2638 3675 2398 3904 
Q 2159 4134 1775 4134 
Q 1369 4134 1125 3890 
Q 881 3647 878 3216 
L 300 3275 
Q 359 3922 746 4261 
Q 1134 4600 1788 4600 
Q 2447 4600 2831 4234 
Q 3216 3869 3216 3328 
Q 3216 3053 3103 2787 
Q 2991 2522 2730 2228 
Q 2469 1934 1863 1422 
Q 1356 997 1212 845 
Q 1069 694 975 541 
L 3222 541 
z
" transform="scale(0.015625)"/>
       </defs>
       <use xlink:href="#ArialMT-30"/>
       <use xlink:href="#ArialMT-2e" transform="translate(55.615234 0)"/>
       <use xlink:href="#ArialMT-32" transform="translate(83.398438 0)"/>
      </g>
     </g>
    </g>
    <g id="xtick_3">
     <g id="line2d_5">
      <path d="M 271.872 307.584 
L 271.872 41.472 
" clip-path="url(#p02159db8db)" style="fill: none; stroke-dasharray: 0.5,0.825; stroke-dashoffset: 0; stroke: #b0b0b0; stroke-width: 0.5"/>
     </g>
     <g id="line2d_6">
      <g>
       <use xlink:href="#m7e6ba68549" x="271.872" y="307.584" style="stroke: #000000; stroke-width: 0.8"/>
      </g>
     </g>
     <g id="text_3">
      <!-- 0.4 -->
      <g transform="translate(264.922 321.741812) scale(0.1 -0.1)">
       <defs>
        <path id="ArialMT-34" d="M 2069 0 
L 2069 1097 
L 81 1097 
L 81 1613 
L 2172 4581 
L 2631 4581 
L 2631 1613 
L 3250 1613 
L 3250 1097 
L 2631 1097 
L 2631 0 
L 2069 0 
z
M 2069 1613 
L 2069 3678 
L 634 1613 
L 2069 1613 
z
" transform="scale(0.015625)"/>
       </defs>
       <use xlink:href="#ArialMT-30"/>
       <use xlink:href="#ArialMT-2e" transform="translate(55.615234 0)"/>
       <use xlink:href="#ArialMT-34" transform="translate(83.398438 0)"/>
      </g>
     </g>
    </g>
    <g id="xtick_4">
     <g id="line2d_7">
      <path d="M 200.448 307.584 
L 200.448 41.472 
" clip-path="url(#p02159db8db)" style="fill: none; stroke-dasharray: 0.5,0.825; stroke-dashoffset: 0; stroke: #b0b0b0; stroke-width: 0.5"/>
     </g>
     <g id="line2d_8">
      <g>
       <use xlink:href="#m7e6ba68549" x="200.448" y="307.584" style="stroke: #000000; stroke-width: 0.8"/>
      </g>
     </g>
     <g id="text_4">
      <!-- 0.6 -->
      <g transform="translate(193.498 321.741812) scale(0.1 -0.1)">
       <defs>
        <path id="ArialMT-36" d="M 3184 3459 
L 2625 3416 
Q 2550 3747 2413 3897 
Q 2184 4138 1850 4138 
Q 1581 4138 1378 3988 
Q 1113 3794 959 3422 
Q 806 3050 800 2363 
Q 1003 2672 1297 2822 
Q 1591 2972 1913 2972 
Q 2475 2972 2870 2558 
Q 3266 2144 3266 1488 
Q 3266 1056 3080 686 
Q 2894 316 2569 119 
Q 2244 -78 1831 -78 
Q 1128 -78 684 439 
Q 241 956 241 2144 
Q 241 3472 731 4075 
Q 1159 4600 1884 4600 
Q 2425 4600 2770 4297 
Q 3116 3994 3184 3459 
z
M 888 1484 
Q 888 1194 1011 928 
Q 1134 663 1356 523 
Q 1578 384 1822 384 
Q 2178 384 2434 671 
Q 2691 959 2691 1453 
Q 2691 1928 2437 2201 
Q 2184 2475 1800 2475 
Q 1419 2475 1153 2201 
Q 888 1928 888 1484 
z
" transform="scale(0.015625)"/>
       </defs>
       <use xlink:href="#ArialMT-30"/>
       <use xlink:href="#ArialMT-2e" transform="translate(55.615234 0)"/>
       <use xlink:href="#ArialMT-36" transform="translate(83.398438 0)"/>
      </g>
     </g>
    </g>
    <g id="xtick_5">
     <g id="line2d_9">
      <path d="M 129.024 307.584 
L 129.024 41.472 
" clip-path="url(#p02159db8db)" style="fill: none; stroke-dasharray: 0.5,0.825; stroke-dashoffset: 0; stroke: #b0b0b0; stroke-width: 0.5"/>
     </g>
     <g id="line2d_10">
      <g>
       <use xlink:href="#m7e6ba68549" x="129.024" y="307.584" style="stroke: #000000; stroke-width: 0.8"/>
      </g>
     </g>
     <g id="text_5">
      <!-- 0.8 -->
      <g transform="translate(122.074 321.741812) scale(0.1 -0.1)">
       <defs>
        <path id="ArialMT-38" d="M 1131 2484 
Q 781 2613 612 2850 
Q 444 3088 444 3419 
Q 444 3919 803 4259 
Q 1163 4600 1759 4600 
Q 2359 4600 2725 4251 
Q 3091 3903 3091 3403 
Q 3091 3084 2923 2848 
Q 2756 2613 2416 2484 
Q 2838 2347 3058 2040 
Q 3278 1734 3278 1309 
Q 3278 722 2862 322 
Q 2447 -78 1769 -78 
Q 1091 -78 675 323 
Q 259 725 259 1325 
Q 259 1772 486 2073 
Q 713 2375 1131 2484 
z
M 1019 3438 
Q 1019 3113 1228 2906 
Q 1438 2700 1772 2700 
Q 2097 2700 2305 2904 
Q 2513 3109 2513 3406 
Q 2513 3716 2298 3927 
Q 2084 4138 1766 4138 
Q 1444 4138 1231 3931 
Q 1019 3725 1019 3438 
z
M 838 1322 
Q 838 1081 952 856 
Q 1066 631 1291 507 
Q 1516 384 1775 384 
Q 2178 384 2440 643 
Q 2703 903 2703 1303 
Q 2703 1709 2433 1975 
Q 2163 2241 1756 2241 
Q 1359 2241 1098 1978 
Q 838 1716 838 1322 
z
" transform="scale(0.015625)"/>
       </defs>
       <use xlink:href="#ArialMT-30"/>
       <use xlink:href="#ArialMT-2e" transform="translate(55.615234 0)"/>
       <use xlink:href="#ArialMT-38" transform="translate(83.398438 0)"/>
      </g>
     </g>
    </g>
    <g id="xtick_6">
     <g id="line2d_11">
      <path d="M 57.6 307.584 
L 57.6 41.472 
" clip-path="url(#p02159db8db)" style="fill: none; stroke-dasharray: 0.5,0.825; stroke-dashoffset: 0; stroke: #b0b0b0; stroke-width: 0.5"/>
     </g>
     <g id="line2d_12">
      <g>
       <use xlink:href="#m7e6ba68549" x="57.6" y="307.584" style="stroke: #000000; stroke-width: 0.8"/>
      </g>
     </g>
     <g id="text_6">
      <!-- 1.0 -->
      <g transform="translate(50.65 321.741812) scale(0.1 -0.1)">
       <defs>
        <path id="ArialMT-31" d="M 2384 0 
L 1822 0 
L 1822 3584 
Q 1619 3391 1289 3197 
Q 959 3003 697 2906 
L 697 3450 
Q 1169 3672 1522 3987 
Q 1875 4303 2022 4600 
L 2384 4600 
L 2384 0 
z
" transform="scale(0.015625)"/>
       </defs>
       <use xlink:href="#ArialMT-31"/>
       <use xlink:href="#ArialMT-2e" transform="translate(55.615234 0)"/>
       <use xlink:href="#ArialMT-30" transform="translate(83.398438 0)"/>
      </g>
     </g>
    </g>
    <g id="xtick_7">
     <g id="line2d_13">
      <defs>
       <path id="m406cb64b86" d="M 0 0 
L 0 2 
" style="stroke: #000000; stroke-width: 0.6"/>
      </defs>
      <g>
       <use xlink:href="#m406cb64b86" x="396.864" y="307.584" style="stroke: #000000; stroke-width: 0.6"/>
      </g>
     </g>
    </g>
    <g id="xtick_8">
     <g id="line2d_14">
      <g>
       <use xlink:href="#m406cb64b86" x="379.008" y="307.584" style="stroke: #000000; stroke-width: 0.6"/>
      </g>
     </g>
    </g>
    <g id="xtick_9">
     <g id="line2d_15">
      <g>
       <use xlink:href="#m406cb64b86" x="361.152" y="307.584" style="stroke: #000000; stroke-width: 0.6"/>
      </g>
     </g>
    </g>
    <g id="xtick_10">
     <g id="line2d_16">
      <g>
       <use xlink:href="#m406cb64b86" x="325.44" y="307.584" style="stroke: #000000; stroke-width: 0.6"/>
      </g>
     </g>
    </g>
    <g id="xtick_11">
     <g id="line2d_17">
      <g>
       <use xlink:href="#m406cb64b86" x="307.584" y="307.584" style="stroke: #000000; stroke-width: 0.6"/>
      </g>
     </g>
    </g>
    <g id="xtick_12">
     <g id="line2d_18">
      <g>
       <use xlink:href="#m406cb64b86" x="289.728" y="307.584" style="stroke: #000000; stroke-width: 0.6"/>
      </g>
     </g>
    </g>
    <g id="xtick_13">
     <g id="line2d_19">
      <g>
       <use xlink:href="#m406cb64b86" x="254.016" y="307.584" style="stroke: #000000; stroke-width: 0.6"/>
      </g>
     </g>
    </g>
    <g id="xtick_14">
     <g id="line2d_20">
      <g>
       <use xlink:href="#m406cb64b86" x="236.16" y="307.584" style="stroke: #000000; stroke-width: 0.6"/>
      </g>
     </g>
    </g>
    <g id="xtick_15">
     <g id="line2d_21">
      <g>
       <use xlink:href="#m406cb64b86" x="218.304" y="307.584" style="stroke: #000000; stroke-width: 0.6"/>
      </g>
     </g>
    </g>
    <g id="xtick_16">
     <g id="line2d_22">
      <g>
       <use xlink:href="#m406cb64b86" x="182.592" y="307.584" style="stroke: #000000; stroke-width: 0.6"/>
      </g>
     </g>
    </g>
    <g id="xtick_17">
     <g id="line2d_23">
      <g>
       <use xlink:href="#m406cb64b86" x="164.736" y="307.584" style="stroke: #000000; stroke-width: 0.6"/>
      </g>
     </g>
    </g>
    <g id="xtick_18">
     <g id="line2d_24">
      <g>
       <use xlink:href="#m406cb64b86" x="146.88" y="307.584" style="stroke: #000000; stroke-width: 0.6"/>
      </g>
     </g>
    </g>
    <g id="xtick_19">
     <g id="line2d_25">
      <g>
       <use xlink:href="#m406cb64b86" x="111.168" y="307.584" style="stroke: #000000; stroke-width: 0.6"/>
      </g>
     </g>
    </g>
    <g id="xtick_20">
     <g id="line2d_26">
      <g>
       <use xlink:href="#m406cb64b86" x="93.312" y="307.584" style="stroke: #000000; stroke-width: 0.6"/>
      </g>
     </g>
    </g>
    <g id="xtick_21">
     <g id="line2d_27">
      <g>
       <use xlink:href="#m406cb64b86" x="75.456" y="307.584" style="stroke: #000000; stroke-width: 0.6"/>
      </g>
     </g>
    </g>
    <g id="text_7">
     <!-- Pile length to soil thickness ratio -->
     <g transform="translate(165.01625 334.887125) scale(0.1 -0.1)">
      <defs>
       <path id="ArialMT-50" d="M 494 0 
L 494 4581 
L 2222 4581 
Q 2678 4581 2919 4538 
Q 3256 4481 3484 4323 
Q 3713 4166 3852 3881 
Q 3991 3597 3991 3256 
Q 3991 2672 3619 2267 
Q 3247 1863 2275 1863 
L 1100 1863 
L 1100 0 
L 494 0 
z
M 1100 2403 
L 2284 2403 
Q 2872 2403 3119 2622 
Q 3366 2841 3366 3238 
Q 3366 3525 3220 3729 
Q 3075 3934 2838 4000 
Q 2684 4041 2272 4041 
L 1100 4041 
L 1100 2403 
z
" transform="scale(0.015625)"/>
       <path id="ArialMT-69" d="M 425 3934 
L 425 4581 
L 988 4581 
L 988 3934 
L 425 3934 
z
M 425 0 
L 425 3319 
L 988 3319 
L 988 0 
L 425 0 
z
" transform="scale(0.015625)"/>
       <path id="ArialMT-6c" d="M 409 0 
L 409 4581 
L 972 4581 
L 972 0 
L 409 0 
z
" transform="scale(0.015625)"/>
       <path id="ArialMT-65" d="M 2694 1069 
L 3275 997 
Q 3138 488 2766 206 
Q 2394 -75 1816 -75 
Q 1088 -75 661 373 
Q 234 822 234 1631 
Q 234 2469 665 2931 
Q 1097 3394 1784 3394 
Q 2450 3394 2872 2941 
Q 3294 2488 3294 1666 
Q 3294 1616 3291 1516 
L 816 1516 
Q 847 969 1125 678 
Q 1403 388 1819 388 
Q 2128 388 2347 550 
Q 2566 713 2694 1069 
z
M 847 1978 
L 2700 1978 
Q 2663 2397 2488 2606 
Q 2219 2931 1791 2931 
Q 1403 2931 1139 2672 
Q 875 2413 847 1978 
z
" transform="scale(0.015625)"/>
       <path id="ArialMT-20" transform="scale(0.015625)"/>
       <path id="ArialMT-6e" d="M 422 0 
L 422 3319 
L 928 3319 
L 928 2847 
Q 1294 3394 1984 3394 
Q 2284 3394 2536 3286 
Q 2788 3178 2913 3003 
Q 3038 2828 3088 2588 
Q 3119 2431 3119 2041 
L 3119 0 
L 2556 0 
L 2556 2019 
Q 2556 2363 2490 2533 
Q 2425 2703 2258 2804 
Q 2091 2906 1866 2906 
Q 1506 2906 1245 2678 
Q 984 2450 984 1813 
L 984 0 
L 422 0 
z
" transform="scale(0.015625)"/>
       <path id="ArialMT-67" d="M 319 -275 
L 866 -356 
Q 900 -609 1056 -725 
Q 1266 -881 1628 -881 
Q 2019 -881 2231 -725 
Q 2444 -569 2519 -288 
Q 2563 -116 2559 434 
Q 2191 0 1641 0 
Q 956 0 581 494 
Q 206 988 206 1678 
Q 206 2153 378 2554 
Q 550 2956 876 3175 
Q 1203 3394 1644 3394 
Q 2231 3394 2613 2919 
L 2613 3319 
L 3131 3319 
L 3131 450 
Q 3131 -325 2973 -648 
Q 2816 -972 2473 -1159 
Q 2131 -1347 1631 -1347 
Q 1038 -1347 672 -1080 
Q 306 -813 319 -275 
z
M 784 1719 
Q 784 1066 1043 766 
Q 1303 466 1694 466 
Q 2081 466 2343 764 
Q 2606 1063 2606 1700 
Q 2606 2309 2336 2618 
Q 2066 2928 1684 2928 
Q 1309 2928 1046 2623 
Q 784 2319 784 1719 
z
" transform="scale(0.015625)"/>
       <path id="ArialMT-74" d="M 1650 503 
L 1731 6 
Q 1494 -44 1306 -44 
Q 1000 -44 831 53 
Q 663 150 594 308 
Q 525 466 525 972 
L 525 2881 
L 113 2881 
L 113 3319 
L 525 3319 
L 525 4141 
L 1084 4478 
L 1084 3319 
L 1650 3319 
L 1650 2881 
L 1084 2881 
L 1084 941 
Q 1084 700 1114 631 
Q 1144 563 1211 522 
Q 1278 481 1403 481 
Q 1497 481 1650 503 
z
" transform="scale(0.015625)"/>
       <path id="ArialMT-68" d="M 422 0 
L 422 4581 
L 984 4581 
L 984 2938 
Q 1378 3394 1978 3394 
Q 2347 3394 2619 3248 
Q 2891 3103 3008 2847 
Q 3125 2591 3125 2103 
L 3125 0 
L 2563 0 
L 2563 2103 
Q 2563 2525 2380 2717 
Q 2197 2909 1863 2909 
Q 1613 2909 1392 2779 
Q 1172 2650 1078 2428 
Q 984 2206 984 1816 
L 984 0 
L 422 0 
z
" transform="scale(0.015625)"/>
       <path id="ArialMT-6f" d="M 213 1659 
Q 213 2581 725 3025 
Q 1153 3394 1769 3394 
Q 2453 3394 2887 2945 
Q 3322 2497 3322 1706 
Q 3322 1066 3130 698 
Q 2938 331 2570 128 
Q 2203 -75 1769 -75 
Q 1072 -75 642 372 
Q 213 819 213 1659 
z
M 791 1659 
Q 791 1022 1069 705 
Q 1347 388 1769 388 
Q 2188 388 2466 706 
Q 2744 1025 2744 1678 
Q 2744 2294 2464 2611 
Q 2184 2928 1769 2928 
Q 1347 2928 1069 2612 
Q 791 2297 791 1659 
z
" transform="scale(0.015625)"/>
       <path id="ArialMT-73" d="M 197 991 
L 753 1078 
Q 800 744 1014 566 
Q 1228 388 1613 388 
Q 2000 388 2187 545 
Q 2375 703 2375 916 
Q 2375 1106 2209 1216 
Q 2094 1291 1634 1406 
Q 1016 1563 777 1677 
Q 538 1791 414 1992 
Q 291 2194 291 2438 
Q 291 2659 392 2848 
Q 494 3038 669 3163 
Q 800 3259 1026 3326 
Q 1253 3394 1513 3394 
Q 1903 3394 2198 3281 
Q 2494 3169 2634 2976 
Q 2775 2784 2828 2463 
L 2278 2388 
Q 2241 2644 2061 2787 
Q 1881 2931 1553 2931 
Q 1166 2931 1000 2803 
Q 834 2675 834 2503 
Q 834 2394 903 2306 
Q 972 2216 1119 2156 
Q 1203 2125 1616 2013 
Q 2213 1853 2448 1751 
Q 2684 1650 2818 1456 
Q 2953 1263 2953 975 
Q 2953 694 2789 445 
Q 2625 197 2315 61 
Q 2006 -75 1616 -75 
Q 969 -75 630 194 
Q 291 463 197 991 
z
" transform="scale(0.015625)"/>
       <path id="ArialMT-63" d="M 2588 1216 
L 3141 1144 
Q 3050 572 2676 248 
Q 2303 -75 1759 -75 
Q 1078 -75 664 370 
Q 250 816 250 1647 
Q 250 2184 428 2587 
Q 606 2991 970 3192 
Q 1334 3394 1763 3394 
Q 2303 3394 2647 3120 
Q 2991 2847 3088 2344 
L 2541 2259 
Q 2463 2594 2264 2762 
Q 2066 2931 1784 2931 
Q 1359 2931 1093 2626 
Q 828 2322 828 1663 
Q 828 994 1084 691 
Q 1341 388 1753 388 
Q 2084 388 2306 591 
Q 2528 794 2588 1216 
z
" transform="scale(0.015625)"/>
       <path id="ArialMT-6b" d="M 425 0 
L 425 4581 
L 988 4581 
L 988 1969 
L 2319 3319 
L 3047 3319 
L 1778 2088 
L 3175 0 
L 2481 0 
L 1384 1697 
L 988 1316 
L 988 0 
L 425 0 
z
" transform="scale(0.015625)"/>
       <path id="ArialMT-72" d="M 416 0 
L 416 3319 
L 922 3319 
L 922 2816 
Q 1116 3169 1280 3281 
Q 1444 3394 1641 3394 
Q 1925 3394 2219 3213 
L 2025 2691 
Q 1819 2813 1613 2813 
Q 1428 2813 1281 2702 
Q 1134 2591 1072 2394 
Q 978 2094 978 1738 
L 978 0 
L 416 0 
z
" transform="scale(0.015625)"/>
       <path id="ArialMT-61" d="M 2588 409 
Q 2275 144 1986 34 
Q 1697 -75 1366 -75 
Q 819 -75 525 192 
Q 231 459 231 875 
Q 231 1119 342 1320 
Q 453 1522 633 1644 
Q 813 1766 1038 1828 
Q 1203 1872 1538 1913 
Q 2219 1994 2541 2106 
Q 2544 2222 2544 2253 
Q 2544 2597 2384 2738 
Q 2169 2928 1744 2928 
Q 1347 2928 1158 2789 
Q 969 2650 878 2297 
L 328 2372 
Q 403 2725 575 2942 
Q 747 3159 1072 3276 
Q 1397 3394 1825 3394 
Q 2250 3394 2515 3294 
Q 2781 3194 2906 3042 
Q 3031 2891 3081 2659 
Q 3109 2516 3109 2141 
L 3109 1391 
Q 3109 606 3145 398 
Q 3181 191 3288 0 
L 2700 0 
Q 2613 175 2588 409 
z
M 2541 1666 
Q 2234 1541 1622 1453 
Q 1275 1403 1131 1340 
Q 988 1278 909 1158 
Q 831 1038 831 891 
Q 831 666 1001 516 
Q 1172 366 1500 366 
Q 1825 366 2078 508 
Q 2331 650 2450 897 
Q 2541 1088 2541 1459 
L 2541 1666 
z
" transform="scale(0.015625)"/>
      </defs>
      <use xlink:href="#ArialMT-50"/>
      <use xlink:href="#ArialMT-69" transform="translate(66.699219 0)"/>
      <use xlink:href="#ArialMT-6c" transform="translate(88.916016 0)"/>
      <use xlink:href="#ArialMT-65" transform="translate(111.132812 0)"/>
      <use xlink:href="#ArialMT-20" transform="translate(166.748047 0)"/>
      <use xlink:href="#ArialMT-6c" transform="translate(194.53125 0)"/>
      <use xlink:href="#ArialMT-65" transform="translate(216.748047 0)"/>
      <use xlink:href="#ArialMT-6e" transform="translate(272.363281 0)"/>
      <use xlink:href="#ArialMT-67" transform="translate(327.978516 0)"/>
      <use xlink:href="#ArialMT-74" transform="translate(383.59375 0)"/>
      <use xlink:href="#ArialMT-68" transform="translate(411.376953 0)"/>
      <use xlink:href="#ArialMT-20" transform="translate(466.992188 0)"/>
      <use xlink:href="#ArialMT-74" transform="translate(494.775391 0)"/>
      <use xlink:href="#ArialMT-6f" transform="translate(522.558594 0)"/>
      <use xlink:href="#ArialMT-20" transform="translate(578.173828 0)"/>
      <use xlink:href="#ArialMT-73" transform="translate(605.957031 0)"/>
      <use xlink:href="#ArialMT-6f" transform="translate(655.957031 0)"/>
      <use xlink:href="#ArialMT-69" transform="translate(711.572266 0)"/>
      <use xlink:href="#ArialMT-6c" transform="translate(733.789062 0)"/>
      <use xlink:href="#ArialMT-20" transform="translate(756.005859 0)"/>
      <use xlink:href="#ArialMT-74" transform="translate(783.789062 0)"/>
      <use xlink:href="#ArialMT-68" transform="translate(811.572266 0)"/>
      <use xlink:href="#ArialMT-69" transform="translate(867.1875 0)"/>
      <use xlink:href="#ArialMT-63" transform="translate(889.404297 0)"/>
      <use xlink:href="#ArialMT-6b" transform="translate(939.404297 0)"/>
      <use xlink:href="#ArialMT-6e" transform="translate(989.404297 0)"/>
      <use xlink:href="#ArialMT-65" transform="translate(1045.019531 0)"/>
      <use xlink:href="#ArialMT-73" transform="translate(1100.634766 0)"/>
      <use xlink:href="#ArialMT-73" transform="translate(1150.634766 0)"/>
      <use xlink:href="#ArialMT-20" transform="translate(1200.634766 0)"/>
      <use xlink:href="#ArialMT-72" transform="translate(1228.417969 0)"/>
      <use xlink:href="#ArialMT-61" transform="translate(1261.71875 0)"/>
      <use xlink:href="#ArialMT-74" transform="translate(1317.333984 0)"/>
      <use xlink:href="#ArialMT-69" transform="translate(1345.117188 0)"/>
      <use xlink:href="#ArialMT-6f" transform="translate(1367.333984 0)"/>
     </g>
    </g>
   </g>
   <g id="matplotlib.axis_2">
    <g id="ytick_1">
     <g id="line2d_28">
      <path d="M 57.6 307.584 
L 414.72 307.584 
" clip-path="url(#p02159db8db)" style="fill: none; stroke-dasharray: 0.5,0.825; stroke-dashoffset: 0; stroke: #b0b0b0; stroke-width: 0.5"/>
     </g>
     <g id="line2d_29">
      <defs>
       <path id="m40f126912b" d="M 0 0 
L -3.5 0 
" style="stroke: #000000; stroke-width: 0.8"/>
      </defs>
      <g>
       <use xlink:href="#m40f126912b" x="57.6" y="307.584" style="stroke: #000000; stroke-width: 0.8"/>
      </g>
     </g>
     <g id="text_8">
      <!-- 0.0 -->
      <g transform="translate(36.7 311.162906) scale(0.1 -0.1)">
       <use xlink:href="#ArialMT-30"/>
       <use xlink:href="#ArialMT-2e" transform="translate(55.615234 0)"/>
       <use xlink:href="#ArialMT-30" transform="translate(83.398438 0)"/>
      </g>
     </g>
    </g>
    <g id="ytick_2">
     <g id="line2d_30">
      <path d="M 57.6 254.3616 
L 414.72 254.3616 
" clip-path="url(#p02159db8db)" style="fill: none; stroke-dasharray: 0.5,0.825; stroke-dashoffset: 0; stroke: #b0b0b0; stroke-width: 0.5"/>
     </g>
     <g id="line2d_31">
      <g>
       <use xlink:href="#m40f126912b" x="57.6" y="254.3616" style="stroke: #000000; stroke-width: 0.8"/>
      </g>
     </g>
     <g id="text_9">
      <!-- 0.2 -->
      <g transform="translate(36.7 257.940506) scale(0.1 -0.1)">
       <use xlink:href="#ArialMT-30"/>
       <use xlink:href="#ArialMT-2e" transform="translate(55.615234 0)"/>
       <use xlink:href="#ArialMT-32" transform="translate(83.398438 0)"/>
      </g>
     </g>
    </g>
    <g id="ytick_3">
     <g id="line2d_32">
      <path d="M 57.6 201.1392 
L 414.72 201.1392 
" clip-path="url(#p02159db8db)" style="fill: none; stroke-dasharray: 0.5,0.825; stroke-dashoffset: 0; stroke: #b0b0b0; stroke-width: 0.5"/>
     </g>
     <g id="line2d_33">
      <g>
       <use xlink:href="#m40f126912b" x="57.6" y="201.1392" style="stroke: #000000; stroke-width: 0.8"/>
      </g>
     </g>
     <g id="text_10">
      <!-- 0.4 -->
      <g transform="translate(36.7 204.718106) scale(0.1 -0.1)">
       <use xlink:href="#ArialMT-30"/>
       <use xlink:href="#ArialMT-2e" transform="translate(55.615234 0)"/>
       <use xlink:href="#ArialMT-34" transform="translate(83.398438 0)"/>
      </g>
     </g>
    </g>
    <g id="ytick_4">
     <g id="line2d_34">
      <path d="M 57.6 147.9168 
L 414.72 147.9168 
" clip-path="url(#p02159db8db)" style="fill: none; stroke-dasharray: 0.5,0.825; stroke-dashoffset: 0; stroke: #b0b0b0; stroke-width: 0.5"/>
     </g>
     <g id="line2d_35">
      <g>
       <use xlink:href="#m40f126912b" x="57.6" y="147.9168" style="stroke: #000000; stroke-width: 0.8"/>
      </g>
     </g>
     <g id="text_11">
      <!-- 0.6 -->
      <g transform="translate(36.7 151.495706) scale(0.1 -0.1)">
       <use xlink:href="#ArialMT-30"/>
       <use xlink:href="#ArialMT-2e" transform="translate(55.615234 0)"/>
       <use xlink:href="#ArialMT-36" transform="translate(83.398438 0)"/>
      </g>
     </g>
    </g>
    <g id="ytick_5">
     <g id="line2d_36">
      <path d="M 57.6 94.6944 
L 414.72 94.6944 
" clip-path="url(#p02159db8db)" style="fill: none; stroke-dasharray: 0.5,0.825; stroke-dashoffset: 0; stroke: #b0b0b0; stroke-width: 0.5"/>
     </g>
     <g id="line2d_37">
      <g>
       <use xlink:href="#m40f126912b" x="57.6" y="94.6944" style="stroke: #000000; stroke-width: 0.8"/>
      </g>
     </g>
     <g id="text_12">
      <!-- 0.8 -->
      <g transform="translate(36.7 98.273306) scale(0.1 -0.1)">
       <use xlink:href="#ArialMT-30"/>
       <use xlink:href="#ArialMT-2e" transform="translate(55.615234 0)"/>
       <use xlink:href="#ArialMT-38" transform="translate(83.398438 0)"/>
      </g>
     </g>
    </g>
    <g id="ytick_6">
     <g id="line2d_38">
      <path d="M 57.6 41.472 
L 414.72 41.472 
" clip-path="url(#p02159db8db)" style="fill: none; stroke-dasharray: 0.5,0.825; stroke-dashoffset: 0; stroke: #b0b0b0; stroke-width: 0.5"/>
     </g>
     <g id="line2d_39">
      <g>
       <use xlink:href="#m40f126912b" x="57.6" y="41.472" style="stroke: #000000; stroke-width: 0.8"/>
      </g>
     </g>
     <g id="text_13">
      <!-- 1.0 -->
      <g transform="translate(36.7 45.050906) scale(0.1 -0.1)">
       <use xlink:href="#ArialMT-31"/>
       <use xlink:href="#ArialMT-2e" transform="translate(55.615234 0)"/>
       <use xlink:href="#ArialMT-30" transform="translate(83.398438 0)"/>
      </g>
     </g>
    </g>
    <g id="ytick_7">
     <g id="line2d_40">
      <defs>
       <path id="m0b03d0dffc" d="M 0 0 
L -2 0 
" style="stroke: #000000; stroke-width: 0.6"/>
      </defs>
      <g>
       <use xlink:href="#m0b03d0dffc" x="57.6" y="294.2784" style="stroke: #000000; stroke-width: 0.6"/>
      </g>
     </g>
    </g>
    <g id="ytick_8">
     <g id="line2d_41">
      <g>
       <use xlink:href="#m0b03d0dffc" x="57.6" y="280.9728" style="stroke: #000000; stroke-width: 0.6"/>
      </g>
     </g>
    </g>
    <g id="ytick_9">
     <g id="line2d_42">
      <g>
       <use xlink:href="#m0b03d0dffc" x="57.6" y="267.6672" style="stroke: #000000; stroke-width: 0.6"/>
      </g>
     </g>
    </g>
    <g id="ytick_10">
     <g id="line2d_43">
      <g>
       <use xlink:href="#m0b03d0dffc" x="57.6" y="241.056" style="stroke: #000000; stroke-width: 0.6"/>
      </g>
     </g>
    </g>
    <g id="ytick_11">
     <g id="line2d_44">
      <g>
       <use xlink:href="#m0b03d0dffc" x="57.6" y="227.7504" style="stroke: #000000; stroke-width: 0.6"/>
      </g>
     </g>
    </g>
    <g id="ytick_12">
     <g id="line2d_45">
      <g>
       <use xlink:href="#m0b03d0dffc" x="57.6" y="214.4448" style="stroke: #000000; stroke-width: 0.6"/>
      </g>
     </g>
    </g>
    <g id="ytick_13">
     <g id="line2d_46">
      <g>
       <use xlink:href="#m0b03d0dffc" x="57.6" y="187.8336" style="stroke: #000000; stroke-width: 0.6"/>
      </g>
     </g>
    </g>
    <g id="ytick_14">
     <g id="line2d_47">
      <g>
       <use xlink:href="#m0b03d0dffc" x="57.6" y="174.528" style="stroke: #000000; stroke-width: 0.6"/>
      </g>
     </g>
    </g>
    <g id="ytick_15">
     <g id="line2d_48">
      <g>
       <use xlink:href="#m0b03d0dffc" x="57.6" y="161.2224" style="stroke: #000000; stroke-width: 0.6"/>
      </g>
     </g>
    </g>
    <g id="ytick_16">
     <g id="line2d_49">
      <g>
       <use xlink:href="#m0b03d0dffc" x="57.6" y="134.6112" style="stroke: #000000; stroke-width: 0.6"/>
      </g>
     </g>
    </g>
    <g id="ytick_17">
     <g id="line2d_50">
      <g>
       <use xlink:href="#m0b03d0dffc" x="57.6" y="121.3056" style="stroke: #000000; stroke-width: 0.6"/>
      </g>
     </g>
    </g>
    <g id="ytick_18">
     <g id="line2d_51">
      <g>
       <use xlink:href="#m0b03d0dffc" x="57.6" y="108" style="stroke: #000000; stroke-width: 0.6"/>
      </g>
     </g>
    </g>
    <g id="ytick_19">
     <g id="line2d_52">
      <g>
       <use xlink:href="#m0b03d0dffc" x="57.6" y="81.3888" style="stroke: #000000; stroke-width: 0.6"/>
      </g>
     </g>
    </g>
    <g id="ytick_20">
     <g id="line2d_53">
      <g>
       <use xlink:href="#m0b03d0dffc" x="57.6" y="68.0832" style="stroke: #000000; stroke-width: 0.6"/>
      </g>
     </g>
    </g>
    <g id="ytick_21">
     <g id="line2d_54">
      <g>
       <use xlink:href="#m0b03d0dffc" x="57.6" y="54.7776" style="stroke: #000000; stroke-width: 0.6"/>
      </g>
     </g>
    </g>
    <g id="text_14">
     <!-- Pile settlement correction for depth -->
     <g transform="translate(30.7125 251.783469) rotate(-90) scale(0.1 -0.1)">
      <defs>
       <path id="ArialMT-6d" d="M 422 0 
L 422 3319 
L 925 3319 
L 925 2853 
Q 1081 3097 1340 3245 
Q 1600 3394 1931 3394 
Q 2300 3394 2536 3241 
Q 2772 3088 2869 2813 
Q 3263 3394 3894 3394 
Q 4388 3394 4653 3120 
Q 4919 2847 4919 2278 
L 4919 0 
L 4359 0 
L 4359 2091 
Q 4359 2428 4304 2576 
Q 4250 2725 4106 2815 
Q 3963 2906 3769 2906 
Q 3419 2906 3187 2673 
Q 2956 2441 2956 1928 
L 2956 0 
L 2394 0 
L 2394 2156 
Q 2394 2531 2256 2718 
Q 2119 2906 1806 2906 
Q 1569 2906 1367 2781 
Q 1166 2656 1075 2415 
Q 984 2175 984 1722 
L 984 0 
L 422 0 
z
" transform="scale(0.015625)"/>
       <path id="ArialMT-66" d="M 556 0 
L 556 2881 
L 59 2881 
L 59 3319 
L 556 3319 
L 556 3672 
Q 556 4006 616 4169 
Q 697 4388 901 4523 
Q 1106 4659 1475 4659 
Q 1713 4659 2000 4603 
L 1916 4113 
Q 1741 4144 1584 4144 
Q 1328 4144 1222 4034 
Q 1116 3925 1116 3625 
L 1116 3319 
L 1763 3319 
L 1763 2881 
L 1116 2881 
L 1116 0 
L 556 0 
z
" transform="scale(0.015625)"/>
       <path id="ArialMT-64" d="M 2575 0 
L 2575 419 
Q 2259 -75 1647 -75 
Q 1250 -75 917 144 
Q 584 363 401 755 
Q 219 1147 219 1656 
Q 219 2153 384 2558 
Q 550 2963 881 3178 
Q 1213 3394 1622 3394 
Q 1922 3394 2156 3267 
Q 2391 3141 2538 2938 
L 2538 4581 
L 3097 4581 
L 3097 0 
L 2575 0 
z
M 797 1656 
Q 797 1019 1065 703 
Q 1334 388 1700 388 
Q 2069 388 2326 689 
Q 2584 991 2584 1609 
Q 2584 2291 2321 2609 
Q 2059 2928 1675 2928 
Q 1300 2928 1048 2622 
Q 797 2316 797 1656 
z
" transform="scale(0.015625)"/>
       <path id="ArialMT-70" d="M 422 -1272 
L 422 3319 
L 934 3319 
L 934 2888 
Q 1116 3141 1344 3267 
Q 1572 3394 1897 3394 
Q 2322 3394 2647 3175 
Q 2972 2956 3137 2557 
Q 3303 2159 3303 1684 
Q 3303 1175 3120 767 
Q 2938 359 2589 142 
Q 2241 -75 1856 -75 
Q 1575 -75 1351 44 
Q 1128 163 984 344 
L 984 -1272 
L 422 -1272 
z
M 931 1641 
Q 931 1000 1190 694 
Q 1450 388 1819 388 
Q 2194 388 2461 705 
Q 2728 1022 2728 1688 
Q 2728 2322 2467 2637 
Q 2206 2953 1844 2953 
Q 1484 2953 1207 2617 
Q 931 2281 931 1641 
z
" transform="scale(0.015625)"/>
      </defs>
      <use xlink:href="#ArialMT-50"/>
      <use xlink:href="#ArialMT-69" transform="translate(66.699219 0)"/>
      <use xlink:href="#ArialMT-6c" transform="translate(88.916016 0)"/>
      <use xlink:href="#ArialMT-65" transform="translate(111.132812 0)"/>
      <use xlink:href="#ArialMT-20" transform="translate(166.748047 0)"/>
      <use xlink:href="#ArialMT-73" transform="translate(194.53125 0)"/>
      <use xlink:href="#ArialMT-65" transform="translate(244.53125 0)"/>
      <use xlink:href="#ArialMT-74" transform="translate(300.146484 0)"/>
      <use xlink:href="#ArialMT-74" transform="translate(327.929688 0)"/>
      <use xlink:href="#ArialMT-6c" transform="translate(355.712891 0)"/>
      <use xlink:href="#ArialMT-65" transform="translate(377.929688 0)"/>
      <use xlink:href="#ArialMT-6d" transform="translate(433.544922 0)"/>
      <use xlink:href="#ArialMT-65" transform="translate(516.845703 0)"/>
      <use xlink:href="#ArialMT-6e" transform="translate(572.460938 0)"/>
      <use xlink:href="#ArialMT-74" transform="translate(628.076172 0)"/>
      <use xlink:href="#ArialMT-20" transform="translate(655.859375 0)"/>
      <use xlink:href="#ArialMT-63" transform="translate(683.642578 0)"/>
      <use xlink:href="#ArialMT-6f" transform="translate(733.642578 0)"/>
      <use xlink:href="#ArialMT-72" transform="translate(789.257812 0)"/>
      <use xlink:href="#ArialMT-72" transform="translate(822.558594 0)"/>
      <use xlink:href="#ArialMT-65" transform="translate(855.859375 0)"/>
      <use xlink:href="#ArialMT-63" transform="translate(911.474609 0)"/>
      <use xlink:href="#ArialMT-74" transform="translate(961.474609 0)"/>
      <use xlink:href="#ArialMT-69" transform="translate(989.257812 0)"/>
      <use xlink:href="#ArialMT-6f" transform="translate(1011.474609 0)"/>
      <use xlink:href="#ArialMT-6e" transform="translate(1067.089844 0)"/>
      <use xlink:href="#ArialMT-20" transform="translate(1122.705078 0)"/>
      <use xlink:href="#ArialMT-66" transform="translate(1150.488281 0)"/>
      <use xlink:href="#ArialMT-6f" transform="translate(1178.271484 0)"/>
      <use xlink:href="#ArialMT-72" transform="translate(1233.886719 0)"/>
      <use xlink:href="#ArialMT-20" transform="translate(1267.1875 0)"/>
      <use xlink:href="#ArialMT-64" transform="translate(1294.970703 0)"/>
      <use xlink:href="#ArialMT-65" transform="translate(1350.585938 0)"/>
      <use xlink:href="#ArialMT-70" transform="translate(1406.201172 0)"/>
      <use xlink:href="#ArialMT-74" transform="translate(1461.816406 0)"/>
      <use xlink:href="#ArialMT-68" transform="translate(1489.599609 0)"/>
     </g>
    </g>
   </g>
   <g id="line2d_55">
    <path d="M 57.6 307.584 
L 64.7424 306.093773 
L 71.8848 304.603546 
L 79.0272 302.793984 
L 86.1696 300.9312 
L 93.312 298.749082 
L 100.4544 296.407296 
L 107.5968 293.772787 
L 114.7392 290.765722 
L 121.8816 287.492544 
L 129.024 283.820198 
L 136.1664 279.615629 
L 143.3088 274.905446 
L 150.4512 269.716262 
L 157.5936 264.048077 
L 164.736 257.847667 
L 171.8784 251.168256 
L 179.0208 244.275955 
L 186.1632 237.117542 
L 193.3056 230.172019 
L 200.448 223.386163 
L 207.5904 216.786586 
L 214.7328 210.426509 
L 221.8752 204.25271 
L 229.0176 198.318413 
L 236.16 192.969562 
L 243.3024 186.556262 
L 250.4448 180.06313 
L 257.5872 173.543386 
L 264.7296 167.023642 
L 271.872 160.503898 
L 279.0144 153.984154 
L 286.1568 147.491021 
L 293.2992 140.971277 
L 300.4416 134.424922 
L 307.584 127.905178 
L 314.7264 121.412045 
L 321.8688 114.599578 
L 329.0112 108.079834 
L 336.1536 101.56009 
L 343.296 95.066957 
L 350.4384 88.70688 
L 357.5808 82.479859 
L 364.7232 76.465728 
L 371.8656 70.691098 
L 379.008 65.182579 
L 386.1504 59.966784 
L 393.2928 55.043712 
L 400.4352 50.413363 
L 407.5776 45.942682 
L 414.72 41.472 
" clip-path="url(#p02159db8db)" style="fill: none; stroke: #dcdcdc; stroke-width: 1.5; stroke-linecap: square"/>
   </g>
   <g id="line2d_56">
    <path d="M 57.6 307.584 
L 64.7424 302.501261 
L 71.8848 297.471744 
L 79.0272 292.309171 
L 86.1696 286.880486 
L 93.312 281.265523 
L 100.4544 275.464282 
L 107.5968 269.503373 
L 114.7392 263.382797 
L 121.8816 257.075942 
L 129.024 250.529587 
L 136.1664 243.770342 
L 143.3088 236.771597 
L 150.4512 229.559962 
L 157.5936 222.028992 
L 164.736 214.178688 
L 171.8784 206.514662 
L 179.0208 198.451469 
L 186.1632 190.521331 
L 193.3056 182.271859 
L 200.448 174.155443 
L 207.5904 166.730918 
L 214.7328 160.211174 
L 221.8752 155.128435 
L 229.0176 151.056922 
L 236.16 147.757133 
L 243.3024 142.621171 
L 250.4448 137.565043 
L 257.5872 132.482304 
L 264.7296 127.479398 
L 271.872 122.529715 
L 279.0144 117.659866 
L 286.1568 112.86985 
L 293.2992 108.133056 
L 300.4416 103.476096 
L 307.584 98.845747 
L 314.7264 94.295232 
L 321.8688 89.930995 
L 329.0112 85.699814 
L 336.1536 81.575078 
L 343.296 77.423731 
L 350.4384 73.325606 
L 357.5808 69.307315 
L 364.7232 65.342246 
L 371.8656 61.483622 
L 379.008 57.731443 
L 386.1504 54.138931 
L 393.2928 50.732698 
L 400.4352 47.45952 
L 407.5776 44.34601 
L 414.72 41.472 
" clip-path="url(#p02159db8db)" style="fill: none; stroke: #d3d3d3; stroke-width: 1.5; stroke-linecap: square"/>
   </g>
   <g id="line2d_57">
    <path d="M 57.6 307.584 
L 64.7424 288.07799 
L 71.8848 272.643494 
L 79.0272 259.949952 
L 86.1696 248.799859 
L 93.312 238.60777 
L 100.4544 229.08096 
L 107.5968 220.059763 
L 114.7392 211.411123 
L 121.8816 203.055206 
L 129.024 194.93879 
L 136.1664 187.221542 
L 143.3088 180.06313 
L 150.4512 173.064384 
L 157.5936 166.225306 
L 164.736 159.971674 
L 171.8784 153.824486 
L 179.0208 147.943411 
L 186.1632 142.461504 
L 193.3056 137.378765 
L 200.448 132.61536 
L 207.5904 128.118067 
L 214.7328 123.75383 
L 221.8752 119.362982 
L 229.0176 115.238246 
L 236.16 110.87401 
L 243.3024 107.760499 
L 250.4448 104.434099 
L 257.5872 101.267366 
L 264.7296 98.100634 
L 271.872 94.90729 
L 279.0144 91.687334 
L 286.1568 88.49399 
L 293.2992 85.300646 
L 300.4416 82.187136 
L 307.584 79.126848 
L 314.7264 76.173005 
L 321.8688 73.325606 
L 329.0112 70.478208 
L 336.1536 67.63081 
L 343.296 64.783411 
L 350.4384 61.962624 
L 357.5808 59.195059 
L 364.7232 56.480717 
L 371.8656 53.89943 
L 379.008 51.424589 
L 386.1504 49.109414 
L 393.2928 46.980518 
L 400.4352 45.037901 
L 407.5776 43.281562 
L 414.72 41.472 
" clip-path="url(#p02159db8db)" style="fill: none; stroke: #c0c0c0; stroke-width: 1.5; stroke-linecap: square"/>
   </g>
   <g id="line2d_58">
    <path d="M 57.6 307.584 
L 64.7424 268.705037 
L 71.8848 247.788634 
L 79.0272 230.438131 
L 86.1696 216.041472 
L 93.312 202.868928 
L 100.4544 191.080166 
L 107.5968 181.313856 
L 114.7392 172.372493 
L 121.8816 164.33591 
L 129.024 157.177498 
L 136.1664 150.923866 
L 143.3088 145.441958 
L 150.4512 140.38583 
L 157.5936 135.675648 
L 164.736 131.204966 
L 171.8784 127.08023 
L 179.0208 123.061939 
L 186.1632 119.176704 
L 193.3056 115.397914 
L 200.448 111.805402 
L 207.5904 108.319334 
L 214.7328 105.072768 
L 221.8752 102.092314 
L 229.0176 99.298138 
L 236.16 96.557184 
L 243.3024 93.842842 
L 250.4448 91.128499 
L 257.5872 88.440768 
L 264.7296 85.806259 
L 271.872 83.224973 
L 279.0144 80.696909 
L 286.1568 78.222067 
L 293.2992 75.773837 
L 300.4416 73.378829 
L 307.584 71.037043 
L 314.7264 68.721869 
L 321.8688 66.380083 
L 329.0112 63.931853 
L 336.1536 61.616678 
L 343.296 59.43456 
L 350.4384 57.305664 
L 357.5808 55.256602 
L 364.7232 53.287373 
L 371.8656 51.397978 
L 379.008 49.561805 
L 386.1504 47.805466 
L 393.2928 46.102349 
L 400.4352 44.505677 
L 407.5776 43.01545 
L 414.72 41.472 
" clip-path="url(#p02159db8db)" style="fill: none; stroke: #a9a9a9; stroke-width: 1.5; stroke-linecap: square"/>
   </g>
   <g id="line2d_59">
    <path d="M 57.6 307.584 
L 64.7424 232.327526 
L 71.8848 203.773709 
L 79.0272 187.594099 
L 86.1696 175.592448 
L 93.312 165.267302 
L 100.4544 155.660659 
L 107.5968 147.570854 
L 114.7392 139.93344 
L 121.8816 133.919309 
L 129.024 128.756736 
L 136.1664 124.152998 
L 143.3088 119.948429 
L 150.4512 116.089805 
L 157.5936 112.390848 
L 164.736 108.87817 
L 171.8784 105.604992 
L 179.0208 102.491482 
L 186.1632 99.511027 
L 193.3056 96.716851 
L 200.448 94.055731 
L 207.5904 91.58089 
L 214.7328 89.15927 
L 221.8752 86.897318 
L 229.0176 84.795034 
L 236.16 82.612915 
L 243.3024 81.122688 
L 250.4448 79.286515 
L 257.5872 77.530176 
L 264.7296 75.747226 
L 271.872 73.911053 
L 279.0144 72.048269 
L 286.1568 70.185485 
L 293.2992 68.29609 
L 300.4416 66.433306 
L 307.584 64.597133 
L 314.7264 62.787571 
L 321.8688 61.164288 
L 329.0112 59.514394 
L 336.1536 57.89111 
L 343.296 56.267827 
L 350.4384 54.56471 
L 357.5808 52.861594 
L 364.7232 51.131866 
L 371.8656 49.481971 
L 379.008 47.858688 
L 386.1504 46.368461 
L 393.2928 45.01129 
L 400.4352 43.787174 
L 407.5776 42.775949 
L 414.72 41.472 
" clip-path="url(#p02159db8db)" style="fill: none; stroke: #808080; stroke-width: 1.5; stroke-linecap: square"/>
   </g>
   <g id="line2d_60">
    <path d="M 57.6 307.584 
L 64.7424 194.459789 
L 71.8848 174.261888 
L 79.0272 160.610342 
L 86.1696 149.965862 
L 93.312 141.450278 
L 100.4544 133.73303 
L 107.5968 127.74551 
L 114.7392 122.050714 
L 121.8816 117.553421 
L 129.024 113.53513 
L 136.1664 109.649894 
L 143.3088 106.483162 
L 150.4512 103.316429 
L 157.5936 100.389197 
L 164.736 97.701466 
L 171.8784 95.013734 
L 179.0208 92.618726 
L 186.1632 90.197107 
L 193.3056 88.014989 
L 200.448 85.859482 
L 207.5904 83.943475 
L 214.7328 82.080691 
L 221.8752 80.324352 
L 229.0176 78.594624 
L 236.16 76.918118 
L 243.3024 75.161779 
L 250.4448 73.485274 
L 257.5872 71.755546 
L 264.7296 70.105651 
L 271.872 68.53559 
L 279.0144 67.045363 
L 286.1568 65.581747 
L 293.2992 64.144742 
L 300.4416 62.707738 
L 307.584 61.244122 
L 314.7264 59.700672 
L 321.8688 58.104 
L 329.0112 56.533939 
L 336.1536 54.937267 
L 343.296 53.393818 
L 350.4384 51.930202 
L 357.5808 50.57303 
L 364.7232 49.269082 
L 371.8656 48.018355 
L 379.008 46.847462 
L 386.1504 45.67657 
L 393.2928 44.58551 
L 400.4352 43.521062 
L 407.5776 42.536448 
L 414.72 41.472 
" clip-path="url(#p02159db8db)" style="fill: none; stroke: #696969; stroke-width: 1.5; stroke-linecap: square"/>
   </g>
   <g id="PathCollection_1">
    <defs>
     <path id="m7a54c1a822" d="M 0 3 
C 0.795609 3 1.55874 2.683901 2.12132 2.12132 
C 2.683901 1.55874 3 0.795609 3 0 
C 3 -0.795609 2.683901 -1.55874 2.12132 -2.12132 
C 1.55874 -2.683901 0.795609 -3 0 -3 
C -0.795609 -3 -1.55874 -2.683901 -2.12132 -2.12132 
C -2.683901 -1.55874 -3 -0.795609 -3 0 
C -3 0.795609 -2.683901 1.55874 -2.12132 2.12132 
C -1.55874 2.683901 -0.795609 3 0 3 
z
" style="stroke: #1f77b4"/>
    </defs>
    <g clip-path="url(#p02159db8db)"/>
   </g>
   <g id="patch_3">
    <path d="M 57.6 307.584 
L 57.6 41.472 
" style="fill: none; stroke: #000000; stroke-width: 0.8; stroke-linejoin: miter; stroke-linecap: square"/>
   </g>
   <g id="patch_4">
    <path d="M 414.72 307.584 
L 414.72 41.472 
" style="fill: none; stroke: #000000; stroke-width: 0.8; stroke-linejoin: miter; stroke-linecap: square"/>
   </g>
   <g id="patch_5">
    <path d="M 57.6 307.584 
L 414.72 307.584 
" style="fill: none; stroke: #000000; stroke-width: 0.8; stroke-linejoin: miter; stroke-linecap: square"/>
   </g>
   <g id="patch_6">
    <path d="M 57.6 41.472 
L 414.72 41.472 
" style="fill: none; stroke: #000000; stroke-width: 0.8; stroke-linejoin: miter; stroke-linecap: square"/>
   </g>
  </g>
  <g id="text_15">
   <!-- Layer depth correction factor by Poulos and Davis (1980) -->
   <g transform="translate(78.661875 15.647625) scale(0.12 -0.12)">
    <defs>
     <path id="ArialMT-4c" d="M 469 0 
L 469 4581 
L 1075 4581 
L 1075 541 
L 3331 541 
L 3331 0 
L 469 0 
z
" transform="scale(0.015625)"/>
     <path id="ArialMT-79" d="M 397 -1278 
L 334 -750 
Q 519 -800 656 -800 
Q 844 -800 956 -737 
Q 1069 -675 1141 -563 
Q 1194 -478 1313 -144 
Q 1328 -97 1363 -6 
L 103 3319 
L 709 3319 
L 1400 1397 
Q 1534 1031 1641 628 
Q 1738 1016 1872 1384 
L 2581 3319 
L 3144 3319 
L 1881 -56 
Q 1678 -603 1566 -809 
Q 1416 -1088 1222 -1217 
Q 1028 -1347 759 -1347 
Q 597 -1347 397 -1278 
z
" transform="scale(0.015625)"/>
     <path id="ArialMT-62" d="M 941 0 
L 419 0 
L 419 4581 
L 981 4581 
L 981 2947 
Q 1338 3394 1891 3394 
Q 2197 3394 2470 3270 
Q 2744 3147 2920 2923 
Q 3097 2700 3197 2384 
Q 3297 2069 3297 1709 
Q 3297 856 2875 390 
Q 2453 -75 1863 -75 
Q 1275 -75 941 416 
L 941 0 
z
M 934 1684 
Q 934 1088 1097 822 
Q 1363 388 1816 388 
Q 2184 388 2453 708 
Q 2722 1028 2722 1663 
Q 2722 2313 2464 2622 
Q 2206 2931 1841 2931 
Q 1472 2931 1203 2611 
Q 934 2291 934 1684 
z
" transform="scale(0.015625)"/>
     <path id="ArialMT-75" d="M 2597 0 
L 2597 488 
Q 2209 -75 1544 -75 
Q 1250 -75 995 37 
Q 741 150 617 320 
Q 494 491 444 738 
Q 409 903 409 1263 
L 409 3319 
L 972 3319 
L 972 1478 
Q 972 1038 1006 884 
Q 1059 663 1231 536 
Q 1403 409 1656 409 
Q 1909 409 2131 539 
Q 2353 669 2445 892 
Q 2538 1116 2538 1541 
L 2538 3319 
L 3100 3319 
L 3100 0 
L 2597 0 
z
" transform="scale(0.015625)"/>
     <path id="ArialMT-44" d="M 494 0 
L 494 4581 
L 2072 4581 
Q 2606 4581 2888 4516 
Q 3281 4425 3559 4188 
Q 3922 3881 4101 3404 
Q 4281 2928 4281 2316 
Q 4281 1794 4159 1391 
Q 4038 988 3847 723 
Q 3656 459 3429 307 
Q 3203 156 2883 78 
Q 2563 0 2147 0 
L 494 0 
z
M 1100 541 
L 2078 541 
Q 2531 541 2789 625 
Q 3047 709 3200 863 
Q 3416 1078 3536 1442 
Q 3656 1806 3656 2325 
Q 3656 3044 3420 3430 
Q 3184 3816 2847 3947 
Q 2603 4041 2063 4041 
L 1100 4041 
L 1100 541 
z
" transform="scale(0.015625)"/>
     <path id="ArialMT-76" d="M 1344 0 
L 81 3319 
L 675 3319 
L 1388 1331 
Q 1503 1009 1600 663 
Q 1675 925 1809 1294 
L 2547 3319 
L 3125 3319 
L 1869 0 
L 1344 0 
z
" transform="scale(0.015625)"/>
     <path id="ArialMT-28" d="M 1497 -1347 
Q 1031 -759 709 28 
Q 388 816 388 1659 
Q 388 2403 628 3084 
Q 909 3875 1497 4659 
L 1900 4659 
Q 1522 4009 1400 3731 
Q 1209 3300 1100 2831 
Q 966 2247 966 1656 
Q 966 153 1900 -1347 
L 1497 -1347 
z
" transform="scale(0.015625)"/>
     <path id="ArialMT-39" d="M 350 1059 
L 891 1109 
Q 959 728 1153 556 
Q 1347 384 1650 384 
Q 1909 384 2104 503 
Q 2300 622 2425 820 
Q 2550 1019 2634 1356 
Q 2719 1694 2719 2044 
Q 2719 2081 2716 2156 
Q 2547 1888 2255 1720 
Q 1963 1553 1622 1553 
Q 1053 1553 659 1965 
Q 266 2378 266 3053 
Q 266 3750 677 4175 
Q 1088 4600 1706 4600 
Q 2153 4600 2523 4359 
Q 2894 4119 3086 3673 
Q 3278 3228 3278 2384 
Q 3278 1506 3087 986 
Q 2897 466 2520 194 
Q 2144 -78 1638 -78 
Q 1100 -78 759 220 
Q 419 519 350 1059 
z
M 2653 3081 
Q 2653 3566 2395 3850 
Q 2138 4134 1775 4134 
Q 1400 4134 1122 3828 
Q 844 3522 844 3034 
Q 844 2597 1108 2323 
Q 1372 2050 1759 2050 
Q 2150 2050 2401 2323 
Q 2653 2597 2653 3081 
z
" transform="scale(0.015625)"/>
     <path id="ArialMT-29" d="M 791 -1347 
L 388 -1347 
Q 1322 153 1322 1656 
Q 1322 2244 1188 2822 
Q 1081 3291 891 3722 
Q 769 4003 388 4659 
L 791 4659 
Q 1378 3875 1659 3084 
Q 1900 2403 1900 1659 
Q 1900 816 1576 28 
Q 1253 -759 791 -1347 
z
" transform="scale(0.015625)"/>
    </defs>
    <use xlink:href="#ArialMT-4c"/>
    <use xlink:href="#ArialMT-61" transform="translate(55.615234 0)"/>
    <use xlink:href="#ArialMT-79" transform="translate(111.230469 0)"/>
    <use xlink:href="#ArialMT-65" transform="translate(161.230469 0)"/>
    <use xlink:href="#ArialMT-72" transform="translate(216.845703 0)"/>
    <use xlink:href="#ArialMT-20" transform="translate(250.146484 0)"/>
    <use xlink:href="#ArialMT-64" transform="translate(277.929688 0)"/>
    <use xlink:href="#ArialMT-65" transform="translate(333.544922 0)"/>
    <use xlink:href="#ArialMT-70" transform="translate(389.160156 0)"/>
    <use xlink:href="#ArialMT-74" transform="translate(444.775391 0)"/>
    <use xlink:href="#ArialMT-68" transform="translate(472.558594 0)"/>
    <use xlink:href="#ArialMT-20" transform="translate(528.173828 0)"/>
    <use xlink:href="#ArialMT-63" transform="translate(555.957031 0)"/>
    <use xlink:href="#ArialMT-6f" transform="translate(605.957031 0)"/>
    <use xlink:href="#ArialMT-72" transform="translate(661.572266 0)"/>
    <use xlink:href="#ArialMT-72" transform="translate(694.873047 0)"/>
    <use xlink:href="#ArialMT-65" transform="translate(728.173828 0)"/>
    <use xlink:href="#ArialMT-63" transform="translate(783.789062 0)"/>
    <use xlink:href="#ArialMT-74" transform="translate(833.789062 0)"/>
    <use xlink:href="#ArialMT-69" transform="translate(861.572266 0)"/>
    <use xlink:href="#ArialMT-6f" transform="translate(883.789062 0)"/>
    <use xlink:href="#ArialMT-6e" transform="translate(939.404297 0)"/>
    <use xlink:href="#ArialMT-20" transform="translate(995.019531 0)"/>
    <use xlink:href="#ArialMT-66" transform="translate(1022.802734 0)"/>
    <use xlink:href="#ArialMT-61" transform="translate(1050.585938 0)"/>
    <use xlink:href="#ArialMT-63" transform="translate(1106.201172 0)"/>
    <use xlink:href="#ArialMT-74" transform="translate(1156.201172 0)"/>
    <use xlink:href="#ArialMT-6f" transform="translate(1183.984375 0)"/>
    <use xlink:href="#ArialMT-72" transform="translate(1239.599609 0)"/>
    <use xlink:href="#ArialMT-20" transform="translate(1272.900391 0)"/>
    <use xlink:href="#ArialMT-62" transform="translate(1300.683594 0)"/>
    <use xlink:href="#ArialMT-79" transform="translate(1356.298828 0)"/>
    <use xlink:href="#ArialMT-20" transform="translate(1406.298828 0)"/>
    <use xlink:href="#ArialMT-50" transform="translate(1434.082031 0)"/>
    <use xlink:href="#ArialMT-6f" transform="translate(1500.78125 0)"/>
    <use xlink:href="#ArialMT-75" transform="translate(1556.396484 0)"/>
    <use xlink:href="#ArialMT-6c" transform="translate(1612.011719 0)"/>
    <use xlink:href="#ArialMT-6f" transform="translate(1634.228516 0)"/>
    <use xlink:href="#ArialMT-73" transform="translate(1689.84375 0)"/>
    <use xlink:href="#ArialMT-20" transform="translate(1739.84375 0)"/>
    <use xlink:href="#ArialMT-61" transform="translate(1767.626953 0)"/>
    <use xlink:href="#ArialMT-6e" transform="translate(1823.242188 0)"/>
    <use xlink:href="#ArialMT-64" transform="translate(1878.857422 0)"/>
    <use xlink:href="#ArialMT-20" transform="translate(1934.472656 0)"/>
    <use xlink:href="#ArialMT-44" transform="translate(1962.255859 0)"/>
    <use xlink:href="#ArialMT-61" transform="translate(2034.472656 0)"/>
    <use xlink:href="#ArialMT-76" transform="translate(2090.087891 0)"/>
    <use xlink:href="#ArialMT-69" transform="translate(2140.087891 0)"/>
    <use xlink:href="#ArialMT-73" transform="translate(2162.304688 0)"/>
    <use xlink:href="#ArialMT-20" transform="translate(2212.304688 0)"/>
    <use xlink:href="#ArialMT-28" transform="translate(2240.087891 0)"/>
    <use xlink:href="#ArialMT-31" transform="translate(2273.388672 0)"/>
    <use xlink:href="#ArialMT-39" transform="translate(2329.003906 0)"/>
    <use xlink:href="#ArialMT-38" transform="translate(2384.619141 0)"/>
    <use xlink:href="#ArialMT-30" transform="translate(2440.234375 0)"/>
    <use xlink:href="#ArialMT-29" transform="translate(2495.849609 0)"/>
   </g>
  </g>
  <g id="legend_1">
   <g id="patch_7">
    <path d="M 402.604537 111.922272 
L 454.969 111.922272 
Q 456.635 111.922272 456.635 110.256272 
L 456.635 40.391 
Q 456.635 38.725 454.969 38.725 
L 402.604537 38.725 
Q 400.938537 38.725 400.938537 40.391 
L 400.938537 110.256272 
Q 400.938537 111.922272 402.604537 111.922272 
z
" style="fill: #ffffff; opacity: 0.8; stroke: #cccccc; stroke-linejoin: miter"/>
   </g>
   <g id="line2d_61">
    <path d="M 404.270537 45.103958 
L 412.600537 45.103958 
L 420.930538 45.103958 
" style="fill: none; stroke: #dcdcdc; stroke-width: 1.5; stroke-linecap: square"/>
   </g>
   <g id="text_16">
    <!-- L/d=1 -->
    <g transform="translate(427.594538 48.019458) scale(0.0833 -0.0833)">
     <defs>
      <path id="ArialMT-2f" d="M 0 -78 
L 1328 4659 
L 1778 4659 
L 453 -78 
L 0 -78 
z
" transform="scale(0.015625)"/>
      <path id="ArialMT-3d" d="M 3381 2694 
L 356 2694 
L 356 3219 
L 3381 3219 
L 3381 2694 
z
M 3381 1303 
L 356 1303 
L 356 1828 
L 3381 1828 
L 3381 1303 
z
" transform="scale(0.015625)"/>
     </defs>
     <use xlink:href="#ArialMT-4c"/>
     <use xlink:href="#ArialMT-2f" transform="translate(55.615234 0)"/>
     <use xlink:href="#ArialMT-64" transform="translate(83.398438 0)"/>
     <use xlink:href="#ArialMT-3d" transform="translate(139.013672 0)"/>
     <use xlink:href="#ArialMT-31" transform="translate(197.412109 0)"/>
    </g>
   </g>
   <g id="line2d_62">
    <path d="M 404.270537 56.887003 
L 412.600537 56.887003 
L 420.930538 56.887003 
" style="fill: none; stroke: #d3d3d3; stroke-width: 1.5; stroke-linecap: square"/>
   </g>
   <g id="text_17">
    <!-- L/d=2 -->
    <g transform="translate(427.594538 59.802503) scale(0.0833 -0.0833)">
     <use xlink:href="#ArialMT-4c"/>
     <use xlink:href="#ArialMT-2f" transform="translate(55.615234 0)"/>
     <use xlink:href="#ArialMT-64" transform="translate(83.398438 0)"/>
     <use xlink:href="#ArialMT-3d" transform="translate(139.013672 0)"/>
     <use xlink:href="#ArialMT-32" transform="translate(197.412109 0)"/>
    </g>
   </g>
   <g id="line2d_63">
    <path d="M 404.270537 68.670048 
L 412.600537 68.670048 
L 420.930538 68.670048 
" style="fill: none; stroke: #c0c0c0; stroke-width: 1.5; stroke-linecap: square"/>
   </g>
   <g id="text_18">
    <!-- L/d=5 -->
    <g transform="translate(427.594538 71.585548) scale(0.0833 -0.0833)">
     <defs>
      <path id="ArialMT-35" d="M 266 1200 
L 856 1250 
Q 922 819 1161 601 
Q 1400 384 1738 384 
Q 2144 384 2425 690 
Q 2706 997 2706 1503 
Q 2706 1984 2436 2262 
Q 2166 2541 1728 2541 
Q 1456 2541 1237 2417 
Q 1019 2294 894 2097 
L 366 2166 
L 809 4519 
L 3088 4519 
L 3088 3981 
L 1259 3981 
L 1013 2750 
Q 1425 3038 1878 3038 
Q 2478 3038 2890 2622 
Q 3303 2206 3303 1553 
Q 3303 931 2941 478 
Q 2500 -78 1738 -78 
Q 1113 -78 717 272 
Q 322 622 266 1200 
z
" transform="scale(0.015625)"/>
     </defs>
     <use xlink:href="#ArialMT-4c"/>
     <use xlink:href="#ArialMT-2f" transform="translate(55.615234 0)"/>
     <use xlink:href="#ArialMT-64" transform="translate(83.398438 0)"/>
     <use xlink:href="#ArialMT-3d" transform="translate(139.013672 0)"/>
     <use xlink:href="#ArialMT-35" transform="translate(197.412109 0)"/>
    </g>
   </g>
   <g id="line2d_64">
    <path d="M 404.270537 80.453094 
L 412.600537 80.453094 
L 420.930538 80.453094 
" style="fill: none; stroke: #a9a9a9; stroke-width: 1.5; stroke-linecap: square"/>
   </g>
   <g id="text_19">
    <!-- L/d=10 -->
    <g transform="translate(427.594538 83.368594) scale(0.0833 -0.0833)">
     <use xlink:href="#ArialMT-4c"/>
     <use xlink:href="#ArialMT-2f" transform="translate(55.615234 0)"/>
     <use xlink:href="#ArialMT-64" transform="translate(83.398438 0)"/>
     <use xlink:href="#ArialMT-3d" transform="translate(139.013672 0)"/>
     <use xlink:href="#ArialMT-31" transform="translate(197.412109 0)"/>
     <use xlink:href="#ArialMT-30" transform="translate(253.027344 0)"/>
    </g>
   </g>
   <g id="line2d_65">
    <path d="M 404.270537 92.236139 
L 412.600537 92.236139 
L 420.930538 92.236139 
" style="fill: none; stroke: #808080; stroke-width: 1.5; stroke-linecap: square"/>
   </g>
   <g id="text_20">
    <!-- L/d=25 -->
    <g transform="translate(427.594538 95.151639) scale(0.0833 -0.0833)">
     <use xlink:href="#ArialMT-4c"/>
     <use xlink:href="#ArialMT-2f" transform="translate(55.615234 0)"/>
     <use xlink:href="#ArialMT-64" transform="translate(83.398438 0)"/>
     <use xlink:href="#ArialMT-3d" transform="translate(139.013672 0)"/>
     <use xlink:href="#ArialMT-32" transform="translate(197.412109 0)"/>
     <use xlink:href="#ArialMT-35" transform="translate(253.027344 0)"/>
    </g>
   </g>
   <g id="line2d_66">
    <path d="M 404.270537 104.019184 
L 412.600537 104.019184 
L 420.930538 104.019184 
" style="fill: none; stroke: #696969; stroke-width: 1.5; stroke-linecap: square"/>
   </g>
   <g id="text_21">
    <!-- L/d=50 -->
    <g transform="translate(427.594538 106.934684) scale(0.0833 -0.0833)">
     <use xlink:href="#ArialMT-4c"/>
     <use xlink:href="#ArialMT-2f" transform="translate(55.615234 0)"/>
     <use xlink:href="#ArialMT-64" transform="translate(83.398438 0)"/>
     <use xlink:href="#ArialMT-3d" transform="translate(139.013672 0)"/>
     <use xlink:href="#ArialMT-35" transform="translate(197.412109 0)"/>
     <use xlink:href="#ArialMT-30" transform="translate(253.027344 0)"/>
    </g>
   </g>
  </g>
 </g>
 <defs>
  <clipPath id="p02159db8db">
   <rect x="57.6" y="41.472" width="357.12" height="266.112"/>
  </clipPath>
 </defs>
</svg>
