<?xml version="1.0" encoding="utf-8" standalone="no"?>
<!DOCTYPE svg PUBLIC "-//W3C//DTD SVG 1.1//EN"
  "http://www.w3.org/Graphics/SVG/1.1/DTD/svg11.dtd">
<svg xmlns:xlink="http://www.w3.org/1999/xlink" width="460.8pt" height="345.6pt" viewBox="0 0 460.8 345.6" xmlns="http://www.w3.org/2000/svg" version="1.1">
 <metadata>
  <rdf:RDF xmlns:dc="http://purl.org/dc/elements/1.1/" xmlns:cc="http://creativecommons.org/ns#" xmlns:rdf="http://www.w3.org/1999/02/22-rdf-syntax-ns#">
   <cc:Work>
    <dc:type rdf:resource="http://purl.org/dc/dcmitype/StillImage"/>
    <dc:date>2026-02-06T20:28:32.739969</dc:date>
    <dc:format>image/svg+xml</dc:format>
    <dc:creator>
     <cc:Agent>
      <dc:title>Matplotlib v3.10.8, https://matplotlib.org/</dc:title>
     </cc:Agent>
    </dc:creator>
   </cc:Work>
  </rdf:RDF>
 </metadata>
 <defs>
  <style type="text/css">*{stroke-linejoin: round; stroke-linecap: butt}</style>
 </defs>
 <g id="figure_1">
  <g id="patch_1">
   <path d="M 0 345.6 
L 460.8 345.6 
L 460.8 0 
L 0 0 
z
" style="fill: #ffffff"/>
  </g>
  <g id="axes_1">
   <g id="patch_2">
    <path d="M 57.6 307.584 
L 414.72 307.584 
L 414.72 41.472 
L 57.6 41.472 
z
" style="fill: #ffffff"/>
   </g>
   <g id="matplotlib.axis_1">
    <g id="xtick_1">
     <g id="line2d_1">
      <path d="M 57.6 307.584 
L 57.6 41.472 
" clip-path="url(#p9c4024015d)" style="fill: none; stroke-dasharray: 0.5,0.825; stroke-dashoffset: 0; stroke: #b0b0b0; stroke-width: 0.5"/>
     </g>
     <g id="line2d_2">
      <defs>
       <path id="m57c52ae143" d="M 0 0 
L 0 3.5 
" style="stroke: #000000; stroke-width: 0.8"/>
      </defs>
      <g>
       <use xlink:href="#m57c52ae143" x="57.6" y="307.584" style="stroke: #000000; stroke-width: 0.8"/>
      </g>
     </g>
     <g id="text_1">
      <!-- 10 -->
      <g transform="translate(52.039062 321.741812) scale(0.1 -0.1)">
       <defs>
        <path id="ArialMT-31" d="M 2384 0 
L 1822 0 
L 1822 3584 
Q 1619 3391 1289 3197 
Q 959 3003 697 2906 
L 697 3450 
Q 1169 3672 1522 3987 
Q 1875 4303 2022 4600 
L 2384 4600 
L 2384 0 
z
" transform="scale(0.015625)"/>
        <path id="ArialMT-30" d="M 266 2259 
Q 266 3072 433 3567 
Q 600 4063 929 4331 
Q 1259 4600 1759 4600 
Q 2128 4600 2406 4451 
Q 2684 4303 2865 4023 
Q 3047 3744 3150 3342 
Q 3253 2941 3253 2259 
Q 3253 1453 3087 958 
Q 2922 463 2592 192 
Q 2263 -78 1759 -78 
Q 1097 -78 719 397 
Q 266 969 266 2259 
z
M 844 2259 
Q 844 1131 1108 757 
Q 1372 384 1759 384 
Q 2147 384 2411 759 
Q 2675 1134 2675 2259 
Q 2675 3391 2411 3762 
Q 2147 4134 1753 4134 
Q 1366 4134 1134 3806 
Q 844 3388 844 2259 
z
" transform="scale(0.015625)"/>
       </defs>
       <use xlink:href="#ArialMT-31"/>
       <use xlink:href="#ArialMT-30" transform="translate(55.615234 0)"/>
      </g>
     </g>
    </g>
    <g id="xtick_2">
     <g id="line2d_3">
      <path d="M 176.64 307.584 
L 176.64 41.472 
" clip-path="url(#p9c4024015d)" style="fill: none; stroke-dasharray: 0.5,0.825; stroke-dashoffset: 0; stroke: #b0b0b0; stroke-width: 0.5"/>
     </g>
     <g id="line2d_4">
      <g>
       <use xlink:href="#m57c52ae143" x="176.64" y="307.584" style="stroke: #000000; stroke-width: 0.8"/>
      </g>
     </g>
     <g id="text_2">
      <!-- 100 -->
      <g transform="translate(168.298594 321.741812) scale(0.1 -0.1)">
       <use xlink:href="#ArialMT-31"/>
       <use xlink:href="#ArialMT-30" transform="translate(55.615234 0)"/>
       <use xlink:href="#ArialMT-30" transform="translate(111.230469 0)"/>
      </g>
     </g>
    </g>
    <g id="xtick_3">
     <g id="line2d_5">
      <path d="M 295.68 307.584 
L 295.68 41.472 
" clip-path="url(#p9c4024015d)" style="fill: none; stroke-dasharray: 0.5,0.825; stroke-dashoffset: 0; stroke: #b0b0b0; stroke-width: 0.5"/>
     </g>
     <g id="line2d_6">
      <g>
       <use xlink:href="#m57c52ae143" x="295.68" y="307.584" style="stroke: #000000; stroke-width: 0.8"/>
      </g>
     </g>
     <g id="text_3">
      <!-- 1000 -->
      <g transform="translate(284.558125 321.741812) scale(0.1 -0.1)">
       <use xlink:href="#ArialMT-31"/>
       <use xlink:href="#ArialMT-30" transform="translate(55.615234 0)"/>
       <use xlink:href="#ArialMT-30" transform="translate(111.230469 0)"/>
       <use xlink:href="#ArialMT-30" transform="translate(166.845703 0)"/>
      </g>
     </g>
    </g>
    <g id="xtick_4">
     <g id="line2d_7">
      <path d="M 414.72 307.584 
L 414.72 41.472 
" clip-path="url(#p9c4024015d)" style="fill: none; stroke-dasharray: 0.5,0.825; stroke-dashoffset: 0; stroke: #b0b0b0; stroke-width: 0.5"/>
     </g>
     <g id="line2d_8">
      <g>
       <use xlink:href="#m57c52ae143" x="414.72" y="307.584" style="stroke: #000000; stroke-width: 0.8"/>
      </g>
     </g>
     <g id="text_4">
      <!-- 10000 -->
      <g transform="translate(400.817656 321.741812) scale(0.1 -0.1)">
       <use xlink:href="#ArialMT-31"/>
       <use xlink:href="#ArialMT-30" transform="translate(55.615234 0)"/>
       <use xlink:href="#ArialMT-30" transform="translate(111.230469 0)"/>
       <use xlink:href="#ArialMT-30" transform="translate(166.845703 0)"/>
       <use xlink:href="#ArialMT-30" transform="translate(222.460938 0)"/>
      </g>
     </g>
    </g>
    <g id="xtick_5">
     <g id="line2d_9">
      <defs>
       <path id="m3ff83a11c4" d="M 0 0 
L 0 2 
" style="stroke: #000000; stroke-width: 0.6"/>
      </defs>
      <g>
       <use xlink:href="#m3ff83a11c4" x="93.434611" y="307.584" style="stroke: #000000; stroke-width: 0.6"/>
      </g>
     </g>
    </g>
    <g id="xtick_6">
     <g id="line2d_10">
      <g>
       <use xlink:href="#m3ff83a11c4" x="114.396514" y="307.584" style="stroke: #000000; stroke-width: 0.6"/>
      </g>
     </g>
    </g>
    <g id="xtick_7">
     <g id="line2d_11">
      <g>
       <use xlink:href="#m3ff83a11c4" x="129.269221" y="307.584" style="stroke: #000000; stroke-width: 0.6"/>
      </g>
     </g>
    </g>
    <g id="xtick_8">
     <g id="line2d_12">
      <g>
       <use xlink:href="#m3ff83a11c4" x="140.805389" y="307.584" style="stroke: #000000; stroke-width: 0.6"/>
      </g>
     </g>
    </g>
    <g id="xtick_9">
     <g id="line2d_13">
      <g>
       <use xlink:href="#m3ff83a11c4" x="150.231125" y="307.584" style="stroke: #000000; stroke-width: 0.6"/>
      </g>
     </g>
    </g>
    <g id="xtick_10">
     <g id="line2d_14">
      <g>
       <use xlink:href="#m3ff83a11c4" x="158.200471" y="307.584" style="stroke: #000000; stroke-width: 0.6"/>
      </g>
     </g>
    </g>
    <g id="xtick_11">
     <g id="line2d_15">
      <g>
       <use xlink:href="#m3ff83a11c4" x="165.103832" y="307.584" style="stroke: #000000; stroke-width: 0.6"/>
      </g>
     </g>
    </g>
    <g id="xtick_12">
     <g id="line2d_16">
      <g>
       <use xlink:href="#m3ff83a11c4" x="171.193028" y="307.584" style="stroke: #000000; stroke-width: 0.6"/>
      </g>
     </g>
    </g>
    <g id="xtick_13">
     <g id="line2d_17">
      <g>
       <use xlink:href="#m3ff83a11c4" x="212.474611" y="307.584" style="stroke: #000000; stroke-width: 0.6"/>
      </g>
     </g>
    </g>
    <g id="xtick_14">
     <g id="line2d_18">
      <g>
       <use xlink:href="#m3ff83a11c4" x="233.436514" y="307.584" style="stroke: #000000; stroke-width: 0.6"/>
      </g>
     </g>
    </g>
    <g id="xtick_15">
     <g id="line2d_19">
      <g>
       <use xlink:href="#m3ff83a11c4" x="248.309221" y="307.584" style="stroke: #000000; stroke-width: 0.6"/>
      </g>
     </g>
    </g>
    <g id="xtick_16">
     <g id="line2d_20">
      <g>
       <use xlink:href="#m3ff83a11c4" x="259.845389" y="307.584" style="stroke: #000000; stroke-width: 0.6"/>
      </g>
     </g>
    </g>
    <g id="xtick_17">
     <g id="line2d_21">
      <g>
       <use xlink:href="#m3ff83a11c4" x="269.271125" y="307.584" style="stroke: #000000; stroke-width: 0.6"/>
      </g>
     </g>
    </g>
    <g id="xtick_18">
     <g id="line2d_22">
      <g>
       <use xlink:href="#m3ff83a11c4" x="277.240471" y="307.584" style="stroke: #000000; stroke-width: 0.6"/>
      </g>
     </g>
    </g>
    <g id="xtick_19">
     <g id="line2d_23">
      <g>
       <use xlink:href="#m3ff83a11c4" x="284.143832" y="307.584" style="stroke: #000000; stroke-width: 0.6"/>
      </g>
     </g>
    </g>
    <g id="xtick_20">
     <g id="line2d_24">
      <g>
       <use xlink:href="#m3ff83a11c4" x="290.233028" y="307.584" style="stroke: #000000; stroke-width: 0.6"/>
      </g>
     </g>
    </g>
    <g id="xtick_21">
     <g id="line2d_25">
      <g>
       <use xlink:href="#m3ff83a11c4" x="331.514611" y="307.584" style="stroke: #000000; stroke-width: 0.6"/>
      </g>
     </g>
    </g>
    <g id="xtick_22">
     <g id="line2d_26">
      <g>
       <use xlink:href="#m3ff83a11c4" x="352.476514" y="307.584" style="stroke: #000000; stroke-width: 0.6"/>
      </g>
     </g>
    </g>
    <g id="xtick_23">
     <g id="line2d_27">
      <g>
       <use xlink:href="#m3ff83a11c4" x="367.349221" y="307.584" style="stroke: #000000; stroke-width: 0.6"/>
      </g>
     </g>
    </g>
    <g id="xtick_24">
     <g id="line2d_28">
      <g>
       <use xlink:href="#m3ff83a11c4" x="378.885389" y="307.584" style="stroke: #000000; stroke-width: 0.6"/>
      </g>
     </g>
    </g>
    <g id="xtick_25">
     <g id="line2d_29">
      <g>
       <use xlink:href="#m3ff83a11c4" x="388.311125" y="307.584" style="stroke: #000000; stroke-width: 0.6"/>
      </g>
     </g>
    </g>
    <g id="xtick_26">
     <g id="line2d_30">
      <g>
       <use xlink:href="#m3ff83a11c4" x="396.280471" y="307.584" style="stroke: #000000; stroke-width: 0.6"/>
      </g>
     </g>
    </g>
    <g id="xtick_27">
     <g id="line2d_31">
      <g>
       <use xlink:href="#m3ff83a11c4" x="403.183832" y="307.584" style="stroke: #000000; stroke-width: 0.6"/>
      </g>
     </g>
    </g>
    <g id="xtick_28">
     <g id="line2d_32">
      <g>
       <use xlink:href="#m3ff83a11c4" x="409.273028" y="307.584" style="stroke: #000000; stroke-width: 0.6"/>
      </g>
     </g>
    </g>
    <g id="text_5">
     <!-- Pile stiffness factor -->
     <g transform="translate(194.288906 334.887125) scale(0.1 -0.1)">
      <defs>
       <path id="ArialMT-50" d="M 494 0 
L 494 4581 
L 2222 4581 
Q 2678 4581 2919 4538 
Q 3256 4481 3484 4323 
Q 3713 4166 3852 3881 
Q 3991 3597 3991 3256 
Q 3991 2672 3619 2267 
Q 3247 1863 2275 1863 
L 1100 1863 
L 1100 0 
L 494 0 
z
M 1100 2403 
L 2284 2403 
Q 2872 2403 3119 2622 
Q 3366 2841 3366 3238 
Q 3366 3525 3220 3729 
Q 3075 3934 2838 4000 
Q 2684 4041 2272 4041 
L 1100 4041 
L 1100 2403 
z
" transform="scale(0.015625)"/>
       <path id="ArialMT-69" d="M 425 3934 
L 425 4581 
L 988 4581 
L 988 3934 
L 425 3934 
z
M 425 0 
L 425 3319 
L 988 3319 
L 988 0 
L 425 0 
z
" transform="scale(0.015625)"/>
       <path id="ArialMT-6c" d="M 409 0 
L 409 4581 
L 972 4581 
L 972 0 
L 409 0 
z
" transform="scale(0.015625)"/>
       <path id="ArialMT-65" d="M 2694 1069 
L 3275 997 
Q 3138 488 2766 206 
Q 2394 -75 1816 -75 
Q 1088 -75 661 373 
Q 234 822 234 1631 
Q 234 2469 665 2931 
Q 1097 3394 1784 3394 
Q 2450 3394 2872 2941 
Q 3294 2488 3294 1666 
Q 3294 1616 3291 1516 
L 816 1516 
Q 847 969 1125 678 
Q 1403 388 1819 388 
Q 2128 388 2347 550 
Q 2566 713 2694 1069 
z
M 847 1978 
L 2700 1978 
Q 2663 2397 2488 2606 
Q 2219 2931 1791 2931 
Q 1403 2931 1139 2672 
Q 875 2413 847 1978 
z
" transform="scale(0.015625)"/>
       <path id="ArialMT-20" transform="scale(0.015625)"/>
       <path id="ArialMT-73" d="M 197 991 
L 753 1078 
Q 800 744 1014 566 
Q 1228 388 1613 388 
Q 2000 388 2187 545 
Q 2375 703 2375 916 
Q 2375 1106 2209 1216 
Q 2094 1291 1634 1406 
Q 1016 1563 777 1677 
Q 538 1791 414 1992 
Q 291 2194 291 2438 
Q 291 2659 392 2848 
Q 494 3038 669 3163 
Q 800 3259 1026 3326 
Q 1253 3394 1513 3394 
Q 1903 3394 2198 3281 
Q 2494 3169 2634 2976 
Q 2775 2784 2828 2463 
L 2278 2388 
Q 2241 2644 2061 2787 
Q 1881 2931 1553 2931 
Q 1166 2931 1000 2803 
Q 834 2675 834 2503 
Q 834 2394 903 2306 
Q 972 2216 1119 2156 
Q 1203 2125 1616 2013 
Q 2213 1853 2448 1751 
Q 2684 1650 2818 1456 
Q 2953 1263 2953 975 
Q 2953 694 2789 445 
Q 2625 197 2315 61 
Q 2006 -75 1616 -75 
Q 969 -75 630 194 
Q 291 463 197 991 
z
" transform="scale(0.015625)"/>
       <path id="ArialMT-74" d="M 1650 503 
L 1731 6 
Q 1494 -44 1306 -44 
Q 1000 -44 831 53 
Q 663 150 594 308 
Q 525 466 525 972 
L 525 2881 
L 113 2881 
L 113 3319 
L 525 3319 
L 525 4141 
L 1084 4478 
L 1084 3319 
L 1650 3319 
L 1650 2881 
L 1084 2881 
L 1084 941 
Q 1084 700 1114 631 
Q 1144 563 1211 522 
Q 1278 481 1403 481 
Q 1497 481 1650 503 
z
" transform="scale(0.015625)"/>
       <path id="ArialMT-66" d="M 556 0 
L 556 2881 
L 59 2881 
L 59 3319 
L 556 3319 
L 556 3672 
Q 556 4006 616 4169 
Q 697 4388 901 4523 
Q 1106 4659 1475 4659 
Q 1713 4659 2000 4603 
L 1916 4113 
Q 1741 4144 1584 4144 
Q 1328 4144 1222 4034 
Q 1116 3925 1116 3625 
L 1116 3319 
L 1763 3319 
L 1763 2881 
L 1116 2881 
L 1116 0 
L 556 0 
z
" transform="scale(0.015625)"/>
       <path id="ArialMT-6e" d="M 422 0 
L 422 3319 
L 928 3319 
L 928 2847 
Q 1294 3394 1984 3394 
Q 2284 3394 2536 3286 
Q 2788 3178 2913 3003 
Q 3038 2828 3088 2588 
Q 3119 2431 3119 2041 
L 3119 0 
L 2556 0 
L 2556 2019 
Q 2556 2363 2490 2533 
Q 2425 2703 2258 2804 
Q 2091 2906 1866 2906 
Q 1506 2906 1245 2678 
Q 984 2450 984 1813 
L 984 0 
L 422 0 
z
" transform="scale(0.015625)"/>
       <path id="ArialMT-61" d="M 2588 409 
Q 2275 144 1986 34 
Q 1697 -75 1366 -75 
Q 819 -75 525 192 
Q 231 459 231 875 
Q 231 1119 342 1320 
Q 453 1522 633 1644 
Q 813 1766 1038 1828 
Q 1203 1872 1538 1913 
Q 2219 1994 2541 2106 
Q 2544 2222 2544 2253 
Q 2544 2597 2384 2738 
Q 2169 2928 1744 2928 
Q 1347 2928 1158 2789 
Q 969 2650 878 2297 
L 328 2372 
Q 403 2725 575 2942 
Q 747 3159 1072 3276 
Q 1397 3394 1825 3394 
Q 2250 3394 2515 3294 
Q 2781 3194 2906 3042 
Q 3031 2891 3081 2659 
Q 3109 2516 3109 2141 
L 3109 1391 
Q 3109 606 3145 398 
Q 3181 191 3288 0 
L 2700 0 
Q 2613 175 2588 409 
z
M 2541 1666 
Q 2234 1541 1622 1453 
Q 1275 1403 1131 1340 
Q 988 1278 909 1158 
Q 831 1038 831 891 
Q 831 666 1001 516 
Q 1172 366 1500 366 
Q 1825 366 2078 508 
Q 2331 650 2450 897 
Q 2541 1088 2541 1459 
L 2541 1666 
z
" transform="scale(0.015625)"/>
       <path id="ArialMT-63" d="M 2588 1216 
L 3141 1144 
Q 3050 572 2676 248 
Q 2303 -75 1759 -75 
Q 1078 -75 664 370 
Q 250 816 250 1647 
Q 250 2184 428 2587 
Q 606 2991 970 3192 
Q 1334 3394 1763 3394 
Q 2303 3394 2647 3120 
Q 2991 2847 3088 2344 
L 2541 2259 
Q 2463 2594 2264 2762 
Q 2066 2931 1784 2931 
Q 1359 2931 1093 2626 
Q 828 2322 828 1663 
Q 828 994 1084 691 
Q 1341 388 1753 388 
Q 2084 388 2306 591 
Q 2528 794 2588 1216 
z
" transform="scale(0.015625)"/>
       <path id="ArialMT-6f" d="M 213 1659 
Q 213 2581 725 3025 
Q 1153 3394 1769 3394 
Q 2453 3394 2887 2945 
Q 3322 2497 3322 1706 
Q 3322 1066 3130 698 
Q 2938 331 2570 128 
Q 2203 -75 1769 -75 
Q 1072 -75 642 372 
Q 213 819 213 1659 
z
M 791 1659 
Q 791 1022 1069 705 
Q 1347 388 1769 388 
Q 2188 388 2466 706 
Q 2744 1025 2744 1678 
Q 2744 2294 2464 2611 
Q 2184 2928 1769 2928 
Q 1347 2928 1069 2612 
Q 791 2297 791 1659 
z
" transform="scale(0.015625)"/>
       <path id="ArialMT-72" d="M 416 0 
L 416 3319 
L 922 3319 
L 922 2816 
Q 1116 3169 1280 3281 
Q 1444 3394 1641 3394 
Q 1925 3394 2219 3213 
L 2025 2691 
Q 1819 2813 1613 2813 
Q 1428 2813 1281 2702 
Q 1134 2591 1072 2394 
Q 978 2094 978 1738 
L 978 0 
L 416 0 
z
" transform="scale(0.015625)"/>
      </defs>
      <use xlink:href="#ArialMT-50"/>
      <use xlink:href="#ArialMT-69" transform="translate(66.699219 0)"/>
      <use xlink:href="#ArialMT-6c" transform="translate(88.916016 0)"/>
      <use xlink:href="#ArialMT-65" transform="translate(111.132812 0)"/>
      <use xlink:href="#ArialMT-20" transform="translate(166.748047 0)"/>
      <use xlink:href="#ArialMT-73" transform="translate(194.53125 0)"/>
      <use xlink:href="#ArialMT-74" transform="translate(244.53125 0)"/>
      <use xlink:href="#ArialMT-69" transform="translate(272.314453 0)"/>
      <use xlink:href="#ArialMT-66" transform="translate(294.53125 0)"/>
      <use xlink:href="#ArialMT-66" transform="translate(320.564453 0)"/>
      <use xlink:href="#ArialMT-6e" transform="translate(348.347656 0)"/>
      <use xlink:href="#ArialMT-65" transform="translate(403.962891 0)"/>
      <use xlink:href="#ArialMT-73" transform="translate(459.578125 0)"/>
      <use xlink:href="#ArialMT-73" transform="translate(509.578125 0)"/>
      <use xlink:href="#ArialMT-20" transform="translate(559.578125 0)"/>
      <use xlink:href="#ArialMT-66" transform="translate(587.361328 0)"/>
      <use xlink:href="#ArialMT-61" transform="translate(615.144531 0)"/>
      <use xlink:href="#ArialMT-63" transform="translate(670.759766 0)"/>
      <use xlink:href="#ArialMT-74" transform="translate(720.759766 0)"/>
      <use xlink:href="#ArialMT-6f" transform="translate(748.542969 0)"/>
      <use xlink:href="#ArialMT-72" transform="translate(804.158203 0)"/>
     </g>
    </g>
   </g>
   <g id="matplotlib.axis_2">
    <g id="ytick_1">
     <g id="line2d_33">
      <path d="M 57.6 307.584 
L 414.72 307.584 
" clip-path="url(#p9c4024015d)" style="fill: none; stroke-dasharray: 0.5,0.825; stroke-dashoffset: 0; stroke: #b0b0b0; stroke-width: 0.5"/>
     </g>
     <g id="line2d_34">
      <defs>
       <path id="m028a833200" d="M 0 0 
L -3.5 0 
" style="stroke: #000000; stroke-width: 0.8"/>
      </defs>
      <g>
       <use xlink:href="#m028a833200" x="57.6" y="307.584" style="stroke: #000000; stroke-width: 0.8"/>
      </g>
     </g>
     <g id="text_6">
      <!-- 1.00 -->
      <g transform="translate(31.139063 311.162906) scale(0.1 -0.1)">
       <defs>
        <path id="ArialMT-2e" d="M 581 0 
L 581 641 
L 1222 641 
L 1222 0 
L 581 0 
z
" transform="scale(0.015625)"/>
       </defs>
       <use xlink:href="#ArialMT-31"/>
       <use xlink:href="#ArialMT-2e" transform="translate(55.615234 0)"/>
       <use xlink:href="#ArialMT-30" transform="translate(83.398438 0)"/>
       <use xlink:href="#ArialMT-30" transform="translate(139.013672 0)"/>
      </g>
     </g>
    </g>
    <g id="ytick_2">
     <g id="line2d_35">
      <path d="M 57.6 274.32 
L 414.72 274.32 
" clip-path="url(#p9c4024015d)" style="fill: none; stroke-dasharray: 0.5,0.825; stroke-dashoffset: 0; stroke: #b0b0b0; stroke-width: 0.5"/>
     </g>
     <g id="line2d_36">
      <g>
       <use xlink:href="#m028a833200" x="57.6" y="274.32" style="stroke: #000000; stroke-width: 0.8"/>
      </g>
     </g>
     <g id="text_7">
      <!-- 1.25 -->
      <g transform="translate(31.139063 277.898906) scale(0.1 -0.1)">
       <defs>
        <path id="ArialMT-32" d="M 3222 541 
L 3222 0 
L 194 0 
Q 188 203 259 391 
Q 375 700 629 1000 
Q 884 1300 1366 1694 
Q 2113 2306 2375 2664 
Q 2638 3022 2638 3341 
Q 2638 3675 2398 3904 
Q 2159 4134 1775 4134 
Q 1369 4134 1125 3890 
Q 881 3647 878 3216 
L 300 3275 
Q 359 3922 746 4261 
Q 1134 4600 1788 4600 
Q 2447 4600 2831 4234 
Q 3216 3869 3216 3328 
Q 3216 3053 3103 2787 
Q 2991 2522 2730 2228 
Q 2469 1934 1863 1422 
Q 1356 997 1212 845 
Q 1069 694 975 541 
L 3222 541 
z
" transform="scale(0.015625)"/>
        <path id="ArialMT-35" d="M 266 1200 
L 856 1250 
Q 922 819 1161 601 
Q 1400 384 1738 384 
Q 2144 384 2425 690 
Q 2706 997 2706 1503 
Q 2706 1984 2436 2262 
Q 2166 2541 1728 2541 
Q 1456 2541 1237 2417 
Q 1019 2294 894 2097 
L 366 2166 
L 809 4519 
L 3088 4519 
L 3088 3981 
L 1259 3981 
L 1013 2750 
Q 1425 3038 1878 3038 
Q 2478 3038 2890 2622 
Q 3303 2206 3303 1553 
Q 3303 931 2941 478 
Q 2500 -78 1738 -78 
Q 1113 -78 717 272 
Q 322 622 266 1200 
z
" transform="scale(0.015625)"/>
       </defs>
       <use xlink:href="#ArialMT-31"/>
       <use xlink:href="#ArialMT-2e" transform="translate(55.615234 0)"/>
       <use xlink:href="#ArialMT-32" transform="translate(83.398438 0)"/>
       <use xlink:href="#ArialMT-35" transform="translate(139.013672 0)"/>
      </g>
     </g>
    </g>
    <g id="ytick_3">
     <g id="line2d_37">
      <path d="M 57.6 241.056 
L 414.72 241.056 
" clip-path="url(#p9c4024015d)" style="fill: none; stroke-dasharray: 0.5,0.825; stroke-dashoffset: 0; stroke: #b0b0b0; stroke-width: 0.5"/>
     </g>
     <g id="line2d_38">
      <g>
       <use xlink:href="#m028a833200" x="57.6" y="241.056" style="stroke: #000000; stroke-width: 0.8"/>
      </g>
     </g>
     <g id="text_8">
      <!-- 1.50 -->
      <g transform="translate(31.139063 244.634906) scale(0.1 -0.1)">
       <use xlink:href="#ArialMT-31"/>
       <use xlink:href="#ArialMT-2e" transform="translate(55.615234 0)"/>
       <use xlink:href="#ArialMT-35" transform="translate(83.398438 0)"/>
       <use xlink:href="#ArialMT-30" transform="translate(139.013672 0)"/>
      </g>
     </g>
    </g>
    <g id="ytick_4">
     <g id="line2d_39">
      <path d="M 57.6 207.792 
L 414.72 207.792 
" clip-path="url(#p9c4024015d)" style="fill: none; stroke-dasharray: 0.5,0.825; stroke-dashoffset: 0; stroke: #b0b0b0; stroke-width: 0.5"/>
     </g>
     <g id="line2d_40">
      <g>
       <use xlink:href="#m028a833200" x="57.6" y="207.792" style="stroke: #000000; stroke-width: 0.8"/>
      </g>
     </g>
     <g id="text_9">
      <!-- 1.75 -->
      <g transform="translate(31.139063 211.370906) scale(0.1 -0.1)">
       <defs>
        <path id="ArialMT-37" d="M 303 3981 
L 303 4522 
L 3269 4522 
L 3269 4084 
Q 2831 3619 2401 2847 
Q 1972 2075 1738 1259 
Q 1569 684 1522 0 
L 944 0 
Q 953 541 1156 1306 
Q 1359 2072 1739 2783 
Q 2119 3494 2547 3981 
L 303 3981 
z
" transform="scale(0.015625)"/>
       </defs>
       <use xlink:href="#ArialMT-31"/>
       <use xlink:href="#ArialMT-2e" transform="translate(55.615234 0)"/>
       <use xlink:href="#ArialMT-37" transform="translate(83.398438 0)"/>
       <use xlink:href="#ArialMT-35" transform="translate(139.013672 0)"/>
      </g>
     </g>
    </g>
    <g id="ytick_5">
     <g id="line2d_41">
      <path d="M 57.6 174.528 
L 414.72 174.528 
" clip-path="url(#p9c4024015d)" style="fill: none; stroke-dasharray: 0.5,0.825; stroke-dashoffset: 0; stroke: #b0b0b0; stroke-width: 0.5"/>
     </g>
     <g id="line2d_42">
      <g>
       <use xlink:href="#m028a833200" x="57.6" y="174.528" style="stroke: #000000; stroke-width: 0.8"/>
      </g>
     </g>
     <g id="text_10">
      <!-- 2.00 -->
      <g transform="translate(31.139063 178.106906) scale(0.1 -0.1)">
       <use xlink:href="#ArialMT-32"/>
       <use xlink:href="#ArialMT-2e" transform="translate(55.615234 0)"/>
       <use xlink:href="#ArialMT-30" transform="translate(83.398438 0)"/>
       <use xlink:href="#ArialMT-30" transform="translate(139.013672 0)"/>
      </g>
     </g>
    </g>
    <g id="ytick_6">
     <g id="line2d_43">
      <path d="M 57.6 141.264 
L 414.72 141.264 
" clip-path="url(#p9c4024015d)" style="fill: none; stroke-dasharray: 0.5,0.825; stroke-dashoffset: 0; stroke: #b0b0b0; stroke-width: 0.5"/>
     </g>
     <g id="line2d_44">
      <g>
       <use xlink:href="#m028a833200" x="57.6" y="141.264" style="stroke: #000000; stroke-width: 0.8"/>
      </g>
     </g>
     <g id="text_11">
      <!-- 2.25 -->
      <g transform="translate(31.139063 144.842906) scale(0.1 -0.1)">
       <use xlink:href="#ArialMT-32"/>
       <use xlink:href="#ArialMT-2e" transform="translate(55.615234 0)"/>
       <use xlink:href="#ArialMT-32" transform="translate(83.398438 0)"/>
       <use xlink:href="#ArialMT-35" transform="translate(139.013672 0)"/>
      </g>
     </g>
    </g>
    <g id="ytick_7">
     <g id="line2d_45">
      <path d="M 57.6 108 
L 414.72 108 
" clip-path="url(#p9c4024015d)" style="fill: none; stroke-dasharray: 0.5,0.825; stroke-dashoffset: 0; stroke: #b0b0b0; stroke-width: 0.5"/>
     </g>
     <g id="line2d_46">
      <g>
       <use xlink:href="#m028a833200" x="57.6" y="108" style="stroke: #000000; stroke-width: 0.8"/>
      </g>
     </g>
     <g id="text_12">
      <!-- 2.50 -->
      <g transform="translate(31.139063 111.578906) scale(0.1 -0.1)">
       <use xlink:href="#ArialMT-32"/>
       <use xlink:href="#ArialMT-2e" transform="translate(55.615234 0)"/>
       <use xlink:href="#ArialMT-35" transform="translate(83.398438 0)"/>
       <use xlink:href="#ArialMT-30" transform="translate(139.013672 0)"/>
      </g>
     </g>
    </g>
    <g id="ytick_8">
     <g id="line2d_47">
      <path d="M 57.6 74.736 
L 414.72 74.736 
" clip-path="url(#p9c4024015d)" style="fill: none; stroke-dasharray: 0.5,0.825; stroke-dashoffset: 0; stroke: #b0b0b0; stroke-width: 0.5"/>
     </g>
     <g id="line2d_48">
      <g>
       <use xlink:href="#m028a833200" x="57.6" y="74.736" style="stroke: #000000; stroke-width: 0.8"/>
      </g>
     </g>
     <g id="text_13">
      <!-- 2.75 -->
      <g transform="translate(31.139063 78.314906) scale(0.1 -0.1)">
       <use xlink:href="#ArialMT-32"/>
       <use xlink:href="#ArialMT-2e" transform="translate(55.615234 0)"/>
       <use xlink:href="#ArialMT-37" transform="translate(83.398438 0)"/>
       <use xlink:href="#ArialMT-35" transform="translate(139.013672 0)"/>
      </g>
     </g>
    </g>
    <g id="ytick_9">
     <g id="line2d_49">
      <path d="M 57.6 41.472 
L 414.72 41.472 
" clip-path="url(#p9c4024015d)" style="fill: none; stroke-dasharray: 0.5,0.825; stroke-dashoffset: 0; stroke: #b0b0b0; stroke-width: 0.5"/>
     </g>
     <g id="line2d_50">
      <g>
       <use xlink:href="#m028a833200" x="57.6" y="41.472" style="stroke: #000000; stroke-width: 0.8"/>
      </g>
     </g>
     <g id="text_14">
      <!-- 3.00 -->
      <g transform="translate(31.139063 45.050906) scale(0.1 -0.1)">
       <defs>
        <path id="ArialMT-33" d="M 269 1209 
L 831 1284 
Q 928 806 1161 595 
Q 1394 384 1728 384 
Q 2125 384 2398 659 
Q 2672 934 2672 1341 
Q 2672 1728 2419 1979 
Q 2166 2231 1775 2231 
Q 1616 2231 1378 2169 
L 1441 2663 
Q 1497 2656 1531 2656 
Q 1891 2656 2178 2843 
Q 2466 3031 2466 3422 
Q 2466 3731 2256 3934 
Q 2047 4138 1716 4138 
Q 1388 4138 1169 3931 
Q 950 3725 888 3313 
L 325 3413 
Q 428 3978 793 4289 
Q 1159 4600 1703 4600 
Q 2078 4600 2393 4439 
Q 2709 4278 2876 4000 
Q 3044 3722 3044 3409 
Q 3044 3113 2884 2869 
Q 2725 2625 2413 2481 
Q 2819 2388 3044 2092 
Q 3269 1797 3269 1353 
Q 3269 753 2831 336 
Q 2394 -81 1725 -81 
Q 1122 -81 723 278 
Q 325 638 269 1209 
z
" transform="scale(0.015625)"/>
       </defs>
       <use xlink:href="#ArialMT-33"/>
       <use xlink:href="#ArialMT-2e" transform="translate(55.615234 0)"/>
       <use xlink:href="#ArialMT-30" transform="translate(83.398438 0)"/>
       <use xlink:href="#ArialMT-30" transform="translate(139.013672 0)"/>
      </g>
     </g>
    </g>
    <g id="ytick_10">
     <g id="line2d_51">
      <defs>
       <path id="m9457293531" d="M 0 0 
L -2 0 
" style="stroke: #000000; stroke-width: 0.6"/>
      </defs>
      <g>
       <use xlink:href="#m9457293531" x="57.6" y="300.9312" style="stroke: #000000; stroke-width: 0.6"/>
      </g>
     </g>
    </g>
    <g id="ytick_11">
     <g id="line2d_52">
      <g>
       <use xlink:href="#m9457293531" x="57.6" y="294.2784" style="stroke: #000000; stroke-width: 0.6"/>
      </g>
     </g>
    </g>
    <g id="ytick_12">
     <g id="line2d_53">
      <g>
       <use xlink:href="#m9457293531" x="57.6" y="287.6256" style="stroke: #000000; stroke-width: 0.6"/>
      </g>
     </g>
    </g>
    <g id="ytick_13">
     <g id="line2d_54">
      <g>
       <use xlink:href="#m9457293531" x="57.6" y="280.9728" style="stroke: #000000; stroke-width: 0.6"/>
      </g>
     </g>
    </g>
    <g id="ytick_14">
     <g id="line2d_55">
      <g>
       <use xlink:href="#m9457293531" x="57.6" y="267.6672" style="stroke: #000000; stroke-width: 0.6"/>
      </g>
     </g>
    </g>
    <g id="ytick_15">
     <g id="line2d_56">
      <g>
       <use xlink:href="#m9457293531" x="57.6" y="261.0144" style="stroke: #000000; stroke-width: 0.6"/>
      </g>
     </g>
    </g>
    <g id="ytick_16">
     <g id="line2d_57">
      <g>
       <use xlink:href="#m9457293531" x="57.6" y="254.3616" style="stroke: #000000; stroke-width: 0.6"/>
      </g>
     </g>
    </g>
    <g id="ytick_17">
     <g id="line2d_58">
      <g>
       <use xlink:href="#m9457293531" x="57.6" y="247.7088" style="stroke: #000000; stroke-width: 0.6"/>
      </g>
     </g>
    </g>
    <g id="ytick_18">
     <g id="line2d_59">
      <g>
       <use xlink:href="#m9457293531" x="57.6" y="234.4032" style="stroke: #000000; stroke-width: 0.6"/>
      </g>
     </g>
    </g>
    <g id="ytick_19">
     <g id="line2d_60">
      <g>
       <use xlink:href="#m9457293531" x="57.6" y="227.7504" style="stroke: #000000; stroke-width: 0.6"/>
      </g>
     </g>
    </g>
    <g id="ytick_20">
     <g id="line2d_61">
      <g>
       <use xlink:href="#m9457293531" x="57.6" y="221.0976" style="stroke: #000000; stroke-width: 0.6"/>
      </g>
     </g>
    </g>
    <g id="ytick_21">
     <g id="line2d_62">
      <g>
       <use xlink:href="#m9457293531" x="57.6" y="214.4448" style="stroke: #000000; stroke-width: 0.6"/>
      </g>
     </g>
    </g>
    <g id="ytick_22">
     <g id="line2d_63">
      <g>
       <use xlink:href="#m9457293531" x="57.6" y="201.1392" style="stroke: #000000; stroke-width: 0.6"/>
      </g>
     </g>
    </g>
    <g id="ytick_23">
     <g id="line2d_64">
      <g>
       <use xlink:href="#m9457293531" x="57.6" y="194.4864" style="stroke: #000000; stroke-width: 0.6"/>
      </g>
     </g>
    </g>
    <g id="ytick_24">
     <g id="line2d_65">
      <g>
       <use xlink:href="#m9457293531" x="57.6" y="187.8336" style="stroke: #000000; stroke-width: 0.6"/>
      </g>
     </g>
    </g>
    <g id="ytick_25">
     <g id="line2d_66">
      <g>
       <use xlink:href="#m9457293531" x="57.6" y="181.1808" style="stroke: #000000; stroke-width: 0.6"/>
      </g>
     </g>
    </g>
    <g id="ytick_26">
     <g id="line2d_67">
      <g>
       <use xlink:href="#m9457293531" x="57.6" y="167.8752" style="stroke: #000000; stroke-width: 0.6"/>
      </g>
     </g>
    </g>
    <g id="ytick_27">
     <g id="line2d_68">
      <g>
       <use xlink:href="#m9457293531" x="57.6" y="161.2224" style="stroke: #000000; stroke-width: 0.6"/>
      </g>
     </g>
    </g>
    <g id="ytick_28">
     <g id="line2d_69">
      <g>
       <use xlink:href="#m9457293531" x="57.6" y="154.5696" style="stroke: #000000; stroke-width: 0.6"/>
      </g>
     </g>
    </g>
    <g id="ytick_29">
     <g id="line2d_70">
      <g>
       <use xlink:href="#m9457293531" x="57.6" y="147.9168" style="stroke: #000000; stroke-width: 0.6"/>
      </g>
     </g>
    </g>
    <g id="ytick_30">
     <g id="line2d_71">
      <g>
       <use xlink:href="#m9457293531" x="57.6" y="134.6112" style="stroke: #000000; stroke-width: 0.6"/>
      </g>
     </g>
    </g>
    <g id="ytick_31">
     <g id="line2d_72">
      <g>
       <use xlink:href="#m9457293531" x="57.6" y="127.9584" style="stroke: #000000; stroke-width: 0.6"/>
      </g>
     </g>
    </g>
    <g id="ytick_32">
     <g id="line2d_73">
      <g>
       <use xlink:href="#m9457293531" x="57.6" y="121.3056" style="stroke: #000000; stroke-width: 0.6"/>
      </g>
     </g>
    </g>
    <g id="ytick_33">
     <g id="line2d_74">
      <g>
       <use xlink:href="#m9457293531" x="57.6" y="114.6528" style="stroke: #000000; stroke-width: 0.6"/>
      </g>
     </g>
    </g>
    <g id="ytick_34">
     <g id="line2d_75">
      <g>
       <use xlink:href="#m9457293531" x="57.6" y="101.3472" style="stroke: #000000; stroke-width: 0.6"/>
      </g>
     </g>
    </g>
    <g id="ytick_35">
     <g id="line2d_76">
      <g>
       <use xlink:href="#m9457293531" x="57.6" y="94.6944" style="stroke: #000000; stroke-width: 0.6"/>
      </g>
     </g>
    </g>
    <g id="ytick_36">
     <g id="line2d_77">
      <g>
       <use xlink:href="#m9457293531" x="57.6" y="88.0416" style="stroke: #000000; stroke-width: 0.6"/>
      </g>
     </g>
    </g>
    <g id="ytick_37">
     <g id="line2d_78">
      <g>
       <use xlink:href="#m9457293531" x="57.6" y="81.3888" style="stroke: #000000; stroke-width: 0.6"/>
      </g>
     </g>
    </g>
    <g id="ytick_38">
     <g id="line2d_79">
      <g>
       <use xlink:href="#m9457293531" x="57.6" y="68.0832" style="stroke: #000000; stroke-width: 0.6"/>
      </g>
     </g>
    </g>
    <g id="ytick_39">
     <g id="line2d_80">
      <g>
       <use xlink:href="#m9457293531" x="57.6" y="61.4304" style="stroke: #000000; stroke-width: 0.6"/>
      </g>
     </g>
    </g>
    <g id="ytick_40">
     <g id="line2d_81">
      <g>
       <use xlink:href="#m9457293531" x="57.6" y="54.7776" style="stroke: #000000; stroke-width: 0.6"/>
      </g>
     </g>
    </g>
    <g id="ytick_41">
     <g id="line2d_82">
      <g>
       <use xlink:href="#m9457293531" x="57.6" y="48.1248" style="stroke: #000000; stroke-width: 0.6"/>
      </g>
     </g>
    </g>
    <g id="text_15">
     <!-- Pile settlement correction for compressibility -->
     <g transform="translate(25.034375 272.056906) rotate(-90) scale(0.1 -0.1)">
      <defs>
       <path id="ArialMT-6d" d="M 422 0 
L 422 3319 
L 925 3319 
L 925 2853 
Q 1081 3097 1340 3245 
Q 1600 3394 1931 3394 
Q 2300 3394 2536 3241 
Q 2772 3088 2869 2813 
Q 3263 3394 3894 3394 
Q 4388 3394 4653 3120 
Q 4919 2847 4919 2278 
L 4919 0 
L 4359 0 
L 4359 2091 
Q 4359 2428 4304 2576 
Q 4250 2725 4106 2815 
Q 3963 2906 3769 2906 
Q 3419 2906 3187 2673 
Q 2956 2441 2956 1928 
L 2956 0 
L 2394 0 
L 2394 2156 
Q 2394 2531 2256 2718 
Q 2119 2906 1806 2906 
Q 1569 2906 1367 2781 
Q 1166 2656 1075 2415 
Q 984 2175 984 1722 
L 984 0 
L 422 0 
z
" transform="scale(0.015625)"/>
       <path id="ArialMT-70" d="M 422 -1272 
L 422 3319 
L 934 3319 
L 934 2888 
Q 1116 3141 1344 3267 
Q 1572 3394 1897 3394 
Q 2322 3394 2647 3175 
Q 2972 2956 3137 2557 
Q 3303 2159 3303 1684 
Q 3303 1175 3120 767 
Q 2938 359 2589 142 
Q 2241 -75 1856 -75 
Q 1575 -75 1351 44 
Q 1128 163 984 344 
L 984 -1272 
L 422 -1272 
z
M 931 1641 
Q 931 1000 1190 694 
Q 1450 388 1819 388 
Q 2194 388 2461 705 
Q 2728 1022 2728 1688 
Q 2728 2322 2467 2637 
Q 2206 2953 1844 2953 
Q 1484 2953 1207 2617 
Q 931 2281 931 1641 
z
" transform="scale(0.015625)"/>
       <path id="ArialMT-62" d="M 941 0 
L 419 0 
L 419 4581 
L 981 4581 
L 981 2947 
Q 1338 3394 1891 3394 
Q 2197 3394 2470 3270 
Q 2744 3147 2920 2923 
Q 3097 2700 3197 2384 
Q 3297 2069 3297 1709 
Q 3297 856 2875 390 
Q 2453 -75 1863 -75 
Q 1275 -75 941 416 
L 941 0 
z
M 934 1684 
Q 934 1088 1097 822 
Q 1363 388 1816 388 
Q 2184 388 2453 708 
Q 2722 1028 2722 1663 
Q 2722 2313 2464 2622 
Q 2206 2931 1841 2931 
Q 1472 2931 1203 2611 
Q 934 2291 934 1684 
z
" transform="scale(0.015625)"/>
       <path id="ArialMT-79" d="M 397 -1278 
L 334 -750 
Q 519 -800 656 -800 
Q 844 -800 956 -737 
Q 1069 -675 1141 -563 
Q 1194 -478 1313 -144 
Q 1328 -97 1363 -6 
L 103 3319 
L 709 3319 
L 1400 1397 
Q 1534 1031 1641 628 
Q 1738 1016 1872 1384 
L 2581 3319 
L 3144 3319 
L 1881 -56 
Q 1678 -603 1566 -809 
Q 1416 -1088 1222 -1217 
Q 1028 -1347 759 -1347 
Q 597 -1347 397 -1278 
z
" transform="scale(0.015625)"/>
      </defs>
      <use xlink:href="#ArialMT-50"/>
      <use xlink:href="#ArialMT-69" transform="translate(66.699219 0)"/>
      <use xlink:href="#ArialMT-6c" transform="translate(88.916016 0)"/>
      <use xlink:href="#ArialMT-65" transform="translate(111.132812 0)"/>
      <use xlink:href="#ArialMT-20" transform="translate(166.748047 0)"/>
      <use xlink:href="#ArialMT-73" transform="translate(194.53125 0)"/>
      <use xlink:href="#ArialMT-65" transform="translate(244.53125 0)"/>
      <use xlink:href="#ArialMT-74" transform="translate(300.146484 0)"/>
      <use xlink:href="#ArialMT-74" transform="translate(327.929688 0)"/>
      <use xlink:href="#ArialMT-6c" transform="translate(355.712891 0)"/>
      <use xlink:href="#ArialMT-65" transform="translate(377.929688 0)"/>
      <use xlink:href="#ArialMT-6d" transform="translate(433.544922 0)"/>
      <use xlink:href="#ArialMT-65" transform="translate(516.845703 0)"/>
      <use xlink:href="#ArialMT-6e" transform="translate(572.460938 0)"/>
      <use xlink:href="#ArialMT-74" transform="translate(628.076172 0)"/>
      <use xlink:href="#ArialMT-20" transform="translate(655.859375 0)"/>
      <use xlink:href="#ArialMT-63" transform="translate(683.642578 0)"/>
      <use xlink:href="#ArialMT-6f" transform="translate(733.642578 0)"/>
      <use xlink:href="#ArialMT-72" transform="translate(789.257812 0)"/>
      <use xlink:href="#ArialMT-72" transform="translate(822.558594 0)"/>
      <use xlink:href="#ArialMT-65" transform="translate(855.859375 0)"/>
      <use xlink:href="#ArialMT-63" transform="translate(911.474609 0)"/>
      <use xlink:href="#ArialMT-74" transform="translate(961.474609 0)"/>
      <use xlink:href="#ArialMT-69" transform="translate(989.257812 0)"/>
      <use xlink:href="#ArialMT-6f" transform="translate(1011.474609 0)"/>
      <use xlink:href="#ArialMT-6e" transform="translate(1067.089844 0)"/>
      <use xlink:href="#ArialMT-20" transform="translate(1122.705078 0)"/>
      <use xlink:href="#ArialMT-66" transform="translate(1150.488281 0)"/>
      <use xlink:href="#ArialMT-6f" transform="translate(1178.271484 0)"/>
      <use xlink:href="#ArialMT-72" transform="translate(1233.886719 0)"/>
      <use xlink:href="#ArialMT-20" transform="translate(1267.1875 0)"/>
      <use xlink:href="#ArialMT-63" transform="translate(1294.970703 0)"/>
      <use xlink:href="#ArialMT-6f" transform="translate(1344.970703 0)"/>
      <use xlink:href="#ArialMT-6d" transform="translate(1400.585938 0)"/>
      <use xlink:href="#ArialMT-70" transform="translate(1483.886719 0)"/>
      <use xlink:href="#ArialMT-72" transform="translate(1539.501953 0)"/>
      <use xlink:href="#ArialMT-65" transform="translate(1572.802734 0)"/>
      <use xlink:href="#ArialMT-73" transform="translate(1628.417969 0)"/>
      <use xlink:href="#ArialMT-73" transform="translate(1678.417969 0)"/>
      <use xlink:href="#ArialMT-69" transform="translate(1728.417969 0)"/>
      <use xlink:href="#ArialMT-62" transform="translate(1750.634766 0)"/>
      <use xlink:href="#ArialMT-69" transform="translate(1806.25 0)"/>
      <use xlink:href="#ArialMT-6c" transform="translate(1828.466797 0)"/>
      <use xlink:href="#ArialMT-69" transform="translate(1850.683594 0)"/>
      <use xlink:href="#ArialMT-74" transform="translate(1872.900391 0)"/>
      <use xlink:href="#ArialMT-79" transform="translate(1900.683594 0)"/>
     </g>
    </g>
   </g>
   <g id="line2d_83">
    <path d="M 57.6 294.012288 
L 63.2276 295.342848 
L 68.373708 296.27424 
L 73.038285 297.205632 
L 77.735045 298.137024 
L 82.460824 298.802304 
L 87.206288 299.60064 
L 91.971721 300.132864 
L 96.748527 300.665088 
L 101.535988 301.197312 
L 106.32597 301.729536 
L 111.116927 302.26176 
L 115.901229 302.793984 
L 121.286734 303.459264 
L 126.554819 304.124544 
L 126.554819 304.124544 
L 131.361453 304.523712 
L 136.173391 305.055936 
L 140.990139 305.455104 
L 145.810733 305.721216 
L 150.635373 306.120384 
L 155.46388 306.386496 
L 160.29483 306.652608 
L 165.128383 306.91872 
L 169.964201 307.184832 
L 174.801881 307.450944 
L 174.801881 307.450944 
L 185.577037 307.584 
" clip-path="url(#p9c4024015d)" style="fill: none; stroke: #dcdcdc; stroke-width: 1.5; stroke-linecap: square"/>
   </g>
   <g id="line2d_84">
    <path d="M 57.6 281.371968 
L 62.747808 283.500864 
L 68.373708 285.496704 
L 73.724051 287.226432 
L 79.055841 288.823104 
L 84.380797 290.28672 
L 89.713386 291.61728 
L 95.065547 292.94784 
L 100.452873 294.145344 
L 105.88698 295.209792 
L 111.380657 296.407296 
L 116.948422 297.338688 
L 122.604598 298.403136 
L 128.831817 299.467584 
L 134.936218 300.26592 
L 134.936218 300.26592 
L 140.531699 301.064256 
L 146.13539 301.862592 
L 151.746718 302.527872 
L 157.365857 303.193152 
L 162.990707 303.858432 
L 168.622207 304.523712 
L 174.259601 305.188992 
L 179.902493 305.721216 
L 185.550501 306.25344 
L 191.202623 306.785664 
L 191.202623 306.785664 
L 197.427213 307.184832 
L 203.893209 307.584 
" clip-path="url(#p9c4024015d)" style="fill: none; stroke: #d3d3d3; stroke-width: 1.5; stroke-linecap: square"/>
   </g>
   <g id="line2d_85">
    <path d="M 57.6 234.4032 
L 63.822292 240.523776 
L 70.888687 246.112128 
L 77.267151 250.902144 
L 83.988192 255.559104 
L 91.016304 260.083008 
L 98.324383 264.473856 
L 105.884948 268.598592 
L 113.665874 272.457216 
L 121.639964 276.049728 
L 129.777239 279.376128 
L 138.050107 282.436416 
L 146.42928 285.097536 
L 155.766683 287.891712 
L 165.583686 290.419776 
L 174.178336 292.548672 
L 182.983157 294.411456 
L 191.954644 296.27424 
L 201.050765 297.870912 
L 210.228561 299.334528 
L 219.445459 300.798144 
L 228.658992 302.128704 
L 237.82627 303.326208 
L 246.904932 304.390656 
L 255.852111 305.455104 
L 265.906914 306.652608 
L 278.477756 307.584 
" clip-path="url(#p9c4024015d)" style="fill: none; stroke: #c0c0c0; stroke-width: 1.5; stroke-linecap: square"/>
   </g>
   <g id="line2d_86">
    <path d="M 57.6 134.478144 
L 60.952692 141.264 
L 64.663379 147.9168 
L 68.612404 154.5696 
L 68.612404 154.5696 
L 70.980559 158.56128 
L 73.397542 162.55296 
L 75.866568 166.411584 
L 78.389288 170.270208 
L 80.962685 174.128832 
L 83.589455 177.987456 
L 86.264686 181.84608 
L 88.991689 185.704704 
L 91.766563 189.563328 
L 94.592515 193.288896 
L 94.592515 193.288896 
L 99.500825 199.675584 
L 104.649251 205.79616 
L 104.649251 205.79616 
L 108.311841 210.053952 
L 112.028745 214.311744 
L 115.8007 218.569536 
L 119.625376 222.694272 
L 123.503901 226.819008 
L 127.435388 230.943744 
L 131.418516 235.06848 
L 135.453685 239.193216 
L 139.538901 243.184896 
L 143.675188 247.176576 
L 143.675188 247.176576 
L 149.901793 252.897984 
L 156.605216 258.087168 
L 163.548456 263.01024 
L 170.9714 267.800256 
L 176.403716 271.392768 
L 181.83178 274.586112 
L 187.293946 277.513344 
L 192.827216 280.30752 
L 198.469662 282.702528 
L 204.25842 285.097536 
L 210.231531 287.226432 
L 216.426561 289.222272 
L 222.880799 291.085056 
L 229.632073 292.94784 
L 239.089764 295.076736 
L 248.427604 297.072576 
L 248.427604 297.072576 
L 255.027138 298.403136 
L 261.656546 299.60064 
L 268.313471 300.665088 
L 274.995309 301.729536 
L 281.699583 302.793984 
L 288.423889 303.59232 
L 295.165531 304.523712 
L 301.922043 305.188992 
L 308.690879 305.854272 
L 315.469458 306.386496 
L 315.469458 306.386496 
L 325.044991 307.184832 
L 334.744088 307.584 
L 334.863887 307.584 
" clip-path="url(#p9c4024015d)" style="fill: none; stroke: #a9a9a9; stroke-width: 1.5; stroke-linecap: square"/>
   </g>
   <g id="line2d_87">
    <path d="M 99.500825 41.472 
L 103.570606 50.652864 
L 108.000744 59.833728 
L 112.311207 68.881536 
L 112.311207 68.881536 
L 115.094874 74.336832 
L 117.892748 79.792128 
L 120.705821 85.114368 
L 123.532791 90.569664 
L 126.374704 96.02496 
L 129.231726 101.3472 
L 132.103306 106.802496 
L 134.988314 112.124736 
L 137.88845 117.446976 
L 140.803321 122.902272 
L 140.803321 122.902272 
L 145.589701 131.683968 
L 150.618271 140.59872 
L 150.618271 140.59872 
L 154.069282 146.852352 
L 157.571104 153.105984 
L 161.122923 159.359616 
L 164.724398 165.480192 
L 168.37591 171.733824 
L 172.076375 177.8544 
L 175.827148 183.974976 
L 179.626555 190.095552 
L 183.475139 196.216128 
L 187.372558 202.336704 
L 187.372558 202.336704 
L 193.117839 210.985344 
L 199.224323 219.633984 
L 205.449097 228.149568 
L 212.154643 236.39904 
L 217.275886 242.253504 
L 222.557674 247.841856 
L 228.043893 253.164096 
L 233.777801 258.35328 
L 239.80375 263.276352 
L 246.16512 267.933312 
L 252.905856 272.32416 
L 260.069687 276.448896 
L 267.700518 280.30752 
L 275.841892 283.900032 
L 287.693832 287.891712 
L 299.785413 291.351168 
L 299.785413 291.351168 
L 308.353665 293.61312 
L 317.01492 295.742016 
L 325.759895 297.737856 
L 334.578986 299.467584 
L 343.462515 301.064256 
L 352.400548 302.394816 
L 361.383069 303.59232 
L 370.399964 304.656768 
L 379.441097 305.455104 
L 388.496295 306.120384 
L 388.496295 306.120384 
L 401.304891 306.91872 
L 414.235149 307.184832 
L 414.72 307.184832 
" clip-path="url(#p9c4024015d)" style="fill: none; stroke: #808080; stroke-width: 1.5; stroke-linecap: square"/>
   </g>
   <g id="line2d_88">
    <path d="M 167.139558 41.472 
L 171.69038 53.313984 
L 176.597072 65.022912 
L 176.597072 65.022912 
L 180.53972 74.336832 
L 184.591765 83.650752 
L 188.75279 92.831616 
L 193.022652 102.01248 
L 197.400231 111.193344 
L 201.885807 120.374208 
L 206.478452 129.555072 
L 211.177649 138.60288 
L 215.982843 147.650688 
L 220.893471 156.698496 
L 220.893471 156.698496 
L 227.23773 167.8752 
L 233.941545 179.051904 
L 239.399489 187.700544 
L 245.115723 196.48224 
L 251.097527 205.263936 
L 257.351617 214.045632 
L 263.885102 222.694272 
L 270.704736 231.342912 
L 277.817443 239.72544 
L 285.230218 247.841856 
L 292.949904 255.559104 
L 300.983506 263.01024 
L 312.116588 271.791936 
L 324.447801 280.041408 
L 337.855459 286.96032 
L 352.221565 292.814784 
L 367.426375 297.870912 
L 383.108548 301.463424 
L 399.148279 304.124544 
L 414.72 305.455104 
L 414.72 305.455104 
" clip-path="url(#p9c4024015d)" style="fill: none; stroke: #696969; stroke-width: 1.5; stroke-linecap: square"/>
   </g>
   <g id="line2d_89">
    <path d="M 241.667235 41.472 
L 245.076526 51.850368 
L 248.427604 61.829568 
L 248.427604 61.829568 
L 251.825302 70.74432 
L 255.320262 79.659072 
L 258.912132 88.573824 
L 262.600424 97.488576 
L 266.38499 106.270272 
L 270.265399 115.185024 
L 274.241183 123.96672 
L 278.312074 132.748416 
L 282.47752 141.530112 
L 286.737243 150.311808 
L 286.737243 150.311808 
L 291.525903 160.024896 
L 296.194826 169.737984 
L 301.113471 179.318016 
L 306.191509 189.031104 
L 311.486072 198.611136 
L 317.054187 208.191168 
L 322.95298 217.505088 
L 329.239505 226.819008 
L 335.970857 235.866816 
L 343.204095 244.781568 
L 350.996338 253.297152 
L 359.404637 261.546624 
L 368.742409 269.130816 
L 379.038696 276.182784 
L 390.291594 282.30336 
L 402.622805 287.093376 
L 414.72 290.952 
L 414.72 290.952 
" clip-path="url(#p9c4024015d)" style="fill: none; stroke: #000000; stroke-width: 1.5; stroke-linecap: square"/>
   </g>
   <g id="PathCollection_1">
    <defs>
     <path id="maf79ff9356" d="M 0 3 
C 0.795609 3 1.55874 2.683901 2.12132 2.12132 
C 2.683901 1.55874 3 0.795609 3 0 
C 3 -0.795609 2.683901 -1.55874 2.12132 -2.12132 
C 1.55874 -2.683901 0.795609 -3 0 -3 
C -0.795609 -3 -1.55874 -2.683901 -2.12132 -2.12132 
C -2.683901 -1.55874 -3 -0.795609 -3 0 
C -3 0.795609 -2.683901 1.55874 -2.12132 2.12132 
C -1.55874 2.683901 -0.795609 3 0 3 
z
" style="stroke: #1f77b4"/>
    </defs>
    <g clip-path="url(#p9c4024015d)"/>
   </g>
   <g id="patch_3">
    <path d="M 57.6 307.584 
L 57.6 41.472 
" style="fill: none; stroke: #000000; stroke-width: 0.8; stroke-linejoin: miter; stroke-linecap: square"/>
   </g>
   <g id="patch_4">
    <path d="M 414.72 307.584 
L 414.72 41.472 
" style="fill: none; stroke: #000000; stroke-width: 0.8; stroke-linejoin: miter; stroke-linecap: square"/>
   </g>
   <g id="patch_5">
    <path d="M 57.6 307.584 
L 414.72 307.584 
" style="fill: none; stroke: #000000; stroke-width: 0.8; stroke-linejoin: miter; stroke-linecap: square"/>
   </g>
   <g id="patch_6">
    <path d="M 57.6 41.472 
L 414.72 41.472 
" style="fill: none; stroke: #000000; stroke-width: 0.8; stroke-linejoin: miter; stroke-linecap: square"/>
   </g>
  </g>
  <g id="text_16">
   <!-- Pile compressibility correction factor by Poulos and Davis (1980) -->
   <g transform="translate(59.33625 15.647625) scale(0.12 -0.12)">
    <defs>
     <path id="ArialMT-75" d="M 2597 0 
L 2597 488 
Q 2209 -75 1544 -75 
Q 1250 -75 995 37 
Q 741 150 617 320 
Q 494 491 444 738 
Q 409 903 409 1263 
L 409 3319 
L 972 3319 
L 972 1478 
Q 972 1038 1006 884 
Q 1059 663 1231 536 
Q 1403 409 1656 409 
Q 1909 409 2131 539 
Q 2353 669 2445 892 
Q 2538 1116 2538 1541 
L 2538 3319 
L 3100 3319 
L 3100 0 
L 2597 0 
z
" transform="scale(0.015625)"/>
     <path id="ArialMT-64" d="M 2575 0 
L 2575 419 
Q 2259 -75 1647 -75 
Q 1250 -75 917 144 
Q 584 363 401 755 
Q 219 1147 219 1656 
Q 219 2153 384 2558 
Q 550 2963 881 3178 
Q 1213 3394 1622 3394 
Q 1922 3394 2156 3267 
Q 2391 3141 2538 2938 
L 2538 4581 
L 3097 4581 
L 3097 0 
L 2575 0 
z
M 797 1656 
Q 797 1019 1065 703 
Q 1334 388 1700 388 
Q 2069 388 2326 689 
Q 2584 991 2584 1609 
Q 2584 2291 2321 2609 
Q 2059 2928 1675 2928 
Q 1300 2928 1048 2622 
Q 797 2316 797 1656 
z
" transform="scale(0.015625)"/>
     <path id="ArialMT-44" d="M 494 0 
L 494 4581 
L 2072 4581 
Q 2606 4581 2888 4516 
Q 3281 4425 3559 4188 
Q 3922 3881 4101 3404 
Q 4281 2928 4281 2316 
Q 4281 1794 4159 1391 
Q 4038 988 3847 723 
Q 3656 459 3429 307 
Q 3203 156 2883 78 
Q 2563 0 2147 0 
L 494 0 
z
M 1100 541 
L 2078 541 
Q 2531 541 2789 625 
Q 3047 709 3200 863 
Q 3416 1078 3536 1442 
Q 3656 1806 3656 2325 
Q 3656 3044 3420 3430 
Q 3184 3816 2847 3947 
Q 2603 4041 2063 4041 
L 1100 4041 
L 1100 541 
z
" transform="scale(0.015625)"/>
     <path id="ArialMT-76" d="M 1344 0 
L 81 3319 
L 675 3319 
L 1388 1331 
Q 1503 1009 1600 663 
Q 1675 925 1809 1294 
L 2547 3319 
L 3125 3319 
L 1869 0 
L 1344 0 
z
" transform="scale(0.015625)"/>
     <path id="ArialMT-28" d="M 1497 -1347 
Q 1031 -759 709 28 
Q 388 816 388 1659 
Q 388 2403 628 3084 
Q 909 3875 1497 4659 
L 1900 4659 
Q 1522 4009 1400 3731 
Q 1209 3300 1100 2831 
Q 966 2247 966 1656 
Q 966 153 1900 -1347 
L 1497 -1347 
z
" transform="scale(0.015625)"/>
     <path id="ArialMT-39" d="M 350 1059 
L 891 1109 
Q 959 728 1153 556 
Q 1347 384 1650 384 
Q 1909 384 2104 503 
Q 2300 622 2425 820 
Q 2550 1019 2634 1356 
Q 2719 1694 2719 2044 
Q 2719 2081 2716 2156 
Q 2547 1888 2255 1720 
Q 1963 1553 1622 1553 
Q 1053 1553 659 1965 
Q 266 2378 266 3053 
Q 266 3750 677 4175 
Q 1088 4600 1706 4600 
Q 2153 4600 2523 4359 
Q 2894 4119 3086 3673 
Q 3278 3228 3278 2384 
Q 3278 1506 3087 986 
Q 2897 466 2520 194 
Q 2144 -78 1638 -78 
Q 1100 -78 759 220 
Q 419 519 350 1059 
z
M 2653 3081 
Q 2653 3566 2395 3850 
Q 2138 4134 1775 4134 
Q 1400 4134 1122 3828 
Q 844 3522 844 3034 
Q 844 2597 1108 2323 
Q 1372 2050 1759 2050 
Q 2150 2050 2401 2323 
Q 2653 2597 2653 3081 
z
" transform="scale(0.015625)"/>
     <path id="ArialMT-38" d="M 1131 2484 
Q 781 2613 612 2850 
Q 444 3088 444 3419 
Q 444 3919 803 4259 
Q 1163 4600 1759 4600 
Q 2359 4600 2725 4251 
Q 3091 3903 3091 3403 
Q 3091 3084 2923 2848 
Q 2756 2613 2416 2484 
Q 2838 2347 3058 2040 
Q 3278 1734 3278 1309 
Q 3278 722 2862 322 
Q 2447 -78 1769 -78 
Q 1091 -78 675 323 
Q 259 725 259 1325 
Q 259 1772 486 2073 
Q 713 2375 1131 2484 
z
M 1019 3438 
Q 1019 3113 1228 2906 
Q 1438 2700 1772 2700 
Q 2097 2700 2305 2904 
Q 2513 3109 2513 3406 
Q 2513 3716 2298 3927 
Q 2084 4138 1766 4138 
Q 1444 4138 1231 3931 
Q 1019 3725 1019 3438 
z
M 838 1322 
Q 838 1081 952 856 
Q 1066 631 1291 507 
Q 1516 384 1775 384 
Q 2178 384 2440 643 
Q 2703 903 2703 1303 
Q 2703 1709 2433 1975 
Q 2163 2241 1756 2241 
Q 1359 2241 1098 1978 
Q 838 1716 838 1322 
z
" transform="scale(0.015625)"/>
     <path id="ArialMT-29" d="M 791 -1347 
L 388 -1347 
Q 1322 153 1322 1656 
Q 1322 2244 1188 2822 
Q 1081 3291 891 3722 
Q 769 4003 388 4659 
L 791 4659 
Q 1378 3875 1659 3084 
Q 1900 2403 1900 1659 
Q 1900 816 1576 28 
Q 1253 -759 791 -1347 
z
" transform="scale(0.015625)"/>
    </defs>
    <use xlink:href="#ArialMT-50"/>
    <use xlink:href="#ArialMT-69" transform="translate(66.699219 0)"/>
    <use xlink:href="#ArialMT-6c" transform="translate(88.916016 0)"/>
    <use xlink:href="#ArialMT-65" transform="translate(111.132812 0)"/>
    <use xlink:href="#ArialMT-20" transform="translate(166.748047 0)"/>
    <use xlink:href="#ArialMT-63" transform="translate(194.53125 0)"/>
    <use xlink:href="#ArialMT-6f" transform="translate(244.53125 0)"/>
    <use xlink:href="#ArialMT-6d" transform="translate(300.146484 0)"/>
    <use xlink:href="#ArialMT-70" transform="translate(383.447266 0)"/>
    <use xlink:href="#ArialMT-72" transform="translate(439.0625 0)"/>
    <use xlink:href="#ArialMT-65" transform="translate(472.363281 0)"/>
    <use xlink:href="#ArialMT-73" transform="translate(527.978516 0)"/>
    <use xlink:href="#ArialMT-73" transform="translate(577.978516 0)"/>
    <use xlink:href="#ArialMT-69" transform="translate(627.978516 0)"/>
    <use xlink:href="#ArialMT-62" transform="translate(650.195312 0)"/>
    <use xlink:href="#ArialMT-69" transform="translate(705.810547 0)"/>
    <use xlink:href="#ArialMT-6c" transform="translate(728.027344 0)"/>
    <use xlink:href="#ArialMT-69" transform="translate(750.244141 0)"/>
    <use xlink:href="#ArialMT-74" transform="translate(772.460938 0)"/>
    <use xlink:href="#ArialMT-79" transform="translate(800.244141 0)"/>
    <use xlink:href="#ArialMT-20" transform="translate(850.244141 0)"/>
    <use xlink:href="#ArialMT-63" transform="translate(878.027344 0)"/>
    <use xlink:href="#ArialMT-6f" transform="translate(928.027344 0)"/>
    <use xlink:href="#ArialMT-72" transform="translate(983.642578 0)"/>
    <use xlink:href="#ArialMT-72" transform="translate(1016.943359 0)"/>
    <use xlink:href="#ArialMT-65" transform="translate(1050.244141 0)"/>
    <use xlink:href="#ArialMT-63" transform="translate(1105.859375 0)"/>
    <use xlink:href="#ArialMT-74" transform="translate(1155.859375 0)"/>
    <use xlink:href="#ArialMT-69" transform="translate(1183.642578 0)"/>
    <use xlink:href="#ArialMT-6f" transform="translate(1205.859375 0)"/>
    <use xlink:href="#ArialMT-6e" transform="translate(1261.474609 0)"/>
    <use xlink:href="#ArialMT-20" transform="translate(1317.089844 0)"/>
    <use xlink:href="#ArialMT-66" transform="translate(1344.873047 0)"/>
    <use xlink:href="#ArialMT-61" transform="translate(1372.65625 0)"/>
    <use xlink:href="#ArialMT-63" transform="translate(1428.271484 0)"/>
    <use xlink:href="#ArialMT-74" transform="translate(1478.271484 0)"/>
    <use xlink:href="#ArialMT-6f" transform="translate(1506.054688 0)"/>
    <use xlink:href="#ArialMT-72" transform="translate(1561.669922 0)"/>
    <use xlink:href="#ArialMT-20" transform="translate(1594.970703 0)"/>
    <use xlink:href="#ArialMT-62" transform="translate(1622.753906 0)"/>
    <use xlink:href="#ArialMT-79" transform="translate(1678.369141 0)"/>
    <use xlink:href="#ArialMT-20" transform="translate(1728.369141 0)"/>
    <use xlink:href="#ArialMT-50" transform="translate(1756.152344 0)"/>
    <use xlink:href="#ArialMT-6f" transform="translate(1822.851562 0)"/>
    <use xlink:href="#ArialMT-75" transform="translate(1878.466797 0)"/>
    <use xlink:href="#ArialMT-6c" transform="translate(1934.082031 0)"/>
    <use xlink:href="#ArialMT-6f" transform="translate(1956.298828 0)"/>
    <use xlink:href="#ArialMT-73" transform="translate(2011.914062 0)"/>
    <use xlink:href="#ArialMT-20" transform="translate(2061.914062 0)"/>
    <use xlink:href="#ArialMT-61" transform="translate(2089.697266 0)"/>
    <use xlink:href="#ArialMT-6e" transform="translate(2145.3125 0)"/>
    <use xlink:href="#ArialMT-64" transform="translate(2200.927734 0)"/>
    <use xlink:href="#ArialMT-20" transform="translate(2256.542969 0)"/>
    <use xlink:href="#ArialMT-44" transform="translate(2284.326172 0)"/>
    <use xlink:href="#ArialMT-61" transform="translate(2356.542969 0)"/>
    <use xlink:href="#ArialMT-76" transform="translate(2412.158203 0)"/>
    <use xlink:href="#ArialMT-69" transform="translate(2462.158203 0)"/>
    <use xlink:href="#ArialMT-73" transform="translate(2484.375 0)"/>
    <use xlink:href="#ArialMT-20" transform="translate(2534.375 0)"/>
    <use xlink:href="#ArialMT-28" transform="translate(2562.158203 0)"/>
    <use xlink:href="#ArialMT-31" transform="translate(2595.458984 0)"/>
    <use xlink:href="#ArialMT-39" transform="translate(2651.074219 0)"/>
    <use xlink:href="#ArialMT-38" transform="translate(2706.689453 0)"/>
    <use xlink:href="#ArialMT-30" transform="translate(2762.304688 0)"/>
    <use xlink:href="#ArialMT-29" transform="translate(2817.919922 0)"/>
   </g>
  </g>
  <g id="legend_1">
   <g id="patch_7">
    <path d="M 397.972277 123.705317 
L 454.969 123.705317 
Q 456.635 123.705317 456.635 122.039317 
L 456.635 40.391 
Q 456.635 38.725 454.969 38.725 
L 397.972277 38.725 
Q 396.306277 38.725 396.306277 40.391 
L 396.306277 122.039317 
Q 396.306277 123.705317 397.972277 123.705317 
z
" style="fill: #ffffff; opacity: 0.8; stroke: #cccccc; stroke-linejoin: miter"/>
   </g>
   <g id="line2d_90">
    <path d="M 399.638277 45.103958 
L 407.968277 45.103958 
L 416.298277 45.103958 
" style="fill: none; stroke: #dcdcdc; stroke-width: 1.5; stroke-linecap: square"/>
   </g>
   <g id="text_17">
    <!-- L/d=1 -->
    <g transform="translate(422.962277 48.019458) scale(0.0833 -0.0833)">
     <defs>
      <path id="ArialMT-4c" d="M 469 0 
L 469 4581 
L 1075 4581 
L 1075 541 
L 3331 541 
L 3331 0 
L 469 0 
z
" transform="scale(0.015625)"/>
      <path id="ArialMT-2f" d="M 0 -78 
L 1328 4659 
L 1778 4659 
L 453 -78 
L 0 -78 
z
" transform="scale(0.015625)"/>
      <path id="ArialMT-3d" d="M 3381 2694 
L 356 2694 
L 356 3219 
L 3381 3219 
L 3381 2694 
z
M 3381 1303 
L 356 1303 
L 356 1828 
L 3381 1828 
L 3381 1303 
z
" transform="scale(0.015625)"/>
     </defs>
     <use xlink:href="#ArialMT-4c"/>
     <use xlink:href="#ArialMT-2f" transform="translate(55.615234 0)"/>
     <use xlink:href="#ArialMT-64" transform="translate(83.398438 0)"/>
     <use xlink:href="#ArialMT-3d" transform="translate(139.013672 0)"/>
     <use xlink:href="#ArialMT-31" transform="translate(197.412109 0)"/>
    </g>
   </g>
   <g id="line2d_91">
    <path d="M 399.638277 56.887003 
L 407.968277 56.887003 
L 416.298277 56.887003 
" style="fill: none; stroke: #d3d3d3; stroke-width: 1.5; stroke-linecap: square"/>
   </g>
   <g id="text_18">
    <!-- L/d=2 -->
    <g transform="translate(422.962277 59.802503) scale(0.0833 -0.0833)">
     <use xlink:href="#ArialMT-4c"/>
     <use xlink:href="#ArialMT-2f" transform="translate(55.615234 0)"/>
     <use xlink:href="#ArialMT-64" transform="translate(83.398438 0)"/>
     <use xlink:href="#ArialMT-3d" transform="translate(139.013672 0)"/>
     <use xlink:href="#ArialMT-32" transform="translate(197.412109 0)"/>
    </g>
   </g>
   <g id="line2d_92">
    <path d="M 399.638277 68.670048 
L 407.968277 68.670048 
L 416.298277 68.670048 
" style="fill: none; stroke: #c0c0c0; stroke-width: 1.5; stroke-linecap: square"/>
   </g>
   <g id="text_19">
    <!-- L/d=5 -->
    <g transform="translate(422.962277 71.585548) scale(0.0833 -0.0833)">
     <use xlink:href="#ArialMT-4c"/>
     <use xlink:href="#ArialMT-2f" transform="translate(55.615234 0)"/>
     <use xlink:href="#ArialMT-64" transform="translate(83.398438 0)"/>
     <use xlink:href="#ArialMT-3d" transform="translate(139.013672 0)"/>
     <use xlink:href="#ArialMT-35" transform="translate(197.412109 0)"/>
    </g>
   </g>
   <g id="line2d_93">
    <path d="M 399.638277 80.453094 
L 407.968277 80.453094 
L 416.298277 80.453094 
" style="fill: none; stroke: #a9a9a9; stroke-width: 1.5; stroke-linecap: square"/>
   </g>
   <g id="text_20">
    <!-- L/d=10 -->
    <g transform="translate(422.962277 83.368594) scale(0.0833 -0.0833)">
     <use xlink:href="#ArialMT-4c"/>
     <use xlink:href="#ArialMT-2f" transform="translate(55.615234 0)"/>
     <use xlink:href="#ArialMT-64" transform="translate(83.398438 0)"/>
     <use xlink:href="#ArialMT-3d" transform="translate(139.013672 0)"/>
     <use xlink:href="#ArialMT-31" transform="translate(197.412109 0)"/>
     <use xlink:href="#ArialMT-30" transform="translate(253.027344 0)"/>
    </g>
   </g>
   <g id="line2d_94">
    <path d="M 399.638277 92.236139 
L 407.968277 92.236139 
L 416.298277 92.236139 
" style="fill: none; stroke: #808080; stroke-width: 1.5; stroke-linecap: square"/>
   </g>
   <g id="text_21">
    <!-- L/d=25 -->
    <g transform="translate(422.962277 95.151639) scale(0.0833 -0.0833)">
     <use xlink:href="#ArialMT-4c"/>
     <use xlink:href="#ArialMT-2f" transform="translate(55.615234 0)"/>
     <use xlink:href="#ArialMT-64" transform="translate(83.398438 0)"/>
     <use xlink:href="#ArialMT-3d" transform="translate(139.013672 0)"/>
     <use xlink:href="#ArialMT-32" transform="translate(197.412109 0)"/>
     <use xlink:href="#ArialMT-35" transform="translate(253.027344 0)"/>
    </g>
   </g>
   <g id="line2d_95">
    <path d="M 399.638277 104.019184 
L 407.968277 104.019184 
L 416.298277 104.019184 
" style="fill: none; stroke: #696969; stroke-width: 1.5; stroke-linecap: square"/>
   </g>
   <g id="text_22">
    <!-- L/d=50 -->
    <g transform="translate(422.962277 106.934684) scale(0.0833 -0.0833)">
     <use xlink:href="#ArialMT-4c"/>
     <use xlink:href="#ArialMT-2f" transform="translate(55.615234 0)"/>
     <use xlink:href="#ArialMT-64" transform="translate(83.398438 0)"/>
     <use xlink:href="#ArialMT-3d" transform="translate(139.013672 0)"/>
     <use xlink:href="#ArialMT-35" transform="translate(197.412109 0)"/>
     <use xlink:href="#ArialMT-30" transform="translate(253.027344 0)"/>
    </g>
   </g>
   <g id="line2d_96">
    <path d="M 399.638277 115.80223 
L 407.968277 115.80223 
L 416.298277 115.80223 
" style="fill: none; stroke: #000000; stroke-width: 1.5; stroke-linecap: square"/>
   </g>
   <g id="text_23">
    <!-- L/d=100 -->
    <g transform="translate(422.962277 118.71773) scale(0.0833 -0.0833)">
     <use xlink:href="#ArialMT-4c"/>
     <use xlink:href="#ArialMT-2f" transform="translate(55.615234 0)"/>
     <use xlink:href="#ArialMT-64" transform="translate(83.398438 0)"/>
     <use xlink:href="#ArialMT-3d" transform="translate(139.013672 0)"/>
     <use xlink:href="#ArialMT-31" transform="translate(197.412109 0)"/>
     <use xlink:href="#ArialMT-30" transform="translate(253.027344 0)"/>
     <use xlink:href="#ArialMT-30" transform="translate(308.642578 0)"/>
    </g>
   </g>
  </g>
 </g>
 <defs>
  <clipPath id="p9c4024015d">
   <rect x="57.6" y="41.472" width="357.12" height="266.112"/>
  </clipPath>
 </defs>
</svg>
