<?xml version="1.0" encoding="UTF-8"?>
<svg width="100" height="100" version="1.1" xmlns="http://www.w3.org/2000/svg">
<svg id="COAL" class="graphic" width="100%" height="100%">
<style>
symbol *, pattern * {
  vector-effect: non-scaling-stroke;
}
</style>
<defs>
  <pattern id="gint_MISC05_w100" patternUnits="userSpaceOnUse" x="0" y="0" width="100.0" height="37.7953" viewBox="0 0 37.7953 37.7953" preserveAspectRatio="none">
  <svg width="37.795" height="37.795" version="1.1" xmlns="http://www.w3.org/2000/svg">
   <polygon points="7.5704 15.877 0.018898 18.898 3.7946 20.786" stroke="#000"/>
   <polygon points="9.4583 9.4583 0.018898 15.122 7.5704 15.877" stroke="#000"/>
   <polygon points="22.673 37.776 37.776 34.001 26.449 30.225" stroke="#000"/>
   <polygon points="34.001 9.4583 36.644 5.6825 30.225 0.018898" stroke="#000"/>
   <polygon points="3.7946 20.786 0.018898 22.673 0.018898 30.225" stroke="#000"/>
   <polygon points="15.122 0.018898 1.9068 7.5704 9.4583 9.4583" stroke="#000"/>
   <polygon points="35.889 22.673 37.776 20.786 37.776 11.346" stroke="#000"/>
   <polygon points="26.449 30.225 37.776 26.449 35.889 22.673" stroke="#000"/>
   <polygon points="35.889 22.673 37.776 11.346 34.001 9.4583" stroke="#000"/>
   <polygon points="7.5704 15.877 3.7946 20.786 0.018898 30.225" stroke="#000"/>
   <polygon points="15.122 0.018898 9.4583 9.4583 7.5704 15.877" stroke="#000"/>
   <polygon points="7.5704 37.776 22.673 37.776 26.449 30.225" stroke="#000"/>
   <polygon points="34.001 9.4583 30.225 0.018898 15.122 0.018898" stroke="#000"/>
   <polygon points="7.5704 15.877 0.018898 30.225 7.5704 37.776" stroke="#000"/>
   <polygon points="26.449 30.225 35.889 22.673 34.001 9.4583" stroke="#000"/>
   <polygon points="7.5704 15.877 7.5704 37.776 26.449 30.225" stroke="#000"/>
   <polygon points="7.5704 15.877 26.449 30.225 34.001 9.4583" stroke="#000"/>
   <polygon points="7.5704 15.877 34.001 9.4583 15.122 0.018898" stroke="#000"/>
  </svg>
  </pattern>
</defs>
<g class="tile-block" opacity="0.999">
  <g transform="scale(1.0)">
    <rect fill="url(#gint_MISC05_w100)" stroke="none" x="0.0%" width="100.0%" height="100.0%"/>
  </g>
</g>
</svg>

</svg>