<?xml version="1.0" encoding="UTF-8"?>
<svg width="100" height="100" version="1.1" xmlns="http://www.w3.org/2000/svg">
<svg id="GP" class="graphic" width="100%" height="100%">
<style>
symbol *, pattern * {
  vector-effect: non-scaling-stroke;
}
</style>
<defs>
  <pattern id="gint_GRAV01" patternUnits="userSpaceOnUse" patternContentUnits="userSpaceOnUse" x="0" y="0" width="38.4" height="38.4">
  <svg width="38.4" height="38.4" version="1.1" xmlns="http://www.w3.org/2000/svg">
   <polyline points="2.592 7.488 4.032 6.336 4.032 4.8 3.072 3.072 1.536 3.552 0.384 4.608 0.768 5.856 1.344 7.296 2.592 7.488" fill="none" stroke="#000"/>
   <polyline points="4.128 17.952 5.472 17.664 5.76 16.224 5.568 15.072 3.936 14.496 3.168 15.552 3.072 16.896 4.128 17.952" fill="none" stroke="#000"/>
   <polyline points="22.487 15.063 23.735 14.199 23.735 12.375 21.239 11.895 20.279 13.335 20.855 14.583 22.487 15.063" fill="none" stroke="#000"/>
   <polyline points="5.4665 33.513 8.1696 32.815 9.7392 30.982 8.4312 29.324 5.9025 29.236 3.7226 30.807 3.2866 32.902 5.4665 33.513" fill="none" stroke="#000"/>
   <polyline points="20.531 33.382 22.259 32.998 23.699 31.558 22.259 28.198 18.982 26.007 18.323 28.39 18.419 30.886 18.803 32.806 20.531 33.382" fill="none" stroke="#000"/>
   <polyline points="0 12.672 0.48 13.632 0 14.88" fill="none" stroke="#000"/>
   <polyline points="0 20.736 3.168 21.888 4.512 25.056 3.168 28.128 0 29.28" fill="none" stroke="#000"/>
   <polyline points="7.104 38.4 8.544 35.904 11.328 34.848 14.112 35.904 15.648 38.4" fill="none" stroke="#000"/>
   <polyline points="21.216 38.4 23.904 37.152 29.184 37.632 31.872 38.4" fill="none" stroke="#000"/>
   <polyline points="38.4 29.28 34.848 29.664 32.928 28.992 31.392 27.264 27.072 24.48 24.768 21.792 25.344 20.544 28.8 18.048 31.488 17.568 33.216 18.432 35.52 19.296 37.344 19.776 38.4 20.736" fill="none" stroke="#000"/>
   <polyline points="31.872 0 32.352 1.248 32.448 2.496 32.544 4.032 33.312 5.376 32.736 7.68 30.624 8.928 26.496 9.12 24.48 8.544 23.04 7.392 21.696 5.184 20.928 2.88 21.216 0" fill="none" stroke="#000"/>
   <polyline points="15.648 0 15.744 3.648 15.072 4.512 13.344 5.472 11.712 5.376 10.464 4.512 9.12 3.648 7.872 2.784 7.104 1.152 7.104 0" fill="none" stroke="#000"/>
   <polyline points="38.4 12.672 36.576 12.096 35.904 13.152 36.672 14.496 37.632 14.976 38.4 14.88" fill="none" stroke="#000"/>
   <polyline points="13.118 22.045 17.822 21.757 19.07 20.701 19.454 18.109 18.206 16.669 17.054 15.037 16.094 12.637 15.326 10.909 13.598 10.237 12.158 9.5651 10.814 10.813 9.9505 14.365 9.9505 16.093 9.6625 19.837 11.102 21.469 13.118 22.045" fill="none" stroke="#000"/>
  </svg>
  </pattern>
</defs>
<g class="tile-block" opacity="0.999">
  <g transform="scale(1.0)">
    <rect fill="url(#gint_GRAV01)" stroke="none" x="0.0%" width="100.0%" height="100.0%"/>
  </g>
</g>
</svg>

</svg>