<?xml version="1.0" encoding="UTF-8"?>
<svg width="100" height="100" version="1.1" xmlns="http://www.w3.org/2000/svg">
<svg id="SPG" class="graphic" width="100%" height="100%">
<style>
symbol *, pattern * {
  vector-effect: non-scaling-stroke;
}
</style>
<defs>
  <pattern id="gint_SAND02" patternUnits="userSpaceOnUse" patternContentUnits="userSpaceOnUse" x="0" y="0" width="38.4" height="38.4">
  <svg width="38.4" height="38.4" version="1.1" xmlns="http://www.w3.org/2000/svg">
   <line x1="17.616" x2="17.136" y1="2.88" y2="3.36" stroke="#000"/>
   <line x1="36.816" x2="36.336" y1="2.88" y2="3.36" stroke="#000"/>
   <line x1=".336" x2="-.144" y1="4.8" y2="5.28" stroke="#000"/>
   <line x1="27.216" x2="26.736" y1="4.8" y2="5.28" stroke="#000"/>
   <line x1="4.176" x2="3.696" y1="6.72" y2="7.2" stroke="#000"/>
   <line x1="15.696" x2="15.216" y1="6.72" y2="7.2" stroke="#000"/>
   <line x1="21.456" x2="20.976" y1="6.72" y2="7.2" stroke="#000"/>
   <line x1="34.896" x2="34.416" y1="6.72" y2="7.2" stroke="#000"/>
   <line x1="8.016" x2="7.536" y1="8.64" y2="9.12" stroke="#000"/>
   <line x1="36.816" x2="36.336" y1="16.32" y2="16.8" stroke="#000"/>
   <line x1=".336" x2="-.144" y1="18.24" y2="18.72" stroke="#000"/>
   <line x1="27.216" x2="26.736" y1="18.24" y2="18.72" stroke="#000"/>
   <line x1="6.096" x2="5.616" y1="20.16" y2="20.64" stroke="#000"/>
   <line x1="19.536" x2="19.056" y1="20.16" y2="20.64" stroke="#000"/>
   <line x1="34.896" x2="34.416" y1="20.16" y2="20.64" stroke="#000"/>
   <line x1="4.176" x2="3.696" y1="25.92" y2="26.4" stroke="#000"/>
   <line x1="25.296" x2="24.816" y1="25.92" y2="26.4" stroke="#000"/>
   <line x1="11.856" x2="11.376" y1="27.84" y2="28.32" stroke="#000"/>
   <line x1="31.056" x2="30.576" y1="27.84" y2="28.32" stroke="#000"/>
   <line x1=".336" x2="-.144" y1="29.76" y2="30.24" stroke="#000"/>
   <line x1="21.456" x2="20.976" y1="29.76" y2="30.24" stroke="#000"/>
   <line x1="6.096" x2="5.616" y1="31.68" y2="32.16" stroke="#000"/>
   <line x1="15.696" x2="15.216" y1="31.68" y2="32.16" stroke="#000"/>
   <line x1="34.896" x2="34.416" y1="31.68" y2="32.16" stroke="#000"/>
   <line x1="2.256" x2="1.776" y1="33.6" y2="34.08" stroke="#000"/>
   <line x1="25.296" x2="24.816" y1="33.6" y2="34.08" stroke="#000"/>
   <line x1="31.056" x2="30.576" y1="8.64" y2="9.12" stroke="#000"/>
   <line x1="2.256" x2="1.776" y1="10.56" y2="11.04" stroke="#000"/>
   <line x1="15.88" x2="15.4" y1="20.945" y2="21.425" stroke="#000"/>
   <line x1="12.916" x2="12.436" y1="16.931" y2="17.411" stroke="#000"/>
   <line x1="13.177" x2="12.697" y1="4.6255" y2="5.1055" stroke="#000"/>
   <line x1="16.665" x2="16.185" y1="11.084" y2="11.564" stroke="#000"/>
   <line x1="34.279" x2="33.799" y1="13.004" y2="13.484" stroke="#000"/>
   <line x1="18.322" x2="17.842" y1="25.92" y2="26.4" stroke="#000"/>
   <line x1="29.222" x2="28.742" y1="31.68" y2="32.16" stroke="#000"/>
   <line x1="36.284" x2="35.804" y1="25.484" y2="25.964" stroke="#000"/>
   <line x1="24.422" x2="23.942" y1="15.447" y2="15.927" stroke="#000"/>
   <line x1="29.654" x2="29.174" y1="12.742" y2="13.222" stroke="#000"/>
   <line x1="24.51" x2="24.03" y1="1.92" y2="2.4" stroke="#000"/>
   <line x1="13.776" x2="13.296" y1="35.52" y2="36" stroke="#000"/>
   <line x1="38.304" x2="37.824" y1="35.52" y2="36" stroke="#000"/>
   <line x1="19.536" x2="19.056" y1="37.44" y2="37.92" stroke="#000"/>
   <line x1="32.976" x2="32.496" y1="37.44" y2="37.92" stroke="#000"/>
   <line x1="25.296" x2="24.816" y1="10.56" y2="11.04" stroke="#000"/>
   <line x1="11.856" x2="11.376" y1="12.48" y2="12.96" stroke="#000"/>
   <line x1="38.064" x2="37.584" y1="12.48" y2="12.96" stroke="#000"/>
   <line x1="4.176" x2="3.696" y1="14.4" y2="14.88" stroke="#000"/>
   <line x1="17.616" x2="17.136" y1="14.4" y2="14.88" stroke="#000"/>
   <line x1="8.016" x2="7.536" y1="16.32" y2="16.8" stroke="#000"/>
   <line x1="31.056" x2="30.576" y1="16.32" y2="16.8" stroke="#000"/>
   <line x1="9.936" x2="9.456" y1="22.08" y2="22.56" stroke="#000"/>
   <line x1="23.376" x2="22.896" y1="22.08" y2="22.56" stroke="#000"/>
   <line x1="13.776" x2="13.296" y1="24" y2="24.48" stroke="#000"/>
   <line x1="29.136" x2="28.656" y1="24" y2="24.48" stroke="#000"/>
   <line x1="2.256" x2="1.776" y1=".96" y2="1.44" stroke="#000"/>
   <line x1="11.856" x2="11.376" y1=".96" y2="1.44" stroke="#000"/>
   <line x1="31.056" x2="30.576" y1=".96" y2="1.44" stroke="#000"/>
   <line x1="6.096" x2="5.616" y1="2.88" y2="3.36" stroke="#000"/>
  </svg>
  </pattern>
  <pattern id="gint_GRAV09" patternUnits="userSpaceOnUse" patternContentUnits="userSpaceOnUse" x="0" y="0" width="38.4" height="38.4">
  <svg width="38.4" height="38.4" version="1.1" xmlns="http://www.w3.org/2000/svg">
   <polyline points="13.598 19.965 16.734 19.773 17.566 19.069 17.822 17.341 16.99 16.381 16.222 15.293 15.582 13.693 15.07 12.541 13.918 12.093 12.958 11.645 12.062 12.477 11.486 14.845 11.486 15.997 11.294 18.493 12.254 19.581 13.598 19.965" fill="none" stroke="#000"/>
   <polyline points="2.464 6.752 3.424 5.984 3.424 4.96 2.784 3.808 1.76 4.128 0.992 4.832 1.248 5.664 1.632 6.624 2.464 6.752" fill="none" stroke="#000"/>
   <polyline points="4.224 17.376 5.12 17.184 5.312 16.224 5.184 15.456 4.096 15.072 3.584 15.776 3.52 16.672 4.224 17.376" fill="none" stroke="#000"/>
   <polyline points="22.327 14.535 23.159 13.959 23.159 12.743 21.495 12.423 20.855 13.383 21.239 14.215 22.327 14.535" fill="none" stroke="#000"/>
   <polyline points="5.8153 32.8 7.6174 32.335 8.6637 31.113 7.7918 30.007 6.106 29.949 4.6527 30.996 4.362 32.393 5.8153 32.8" fill="none" stroke="#000"/>
   <polyline points="20.691 32.153 21.843 31.897 22.803 30.937 21.843 28.697 19.658 27.236 19.219 28.825 19.283 30.489 19.539 31.769 20.691 32.153" fill="none" stroke="#000"/>
   <polyline points="0 22.16 2.112 22.928 3.008 25.04 2.112 27.088 0 27.856" fill="none" stroke="#000"/>
   <polyline points="8.528 38.4 9.488 36.736 11.344 36.032 13.2 36.736 14.224 38.4" fill="none" stroke="#000"/>
   <polyline points="22.992 38.4 24.784 37.568 28.304 37.888 30.096 38.4" fill="none" stroke="#000"/>
   <polyline points="0 13.04 0.32 13.68 0 14.512" fill="none" stroke="#000"/>
   <polyline points="38.4 27.856 36.032 28.112 34.752 27.664 33.728 26.512 30.848 24.656 29.312 22.864 29.696 22.032 32 20.368 33.792 20.048 34.944 20.624 36.48 21.2 37.696 21.52 38.4 22.16" fill="none" stroke="#000"/>
   <polyline points="38.4 13.04 37.184 12.656 36.736 13.36 37.248 14.256 37.888 14.576 38.4 14.512" fill="none" stroke="#000"/>
   <polyline points="14.224 0 14.288 2.432 13.84 3.008 12.688 3.648 11.6 3.584 10.768 3.008 9.872 2.432 9.04 1.856 8.528 0.768 8.528 0" fill="none" stroke="#000"/>
   <polyline points="30.096 0 30.416 0.832 30.48 1.664 30.544 2.688 31.056 3.584 30.672 5.12 29.264 5.952 26.512 6.08 25.168 5.696 24.208 4.928 23.312 3.456 22.8 1.92 22.992 0" fill="none" stroke="#000"/>
  </svg>
  </pattern>
</defs>
<g class="tile-block" opacity="0.999">
  <g transform="scale(0.75)">
    <rect fill="url(#gint_SAND02)" stroke="none" x="0.0%" width="133.33333333333334%" height="133.33333333333334%"/>
  </g>
</g>
<g class="tile-block" opacity="0.999">
  <g transform="scale(1.5)">
    <rect fill="url(#gint_GRAV09)" stroke="none" x="0.0%" width="66.66666666666667%" height="66.66666666666667%"/>
  </g>
</g>
</svg>

</svg>