<?xml version="1.0" encoding="UTF-8"?>
<svg width="100" height="100" version="1.1" xmlns="http://www.w3.org/2000/svg">
<svg id="SW-SC" class="graphic" width="100%" height="100%">
<style>
symbol *, pattern * {
  vector-effect: non-scaling-stroke;
}
</style>
<defs>
  <pattern id="gint_SAND01" patternUnits="userSpaceOnUse" patternContentUnits="userSpaceOnUse" x="0" y="0" width="7.68" height="7.68">
  <svg width="7.68" height="7.68" version="1.1" xmlns="http://www.w3.org/2000/svg">
   <polyline points="6.72 5.76 5.76 4.8" fill="none" stroke="#000"/>
   <polyline points="5.76 4.8 4.8 5.76" fill="none" stroke="#000"/>
   <polyline points="4.8 5.76 5.76 6.72" fill="none" stroke="#000"/>
   <polyline points="5.76 6.72 6.72 5.76" fill="none" stroke="#000"/>
   <polyline points="2.88 1.92 1.92 0.96" fill="none" stroke="#000"/>
   <polyline points="1.92 0.96 0.96 1.92" fill="none" stroke="#000"/>
   <polyline points="0.96 1.92 1.92 2.88" fill="none" stroke="#000"/>
   <polyline points="1.92 2.88 2.88 1.92" fill="none" stroke="#000"/>
  </svg>
  </pattern>
  <pattern id="gint_LINE45D01" patternUnits="userSpaceOnUse" patternContentUnits="userSpaceOnUse" x="0" y="0" width="4.8" height="4.8">
  <svg width="4.8" height="4.8" version="1.1" xmlns="http://www.w3.org/2000/svg">
   <polyline points="0 4.8 4.8 0" fill="none" stroke="#000"/>
  </svg>
  </pattern>
</defs>
<g class="tile-block" opacity="0.999">
  <g transform="scale(1.0)">
    <rect fill="url(#gint_SAND01)" stroke="none" x="0.0%" width="100.0%" height="100.0%"/>
  </g>
</g>
<g class="tile-block" opacity="0.999">
  <g transform="scale(1.5)">
    <rect fill="url(#gint_LINE45D01)" stroke="none" x="33.333333333333336%" width="33.333333333333336%" height="66.66666666666667%"/>
  </g>
<line x1="50.0%" x2="50.0%" stroke="#000" fill="none" y1="0" y2="100%"></line>
</g>
</svg>

</svg>