<?xml version="1.0" encoding="UTF-8"?>
<svg width="100" height="100" version="1.1" xmlns="http://www.w3.org/2000/svg">
<svg id="NR" class="graphic" width="100%" height="100%">
<style>
symbol *, pattern * {
  vector-effect: non-scaling-stroke;
}
</style>
<defs>
  <symbol id="gint_CIRC10" x="0" y="0" viewBox="0 0 192.0 192.0">
  <svg width="192" height="192" version="1.1" xmlns="http://www.w3.org/2000/svg">
   <polyline points="96 172.8 115.78 170.11 134.4 162.53 150.34 150.34 162.53 134.4 170.11 115.78 172.8 96 170.11 76.224 162.53 57.6 150.34 41.664 134.4 29.472 115.78 21.888 96 19.2 76.224 21.888 57.6 29.472 41.664 41.664 29.472 57.6 21.888 76.224 19.2 96 21.888 115.78 29.472 134.4 41.664 150.34 57.6 162.53 76.224 170.11 96 172.8" fill="none" stroke="#000"/>
  </svg>
  </symbol>
</defs>
<g class="tile-block" opacity="0.999">
  <g transform="scale(1.0)">
    <rect fill="none" stroke="none" x="0.0%" width="100.0%" height="100.0%"/>
<use href="#gint_CIRC10" x="0.0%" width="100.0%" height="100.0%"/>
  </g>
</g>
</svg>

</svg>