<?xml version="1.0" encoding="utf-8" standalone="no"?>
<!DOCTYPE svg PUBLIC "-//W3C//DTD SVG 1.1//EN"
  "http://www.w3.org/Graphics/SVG/1.1/DTD/svg11.dtd">
<svg xmlns:xlink="http://www.w3.org/1999/xlink" width="460.8pt" height="345.6pt" viewBox="0 0 460.8 345.6" xmlns="http://www.w3.org/2000/svg" version="1.1">
 <metadata>
  <rdf:RDF xmlns:dc="http://purl.org/dc/elements/1.1/" xmlns:cc="http://creativecommons.org/ns#" xmlns:rdf="http://www.w3.org/1999/02/22-rdf-syntax-ns#">
   <cc:Work>
    <dc:type rdf:resource="http://purl.org/dc/dcmitype/StillImage"/>
    <dc:date>2026-07-14T10:05:19.490933</dc:date>
    <dc:format>image/svg+xml</dc:format>
    <dc:creator>
     <cc:Agent>
      <dc:title>Matplotlib v3.11.0, https://matplotlib.org/</dc:title>
     </cc:Agent>
    </dc:creator>
   </cc:Work>
  </rdf:RDF>
 </metadata>
 <defs>
  <style type="text/css">*{stroke-linejoin: round; stroke-linecap: butt}</style>
 </defs>
 <g id="figure_1">
  <g id="patch_1">
   <path d="M 0 345.6 
L 460.8 345.6 
L 460.8 0 
L 0 0 
z
" style="fill: #ffffff"/>
  </g>
  <g id="axes_1">
   <g id="patch_2">
    <path d="M 57.6 307.584 
L 414.72 307.584 
L 414.72 41.472 
L 57.6 41.472 
z
" style="fill: #ffffff"/>
   </g>
   <g id="patch_3">
    <path d="M 57.6 67.61125 
L 77.945725 67.683298 
L 98.748959 67.826272 
L 119.444787 68.115284 
L 139.897919 68.631925 
L 156.284437 69.242942 
L 172.670955 69.995652 
L 201.30878 72.664047 
L 211.861087 82.572498 
L 221.053795 92.912236 
L 228.075659 105.266987 
L 230.532315 118.144628 
L 228.247605 128.97637 
L 222.08341 139.34574 
L 211.648627 149.387727 
L 197.701264 157.853109 
L 182.252833 163.942652 
L 165.297459 168.645184 
L 147.313387 172.387007 
L 128.96574 175.264439 
L 110.179889 177.434119 
L 91.585628 179.209791 
L 74.281376 180.753526 
L 57.6 182.269263 
z
" clip-path="url(#p68dbcdc7da)" style="fill: #ff0000; stroke: #000000; stroke-linejoin: miter"/>
   </g>
   <g id="patch_4">
    <path d="M 57.6 182.269263 
L 74.281376 180.753526 
L 91.585628 179.209791 
L 110.179889 177.434119 
L 128.96574 175.264439 
L 147.313387 172.387007 
L 165.297459 168.645184 
L 182.252833 163.942652 
L 197.701264 157.853109 
L 211.648627 149.387727 
L 222.08341 139.34574 
L 228.247605 128.97637 
L 230.532315 118.144628 
L 228.075659 105.266987 
L 221.053795 92.912236 
L 211.861087 82.572498 
L 201.30878 72.664047 
L 222.361858 78.841781 
L 240.678615 87.901492 
L 252.08726 95.38934 
L 261.696723 103.558088 
L 269.844861 113.238425 
L 274.899879 123.557646 
L 276.252624 135.589623 
L 273.905361 147.639832 
L 270.245625 156.975767 
L 265.027333 166.070794 
L 258.274949 174.701104 
L 249.519224 182.635894 
L 234.355573 191.456133 
L 216.493709 198.615421 
L 196.804749 204.520874 
L 176.278471 209.100125 
L 155.410651 212.402705 
L 134.336567 215.002229 
L 115.135477 217.073873 
L 95.962518 218.764602 
L 76.743412 219.906734 
L 57.6 220.746672 
z
" clip-path="url(#p68dbcdc7da)" style="fill: #ffa500; stroke: #000000; stroke-linejoin: miter"/>
   </g>
   <g id="patch_5">
    <path d="M 57.6 41.472 
L 414.72 41.472 
L 414.72 307.584 
L 57.6 307.584 
L 57.6 220.746672 
L 76.743412 219.906734 
L 95.962518 218.764602 
L 115.135477 217.073873 
L 134.336567 215.002229 
L 155.410651 212.402705 
L 176.278471 209.100125 
L 196.804749 204.520874 
L 216.493709 198.615421 
L 234.355573 191.456133 
L 249.519224 182.635894 
L 258.274949 174.701104 
L 265.027333 166.070794 
L 270.245625 156.975767 
L 273.905361 147.639832 
L 276.252624 135.589623 
L 274.899879 123.557646 
L 269.844861 113.238425 
L 261.696723 103.558088 
L 252.08726 95.38934 
L 240.678615 87.901492 
L 222.361858 78.841781 
L 201.30878 72.664047 
L 187.218781 70.879891 
L 172.670955 69.995652 
L 156.284437 69.242942 
L 139.897919 68.631925 
L 119.444787 68.115284 
L 98.748959 67.826272 
L 77.945725 67.683298 
L 57.6 67.61125 
z
" clip-path="url(#p68dbcdc7da)" style="fill: #ffff00; stroke: #000000; stroke-linejoin: miter"/>
   </g>
   <g id="PathCollection_1">
    <defs>
     <path id="mb0c8dc06fd" d="M 0 3 
C 0.795609 3 1.55874 2.683901 2.12132 2.12132 
C 2.683901 1.55874 3 0.795609 3 0 
C 3 -0.795609 2.683901 -1.55874 2.12132 -2.12132 
C 1.55874 -2.683901 0.795609 -3 0 -3 
C -0.795609 -3 -1.55874 -2.683901 -2.12132 -2.12132 
C -2.683901 -1.55874 -3 -0.795609 -3 0 
C -3 0.795609 -2.683901 1.55874 -2.12132 2.12132 
C -1.55874 2.683901 -0.795609 3 0 3 
z
" style="stroke: #1f77b4"/>
    </defs>
    <g clip-path="url(#p68dbcdc7da)"/>
   </g>
   <g id="matplotlib.axis_1">
    <g id="xtick_1">
     <g id="line2d_1">
      <defs>
       <path id="md69dc83567" d="M 0 0 
L 0 3.5 
" style="stroke: #000000; stroke-width: 0.8"/>
      </defs>
      <g>
       <use xlink:href="#md69dc83567" x="57.6" y="307.584" style="stroke: #000000; stroke-width: 0.8"/>
      </g>
     </g>
     <g id="text_1">
      <!-- $\mathdefault{10^{-1}}$ -->
      <g transform="translate(47.85 323.784) scale(0.1 -0.1)">
       <defs>
        <path id="ArialMT-14" d="M 2384 0 
L 1822 0 
L 1822 3584 
Q 1619 3391 1289 3197 
Q 959 3003 697 2906 
L 697 3450 
Q 1169 3672 1522 3987 
Q 1875 4303 2022 4600 
L 2384 4600 
L 2384 0 
z
" transform="scale(0.015625)"/>
        <path id="ArialMT-13" d="M 266 2259 
Q 266 3072 433 3567 
Q 600 4063 929 4331 
Q 1259 4600 1759 4600 
Q 2128 4600 2406 4451 
Q 2684 4303 2865 4023 
Q 3047 3744 3150 3342 
Q 3253 2941 3253 2259 
Q 3253 1453 3087 958 
Q 2922 463 2592 192 
Q 2263 -78 1759 -78 
Q 1097 -78 719 397 
Q 266 969 266 2259 
z
M 844 2259 
Q 844 1131 1108 757 
Q 1372 384 1759 384 
Q 2147 384 2411 759 
Q 2675 1134 2675 2259 
Q 2675 3391 2411 3762 
Q 2147 4134 1753 4134 
Q 1366 4134 1134 3806 
Q 844 3388 844 2259 
z
" transform="scale(0.015625)"/>
        <path id="ArialMT-ed" d="M 3381 1997 
L 356 1997 
L 356 2522 
L 3381 2522 
L 3381 1997 
z
" transform="scale(0.015625)"/>
       </defs>
       <use xlink:href="#ArialMT-14" transform="translate(0 0.3875)"/>
       <use xlink:href="#ArialMT-13" transform="translate(55.615234 0.3875)"/>
       <use xlink:href="#ArialMT-ed" transform="translate(112.1875 41.6875) scale(0.7)"/>
       <use xlink:href="#ArialMT-14" transform="translate(153.066406 41.6875) scale(0.7)"/>
      </g>
     </g>
    </g>
    <g id="xtick_2">
     <g id="line2d_2">
      <g>
       <use xlink:href="#md69dc83567" x="236.16" y="307.584" style="stroke: #000000; stroke-width: 0.8"/>
      </g>
     </g>
     <g id="text_2">
      <!-- $\mathdefault{10^{0}}$ -->
      <g transform="translate(228.46 323.784) scale(0.1 -0.1)">
       <use xlink:href="#ArialMT-14" transform="translate(0 0.3875)"/>
       <use xlink:href="#ArialMT-13" transform="translate(55.615234 0.3875)"/>
       <use xlink:href="#ArialMT-13" transform="translate(112.1875 41.6875) scale(0.7)"/>
      </g>
     </g>
    </g>
    <g id="xtick_3">
     <g id="line2d_3">
      <g>
       <use xlink:href="#md69dc83567" x="414.72" y="307.584" style="stroke: #000000; stroke-width: 0.8"/>
      </g>
     </g>
     <g id="text_3">
      <!-- $\mathdefault{10^{1}}$ -->
      <g transform="translate(407.02 323.784) scale(0.1 -0.1)">
       <use xlink:href="#ArialMT-14" transform="translate(0 0.3875)"/>
       <use xlink:href="#ArialMT-13" transform="translate(55.615234 0.3875)"/>
       <use xlink:href="#ArialMT-14" transform="translate(112.1875 41.6875) scale(0.7)"/>
      </g>
     </g>
    </g>
    <g id="xtick_4">
     <g id="line2d_4">
      <defs>
       <path id="m0a4ef5166f" d="M 0 0 
L 0 2 
" style="stroke: #000000; stroke-width: 0.6"/>
      </defs>
      <g>
       <use xlink:href="#m0a4ef5166f" x="111.351916" y="307.584" style="stroke: #000000; stroke-width: 0.6"/>
      </g>
     </g>
    </g>
    <g id="xtick_5">
     <g id="line2d_5">
      <g>
       <use xlink:href="#m0a4ef5166f" x="142.794771" y="307.584" style="stroke: #000000; stroke-width: 0.6"/>
      </g>
     </g>
    </g>
    <g id="xtick_6">
     <g id="line2d_6">
      <g>
       <use xlink:href="#m0a4ef5166f" x="165.103832" y="307.584" style="stroke: #000000; stroke-width: 0.6"/>
      </g>
     </g>
    </g>
    <g id="xtick_7">
     <g id="line2d_7">
      <g>
       <use xlink:href="#m0a4ef5166f" x="182.408084" y="307.584" style="stroke: #000000; stroke-width: 0.6"/>
      </g>
     </g>
    </g>
    <g id="xtick_8">
     <g id="line2d_8">
      <g>
       <use xlink:href="#m0a4ef5166f" x="196.546687" y="307.584" style="stroke: #000000; stroke-width: 0.6"/>
      </g>
     </g>
    </g>
    <g id="xtick_9">
     <g id="line2d_9">
      <g>
       <use xlink:href="#m0a4ef5166f" x="208.500706" y="307.584" style="stroke: #000000; stroke-width: 0.6"/>
      </g>
     </g>
    </g>
    <g id="xtick_10">
     <g id="line2d_10">
      <g>
       <use xlink:href="#m0a4ef5166f" x="218.855748" y="307.584" style="stroke: #000000; stroke-width: 0.6"/>
      </g>
     </g>
    </g>
    <g id="xtick_11">
     <g id="line2d_11">
      <g>
       <use xlink:href="#m0a4ef5166f" x="227.989542" y="307.584" style="stroke: #000000; stroke-width: 0.6"/>
      </g>
     </g>
    </g>
    <g id="xtick_12">
     <g id="line2d_12">
      <g>
       <use xlink:href="#m0a4ef5166f" x="289.911916" y="307.584" style="stroke: #000000; stroke-width: 0.6"/>
      </g>
     </g>
    </g>
    <g id="xtick_13">
     <g id="line2d_13">
      <g>
       <use xlink:href="#m0a4ef5166f" x="321.354771" y="307.584" style="stroke: #000000; stroke-width: 0.6"/>
      </g>
     </g>
    </g>
    <g id="xtick_14">
     <g id="line2d_14">
      <g>
       <use xlink:href="#m0a4ef5166f" x="343.663832" y="307.584" style="stroke: #000000; stroke-width: 0.6"/>
      </g>
     </g>
    </g>
    <g id="xtick_15">
     <g id="line2d_15">
      <g>
       <use xlink:href="#m0a4ef5166f" x="360.968084" y="307.584" style="stroke: #000000; stroke-width: 0.6"/>
      </g>
     </g>
    </g>
    <g id="xtick_16">
     <g id="line2d_16">
      <g>
       <use xlink:href="#m0a4ef5166f" x="375.106687" y="307.584" style="stroke: #000000; stroke-width: 0.6"/>
      </g>
     </g>
    </g>
    <g id="xtick_17">
     <g id="line2d_17">
      <g>
       <use xlink:href="#m0a4ef5166f" x="387.060706" y="307.584" style="stroke: #000000; stroke-width: 0.6"/>
      </g>
     </g>
    </g>
    <g id="xtick_18">
     <g id="line2d_18">
      <g>
       <use xlink:href="#m0a4ef5166f" x="397.415748" y="307.584" style="stroke: #000000; stroke-width: 0.6"/>
      </g>
     </g>
    </g>
    <g id="xtick_19">
     <g id="line2d_19">
      <g>
       <use xlink:href="#m0a4ef5166f" x="406.549542" y="307.584" style="stroke: #000000; stroke-width: 0.6"/>
      </g>
     </g>
    </g>
    <g id="text_4">
     <!-- Normalized friction ratio (%) -->
     <g transform="translate(174.481094 337.168766) scale(0.1 -0.1)">
      <defs>
       <path id="ArialMT-31" d="M 488 0 
L 488 4581 
L 1109 4581 
L 3516 984 
L 3516 4581 
L 4097 4581 
L 4097 0 
L 3475 0 
L 1069 3600 
L 1069 0 
L 488 0 
z
" transform="scale(0.015625)"/>
       <path id="ArialMT-52" d="M 213 1659 
Q 213 2581 725 3025 
Q 1153 3394 1769 3394 
Q 2453 3394 2887 2945 
Q 3322 2497 3322 1706 
Q 3322 1066 3130 698 
Q 2938 331 2570 128 
Q 2203 -75 1769 -75 
Q 1072 -75 642 372 
Q 213 819 213 1659 
z
M 791 1659 
Q 791 1022 1069 705 
Q 1347 388 1769 388 
Q 2188 388 2466 706 
Q 2744 1025 2744 1678 
Q 2744 2294 2464 2611 
Q 2184 2928 1769 2928 
Q 1347 2928 1069 2612 
Q 791 2297 791 1659 
z
" transform="scale(0.015625)"/>
       <path id="ArialMT-55" d="M 416 0 
L 416 3319 
L 922 3319 
L 922 2816 
Q 1116 3169 1280 3281 
Q 1444 3394 1641 3394 
Q 1925 3394 2219 3213 
L 2025 2691 
Q 1819 2813 1613 2813 
Q 1428 2813 1281 2702 
Q 1134 2591 1072 2394 
Q 978 2094 978 1738 
L 978 0 
L 416 0 
z
" transform="scale(0.015625)"/>
       <path id="ArialMT-50" d="M 422 0 
L 422 3319 
L 925 3319 
L 925 2853 
Q 1081 3097 1340 3245 
Q 1600 3394 1931 3394 
Q 2300 3394 2536 3241 
Q 2772 3088 2869 2813 
Q 3263 3394 3894 3394 
Q 4388 3394 4653 3120 
Q 4919 2847 4919 2278 
L 4919 0 
L 4359 0 
L 4359 2091 
Q 4359 2428 4304 2576 
Q 4250 2725 4106 2815 
Q 3963 2906 3769 2906 
Q 3419 2906 3187 2673 
Q 2956 2441 2956 1928 
L 2956 0 
L 2394 0 
L 2394 2156 
Q 2394 2531 2256 2718 
Q 2119 2906 1806 2906 
Q 1569 2906 1367 2781 
Q 1166 2656 1075 2415 
Q 984 2175 984 1722 
L 984 0 
L 422 0 
z
" transform="scale(0.015625)"/>
       <path id="ArialMT-44" d="M 2588 409 
Q 2275 144 1986 34 
Q 1697 -75 1366 -75 
Q 819 -75 525 192 
Q 231 459 231 875 
Q 231 1119 342 1320 
Q 453 1522 633 1644 
Q 813 1766 1038 1828 
Q 1203 1872 1538 1913 
Q 2219 1994 2541 2106 
Q 2544 2222 2544 2253 
Q 2544 2597 2384 2738 
Q 2169 2928 1744 2928 
Q 1347 2928 1158 2789 
Q 969 2650 878 2297 
L 328 2372 
Q 403 2725 575 2942 
Q 747 3159 1072 3276 
Q 1397 3394 1825 3394 
Q 2250 3394 2515 3294 
Q 2781 3194 2906 3042 
Q 3031 2891 3081 2659 
Q 3109 2516 3109 2141 
L 3109 1391 
Q 3109 606 3145 398 
Q 3181 191 3288 0 
L 2700 0 
Q 2613 175 2588 409 
z
M 2541 1666 
Q 2234 1541 1622 1453 
Q 1275 1403 1131 1340 
Q 988 1278 909 1158 
Q 831 1038 831 891 
Q 831 666 1001 516 
Q 1172 366 1500 366 
Q 1825 366 2078 508 
Q 2331 650 2450 897 
Q 2541 1088 2541 1459 
L 2541 1666 
z
" transform="scale(0.015625)"/>
       <path id="ArialMT-4f" d="M 409 0 
L 409 4581 
L 972 4581 
L 972 0 
L 409 0 
z
" transform="scale(0.015625)"/>
       <path id="ArialMT-4c" d="M 425 3934 
L 425 4581 
L 988 4581 
L 988 3934 
L 425 3934 
z
M 425 0 
L 425 3319 
L 988 3319 
L 988 0 
L 425 0 
z
" transform="scale(0.015625)"/>
       <path id="ArialMT-5d" d="M 125 0 
L 125 456 
L 2238 2881 
Q 1878 2863 1603 2863 
L 250 2863 
L 250 3319 
L 2963 3319 
L 2963 2947 
L 1166 841 
L 819 456 
Q 1197 484 1528 484 
L 3063 484 
L 3063 0 
L 125 0 
z
" transform="scale(0.015625)"/>
       <path id="ArialMT-48" d="M 2694 1069 
L 3275 997 
Q 3138 488 2766 206 
Q 2394 -75 1816 -75 
Q 1088 -75 661 373 
Q 234 822 234 1631 
Q 234 2469 665 2931 
Q 1097 3394 1784 3394 
Q 2450 3394 2872 2941 
Q 3294 2488 3294 1666 
Q 3294 1616 3291 1516 
L 816 1516 
Q 847 969 1125 678 
Q 1403 388 1819 388 
Q 2128 388 2347 550 
Q 2566 713 2694 1069 
z
M 847 1978 
L 2700 1978 
Q 2663 2397 2488 2606 
Q 2219 2931 1791 2931 
Q 1403 2931 1139 2672 
Q 875 2413 847 1978 
z
" transform="scale(0.015625)"/>
       <path id="ArialMT-47" d="M 2575 0 
L 2575 419 
Q 2259 -75 1647 -75 
Q 1250 -75 917 144 
Q 584 363 401 755 
Q 219 1147 219 1656 
Q 219 2153 384 2558 
Q 550 2963 881 3178 
Q 1213 3394 1622 3394 
Q 1922 3394 2156 3267 
Q 2391 3141 2538 2938 
L 2538 4581 
L 3097 4581 
L 3097 0 
L 2575 0 
z
M 797 1656 
Q 797 1019 1065 703 
Q 1334 388 1700 388 
Q 2069 388 2326 689 
Q 2584 991 2584 1609 
Q 2584 2291 2321 2609 
Q 2059 2928 1675 2928 
Q 1300 2928 1048 2622 
Q 797 2316 797 1656 
z
" transform="scale(0.015625)"/>
       <path id="ArialMT-3" transform="scale(0.015625)"/>
       <path id="ArialMT-49" d="M 556 0 
L 556 2881 
L 59 2881 
L 59 3319 
L 556 3319 
L 556 3672 
Q 556 4006 616 4169 
Q 697 4388 901 4523 
Q 1106 4659 1475 4659 
Q 1713 4659 2000 4603 
L 1916 4113 
Q 1741 4144 1584 4144 
Q 1328 4144 1222 4034 
Q 1116 3925 1116 3625 
L 1116 3319 
L 1763 3319 
L 1763 2881 
L 1116 2881 
L 1116 0 
L 556 0 
z
" transform="scale(0.015625)"/>
       <path id="ArialMT-46" d="M 2588 1216 
L 3141 1144 
Q 3050 572 2676 248 
Q 2303 -75 1759 -75 
Q 1078 -75 664 370 
Q 250 816 250 1647 
Q 250 2184 428 2587 
Q 606 2991 970 3192 
Q 1334 3394 1763 3394 
Q 2303 3394 2647 3120 
Q 2991 2847 3088 2344 
L 2541 2259 
Q 2463 2594 2264 2762 
Q 2066 2931 1784 2931 
Q 1359 2931 1093 2626 
Q 828 2322 828 1663 
Q 828 994 1084 691 
Q 1341 388 1753 388 
Q 2084 388 2306 591 
Q 2528 794 2588 1216 
z
" transform="scale(0.015625)"/>
       <path id="ArialMT-57" d="M 1650 503 
L 1731 6 
Q 1494 -44 1306 -44 
Q 1000 -44 831 53 
Q 663 150 594 308 
Q 525 466 525 972 
L 525 2881 
L 113 2881 
L 113 3319 
L 525 3319 
L 525 4141 
L 1084 4478 
L 1084 3319 
L 1650 3319 
L 1650 2881 
L 1084 2881 
L 1084 941 
Q 1084 700 1114 631 
Q 1144 563 1211 522 
Q 1278 481 1403 481 
Q 1497 481 1650 503 
z
" transform="scale(0.015625)"/>
       <path id="ArialMT-51" d="M 422 0 
L 422 3319 
L 928 3319 
L 928 2847 
Q 1294 3394 1984 3394 
Q 2284 3394 2536 3286 
Q 2788 3178 2913 3003 
Q 3038 2828 3088 2588 
Q 3119 2431 3119 2041 
L 3119 0 
L 2556 0 
L 2556 2019 
Q 2556 2363 2490 2533 
Q 2425 2703 2258 2804 
Q 2091 2906 1866 2906 
Q 1506 2906 1245 2678 
Q 984 2450 984 1813 
L 984 0 
L 422 0 
z
" transform="scale(0.015625)"/>
       <path id="ArialMT-b" d="M 1497 -1347 
Q 1031 -759 709 28 
Q 388 816 388 1659 
Q 388 2403 628 3084 
Q 909 3875 1497 4659 
L 1900 4659 
Q 1522 4009 1400 3731 
Q 1209 3300 1100 2831 
Q 966 2247 966 1656 
Q 966 153 1900 -1347 
L 1497 -1347 
z
" transform="scale(0.015625)"/>
       <path id="ArialMT-8" d="M 372 3481 
Q 372 3972 619 4315 
Q 866 4659 1334 4659 
Q 1766 4659 2048 4351 
Q 2331 4044 2331 3447 
Q 2331 2866 2045 2552 
Q 1759 2238 1341 2238 
Q 925 2238 648 2547 
Q 372 2856 372 3481 
z
M 1350 4272 
Q 1141 4272 1002 4090 
Q 863 3909 863 3425 
Q 863 2984 1003 2804 
Q 1144 2625 1350 2625 
Q 1563 2625 1702 2806 
Q 1841 2988 1841 3469 
Q 1841 3913 1700 4092 
Q 1559 4272 1350 4272 
z
M 1353 -169 
L 3859 4659 
L 4316 4659 
L 1819 -169 
L 1353 -169 
z
M 3334 1075 
Q 3334 1569 3581 1911 
Q 3828 2253 4300 2253 
Q 4731 2253 5014 1945 
Q 5297 1638 5297 1041 
Q 5297 459 5011 145 
Q 4725 -169 4303 -169 
Q 3888 -169 3611 142 
Q 3334 453 3334 1075 
z
M 4316 1866 
Q 4103 1866 3964 1684 
Q 3825 1503 3825 1019 
Q 3825 581 3965 400 
Q 4106 219 4313 219 
Q 4528 219 4667 400 
Q 4806 581 4806 1063 
Q 4806 1506 4665 1686 
Q 4525 1866 4316 1866 
z
" transform="scale(0.015625)"/>
       <path id="ArialMT-c" d="M 791 -1347 
L 388 -1347 
Q 1322 153 1322 1656 
Q 1322 2244 1188 2822 
Q 1081 3291 891 3722 
Q 769 4003 388 4659 
L 791 4659 
Q 1378 3875 1659 3084 
Q 1900 2403 1900 1659 
Q 1900 816 1576 28 
Q 1253 -759 791 -1347 
z
" transform="scale(0.015625)"/>
      </defs>
      <use xlink:href="#ArialMT-31"/>
      <use xlink:href="#ArialMT-52" transform="translate(72.21875 0)"/>
      <use xlink:href="#ArialMT-55" transform="translate(127.828125 0)"/>
      <use xlink:href="#ArialMT-50" transform="translate(161.125 0)"/>
      <use xlink:href="#ArialMT-44" transform="translate(244.421875 0)"/>
      <use xlink:href="#ArialMT-4f" transform="translate(300.03125 0)"/>
      <use xlink:href="#ArialMT-4c" transform="translate(322.25 0)"/>
      <use xlink:href="#ArialMT-5d" transform="translate(344.46875 0)"/>
      <use xlink:href="#ArialMT-48" transform="translate(394.46875 0)"/>
      <use xlink:href="#ArialMT-47" transform="translate(450.078125 0)"/>
      <use xlink:href="#ArialMT-3" transform="translate(505.6875 0)"/>
      <use xlink:href="#ArialMT-49" transform="translate(533.46875 0)"/>
      <use xlink:href="#ArialMT-55" transform="translate(561.25 0)"/>
      <use xlink:href="#ArialMT-4c" transform="translate(594.546875 0)"/>
      <use xlink:href="#ArialMT-46" transform="translate(616.765625 0)"/>
      <use xlink:href="#ArialMT-57" transform="translate(666.765625 0)"/>
      <use xlink:href="#ArialMT-4c" transform="translate(694.546875 0)"/>
      <use xlink:href="#ArialMT-52" transform="translate(716.765625 0)"/>
      <use xlink:href="#ArialMT-51" transform="translate(772.375 0)"/>
      <use xlink:href="#ArialMT-3" transform="translate(827.984375 0)"/>
      <use xlink:href="#ArialMT-55" transform="translate(855.765625 0)"/>
      <use xlink:href="#ArialMT-44" transform="translate(889.0625 0)"/>
      <use xlink:href="#ArialMT-57" transform="translate(944.671875 0)"/>
      <use xlink:href="#ArialMT-4c" transform="translate(972.453125 0)"/>
      <use xlink:href="#ArialMT-52" transform="translate(994.671875 0)"/>
      <use xlink:href="#ArialMT-3" transform="translate(1050.28125 0)"/>
      <use xlink:href="#ArialMT-b" transform="translate(1078.0625 0)"/>
      <use xlink:href="#ArialMT-8" transform="translate(1111.359375 0)"/>
      <use xlink:href="#ArialMT-c" transform="translate(1200.28125 0)"/>
     </g>
    </g>
   </g>
   <g id="matplotlib.axis_2">
    <g id="ytick_1">
     <g id="line2d_20">
      <defs>
       <path id="ma70c025abc" d="M 0 0 
L -3.5 0 
" style="stroke: #000000; stroke-width: 0.8"/>
      </defs>
      <g>
       <use xlink:href="#ma70c025abc" x="57.6" y="307.584" style="stroke: #000000; stroke-width: 0.8"/>
      </g>
     </g>
     <g id="text_5">
      <!-- $\mathdefault{10^{0}}$ -->
      <g transform="translate(35.2 312.184) scale(0.1 -0.1)">
       <use xlink:href="#ArialMT-14" transform="translate(0 0.3875)"/>
       <use xlink:href="#ArialMT-13" transform="translate(55.615234 0.3875)"/>
       <use xlink:href="#ArialMT-13" transform="translate(112.1875 41.6875) scale(0.7)"/>
      </g>
     </g>
    </g>
    <g id="ytick_2">
     <g id="line2d_21">
      <g>
       <use xlink:href="#ma70c025abc" x="57.6" y="218.88" style="stroke: #000000; stroke-width: 0.8"/>
      </g>
     </g>
     <g id="text_6">
      <!-- $\mathdefault{10^{1}}$ -->
      <g transform="translate(35.2 223.48) scale(0.1 -0.1)">
       <use xlink:href="#ArialMT-14" transform="translate(0 0.3875)"/>
       <use xlink:href="#ArialMT-13" transform="translate(55.615234 0.3875)"/>
       <use xlink:href="#ArialMT-14" transform="translate(112.1875 41.6875) scale(0.7)"/>
      </g>
     </g>
    </g>
    <g id="ytick_3">
     <g id="line2d_22">
      <g>
       <use xlink:href="#ma70c025abc" x="57.6" y="130.176" style="stroke: #000000; stroke-width: 0.8"/>
      </g>
     </g>
     <g id="text_7">
      <!-- $\mathdefault{10^{2}}$ -->
      <g transform="translate(35.2 134.776) scale(0.1 -0.1)">
       <defs>
        <path id="ArialMT-15" d="M 3222 541 
L 3222 0 
L 194 0 
Q 188 203 259 391 
Q 375 700 629 1000 
Q 884 1300 1366 1694 
Q 2113 2306 2375 2664 
Q 2638 3022 2638 3341 
Q 2638 3675 2398 3904 
Q 2159 4134 1775 4134 
Q 1369 4134 1125 3890 
Q 881 3647 878 3216 
L 300 3275 
Q 359 3922 746 4261 
Q 1134 4600 1788 4600 
Q 2447 4600 2831 4234 
Q 3216 3869 3216 3328 
Q 3216 3053 3103 2787 
Q 2991 2522 2730 2228 
Q 2469 1934 1863 1422 
Q 1356 997 1212 845 
Q 1069 694 975 541 
L 3222 541 
z
" transform="scale(0.015625)"/>
       </defs>
       <use xlink:href="#ArialMT-14" transform="translate(0 0.3875)"/>
       <use xlink:href="#ArialMT-13" transform="translate(55.615234 0.3875)"/>
       <use xlink:href="#ArialMT-15" transform="translate(112.1875 41.6875) scale(0.7)"/>
      </g>
     </g>
    </g>
    <g id="ytick_4">
     <g id="line2d_23">
      <g>
       <use xlink:href="#ma70c025abc" x="57.6" y="41.472" style="stroke: #000000; stroke-width: 0.8"/>
      </g>
     </g>
     <g id="text_8">
      <!-- $\mathdefault{10^{3}}$ -->
      <g transform="translate(35.2 46.072) scale(0.1 -0.1)">
       <defs>
        <path id="ArialMT-16" d="M 269 1209 
L 831 1284 
Q 928 806 1161 595 
Q 1394 384 1728 384 
Q 2125 384 2398 659 
Q 2672 934 2672 1341 
Q 2672 1728 2419 1979 
Q 2166 2231 1775 2231 
Q 1616 2231 1378 2169 
L 1441 2663 
Q 1497 2656 1531 2656 
Q 1891 2656 2178 2843 
Q 2466 3031 2466 3422 
Q 2466 3731 2256 3934 
Q 2047 4138 1716 4138 
Q 1388 4138 1169 3931 
Q 950 3725 888 3313 
L 325 3413 
Q 428 3978 793 4289 
Q 1159 4600 1703 4600 
Q 2078 4600 2393 4439 
Q 2709 4278 2876 4000 
Q 3044 3722 3044 3409 
Q 3044 3113 2884 2869 
Q 2725 2625 2413 2481 
Q 2819 2388 3044 2092 
Q 3269 1797 3269 1353 
Q 3269 753 2831 336 
Q 2394 -81 1725 -81 
Q 1122 -81 723 278 
Q 325 638 269 1209 
z
" transform="scale(0.015625)"/>
       </defs>
       <use xlink:href="#ArialMT-14" transform="translate(0 0.3875)"/>
       <use xlink:href="#ArialMT-13" transform="translate(55.615234 0.3875)"/>
       <use xlink:href="#ArialMT-16" transform="translate(112.1875 41.6875) scale(0.7)"/>
      </g>
     </g>
    </g>
    <g id="ytick_5">
     <g id="line2d_24">
      <defs>
       <path id="m3c914df429" d="M 0 0 
L -2 0 
" style="stroke: #000000; stroke-width: 0.6"/>
      </defs>
      <g>
       <use xlink:href="#m3c914df429" x="57.6" y="280.881435" style="stroke: #000000; stroke-width: 0.6"/>
      </g>
     </g>
    </g>
    <g id="ytick_6">
     <g id="line2d_25">
      <g>
       <use xlink:href="#m3c914df429" x="57.6" y="265.261436" style="stroke: #000000; stroke-width: 0.6"/>
      </g>
     </g>
    </g>
    <g id="ytick_7">
     <g id="line2d_26">
      <g>
       <use xlink:href="#m3c914df429" x="57.6" y="254.178871" style="stroke: #000000; stroke-width: 0.6"/>
      </g>
     </g>
    </g>
    <g id="ytick_8">
     <g id="line2d_27">
      <g>
       <use xlink:href="#m3c914df429" x="57.6" y="245.582565" style="stroke: #000000; stroke-width: 0.6"/>
      </g>
     </g>
    </g>
    <g id="ytick_9">
     <g id="line2d_28">
      <g>
       <use xlink:href="#m3c914df429" x="57.6" y="238.558871" style="stroke: #000000; stroke-width: 0.6"/>
      </g>
     </g>
    </g>
    <g id="ytick_10">
     <g id="line2d_29">
      <g>
       <use xlink:href="#m3c914df429" x="57.6" y="232.620423" style="stroke: #000000; stroke-width: 0.6"/>
      </g>
     </g>
    </g>
    <g id="ytick_11">
     <g id="line2d_30">
      <g>
       <use xlink:href="#m3c914df429" x="57.6" y="227.476306" style="stroke: #000000; stroke-width: 0.6"/>
      </g>
     </g>
    </g>
    <g id="ytick_12">
     <g id="line2d_31">
      <g>
       <use xlink:href="#m3c914df429" x="57.6" y="222.938872" style="stroke: #000000; stroke-width: 0.6"/>
      </g>
     </g>
    </g>
    <g id="ytick_13">
     <g id="line2d_32">
      <g>
       <use xlink:href="#m3c914df429" x="57.6" y="192.177435" style="stroke: #000000; stroke-width: 0.6"/>
      </g>
     </g>
    </g>
    <g id="ytick_14">
     <g id="line2d_33">
      <g>
       <use xlink:href="#m3c914df429" x="57.6" y="176.557436" style="stroke: #000000; stroke-width: 0.6"/>
      </g>
     </g>
    </g>
    <g id="ytick_15">
     <g id="line2d_34">
      <g>
       <use xlink:href="#m3c914df429" x="57.6" y="165.474871" style="stroke: #000000; stroke-width: 0.6"/>
      </g>
     </g>
    </g>
    <g id="ytick_16">
     <g id="line2d_35">
      <g>
       <use xlink:href="#m3c914df429" x="57.6" y="156.878565" style="stroke: #000000; stroke-width: 0.6"/>
      </g>
     </g>
    </g>
    <g id="ytick_17">
     <g id="line2d_36">
      <g>
       <use xlink:href="#m3c914df429" x="57.6" y="149.854871" style="stroke: #000000; stroke-width: 0.6"/>
      </g>
     </g>
    </g>
    <g id="ytick_18">
     <g id="line2d_37">
      <g>
       <use xlink:href="#m3c914df429" x="57.6" y="143.916423" style="stroke: #000000; stroke-width: 0.6"/>
      </g>
     </g>
    </g>
    <g id="ytick_19">
     <g id="line2d_38">
      <g>
       <use xlink:href="#m3c914df429" x="57.6" y="138.772306" style="stroke: #000000; stroke-width: 0.6"/>
      </g>
     </g>
    </g>
    <g id="ytick_20">
     <g id="line2d_39">
      <g>
       <use xlink:href="#m3c914df429" x="57.6" y="134.234872" style="stroke: #000000; stroke-width: 0.6"/>
      </g>
     </g>
    </g>
    <g id="ytick_21">
     <g id="line2d_40">
      <g>
       <use xlink:href="#m3c914df429" x="57.6" y="103.473435" style="stroke: #000000; stroke-width: 0.6"/>
      </g>
     </g>
    </g>
    <g id="ytick_22">
     <g id="line2d_41">
      <g>
       <use xlink:href="#m3c914df429" x="57.6" y="87.853436" style="stroke: #000000; stroke-width: 0.6"/>
      </g>
     </g>
    </g>
    <g id="ytick_23">
     <g id="line2d_42">
      <g>
       <use xlink:href="#m3c914df429" x="57.6" y="76.770871" style="stroke: #000000; stroke-width: 0.6"/>
      </g>
     </g>
    </g>
    <g id="ytick_24">
     <g id="line2d_43">
      <g>
       <use xlink:href="#m3c914df429" x="57.6" y="68.174565" style="stroke: #000000; stroke-width: 0.6"/>
      </g>
     </g>
    </g>
    <g id="ytick_25">
     <g id="line2d_44">
      <g>
       <use xlink:href="#m3c914df429" x="57.6" y="61.150871" style="stroke: #000000; stroke-width: 0.6"/>
      </g>
     </g>
    </g>
    <g id="ytick_26">
     <g id="line2d_45">
      <g>
       <use xlink:href="#m3c914df429" x="57.6" y="55.212423" style="stroke: #000000; stroke-width: 0.6"/>
      </g>
     </g>
    </g>
    <g id="ytick_27">
     <g id="line2d_46">
      <g>
       <use xlink:href="#m3c914df429" x="57.6" y="50.068306" style="stroke: #000000; stroke-width: 0.6"/>
      </g>
     </g>
    </g>
    <g id="ytick_28">
     <g id="line2d_47">
      <g>
       <use xlink:href="#m3c914df429" x="57.6" y="45.530872" style="stroke: #000000; stroke-width: 0.6"/>
      </g>
     </g>
    </g>
    <g id="text_9">
     <!-- Stress-normalized cone resistance -->
     <g transform="translate(29.095508 251.222531) rotate(-90) scale(0.1 -0.1)">
      <defs>
       <path id="ArialMT-36" d="M 288 1472 
L 859 1522 
Q 900 1178 1048 958 
Q 1197 738 1509 602 
Q 1822 466 2213 466 
Q 2559 466 2825 569 
Q 3091 672 3220 851 
Q 3350 1031 3350 1244 
Q 3350 1459 3225 1620 
Q 3100 1781 2813 1891 
Q 2628 1963 1997 2114 
Q 1366 2266 1113 2400 
Q 784 2572 623 2826 
Q 463 3081 463 3397 
Q 463 3744 659 4045 
Q 856 4347 1234 4503 
Q 1613 4659 2075 4659 
Q 2584 4659 2973 4495 
Q 3363 4331 3572 4012 
Q 3781 3694 3797 3291 
L 3216 3247 
Q 3169 3681 2898 3903 
Q 2628 4125 2100 4125 
Q 1550 4125 1298 3923 
Q 1047 3722 1047 3438 
Q 1047 3191 1225 3031 
Q 1400 2872 2139 2705 
Q 2878 2538 3153 2413 
Q 3553 2228 3743 1945 
Q 3934 1663 3934 1294 
Q 3934 928 3725 604 
Q 3516 281 3123 101 
Q 2731 -78 2241 -78 
Q 1619 -78 1198 103 
Q 778 284 539 648 
Q 300 1013 288 1472 
z
" transform="scale(0.015625)"/>
       <path id="ArialMT-56" d="M 197 991 
L 753 1078 
Q 800 744 1014 566 
Q 1228 388 1613 388 
Q 2000 388 2187 545 
Q 2375 703 2375 916 
Q 2375 1106 2209 1216 
Q 2094 1291 1634 1406 
Q 1016 1563 777 1677 
Q 538 1791 414 1992 
Q 291 2194 291 2438 
Q 291 2659 392 2848 
Q 494 3038 669 3163 
Q 800 3259 1026 3326 
Q 1253 3394 1513 3394 
Q 1903 3394 2198 3281 
Q 2494 3169 2634 2976 
Q 2775 2784 2828 2463 
L 2278 2388 
Q 2241 2644 2061 2787 
Q 1881 2931 1553 2931 
Q 1166 2931 1000 2803 
Q 834 2675 834 2503 
Q 834 2394 903 2306 
Q 972 2216 1119 2156 
Q 1203 2125 1616 2013 
Q 2213 1853 2448 1751 
Q 2684 1650 2818 1456 
Q 2953 1263 2953 975 
Q 2953 694 2789 445 
Q 2625 197 2315 61 
Q 2006 -75 1616 -75 
Q 969 -75 630 194 
Q 291 463 197 991 
z
" transform="scale(0.015625)"/>
       <path id="ArialMT-10" d="M 203 1375 
L 203 1941 
L 1931 1941 
L 1931 1375 
L 203 1375 
z
" transform="scale(0.015625)"/>
      </defs>
      <use xlink:href="#ArialMT-36"/>
      <use xlink:href="#ArialMT-57" transform="translate(66.703125 0)"/>
      <use xlink:href="#ArialMT-55" transform="translate(94.484375 0)"/>
      <use xlink:href="#ArialMT-48" transform="translate(127.78125 0)"/>
      <use xlink:href="#ArialMT-56" transform="translate(183.390625 0)"/>
      <use xlink:href="#ArialMT-56" transform="translate(233.390625 0)"/>
      <use xlink:href="#ArialMT-10" transform="translate(283.390625 0)"/>
      <use xlink:href="#ArialMT-51" transform="translate(316.6875 0)"/>
      <use xlink:href="#ArialMT-52" transform="translate(372.296875 0)"/>
      <use xlink:href="#ArialMT-55" transform="translate(427.90625 0)"/>
      <use xlink:href="#ArialMT-50" transform="translate(461.203125 0)"/>
      <use xlink:href="#ArialMT-44" transform="translate(544.5 0)"/>
      <use xlink:href="#ArialMT-4f" transform="translate(600.109375 0)"/>
      <use xlink:href="#ArialMT-4c" transform="translate(622.328125 0)"/>
      <use xlink:href="#ArialMT-5d" transform="translate(644.546875 0)"/>
      <use xlink:href="#ArialMT-48" transform="translate(694.546875 0)"/>
      <use xlink:href="#ArialMT-47" transform="translate(750.15625 0)"/>
      <use xlink:href="#ArialMT-3" transform="translate(805.765625 0)"/>
      <use xlink:href="#ArialMT-46" transform="translate(833.546875 0)"/>
      <use xlink:href="#ArialMT-52" transform="translate(883.546875 0)"/>
      <use xlink:href="#ArialMT-51" transform="translate(939.15625 0)"/>
      <use xlink:href="#ArialMT-48" transform="translate(994.765625 0)"/>
      <use xlink:href="#ArialMT-3" transform="translate(1050.375 0)"/>
      <use xlink:href="#ArialMT-55" transform="translate(1078.15625 0)"/>
      <use xlink:href="#ArialMT-48" transform="translate(1111.453125 0)"/>
      <use xlink:href="#ArialMT-56" transform="translate(1167.0625 0)"/>
      <use xlink:href="#ArialMT-4c" transform="translate(1217.0625 0)"/>
      <use xlink:href="#ArialMT-56" transform="translate(1239.28125 0)"/>
      <use xlink:href="#ArialMT-57" transform="translate(1289.28125 0)"/>
      <use xlink:href="#ArialMT-44" transform="translate(1317.0625 0)"/>
      <use xlink:href="#ArialMT-51" transform="translate(1372.671875 0)"/>
      <use xlink:href="#ArialMT-46" transform="translate(1428.28125 0)"/>
      <use xlink:href="#ArialMT-48" transform="translate(1478.28125 0)"/>
     </g>
    </g>
   </g>
   <g id="patch_6">
    <path d="M 57.6 307.584 
L 57.6 41.472 
" style="fill: none; stroke: #000000; stroke-width: 0.8; stroke-linejoin: miter; stroke-linecap: square"/>
   </g>
   <g id="patch_7">
    <path d="M 414.72 307.584 
L 414.72 41.472 
" style="fill: none; stroke: #000000; stroke-width: 0.8; stroke-linejoin: miter; stroke-linecap: square"/>
   </g>
   <g id="patch_8">
    <path d="M 57.6 307.584 
L 414.72 307.584 
" style="fill: none; stroke: #000000; stroke-width: 0.8; stroke-linejoin: miter; stroke-linecap: square"/>
   </g>
   <g id="patch_9">
    <path d="M 57.6 41.472 
L 414.72 41.472 
" style="fill: none; stroke: #000000; stroke-width: 0.8; stroke-linejoin: miter; stroke-linecap: square"/>
   </g>
   <g id="text_10">
    <!-- Compactable -->
    <g transform="translate(143.475681 97.901195) scale(0.1 -0.1)">
     <defs>
      <path id="ArialMT-26" d="M 3763 1606 
L 4369 1453 
Q 4178 706 3683 314 
Q 3188 -78 2472 -78 
Q 1731 -78 1267 223 
Q 803 525 561 1097 
Q 319 1669 319 2325 
Q 319 3041 592 3573 
Q 866 4106 1370 4382 
Q 1875 4659 2481 4659 
Q 3169 4659 3637 4309 
Q 4106 3959 4291 3325 
L 3694 3184 
Q 3534 3684 3231 3912 
Q 2928 4141 2469 4141 
Q 1941 4141 1586 3887 
Q 1231 3634 1087 3207 
Q 944 2781 944 2328 
Q 944 1744 1114 1308 
Q 1284 872 1643 656 
Q 2003 441 2422 441 
Q 2931 441 3284 734 
Q 3638 1028 3763 1606 
z
" transform="scale(0.015625)"/>
      <path id="ArialMT-53" d="M 422 -1272 
L 422 3319 
L 934 3319 
L 934 2888 
Q 1116 3141 1344 3267 
Q 1572 3394 1897 3394 
Q 2322 3394 2647 3175 
Q 2972 2956 3137 2557 
Q 3303 2159 3303 1684 
Q 3303 1175 3120 767 
Q 2938 359 2589 142 
Q 2241 -75 1856 -75 
Q 1575 -75 1351 44 
Q 1128 163 984 344 
L 984 -1272 
L 422 -1272 
z
M 931 1641 
Q 931 1000 1190 694 
Q 1450 388 1819 388 
Q 2194 388 2461 705 
Q 2728 1022 2728 1688 
Q 2728 2322 2467 2637 
Q 2206 2953 1844 2953 
Q 1484 2953 1207 2617 
Q 931 2281 931 1641 
z
" transform="scale(0.015625)"/>
      <path id="ArialMT-45" d="M 941 0 
L 419 0 
L 419 4581 
L 981 4581 
L 981 2947 
Q 1338 3394 1891 3394 
Q 2197 3394 2470 3270 
Q 2744 3147 2920 2923 
Q 3097 2700 3197 2384 
Q 3297 2069 3297 1709 
Q 3297 856 2875 390 
Q 2453 -75 1863 -75 
Q 1275 -75 941 416 
L 941 0 
z
M 934 1684 
Q 934 1088 1097 822 
Q 1363 388 1816 388 
Q 2184 388 2453 708 
Q 2722 1028 2722 1663 
Q 2722 2313 2464 2622 
Q 2206 2931 1841 2931 
Q 1472 2931 1203 2611 
Q 934 2291 934 1684 
z
" transform="scale(0.015625)"/>
     </defs>
     <use xlink:href="#ArialMT-26"/>
     <use xlink:href="#ArialMT-52" transform="translate(72.21875 0)"/>
     <use xlink:href="#ArialMT-50" transform="translate(127.828125 0)"/>
     <use xlink:href="#ArialMT-53" transform="translate(211.125 0)"/>
     <use xlink:href="#ArialMT-44" transform="translate(266.734375 0)"/>
     <use xlink:href="#ArialMT-46" transform="translate(322.34375 0)"/>
     <use xlink:href="#ArialMT-57" transform="translate(372.34375 0)"/>
     <use xlink:href="#ArialMT-44" transform="translate(400.125 0)"/>
     <use xlink:href="#ArialMT-45" transform="translate(455.734375 0)"/>
     <use xlink:href="#ArialMT-4f" transform="translate(511.34375 0)"/>
     <use xlink:href="#ArialMT-48" transform="translate(533.5625 0)"/>
    </g>
   </g>
   <g id="text_11">
    <!-- Less compactable -->
    <g transform="translate(201.109111 116.780102) scale(0.1 -0.1)">
     <defs>
      <path id="ArialMT-2f" d="M 469 0 
L 469 4581 
L 1075 4581 
L 1075 541 
L 3331 541 
L 3331 0 
L 469 0 
z
" transform="scale(0.015625)"/>
     </defs>
     <use xlink:href="#ArialMT-2f"/>
     <use xlink:href="#ArialMT-48" transform="translate(55.609375 0)"/>
     <use xlink:href="#ArialMT-56" transform="translate(111.21875 0)"/>
     <use xlink:href="#ArialMT-56" transform="translate(161.21875 0)"/>
     <use xlink:href="#ArialMT-3" transform="translate(211.21875 0)"/>
     <use xlink:href="#ArialMT-46" transform="translate(239 0)"/>
     <use xlink:href="#ArialMT-52" transform="translate(289 0)"/>
     <use xlink:href="#ArialMT-50" transform="translate(344.609375 0)"/>
     <use xlink:href="#ArialMT-53" transform="translate(427.90625 0)"/>
     <use xlink:href="#ArialMT-44" transform="translate(483.515625 0)"/>
     <use xlink:href="#ArialMT-46" transform="translate(539.125 0)"/>
     <use xlink:href="#ArialMT-57" transform="translate(589.125 0)"/>
     <use xlink:href="#ArialMT-44" transform="translate(616.90625 0)"/>
     <use xlink:href="#ArialMT-45" transform="translate(672.515625 0)"/>
     <use xlink:href="#ArialMT-4f" transform="translate(728.125 0)"/>
     <use xlink:href="#ArialMT-48" transform="translate(750.34375 0)"/>
    </g>
   </g>
   <g id="text_12">
    <!-- Already dense -->
    <g transform="translate(333.303632 69.534239) scale(0.1 -0.1)">
     <defs>
      <path id="ArialMT-24" d="M -9 0 
L 1750 4581 
L 2403 4581 
L 4278 0 
L 3588 0 
L 3053 1388 
L 1138 1388 
L 634 0 
L -9 0 
z
M 1313 1881 
L 2866 1881 
L 2388 3150 
Q 2169 3728 2063 4100 
Q 1975 3659 1816 3225 
L 1313 1881 
z
" transform="scale(0.015625)"/>
      <path id="ArialMT-5c" d="M 397 -1278 
L 334 -750 
Q 519 -800 656 -800 
Q 844 -800 956 -737 
Q 1069 -675 1141 -563 
Q 1194 -478 1313 -144 
Q 1328 -97 1363 -6 
L 103 3319 
L 709 3319 
L 1400 1397 
Q 1534 1031 1641 628 
Q 1738 1016 1872 1384 
L 2581 3319 
L 3144 3319 
L 1881 -56 
Q 1678 -603 1566 -809 
Q 1416 -1088 1222 -1217 
Q 1028 -1347 759 -1347 
Q 597 -1347 397 -1278 
z
" transform="scale(0.015625)"/>
     </defs>
     <use xlink:href="#ArialMT-24"/>
     <use xlink:href="#ArialMT-4f" transform="translate(66.703125 0)"/>
     <use xlink:href="#ArialMT-55" transform="translate(88.921875 0)"/>
     <use xlink:href="#ArialMT-48" transform="translate(122.21875 0)"/>
     <use xlink:href="#ArialMT-44" transform="translate(177.828125 0)"/>
     <use xlink:href="#ArialMT-47" transform="translate(233.4375 0)"/>
     <use xlink:href="#ArialMT-5c" transform="translate(289.046875 0)"/>
     <use xlink:href="#ArialMT-3" transform="translate(339.046875 0)"/>
     <use xlink:href="#ArialMT-47" transform="translate(366.828125 0)"/>
     <use xlink:href="#ArialMT-48" transform="translate(422.4375 0)"/>
     <use xlink:href="#ArialMT-51" transform="translate(478.046875 0)"/>
     <use xlink:href="#ArialMT-56" transform="translate(533.65625 0)"/>
     <use xlink:href="#ArialMT-48" transform="translate(583.65625 0)"/>
    </g>
   </g>
  </g>
  <g id="text_13">
   <!-- Compactability from Normalized Soil Behavior Type -->
   <g transform="translate(93.795938 15.648328) scale(0.12 -0.12)">
    <defs>
     <path id="ArialMT-25" d="M 469 0 
L 469 4581 
L 2188 4581 
Q 2713 4581 3030 4442 
Q 3347 4303 3526 4014 
Q 3706 3725 3706 3409 
Q 3706 3116 3547 2856 
Q 3388 2597 3066 2438 
Q 3481 2316 3704 2022 
Q 3928 1728 3928 1328 
Q 3928 1006 3792 729 
Q 3656 453 3456 303 
Q 3256 153 2954 76 
Q 2653 0 2216 0 
L 469 0 
z
M 1075 2656 
L 2066 2656 
Q 2469 2656 2644 2709 
Q 2875 2778 2992 2937 
Q 3109 3097 3109 3338 
Q 3109 3566 3000 3739 
Q 2891 3913 2687 3977 
Q 2484 4041 1991 4041 
L 1075 4041 
L 1075 2656 
z
M 1075 541 
L 2216 541 
Q 2509 541 2628 563 
Q 2838 600 2978 687 
Q 3119 775 3209 942 
Q 3300 1109 3300 1328 
Q 3300 1584 3169 1773 
Q 3038 1963 2805 2039 
Q 2572 2116 2134 2116 
L 1075 2116 
L 1075 541 
z
" transform="scale(0.015625)"/>
     <path id="ArialMT-4b" d="M 422 0 
L 422 4581 
L 984 4581 
L 984 2938 
Q 1378 3394 1978 3394 
Q 2347 3394 2619 3248 
Q 2891 3103 3008 2847 
Q 3125 2591 3125 2103 
L 3125 0 
L 2563 0 
L 2563 2103 
Q 2563 2525 2380 2717 
Q 2197 2909 1863 2909 
Q 1613 2909 1392 2779 
Q 1172 2650 1078 2428 
Q 984 2206 984 1816 
L 984 0 
L 422 0 
z
" transform="scale(0.015625)"/>
     <path id="ArialMT-59" d="M 1344 0 
L 81 3319 
L 675 3319 
L 1388 1331 
Q 1503 1009 1600 663 
Q 1675 925 1809 1294 
L 2547 3319 
L 3125 3319 
L 1869 0 
L 1344 0 
z
" transform="scale(0.015625)"/>
     <path id="ArialMT-37" d="M 1659 0 
L 1659 4041 
L 150 4041 
L 150 4581 
L 3781 4581 
L 3781 4041 
L 2266 4041 
L 2266 0 
L 1659 0 
z
" transform="scale(0.015625)"/>
    </defs>
    <use xlink:href="#ArialMT-26"/>
    <use xlink:href="#ArialMT-52" transform="translate(72.21875 0)"/>
    <use xlink:href="#ArialMT-50" transform="translate(127.828125 0)"/>
    <use xlink:href="#ArialMT-53" transform="translate(211.125 0)"/>
    <use xlink:href="#ArialMT-44" transform="translate(266.734375 0)"/>
    <use xlink:href="#ArialMT-46" transform="translate(322.34375 0)"/>
    <use xlink:href="#ArialMT-57" transform="translate(372.34375 0)"/>
    <use xlink:href="#ArialMT-44" transform="translate(400.125 0)"/>
    <use xlink:href="#ArialMT-45" transform="translate(455.734375 0)"/>
    <use xlink:href="#ArialMT-4c" transform="translate(511.34375 0)"/>
    <use xlink:href="#ArialMT-4f" transform="translate(533.5625 0)"/>
    <use xlink:href="#ArialMT-4c" transform="translate(555.78125 0)"/>
    <use xlink:href="#ArialMT-57" transform="translate(578 0)"/>
    <use xlink:href="#ArialMT-5c" transform="translate(605.78125 0)"/>
    <use xlink:href="#ArialMT-3" transform="translate(655.78125 0)"/>
    <use xlink:href="#ArialMT-49" transform="translate(683.5625 0)"/>
    <use xlink:href="#ArialMT-55" transform="translate(711.34375 0)"/>
    <use xlink:href="#ArialMT-52" transform="translate(744.640625 0)"/>
    <use xlink:href="#ArialMT-50" transform="translate(800.25 0)"/>
    <use xlink:href="#ArialMT-3" transform="translate(883.546875 0)"/>
    <use xlink:href="#ArialMT-31" transform="translate(911.328125 0)"/>
    <use xlink:href="#ArialMT-52" transform="translate(983.546875 0)"/>
    <use xlink:href="#ArialMT-55" transform="translate(1039.15625 0)"/>
    <use xlink:href="#ArialMT-50" transform="translate(1072.453125 0)"/>
    <use xlink:href="#ArialMT-44" transform="translate(1155.75 0)"/>
    <use xlink:href="#ArialMT-4f" transform="translate(1211.359375 0)"/>
    <use xlink:href="#ArialMT-4c" transform="translate(1233.578125 0)"/>
    <use xlink:href="#ArialMT-5d" transform="translate(1255.796875 0)"/>
    <use xlink:href="#ArialMT-48" transform="translate(1305.796875 0)"/>
    <use xlink:href="#ArialMT-47" transform="translate(1361.40625 0)"/>
    <use xlink:href="#ArialMT-3" transform="translate(1417.015625 0)"/>
    <use xlink:href="#ArialMT-36" transform="translate(1444.796875 0)"/>
    <use xlink:href="#ArialMT-52" transform="translate(1511.5 0)"/>
    <use xlink:href="#ArialMT-4c" transform="translate(1567.109375 0)"/>
    <use xlink:href="#ArialMT-4f" transform="translate(1589.328125 0)"/>
    <use xlink:href="#ArialMT-3" transform="translate(1611.546875 0)"/>
    <use xlink:href="#ArialMT-25" transform="translate(1639.328125 0)"/>
    <use xlink:href="#ArialMT-48" transform="translate(1706.03125 0)"/>
    <use xlink:href="#ArialMT-4b" transform="translate(1761.640625 0)"/>
    <use xlink:href="#ArialMT-44" transform="translate(1817.25 0)"/>
    <use xlink:href="#ArialMT-59" transform="translate(1872.859375 0)"/>
    <use xlink:href="#ArialMT-4c" transform="translate(1922.859375 0)"/>
    <use xlink:href="#ArialMT-52" transform="translate(1945.078125 0)"/>
    <use xlink:href="#ArialMT-55" transform="translate(2000.6875 0)"/>
    <use xlink:href="#ArialMT-3" transform="translate(2033.984375 0)"/>
    <use xlink:href="#ArialMT-37" transform="translate(2059.953125 0)"/>
    <use xlink:href="#ArialMT-5c" transform="translate(2115.515625 0)"/>
    <use xlink:href="#ArialMT-53" transform="translate(2165.515625 0)"/>
    <use xlink:href="#ArialMT-48" transform="translate(2221.125 0)"/>
   </g>
  </g>
  <g id="legend_1">
   <g id="patch_10">
    <path d="M 361.177105 77.171692 
L 454.969 77.171692 
Q 456.635 77.171692 456.635 75.505692 
L 456.635 40.391 
Q 456.635 38.725 454.969 38.725 
L 361.177105 38.725 
Q 359.511105 38.725 359.511105 40.391 
L 359.511105 75.505692 
Q 359.511105 77.171692 361.177105 77.171692 
z
" style="fill: #ffffff; opacity: 0.8; stroke: #cccccc; stroke-linejoin: miter"/>
   </g>
   <g id="patch_11">
    <path d="M 362.843105 48.121468 
L 379.503105 48.121468 
L 379.503105 42.290468 
L 362.843105 42.290468 
z
" style="fill: #ff0000; stroke: #000000; stroke-linejoin: miter"/>
   </g>
   <g id="text_14">
    <!-- Compactable -->
    <g transform="translate(386.167105 48.121468) scale(0.0833 -0.0833)">
     <use xlink:href="#ArialMT-26"/>
     <use xlink:href="#ArialMT-52" transform="translate(72.21875 0)"/>
     <use xlink:href="#ArialMT-50" transform="translate(127.828125 0)"/>
     <use xlink:href="#ArialMT-53" transform="translate(211.125 0)"/>
     <use xlink:href="#ArialMT-44" transform="translate(266.734375 0)"/>
     <use xlink:href="#ArialMT-46" transform="translate(322.34375 0)"/>
     <use xlink:href="#ArialMT-57" transform="translate(372.34375 0)"/>
     <use xlink:href="#ArialMT-44" transform="translate(400.125 0)"/>
     <use xlink:href="#ArialMT-45" transform="translate(455.734375 0)"/>
     <use xlink:href="#ArialMT-4f" transform="translate(511.34375 0)"/>
     <use xlink:href="#ArialMT-48" transform="translate(533.5625 0)"/>
    </g>
   </g>
   <g id="patch_12">
    <path d="M 362.843105 60.103978 
L 379.503105 60.103978 
L 379.503105 54.272978 
L 362.843105 54.272978 
z
" style="fill: #ffa500; stroke: #000000; stroke-linejoin: miter"/>
   </g>
   <g id="text_15">
    <!-- Less compactable -->
    <g transform="translate(386.167105 60.103978) scale(0.0833 -0.0833)">
     <use xlink:href="#ArialMT-2f"/>
     <use xlink:href="#ArialMT-48" transform="translate(55.609375 0)"/>
     <use xlink:href="#ArialMT-56" transform="translate(111.21875 0)"/>
     <use xlink:href="#ArialMT-56" transform="translate(161.21875 0)"/>
     <use xlink:href="#ArialMT-3" transform="translate(211.21875 0)"/>
     <use xlink:href="#ArialMT-46" transform="translate(239 0)"/>
     <use xlink:href="#ArialMT-52" transform="translate(289 0)"/>
     <use xlink:href="#ArialMT-50" transform="translate(344.609375 0)"/>
     <use xlink:href="#ArialMT-53" transform="translate(427.90625 0)"/>
     <use xlink:href="#ArialMT-44" transform="translate(483.515625 0)"/>
     <use xlink:href="#ArialMT-46" transform="translate(539.125 0)"/>
     <use xlink:href="#ArialMT-57" transform="translate(589.125 0)"/>
     <use xlink:href="#ArialMT-44" transform="translate(616.90625 0)"/>
     <use xlink:href="#ArialMT-45" transform="translate(672.515625 0)"/>
     <use xlink:href="#ArialMT-4f" transform="translate(728.125 0)"/>
     <use xlink:href="#ArialMT-48" transform="translate(750.34375 0)"/>
    </g>
   </g>
   <g id="patch_13">
    <path d="M 362.843105 72.086487 
L 379.503105 72.086487 
L 379.503105 66.255487 
L 362.843105 66.255487 
z
" style="fill: #ffff00; stroke: #000000; stroke-linejoin: miter"/>
   </g>
   <g id="text_16">
    <!-- Already dense -->
    <g transform="translate(386.167105 72.086487) scale(0.0833 -0.0833)">
     <use xlink:href="#ArialMT-24"/>
     <use xlink:href="#ArialMT-4f" transform="translate(66.703125 0)"/>
     <use xlink:href="#ArialMT-55" transform="translate(88.921875 0)"/>
     <use xlink:href="#ArialMT-48" transform="translate(122.21875 0)"/>
     <use xlink:href="#ArialMT-44" transform="translate(177.828125 0)"/>
     <use xlink:href="#ArialMT-47" transform="translate(233.4375 0)"/>
     <use xlink:href="#ArialMT-5c" transform="translate(289.046875 0)"/>
     <use xlink:href="#ArialMT-3" transform="translate(339.046875 0)"/>
     <use xlink:href="#ArialMT-47" transform="translate(366.828125 0)"/>
     <use xlink:href="#ArialMT-48" transform="translate(422.4375 0)"/>
     <use xlink:href="#ArialMT-51" transform="translate(478.046875 0)"/>
     <use xlink:href="#ArialMT-56" transform="translate(533.65625 0)"/>
     <use xlink:href="#ArialMT-48" transform="translate(583.65625 0)"/>
    </g>
   </g>
  </g>
 </g>
 <defs>
  <clipPath id="p68dbcdc7da">
   <rect x="57.6" y="41.472" width="357.12" height="266.112"/>
  </clipPath>
 </defs>
</svg>
