<?xml version="1.0" encoding="utf-8" standalone="no"?>
<!DOCTYPE svg PUBLIC "-//W3C//DTD SVG 1.1//EN"
  "http://www.w3.org/Graphics/SVG/1.1/DTD/svg11.dtd">
<svg xmlns:xlink="http://www.w3.org/1999/xlink" width="460.8pt" height="345.6pt" viewBox="0 0 460.8 345.6" xmlns="http://www.w3.org/2000/svg" version="1.1">
 <metadata>
  <rdf:RDF xmlns:dc="http://purl.org/dc/elements/1.1/" xmlns:cc="http://creativecommons.org/ns#" xmlns:rdf="http://www.w3.org/1999/02/22-rdf-syntax-ns#">
   <cc:Work>
    <dc:type rdf:resource="http://purl.org/dc/dcmitype/StillImage"/>
    <dc:date>2026-07-14T10:05:22.003414</dc:date>
    <dc:format>image/svg+xml</dc:format>
    <dc:creator>
     <cc:Agent>
      <dc:title>Matplotlib v3.11.0, https://matplotlib.org/</dc:title>
     </cc:Agent>
    </dc:creator>
   </cc:Work>
  </rdf:RDF>
 </metadata>
 <defs>
  <style type="text/css">*{stroke-linejoin: round; stroke-linecap: butt}</style>
 </defs>
 <g id="figure_1">
  <g id="patch_1">
   <path d="M 0 345.6 
L 460.8 345.6 
L 460.8 0 
L 0 0 
z
" style="fill: #ffffff"/>
  </g>
  <g id="axes_1">
   <g id="patch_2">
    <path d="M 57.6 307.584 
L 414.72 307.584 
L 414.72 41.472 
L 57.6 41.472 
z
" style="fill: #ffffff"/>
   </g>
   <g id="patch_3">
    <path d="M 361.152 307.584 
L 379.008 254.3616 
L 379.008 41.472 
L 414.72 41.472 
L 414.72 307.584 
z
" clip-path="url(#p1475ceaa0d)" style="fill: #eee6da; opacity: 0.5; stroke: #000000; stroke-linejoin: miter"/>
   </g>
   <g id="patch_4">
    <path d="M 307.584 307.584 
L 361.152 219.76704 
L 361.152 41.472 
L 379.008 41.472 
L 379.008 254.3616 
L 361.152 307.584 
z
" clip-path="url(#p1475ceaa0d)" style="fill: #eacfbc; opacity: 0.5; stroke: #000000; stroke-linejoin: miter"/>
   </g>
   <g id="patch_5">
    <path d="M 236.16 307.584 
L 211.1616 286.29504 
L 243.3024 286.29504 
L 243.3024 219.76704 
L 343.296 219.76704 
L 343.296 41.472 
L 361.152 41.472 
L 361.152 219.76704 
L 307.584 307.584 
z
" clip-path="url(#p1475ceaa0d)" style="fill: #faba75; opacity: 0.5; stroke: #000000; stroke-linejoin: miter"/>
   </g>
   <g id="patch_6">
    <path d="M 211.1616 286.29504 
L 129.024 219.76704 
L 243.3024 219.76704 
L 243.3024 286.29504 
z
" clip-path="url(#p1475ceaa0d)" style="fill: #f0a654; opacity: 0.5; stroke: #000000; stroke-linejoin: miter"/>
   </g>
   <g id="patch_7">
    <path d="M 129.024 307.584 
L 86.1696 254.3616 
L 57.6 254.3616 
L 57.6 219.76704 
L 129.024 219.76704 
L 236.16 307.584 
z
" clip-path="url(#p1475ceaa0d)" style="fill: #d09662; opacity: 0.5; stroke: #000000; stroke-linejoin: miter"/>
   </g>
   <g id="patch_8">
    <path d="M 57.6 307.584 
L 57.6 254.3616 
L 86.1696 254.3616 
L 129.024 307.584 
z
" clip-path="url(#p1475ceaa0d)" style="fill: #dfb48f; opacity: 0.5; stroke: #000000; stroke-linejoin: miter"/>
   </g>
   <g id="patch_9">
    <path d="M 218.304 219.76704 
L 218.304 196.69513 
L 289.728 196.69513 
L 289.728 41.472 
L 343.296 41.472 
L 343.296 219.76704 
z
" clip-path="url(#p1475ceaa0d)" style="fill: #efaf6f; opacity: 0.5; stroke: #000000; stroke-linejoin: miter"/>
   </g>
   <g id="patch_10">
    <path d="M 129.024 219.76704 
L 129.024 174.528 
L 218.304 174.528 
L 218.304 219.76704 
z
" clip-path="url(#p1475ceaa0d)" style="fill: #e47b3b; opacity: 0.5; stroke: #000000; stroke-linejoin: miter"/>
   </g>
   <g id="patch_11">
    <path d="M 57.6 219.76704 
L 57.6 196.69513 
L 129.024 196.69513 
L 129.024 219.76704 
z
" clip-path="url(#p1475ceaa0d)" style="fill: #ef9360; opacity: 0.5; stroke: #000000; stroke-linejoin: miter"/>
   </g>
   <g id="patch_12">
    <path d="M 218.304 196.69513 
L 218.304 41.472 
L 289.728 41.472 
L 289.728 196.69513 
z
" clip-path="url(#p1475ceaa0d)" style="fill: #e99641; opacity: 0.5; stroke: #000000; stroke-linejoin: miter"/>
   </g>
   <g id="patch_13">
    <path d="M 57.6 174.528 
L 57.6 41.472 
L 218.304 41.472 
L 218.304 174.528 
z
" clip-path="url(#p1475ceaa0d)" style="fill: #be826c; opacity: 0.5; stroke: #000000; stroke-linejoin: miter"/>
   </g>
   <g id="patch_14">
    <path d="M 57.6 196.69513 
L 57.6 174.528 
L 129.024 174.528 
L 129.024 196.69513 
z
" clip-path="url(#p1475ceaa0d)" style="fill: #cc6d4d; opacity: 0.5; stroke: #000000; stroke-linejoin: miter"/>
   </g>
   <g id="PathCollection_1">
    <defs>
     <path id="m1ef2a4f8da" d="M 0 3 
C 0.795609 3 1.55874 2.683901 2.12132 2.12132 
C 2.683901 1.55874 3 0.795609 3 0 
C 3 -0.795609 2.683901 -1.55874 2.12132 -2.12132 
C 1.55874 -2.683901 0.795609 -3 0 -3 
C -0.795609 -3 -1.55874 -2.683901 -2.12132 -2.12132 
C -2.683901 -1.55874 -3 -0.795609 -3 0 
C -3 0.795609 -2.683901 1.55874 -2.12132 2.12132 
C -1.55874 2.683901 -0.795609 3 0 3 
z
" style="stroke: #1f77b4"/>
    </defs>
    <g clip-path="url(#p1475ceaa0d)"/>
   </g>
   <g id="matplotlib.axis_1">
    <g id="xtick_1">
     <g id="line2d_1">
      <defs>
       <path id="m4296f0bf9e" d="M 0 0 
L 0 3.5 
" style="stroke: #000000; stroke-width: 0.8"/>
      </defs>
      <g>
       <use xlink:href="#m4296f0bf9e" x="57.6" y="307.584" style="stroke: #000000; stroke-width: 0.8"/>
      </g>
     </g>
     <g id="text_1">
      <!-- 0 -->
      <g transform="translate(54.819531 321.864273) scale(0.1 -0.1)">
       <defs>
        <path id="ArialMT-13" d="M 266 2259 
Q 266 3072 433 3567 
Q 600 4063 929 4331 
Q 1259 4600 1759 4600 
Q 2128 4600 2406 4451 
Q 2684 4303 2865 4023 
Q 3047 3744 3150 3342 
Q 3253 2941 3253 2259 
Q 3253 1453 3087 958 
Q 2922 463 2592 192 
Q 2263 -78 1759 -78 
Q 1097 -78 719 397 
Q 266 969 266 2259 
z
M 844 2259 
Q 844 1131 1108 757 
Q 1372 384 1759 384 
Q 2147 384 2411 759 
Q 2675 1134 2675 2259 
Q 2675 3391 2411 3762 
Q 2147 4134 1753 4134 
Q 1366 4134 1134 3806 
Q 844 3388 844 2259 
z
" transform="scale(0.015625)"/>
       </defs>
       <use xlink:href="#ArialMT-13"/>
      </g>
     </g>
    </g>
    <g id="xtick_2">
     <g id="line2d_2">
      <g>
       <use xlink:href="#m4296f0bf9e" x="129.024" y="307.584" style="stroke: #000000; stroke-width: 0.8"/>
      </g>
     </g>
     <g id="text_2">
      <!-- 20 -->
      <g transform="translate(123.463063 321.864273) scale(0.1 -0.1)">
       <defs>
        <path id="ArialMT-15" d="M 3222 541 
L 3222 0 
L 194 0 
Q 188 203 259 391 
Q 375 700 629 1000 
Q 884 1300 1366 1694 
Q 2113 2306 2375 2664 
Q 2638 3022 2638 3341 
Q 2638 3675 2398 3904 
Q 2159 4134 1775 4134 
Q 1369 4134 1125 3890 
Q 881 3647 878 3216 
L 300 3275 
Q 359 3922 746 4261 
Q 1134 4600 1788 4600 
Q 2447 4600 2831 4234 
Q 3216 3869 3216 3328 
Q 3216 3053 3103 2787 
Q 2991 2522 2730 2228 
Q 2469 1934 1863 1422 
Q 1356 997 1212 845 
Q 1069 694 975 541 
L 3222 541 
z
" transform="scale(0.015625)"/>
       </defs>
       <use xlink:href="#ArialMT-15"/>
       <use xlink:href="#ArialMT-13" transform="translate(55.609375 0)"/>
      </g>
     </g>
    </g>
    <g id="xtick_3">
     <g id="line2d_3">
      <g>
       <use xlink:href="#m4296f0bf9e" x="200.448" y="307.584" style="stroke: #000000; stroke-width: 0.8"/>
      </g>
     </g>
     <g id="text_3">
      <!-- 40 -->
      <g transform="translate(194.887063 321.864273) scale(0.1 -0.1)">
       <defs>
        <path id="ArialMT-17" d="M 2069 0 
L 2069 1097 
L 81 1097 
L 81 1613 
L 2172 4581 
L 2631 4581 
L 2631 1613 
L 3250 1613 
L 3250 1097 
L 2631 1097 
L 2631 0 
L 2069 0 
z
M 2069 1613 
L 2069 3678 
L 634 1613 
L 2069 1613 
z
" transform="scale(0.015625)"/>
       </defs>
       <use xlink:href="#ArialMT-17"/>
       <use xlink:href="#ArialMT-13" transform="translate(55.609375 0)"/>
      </g>
     </g>
    </g>
    <g id="xtick_4">
     <g id="line2d_4">
      <g>
       <use xlink:href="#m4296f0bf9e" x="271.872" y="307.584" style="stroke: #000000; stroke-width: 0.8"/>
      </g>
     </g>
     <g id="text_4">
      <!-- 60 -->
      <g transform="translate(266.311062 321.864273) scale(0.1 -0.1)">
       <defs>
        <path id="ArialMT-19" d="M 3184 3459 
L 2625 3416 
Q 2550 3747 2413 3897 
Q 2184 4138 1850 4138 
Q 1581 4138 1378 3988 
Q 1113 3794 959 3422 
Q 806 3050 800 2363 
Q 1003 2672 1297 2822 
Q 1591 2972 1913 2972 
Q 2475 2972 2870 2558 
Q 3266 2144 3266 1488 
Q 3266 1056 3080 686 
Q 2894 316 2569 119 
Q 2244 -78 1831 -78 
Q 1128 -78 684 439 
Q 241 956 241 2144 
Q 241 3472 731 4075 
Q 1159 4600 1884 4600 
Q 2425 4600 2770 4297 
Q 3116 3994 3184 3459 
z
M 888 1484 
Q 888 1194 1011 928 
Q 1134 663 1356 523 
Q 1578 384 1822 384 
Q 2178 384 2434 671 
Q 2691 959 2691 1453 
Q 2691 1928 2437 2201 
Q 2184 2475 1800 2475 
Q 1419 2475 1153 2201 
Q 888 1928 888 1484 
z
" transform="scale(0.015625)"/>
       </defs>
       <use xlink:href="#ArialMT-19"/>
       <use xlink:href="#ArialMT-13" transform="translate(55.609375 0)"/>
      </g>
     </g>
    </g>
    <g id="xtick_5">
     <g id="line2d_5">
      <g>
       <use xlink:href="#m4296f0bf9e" x="343.296" y="307.584" style="stroke: #000000; stroke-width: 0.8"/>
      </g>
     </g>
     <g id="text_5">
      <!-- 80 -->
      <g transform="translate(337.735063 321.864273) scale(0.1 -0.1)">
       <defs>
        <path id="ArialMT-1b" d="M 1131 2484 
Q 781 2613 612 2850 
Q 444 3088 444 3419 
Q 444 3919 803 4259 
Q 1163 4600 1759 4600 
Q 2359 4600 2725 4251 
Q 3091 3903 3091 3403 
Q 3091 3084 2923 2848 
Q 2756 2613 2416 2484 
Q 2838 2347 3058 2040 
Q 3278 1734 3278 1309 
Q 3278 722 2862 322 
Q 2447 -78 1769 -78 
Q 1091 -78 675 323 
Q 259 725 259 1325 
Q 259 1772 486 2073 
Q 713 2375 1131 2484 
z
M 1019 3438 
Q 1019 3113 1228 2906 
Q 1438 2700 1772 2700 
Q 2097 2700 2305 2904 
Q 2513 3109 2513 3406 
Q 2513 3716 2298 3927 
Q 2084 4138 1766 4138 
Q 1444 4138 1231 3931 
Q 1019 3725 1019 3438 
z
M 838 1322 
Q 838 1081 952 856 
Q 1066 631 1291 507 
Q 1516 384 1775 384 
Q 2178 384 2440 643 
Q 2703 903 2703 1303 
Q 2703 1709 2433 1975 
Q 2163 2241 1756 2241 
Q 1359 2241 1098 1978 
Q 838 1716 838 1322 
z
" transform="scale(0.015625)"/>
       </defs>
       <use xlink:href="#ArialMT-1b"/>
       <use xlink:href="#ArialMT-13" transform="translate(55.609375 0)"/>
      </g>
     </g>
    </g>
    <g id="xtick_6">
     <g id="line2d_6">
      <g>
       <use xlink:href="#m4296f0bf9e" x="414.72" y="307.584" style="stroke: #000000; stroke-width: 0.8"/>
      </g>
     </g>
     <g id="text_6">
      <!-- 100 -->
      <g transform="translate(406.378594 321.864273) scale(0.1 -0.1)">
       <defs>
        <path id="ArialMT-14" d="M 2384 0 
L 1822 0 
L 1822 3584 
Q 1619 3391 1289 3197 
Q 959 3003 697 2906 
L 697 3450 
Q 1169 3672 1522 3987 
Q 1875 4303 2022 4600 
L 2384 4600 
L 2384 0 
z
" transform="scale(0.015625)"/>
       </defs>
       <use xlink:href="#ArialMT-14"/>
       <use xlink:href="#ArialMT-13" transform="translate(55.609375 0)"/>
       <use xlink:href="#ArialMT-13" transform="translate(111.21875 0)"/>
      </g>
     </g>
    </g>
    <g id="text_7">
     <!-- Percent sand (%) -->
     <g transform="translate(197.534219 335.249039) scale(0.1 -0.1)">
      <defs>
       <path id="ArialMT-33" d="M 494 0 
L 494 4581 
L 2222 4581 
Q 2678 4581 2919 4538 
Q 3256 4481 3484 4323 
Q 3713 4166 3852 3881 
Q 3991 3597 3991 3256 
Q 3991 2672 3619 2267 
Q 3247 1863 2275 1863 
L 1100 1863 
L 1100 0 
L 494 0 
z
M 1100 2403 
L 2284 2403 
Q 2872 2403 3119 2622 
Q 3366 2841 3366 3238 
Q 3366 3525 3220 3729 
Q 3075 3934 2838 4000 
Q 2684 4041 2272 4041 
L 1100 4041 
L 1100 2403 
z
" transform="scale(0.015625)"/>
       <path id="ArialMT-48" d="M 2694 1069 
L 3275 997 
Q 3138 488 2766 206 
Q 2394 -75 1816 -75 
Q 1088 -75 661 373 
Q 234 822 234 1631 
Q 234 2469 665 2931 
Q 1097 3394 1784 3394 
Q 2450 3394 2872 2941 
Q 3294 2488 3294 1666 
Q 3294 1616 3291 1516 
L 816 1516 
Q 847 969 1125 678 
Q 1403 388 1819 388 
Q 2128 388 2347 550 
Q 2566 713 2694 1069 
z
M 847 1978 
L 2700 1978 
Q 2663 2397 2488 2606 
Q 2219 2931 1791 2931 
Q 1403 2931 1139 2672 
Q 875 2413 847 1978 
z
" transform="scale(0.015625)"/>
       <path id="ArialMT-55" d="M 416 0 
L 416 3319 
L 922 3319 
L 922 2816 
Q 1116 3169 1280 3281 
Q 1444 3394 1641 3394 
Q 1925 3394 2219 3213 
L 2025 2691 
Q 1819 2813 1613 2813 
Q 1428 2813 1281 2702 
Q 1134 2591 1072 2394 
Q 978 2094 978 1738 
L 978 0 
L 416 0 
z
" transform="scale(0.015625)"/>
       <path id="ArialMT-46" d="M 2588 1216 
L 3141 1144 
Q 3050 572 2676 248 
Q 2303 -75 1759 -75 
Q 1078 -75 664 370 
Q 250 816 250 1647 
Q 250 2184 428 2587 
Q 606 2991 970 3192 
Q 1334 3394 1763 3394 
Q 2303 3394 2647 3120 
Q 2991 2847 3088 2344 
L 2541 2259 
Q 2463 2594 2264 2762 
Q 2066 2931 1784 2931 
Q 1359 2931 1093 2626 
Q 828 2322 828 1663 
Q 828 994 1084 691 
Q 1341 388 1753 388 
Q 2084 388 2306 591 
Q 2528 794 2588 1216 
z
" transform="scale(0.015625)"/>
       <path id="ArialMT-51" d="M 422 0 
L 422 3319 
L 928 3319 
L 928 2847 
Q 1294 3394 1984 3394 
Q 2284 3394 2536 3286 
Q 2788 3178 2913 3003 
Q 3038 2828 3088 2588 
Q 3119 2431 3119 2041 
L 3119 0 
L 2556 0 
L 2556 2019 
Q 2556 2363 2490 2533 
Q 2425 2703 2258 2804 
Q 2091 2906 1866 2906 
Q 1506 2906 1245 2678 
Q 984 2450 984 1813 
L 984 0 
L 422 0 
z
" transform="scale(0.015625)"/>
       <path id="ArialMT-57" d="M 1650 503 
L 1731 6 
Q 1494 -44 1306 -44 
Q 1000 -44 831 53 
Q 663 150 594 308 
Q 525 466 525 972 
L 525 2881 
L 113 2881 
L 113 3319 
L 525 3319 
L 525 4141 
L 1084 4478 
L 1084 3319 
L 1650 3319 
L 1650 2881 
L 1084 2881 
L 1084 941 
Q 1084 700 1114 631 
Q 1144 563 1211 522 
Q 1278 481 1403 481 
Q 1497 481 1650 503 
z
" transform="scale(0.015625)"/>
       <path id="ArialMT-3" transform="scale(0.015625)"/>
       <path id="ArialMT-56" d="M 197 991 
L 753 1078 
Q 800 744 1014 566 
Q 1228 388 1613 388 
Q 2000 388 2187 545 
Q 2375 703 2375 916 
Q 2375 1106 2209 1216 
Q 2094 1291 1634 1406 
Q 1016 1563 777 1677 
Q 538 1791 414 1992 
Q 291 2194 291 2438 
Q 291 2659 392 2848 
Q 494 3038 669 3163 
Q 800 3259 1026 3326 
Q 1253 3394 1513 3394 
Q 1903 3394 2198 3281 
Q 2494 3169 2634 2976 
Q 2775 2784 2828 2463 
L 2278 2388 
Q 2241 2644 2061 2787 
Q 1881 2931 1553 2931 
Q 1166 2931 1000 2803 
Q 834 2675 834 2503 
Q 834 2394 903 2306 
Q 972 2216 1119 2156 
Q 1203 2125 1616 2013 
Q 2213 1853 2448 1751 
Q 2684 1650 2818 1456 
Q 2953 1263 2953 975 
Q 2953 694 2789 445 
Q 2625 197 2315 61 
Q 2006 -75 1616 -75 
Q 969 -75 630 194 
Q 291 463 197 991 
z
" transform="scale(0.015625)"/>
       <path id="ArialMT-44" d="M 2588 409 
Q 2275 144 1986 34 
Q 1697 -75 1366 -75 
Q 819 -75 525 192 
Q 231 459 231 875 
Q 231 1119 342 1320 
Q 453 1522 633 1644 
Q 813 1766 1038 1828 
Q 1203 1872 1538 1913 
Q 2219 1994 2541 2106 
Q 2544 2222 2544 2253 
Q 2544 2597 2384 2738 
Q 2169 2928 1744 2928 
Q 1347 2928 1158 2789 
Q 969 2650 878 2297 
L 328 2372 
Q 403 2725 575 2942 
Q 747 3159 1072 3276 
Q 1397 3394 1825 3394 
Q 2250 3394 2515 3294 
Q 2781 3194 2906 3042 
Q 3031 2891 3081 2659 
Q 3109 2516 3109 2141 
L 3109 1391 
Q 3109 606 3145 398 
Q 3181 191 3288 0 
L 2700 0 
Q 2613 175 2588 409 
z
M 2541 1666 
Q 2234 1541 1622 1453 
Q 1275 1403 1131 1340 
Q 988 1278 909 1158 
Q 831 1038 831 891 
Q 831 666 1001 516 
Q 1172 366 1500 366 
Q 1825 366 2078 508 
Q 2331 650 2450 897 
Q 2541 1088 2541 1459 
L 2541 1666 
z
" transform="scale(0.015625)"/>
       <path id="ArialMT-47" d="M 2575 0 
L 2575 419 
Q 2259 -75 1647 -75 
Q 1250 -75 917 144 
Q 584 363 401 755 
Q 219 1147 219 1656 
Q 219 2153 384 2558 
Q 550 2963 881 3178 
Q 1213 3394 1622 3394 
Q 1922 3394 2156 3267 
Q 2391 3141 2538 2938 
L 2538 4581 
L 3097 4581 
L 3097 0 
L 2575 0 
z
M 797 1656 
Q 797 1019 1065 703 
Q 1334 388 1700 388 
Q 2069 388 2326 689 
Q 2584 991 2584 1609 
Q 2584 2291 2321 2609 
Q 2059 2928 1675 2928 
Q 1300 2928 1048 2622 
Q 797 2316 797 1656 
z
" transform="scale(0.015625)"/>
       <path id="ArialMT-b" d="M 1497 -1347 
Q 1031 -759 709 28 
Q 388 816 388 1659 
Q 388 2403 628 3084 
Q 909 3875 1497 4659 
L 1900 4659 
Q 1522 4009 1400 3731 
Q 1209 3300 1100 2831 
Q 966 2247 966 1656 
Q 966 153 1900 -1347 
L 1497 -1347 
z
" transform="scale(0.015625)"/>
       <path id="ArialMT-8" d="M 372 3481 
Q 372 3972 619 4315 
Q 866 4659 1334 4659 
Q 1766 4659 2048 4351 
Q 2331 4044 2331 3447 
Q 2331 2866 2045 2552 
Q 1759 2238 1341 2238 
Q 925 2238 648 2547 
Q 372 2856 372 3481 
z
M 1350 4272 
Q 1141 4272 1002 4090 
Q 863 3909 863 3425 
Q 863 2984 1003 2804 
Q 1144 2625 1350 2625 
Q 1563 2625 1702 2806 
Q 1841 2988 1841 3469 
Q 1841 3913 1700 4092 
Q 1559 4272 1350 4272 
z
M 1353 -169 
L 3859 4659 
L 4316 4659 
L 1819 -169 
L 1353 -169 
z
M 3334 1075 
Q 3334 1569 3581 1911 
Q 3828 2253 4300 2253 
Q 4731 2253 5014 1945 
Q 5297 1638 5297 1041 
Q 5297 459 5011 145 
Q 4725 -169 4303 -169 
Q 3888 -169 3611 142 
Q 3334 453 3334 1075 
z
M 4316 1866 
Q 4103 1866 3964 1684 
Q 3825 1503 3825 1019 
Q 3825 581 3965 400 
Q 4106 219 4313 219 
Q 4528 219 4667 400 
Q 4806 581 4806 1063 
Q 4806 1506 4665 1686 
Q 4525 1866 4316 1866 
z
" transform="scale(0.015625)"/>
       <path id="ArialMT-c" d="M 791 -1347 
L 388 -1347 
Q 1322 153 1322 1656 
Q 1322 2244 1188 2822 
Q 1081 3291 891 3722 
Q 769 4003 388 4659 
L 791 4659 
Q 1378 3875 1659 3084 
Q 1900 2403 1900 1659 
Q 1900 816 1576 28 
Q 1253 -759 791 -1347 
z
" transform="scale(0.015625)"/>
      </defs>
      <use xlink:href="#ArialMT-33"/>
      <use xlink:href="#ArialMT-48" transform="translate(66.703125 0)"/>
      <use xlink:href="#ArialMT-55" transform="translate(122.3125 0)"/>
      <use xlink:href="#ArialMT-46" transform="translate(155.609375 0)"/>
      <use xlink:href="#ArialMT-48" transform="translate(205.609375 0)"/>
      <use xlink:href="#ArialMT-51" transform="translate(261.21875 0)"/>
      <use xlink:href="#ArialMT-57" transform="translate(316.828125 0)"/>
      <use xlink:href="#ArialMT-3" transform="translate(344.609375 0)"/>
      <use xlink:href="#ArialMT-56" transform="translate(372.390625 0)"/>
      <use xlink:href="#ArialMT-44" transform="translate(422.390625 0)"/>
      <use xlink:href="#ArialMT-51" transform="translate(478 0)"/>
      <use xlink:href="#ArialMT-47" transform="translate(533.609375 0)"/>
      <use xlink:href="#ArialMT-3" transform="translate(589.21875 0)"/>
      <use xlink:href="#ArialMT-b" transform="translate(617 0)"/>
      <use xlink:href="#ArialMT-8" transform="translate(650.296875 0)"/>
      <use xlink:href="#ArialMT-c" transform="translate(739.21875 0)"/>
     </g>
    </g>
   </g>
   <g id="matplotlib.axis_2">
    <g id="ytick_1">
     <g id="line2d_7">
      <defs>
       <path id="mde29bc82ca" d="M 0 0 
L -3.5 0 
" style="stroke: #000000; stroke-width: 0.8"/>
      </defs>
      <g>
       <use xlink:href="#mde29bc82ca" x="57.6" y="307.584" style="stroke: #000000; stroke-width: 0.8"/>
      </g>
     </g>
     <g id="text_8">
      <!-- 0.0 -->
      <g transform="translate(36.7 311.224137) scale(0.1 -0.1)">
       <defs>
        <path id="ArialMT-11" d="M 581 0 
L 581 641 
L 1222 641 
L 1222 0 
L 581 0 
z
" transform="scale(0.015625)"/>
       </defs>
       <use xlink:href="#ArialMT-13"/>
       <use xlink:href="#ArialMT-11" transform="translate(55.609375 0)"/>
       <use xlink:href="#ArialMT-13" transform="translate(83.390625 0)"/>
      </g>
     </g>
    </g>
    <g id="ytick_2">
     <g id="line2d_8">
      <g>
       <use xlink:href="#mde29bc82ca" x="57.6" y="254.3616" style="stroke: #000000; stroke-width: 0.8"/>
      </g>
     </g>
     <g id="text_9">
      <!-- 0.2 -->
      <g transform="translate(36.7 258.001737) scale(0.1 -0.1)">
       <use xlink:href="#ArialMT-13"/>
       <use xlink:href="#ArialMT-11" transform="translate(55.609375 0)"/>
       <use xlink:href="#ArialMT-15" transform="translate(83.390625 0)"/>
      </g>
     </g>
    </g>
    <g id="ytick_3">
     <g id="line2d_9">
      <g>
       <use xlink:href="#mde29bc82ca" x="57.6" y="201.1392" style="stroke: #000000; stroke-width: 0.8"/>
      </g>
     </g>
     <g id="text_10">
      <!-- 0.4 -->
      <g transform="translate(36.7 204.779337) scale(0.1 -0.1)">
       <use xlink:href="#ArialMT-13"/>
       <use xlink:href="#ArialMT-11" transform="translate(55.609375 0)"/>
       <use xlink:href="#ArialMT-17" transform="translate(83.390625 0)"/>
      </g>
     </g>
    </g>
    <g id="ytick_4">
     <g id="line2d_10">
      <g>
       <use xlink:href="#mde29bc82ca" x="57.6" y="147.9168" style="stroke: #000000; stroke-width: 0.8"/>
      </g>
     </g>
     <g id="text_11">
      <!-- 0.6 -->
      <g transform="translate(36.7 151.556937) scale(0.1 -0.1)">
       <use xlink:href="#ArialMT-13"/>
       <use xlink:href="#ArialMT-11" transform="translate(55.609375 0)"/>
       <use xlink:href="#ArialMT-19" transform="translate(83.390625 0)"/>
      </g>
     </g>
    </g>
    <g id="ytick_5">
     <g id="line2d_11">
      <g>
       <use xlink:href="#mde29bc82ca" x="57.6" y="94.6944" style="stroke: #000000; stroke-width: 0.8"/>
      </g>
     </g>
     <g id="text_12">
      <!-- 0.8 -->
      <g transform="translate(36.7 98.334537) scale(0.1 -0.1)">
       <use xlink:href="#ArialMT-13"/>
       <use xlink:href="#ArialMT-11" transform="translate(55.609375 0)"/>
       <use xlink:href="#ArialMT-1b" transform="translate(83.390625 0)"/>
      </g>
     </g>
    </g>
    <g id="ytick_6">
     <g id="line2d_12">
      <g>
       <use xlink:href="#mde29bc82ca" x="57.6" y="41.472" style="stroke: #000000; stroke-width: 0.8"/>
      </g>
     </g>
     <g id="text_13">
      <!-- 1.0 -->
      <g transform="translate(36.7 45.112137) scale(0.1 -0.1)">
       <use xlink:href="#ArialMT-14"/>
       <use xlink:href="#ArialMT-11" transform="translate(55.609375 0)"/>
       <use xlink:href="#ArialMT-13" transform="translate(83.390625 0)"/>
      </g>
     </g>
    </g>
    <g id="text_14">
     <!-- Plasticity index to liquid limit ratio -->
     <g transform="translate(30.595312 247.608469) rotate(-90) scale(0.1 -0.1)">
      <defs>
       <path id="ArialMT-4f" d="M 409 0 
L 409 4581 
L 972 4581 
L 972 0 
L 409 0 
z
" transform="scale(0.015625)"/>
       <path id="ArialMT-4c" d="M 425 3934 
L 425 4581 
L 988 4581 
L 988 3934 
L 425 3934 
z
M 425 0 
L 425 3319 
L 988 3319 
L 988 0 
L 425 0 
z
" transform="scale(0.015625)"/>
       <path id="ArialMT-5c" d="M 397 -1278 
L 334 -750 
Q 519 -800 656 -800 
Q 844 -800 956 -737 
Q 1069 -675 1141 -563 
Q 1194 -478 1313 -144 
Q 1328 -97 1363 -6 
L 103 3319 
L 709 3319 
L 1400 1397 
Q 1534 1031 1641 628 
Q 1738 1016 1872 1384 
L 2581 3319 
L 3144 3319 
L 1881 -56 
Q 1678 -603 1566 -809 
Q 1416 -1088 1222 -1217 
Q 1028 -1347 759 -1347 
Q 597 -1347 397 -1278 
z
" transform="scale(0.015625)"/>
       <path id="ArialMT-5b" d="M 47 0 
L 1259 1725 
L 138 3319 
L 841 3319 
L 1350 2541 
Q 1494 2319 1581 2169 
Q 1719 2375 1834 2534 
L 2394 3319 
L 3066 3319 
L 1919 1756 
L 3153 0 
L 2463 0 
L 1781 1031 
L 1600 1309 
L 728 0 
L 47 0 
z
" transform="scale(0.015625)"/>
       <path id="ArialMT-52" d="M 213 1659 
Q 213 2581 725 3025 
Q 1153 3394 1769 3394 
Q 2453 3394 2887 2945 
Q 3322 2497 3322 1706 
Q 3322 1066 3130 698 
Q 2938 331 2570 128 
Q 2203 -75 1769 -75 
Q 1072 -75 642 372 
Q 213 819 213 1659 
z
M 791 1659 
Q 791 1022 1069 705 
Q 1347 388 1769 388 
Q 2188 388 2466 706 
Q 2744 1025 2744 1678 
Q 2744 2294 2464 2611 
Q 2184 2928 1769 2928 
Q 1347 2928 1069 2612 
Q 791 2297 791 1659 
z
" transform="scale(0.015625)"/>
       <path id="ArialMT-54" d="M 2538 -1272 
L 2538 353 
Q 2406 169 2170 47 
Q 1934 -75 1669 -75 
Q 1078 -75 651 397 
Q 225 869 225 1691 
Q 225 2191 398 2587 
Q 572 2984 901 3189 
Q 1231 3394 1625 3394 
Q 2241 3394 2594 2875 
L 2594 3319 
L 3100 3319 
L 3100 -1272 
L 2538 -1272 
z
M 803 1669 
Q 803 1028 1072 708 
Q 1341 388 1716 388 
Q 2075 388 2334 692 
Q 2594 997 2594 1619 
Q 2594 2281 2320 2615 
Q 2047 2950 1678 2950 
Q 1313 2950 1058 2639 
Q 803 2328 803 1669 
z
" transform="scale(0.015625)"/>
       <path id="ArialMT-58" d="M 2597 0 
L 2597 488 
Q 2209 -75 1544 -75 
Q 1250 -75 995 37 
Q 741 150 617 320 
Q 494 491 444 738 
Q 409 903 409 1263 
L 409 3319 
L 972 3319 
L 972 1478 
Q 972 1038 1006 884 
Q 1059 663 1231 536 
Q 1403 409 1656 409 
Q 1909 409 2131 539 
Q 2353 669 2445 892 
Q 2538 1116 2538 1541 
L 2538 3319 
L 3100 3319 
L 3100 0 
L 2597 0 
z
" transform="scale(0.015625)"/>
       <path id="ArialMT-50" d="M 422 0 
L 422 3319 
L 925 3319 
L 925 2853 
Q 1081 3097 1340 3245 
Q 1600 3394 1931 3394 
Q 2300 3394 2536 3241 
Q 2772 3088 2869 2813 
Q 3263 3394 3894 3394 
Q 4388 3394 4653 3120 
Q 4919 2847 4919 2278 
L 4919 0 
L 4359 0 
L 4359 2091 
Q 4359 2428 4304 2576 
Q 4250 2725 4106 2815 
Q 3963 2906 3769 2906 
Q 3419 2906 3187 2673 
Q 2956 2441 2956 1928 
L 2956 0 
L 2394 0 
L 2394 2156 
Q 2394 2531 2256 2718 
Q 2119 2906 1806 2906 
Q 1569 2906 1367 2781 
Q 1166 2656 1075 2415 
Q 984 2175 984 1722 
L 984 0 
L 422 0 
z
" transform="scale(0.015625)"/>
      </defs>
      <use xlink:href="#ArialMT-33"/>
      <use xlink:href="#ArialMT-4f" transform="translate(66.703125 0)"/>
      <use xlink:href="#ArialMT-44" transform="translate(88.921875 0)"/>
      <use xlink:href="#ArialMT-56" transform="translate(144.53125 0)"/>
      <use xlink:href="#ArialMT-57" transform="translate(194.53125 0)"/>
      <use xlink:href="#ArialMT-4c" transform="translate(222.3125 0)"/>
      <use xlink:href="#ArialMT-46" transform="translate(244.53125 0)"/>
      <use xlink:href="#ArialMT-4c" transform="translate(294.53125 0)"/>
      <use xlink:href="#ArialMT-57" transform="translate(316.75 0)"/>
      <use xlink:href="#ArialMT-5c" transform="translate(344.53125 0)"/>
      <use xlink:href="#ArialMT-3" transform="translate(394.53125 0)"/>
      <use xlink:href="#ArialMT-4c" transform="translate(422.3125 0)"/>
      <use xlink:href="#ArialMT-51" transform="translate(444.53125 0)"/>
      <use xlink:href="#ArialMT-47" transform="translate(500.140625 0)"/>
      <use xlink:href="#ArialMT-48" transform="translate(555.75 0)"/>
      <use xlink:href="#ArialMT-5b" transform="translate(611.359375 0)"/>
      <use xlink:href="#ArialMT-3" transform="translate(661.359375 0)"/>
      <use xlink:href="#ArialMT-57" transform="translate(689.140625 0)"/>
      <use xlink:href="#ArialMT-52" transform="translate(716.921875 0)"/>
      <use xlink:href="#ArialMT-3" transform="translate(772.53125 0)"/>
      <use xlink:href="#ArialMT-4f" transform="translate(800.3125 0)"/>
      <use xlink:href="#ArialMT-4c" transform="translate(822.53125 0)"/>
      <use xlink:href="#ArialMT-54" transform="translate(844.75 0)"/>
      <use xlink:href="#ArialMT-58" transform="translate(900.359375 0)"/>
      <use xlink:href="#ArialMT-4c" transform="translate(955.96875 0)"/>
      <use xlink:href="#ArialMT-47" transform="translate(978.1875 0)"/>
      <use xlink:href="#ArialMT-3" transform="translate(1033.796875 0)"/>
      <use xlink:href="#ArialMT-4f" transform="translate(1061.578125 0)"/>
      <use xlink:href="#ArialMT-4c" transform="translate(1083.796875 0)"/>
      <use xlink:href="#ArialMT-50" transform="translate(1106.015625 0)"/>
      <use xlink:href="#ArialMT-4c" transform="translate(1189.3125 0)"/>
      <use xlink:href="#ArialMT-57" transform="translate(1211.53125 0)"/>
      <use xlink:href="#ArialMT-3" transform="translate(1239.3125 0)"/>
      <use xlink:href="#ArialMT-55" transform="translate(1267.09375 0)"/>
      <use xlink:href="#ArialMT-44" transform="translate(1300.390625 0)"/>
      <use xlink:href="#ArialMT-57" transform="translate(1356 0)"/>
      <use xlink:href="#ArialMT-4c" transform="translate(1383.78125 0)"/>
      <use xlink:href="#ArialMT-52" transform="translate(1406 0)"/>
     </g>
    </g>
   </g>
   <g id="patch_15">
    <path d="M 57.6 307.584 
L 57.6 41.472 
" style="fill: none; stroke: #000000; stroke-width: 0.8; stroke-linejoin: miter; stroke-linecap: square"/>
   </g>
   <g id="patch_16">
    <path d="M 414.72 307.584 
L 414.72 41.472 
" style="fill: none; stroke: #000000; stroke-width: 0.8; stroke-linejoin: miter; stroke-linecap: square"/>
   </g>
   <g id="patch_17">
    <path d="M 57.6 307.584 
L 414.72 307.584 
" style="fill: none; stroke: #000000; stroke-width: 0.8; stroke-linejoin: miter; stroke-linecap: square"/>
   </g>
   <g id="patch_18">
    <path d="M 57.6 41.472 
L 414.72 41.472 
" style="fill: none; stroke: #000000; stroke-width: 0.8; stroke-linejoin: miter; stroke-linecap: square"/>
   </g>
   <g id="text_15">
    <!-- Sa -->
    <g transform="translate(389.614519 182.597798) scale(0.1 -0.1)">
     <defs>
      <path id="ArialMT-36" d="M 288 1472 
L 859 1522 
Q 900 1178 1048 958 
Q 1197 738 1509 602 
Q 1822 466 2213 466 
Q 2559 466 2825 569 
Q 3091 672 3220 851 
Q 3350 1031 3350 1244 
Q 3350 1459 3225 1620 
Q 3100 1781 2813 1891 
Q 2628 1963 1997 2114 
Q 1366 2266 1113 2400 
Q 784 2572 623 2826 
Q 463 3081 463 3397 
Q 463 3744 659 4045 
Q 856 4347 1234 4503 
Q 1613 4659 2075 4659 
Q 2584 4659 2973 4495 
Q 3363 4331 3572 4012 
Q 3781 3694 3797 3291 
L 3216 3247 
Q 3169 3681 2898 3903 
Q 2628 4125 2100 4125 
Q 1550 4125 1298 3923 
Q 1047 3722 1047 3438 
Q 1047 3191 1225 3031 
Q 1400 2872 2139 2705 
Q 2878 2538 3153 2413 
Q 3553 2228 3743 1945 
Q 3934 1663 3934 1294 
Q 3934 928 3725 604 
Q 3516 281 3123 101 
Q 2731 -78 2241 -78 
Q 1619 -78 1198 103 
Q 778 284 539 648 
Q 300 1013 288 1472 
z
" transform="scale(0.015625)"/>
     </defs>
     <use xlink:href="#ArialMT-36"/>
     <use xlink:href="#ArialMT-44" transform="translate(66.703125 0)"/>
    </g>
   </g>
   <g id="text_16">
    <!-- LoSa -->
    <g transform="translate(348.686202 205.669708) scale(0.1 -0.1)">
     <defs>
      <path id="ArialMT-2f" d="M 469 0 
L 469 4581 
L 1075 4581 
L 1075 541 
L 3331 541 
L 3331 0 
L 469 0 
z
" transform="scale(0.015625)"/>
     </defs>
     <use xlink:href="#ArialMT-2f"/>
     <use xlink:href="#ArialMT-52" transform="translate(55.609375 0)"/>
     <use xlink:href="#ArialMT-36" transform="translate(111.21875 0)"/>
     <use xlink:href="#ArialMT-44" transform="translate(177.921875 0)"/>
    </g>
   </g>
   <g id="text_17">
    <!-- SaLo -->
    <g transform="translate(293.419382 227.89006) scale(0.1 -0.1)">
     <use xlink:href="#ArialMT-36"/>
     <use xlink:href="#ArialMT-44" transform="translate(66.703125 0)"/>
     <use xlink:href="#ArialMT-2f" transform="translate(122.3125 0)"/>
     <use xlink:href="#ArialMT-52" transform="translate(177.921875 0)"/>
    </g>
   </g>
   <g id="text_18">
    <!-- Lo -->
    <g transform="translate(197.296908 249.39191) scale(0.1 -0.1)">
     <use xlink:href="#ArialMT-2f"/>
     <use xlink:href="#ArialMT-52" transform="translate(55.609375 0)"/>
    </g>
   </g>
   <g id="text_19">
    <!-- SiLo -->
    <g transform="translate(126.64898 267.780249) scale(0.1 -0.1)">
     <use xlink:href="#ArialMT-36"/>
     <use xlink:href="#ArialMT-4c" transform="translate(66.703125 0)"/>
     <use xlink:href="#ArialMT-2f" transform="translate(88.921875 0)"/>
     <use xlink:href="#ArialMT-52" transform="translate(144.53125 0)"/>
    </g>
   </g>
   <g id="text_20">
    <!-- Si -->
    <g transform="translate(79.682923 287.366092) scale(0.1 -0.1)">
     <use xlink:href="#ArialMT-36"/>
     <use xlink:href="#ArialMT-4c" transform="translate(66.703125 0)"/>
    </g>
   </g>
   <g id="text_21">
    <!-- SaClLo -->
    <g transform="translate(290.917365 144.623615) scale(0.1 -0.1)">
     <defs>
      <path id="ArialMT-26" d="M 3763 1606 
L 4369 1453 
Q 4178 706 3683 314 
Q 3188 -78 2472 -78 
Q 1731 -78 1267 223 
Q 803 525 561 1097 
Q 319 1669 319 2325 
Q 319 3041 592 3573 
Q 866 4106 1370 4382 
Q 1875 4659 2481 4659 
Q 3169 4659 3637 4309 
Q 4106 3959 4291 3325 
L 3694 3184 
Q 3534 3684 3231 3912 
Q 2928 4141 2469 4141 
Q 1941 4141 1586 3887 
Q 1231 3634 1087 3207 
Q 944 2781 944 2328 
Q 944 1744 1114 1308 
Q 1284 872 1643 656 
Q 2003 441 2422 441 
Q 2931 441 3284 734 
Q 3638 1028 3763 1606 
z
" transform="scale(0.015625)"/>
     </defs>
     <use xlink:href="#ArialMT-36"/>
     <use xlink:href="#ArialMT-44" transform="translate(66.703125 0)"/>
     <use xlink:href="#ArialMT-26" transform="translate(122.3125 0)"/>
     <use xlink:href="#ArialMT-4f" transform="translate(194.53125 0)"/>
     <use xlink:href="#ArialMT-2f" transform="translate(216.75 0)"/>
     <use xlink:href="#ArialMT-52" transform="translate(272.359375 0)"/>
    </g>
   </g>
   <g id="text_22">
    <!-- ClLo -->
    <g transform="translate(163.381188 199.735411) scale(0.1 -0.1)">
     <use xlink:href="#ArialMT-26"/>
     <use xlink:href="#ArialMT-4f" transform="translate(72.21875 0)"/>
     <use xlink:href="#ArialMT-2f" transform="translate(94.4375 0)"/>
     <use xlink:href="#ArialMT-52" transform="translate(150.046875 0)"/>
    </g>
   </g>
   <g id="text_23">
    <!-- SiClLo -->
    <g transform="translate(78.583094 210.80567) scale(0.1 -0.1)">
     <use xlink:href="#ArialMT-36"/>
     <use xlink:href="#ArialMT-4c" transform="translate(66.703125 0)"/>
     <use xlink:href="#ArialMT-26" transform="translate(88.921875 0)"/>
     <use xlink:href="#ArialMT-4f" transform="translate(161.140625 0)"/>
     <use xlink:href="#ArialMT-2f" transform="translate(183.359375 0)"/>
     <use xlink:href="#ArialMT-52" transform="translate(238.96875 0)"/>
    </g>
   </g>
   <g id="text_24">
    <!-- SaCl -->
    <g transform="translate(243.1785 121.684761) scale(0.1 -0.1)">
     <use xlink:href="#ArialMT-36"/>
     <use xlink:href="#ArialMT-44" transform="translate(66.703125 0)"/>
     <use xlink:href="#ArialMT-26" transform="translate(122.3125 0)"/>
     <use xlink:href="#ArialMT-4f" transform="translate(194.53125 0)"/>
    </g>
   </g>
   <g id="text_25">
    <!-- Cl -->
    <g transform="translate(133.230125 110.587891) scale(0.1 -0.1)">
     <use xlink:href="#ArialMT-26"/>
     <use xlink:href="#ArialMT-4f" transform="translate(72.21875 0)"/>
    </g>
   </g>
   <g id="text_26">
    <!-- SiCl -->
    <g transform="translate(84.144031 188.212761) scale(0.1 -0.1)">
     <use xlink:href="#ArialMT-36"/>
     <use xlink:href="#ArialMT-4c" transform="translate(66.703125 0)"/>
     <use xlink:href="#ArialMT-26" transform="translate(88.921875 0)"/>
     <use xlink:href="#ArialMT-4f" transform="translate(161.140625 0)"/>
    </g>
   </g>
  </g>
  <g id="text_27">
   <!-- Modified USDA chart by Moreno-Maroto and Alonso-Azcárate (2018) -->
   <g transform="translate(47.98875 15.648328) scale(0.12 -0.12)">
    <defs>
     <path id="ArialMT-30" d="M 475 0 
L 475 4581 
L 1388 4581 
L 2472 1338 
Q 2622 884 2691 659 
Q 2769 909 2934 1394 
L 4031 4581 
L 4847 4581 
L 4847 0 
L 4263 0 
L 4263 3834 
L 2931 0 
L 2384 0 
L 1059 3900 
L 1059 0 
L 475 0 
z
" transform="scale(0.015625)"/>
     <path id="ArialMT-49" d="M 556 0 
L 556 2881 
L 59 2881 
L 59 3319 
L 556 3319 
L 556 3672 
Q 556 4006 616 4169 
Q 697 4388 901 4523 
Q 1106 4659 1475 4659 
Q 1713 4659 2000 4603 
L 1916 4113 
Q 1741 4144 1584 4144 
Q 1328 4144 1222 4034 
Q 1116 3925 1116 3625 
L 1116 3319 
L 1763 3319 
L 1763 2881 
L 1116 2881 
L 1116 0 
L 556 0 
z
" transform="scale(0.015625)"/>
     <path id="ArialMT-38" d="M 3500 4581 
L 4106 4581 
L 4106 1934 
Q 4106 1244 3950 837 
Q 3794 431 3386 176 
Q 2978 -78 2316 -78 
Q 1672 -78 1262 144 
Q 853 366 678 786 
Q 503 1206 503 1934 
L 503 4581 
L 1109 4581 
L 1109 1938 
Q 1109 1341 1220 1058 
Q 1331 775 1601 622 
Q 1872 469 2263 469 
Q 2931 469 3215 772 
Q 3500 1075 3500 1938 
L 3500 4581 
z
" transform="scale(0.015625)"/>
     <path id="ArialMT-27" d="M 494 0 
L 494 4581 
L 2072 4581 
Q 2606 4581 2888 4516 
Q 3281 4425 3559 4188 
Q 3922 3881 4101 3404 
Q 4281 2928 4281 2316 
Q 4281 1794 4159 1391 
Q 4038 988 3847 723 
Q 3656 459 3429 307 
Q 3203 156 2883 78 
Q 2563 0 2147 0 
L 494 0 
z
M 1100 541 
L 2078 541 
Q 2531 541 2789 625 
Q 3047 709 3200 863 
Q 3416 1078 3536 1442 
Q 3656 1806 3656 2325 
Q 3656 3044 3420 3430 
Q 3184 3816 2847 3947 
Q 2603 4041 2063 4041 
L 1100 4041 
L 1100 541 
z
" transform="scale(0.015625)"/>
     <path id="ArialMT-24" d="M -9 0 
L 1750 4581 
L 2403 4581 
L 4278 0 
L 3588 0 
L 3053 1388 
L 1138 1388 
L 634 0 
L -9 0 
z
M 1313 1881 
L 2866 1881 
L 2388 3150 
Q 2169 3728 2063 4100 
Q 1975 3659 1816 3225 
L 1313 1881 
z
" transform="scale(0.015625)"/>
     <path id="ArialMT-4b" d="M 422 0 
L 422 4581 
L 984 4581 
L 984 2938 
Q 1378 3394 1978 3394 
Q 2347 3394 2619 3248 
Q 2891 3103 3008 2847 
Q 3125 2591 3125 2103 
L 3125 0 
L 2563 0 
L 2563 2103 
Q 2563 2525 2380 2717 
Q 2197 2909 1863 2909 
Q 1613 2909 1392 2779 
Q 1172 2650 1078 2428 
Q 984 2206 984 1816 
L 984 0 
L 422 0 
z
" transform="scale(0.015625)"/>
     <path id="ArialMT-45" d="M 941 0 
L 419 0 
L 419 4581 
L 981 4581 
L 981 2947 
Q 1338 3394 1891 3394 
Q 2197 3394 2470 3270 
Q 2744 3147 2920 2923 
Q 3097 2700 3197 2384 
Q 3297 2069 3297 1709 
Q 3297 856 2875 390 
Q 2453 -75 1863 -75 
Q 1275 -75 941 416 
L 941 0 
z
M 934 1684 
Q 934 1088 1097 822 
Q 1363 388 1816 388 
Q 2184 388 2453 708 
Q 2722 1028 2722 1663 
Q 2722 2313 2464 2622 
Q 2206 2931 1841 2931 
Q 1472 2931 1203 2611 
Q 934 2291 934 1684 
z
" transform="scale(0.015625)"/>
     <path id="ArialMT-10" d="M 203 1375 
L 203 1941 
L 1931 1941 
L 1931 1375 
L 203 1375 
z
" transform="scale(0.015625)"/>
     <path id="ArialMT-5d" d="M 125 0 
L 125 456 
L 2238 2881 
Q 1878 2863 1603 2863 
L 250 2863 
L 250 3319 
L 2963 3319 
L 2963 2947 
L 1166 841 
L 819 456 
Q 1197 484 1528 484 
L 3063 484 
L 3063 0 
L 125 0 
z
" transform="scale(0.015625)"/>
     <path id="ArialMT-69" d="M 2588 409 
Q 2275 144 1986 34 
Q 1697 -75 1366 -75 
Q 819 -75 525 192 
Q 231 459 231 875 
Q 231 1119 342 1320 
Q 453 1522 633 1644 
Q 813 1766 1038 1828 
Q 1203 1872 1538 1913 
Q 2219 1994 2541 2106 
Q 2544 2222 2544 2253 
Q 2544 2597 2384 2738 
Q 2169 2928 1744 2928 
Q 1347 2928 1158 2789 
Q 969 2650 878 2297 
L 328 2372 
Q 403 2725 575 2942 
Q 747 3159 1072 3276 
Q 1397 3394 1825 3394 
Q 2250 3394 2515 3294 
Q 2781 3194 2906 3042 
Q 3031 2891 3081 2659 
Q 3109 2516 3109 2141 
L 3109 1391 
Q 3109 606 3145 398 
Q 3181 191 3288 0 
L 2700 0 
Q 2613 175 2588 409 
z
M 2541 1666 
Q 2234 1541 1622 1453 
Q 1275 1403 1131 1340 
Q 988 1278 909 1158 
Q 831 1038 831 891 
Q 831 666 1001 516 
Q 1172 366 1500 366 
Q 1825 366 2078 508 
Q 2331 650 2450 897 
Q 2541 1088 2541 1459 
L 2541 1666 
z
M 1447 3731 
L 1862 4606 
L 2600 4606 
L 1912 3731 
L 1447 3731 
z
" transform="scale(0.015625)"/>
    </defs>
    <use xlink:href="#ArialMT-30"/>
    <use xlink:href="#ArialMT-52" transform="translate(83.296875 0)"/>
    <use xlink:href="#ArialMT-47" transform="translate(138.90625 0)"/>
    <use xlink:href="#ArialMT-4c" transform="translate(194.515625 0)"/>
    <use xlink:href="#ArialMT-49" transform="translate(216.734375 0)"/>
    <use xlink:href="#ArialMT-4c" transform="translate(244.515625 0)"/>
    <use xlink:href="#ArialMT-48" transform="translate(266.734375 0)"/>
    <use xlink:href="#ArialMT-47" transform="translate(322.34375 0)"/>
    <use xlink:href="#ArialMT-3" transform="translate(377.953125 0)"/>
    <use xlink:href="#ArialMT-38" transform="translate(405.734375 0)"/>
    <use xlink:href="#ArialMT-36" transform="translate(477.953125 0)"/>
    <use xlink:href="#ArialMT-27" transform="translate(544.65625 0)"/>
    <use xlink:href="#ArialMT-24" transform="translate(616.875 0)"/>
    <use xlink:href="#ArialMT-3" transform="translate(678.0625 0)"/>
    <use xlink:href="#ArialMT-46" transform="translate(705.84375 0)"/>
    <use xlink:href="#ArialMT-4b" transform="translate(755.84375 0)"/>
    <use xlink:href="#ArialMT-44" transform="translate(811.453125 0)"/>
    <use xlink:href="#ArialMT-55" transform="translate(867.0625 0)"/>
    <use xlink:href="#ArialMT-57" transform="translate(900.359375 0)"/>
    <use xlink:href="#ArialMT-3" transform="translate(928.140625 0)"/>
    <use xlink:href="#ArialMT-45" transform="translate(955.921875 0)"/>
    <use xlink:href="#ArialMT-5c" transform="translate(1011.53125 0)"/>
    <use xlink:href="#ArialMT-3" transform="translate(1061.53125 0)"/>
    <use xlink:href="#ArialMT-30" transform="translate(1089.3125 0)"/>
    <use xlink:href="#ArialMT-52" transform="translate(1172.609375 0)"/>
    <use xlink:href="#ArialMT-55" transform="translate(1228.21875 0)"/>
    <use xlink:href="#ArialMT-48" transform="translate(1261.515625 0)"/>
    <use xlink:href="#ArialMT-51" transform="translate(1317.125 0)"/>
    <use xlink:href="#ArialMT-52" transform="translate(1372.734375 0)"/>
    <use xlink:href="#ArialMT-10" transform="translate(1428.34375 0)"/>
    <use xlink:href="#ArialMT-30" transform="translate(1461.640625 0)"/>
    <use xlink:href="#ArialMT-44" transform="translate(1544.9375 0)"/>
    <use xlink:href="#ArialMT-55" transform="translate(1600.546875 0)"/>
    <use xlink:href="#ArialMT-52" transform="translate(1633.84375 0)"/>
    <use xlink:href="#ArialMT-57" transform="translate(1689.453125 0)"/>
    <use xlink:href="#ArialMT-52" transform="translate(1717.234375 0)"/>
    <use xlink:href="#ArialMT-3" transform="translate(1772.84375 0)"/>
    <use xlink:href="#ArialMT-44" transform="translate(1800.625 0)"/>
    <use xlink:href="#ArialMT-51" transform="translate(1856.234375 0)"/>
    <use xlink:href="#ArialMT-47" transform="translate(1911.84375 0)"/>
    <use xlink:href="#ArialMT-3" transform="translate(1967.453125 0)"/>
    <use xlink:href="#ArialMT-24" transform="translate(1989.71875 0)"/>
    <use xlink:href="#ArialMT-4f" transform="translate(2056.421875 0)"/>
    <use xlink:href="#ArialMT-52" transform="translate(2078.640625 0)"/>
    <use xlink:href="#ArialMT-51" transform="translate(2134.25 0)"/>
    <use xlink:href="#ArialMT-56" transform="translate(2189.859375 0)"/>
    <use xlink:href="#ArialMT-52" transform="translate(2239.859375 0)"/>
    <use xlink:href="#ArialMT-10" transform="translate(2295.46875 0)"/>
    <use xlink:href="#ArialMT-24" transform="translate(2328.765625 0)"/>
    <use xlink:href="#ArialMT-5d" transform="translate(2395.46875 0)"/>
    <use xlink:href="#ArialMT-46" transform="translate(2445.46875 0)"/>
    <use xlink:href="#ArialMT-69" transform="translate(2495.46875 0)"/>
    <use xlink:href="#ArialMT-55" transform="translate(2551.078125 0)"/>
    <use xlink:href="#ArialMT-44" transform="translate(2584.375 0)"/>
    <use xlink:href="#ArialMT-57" transform="translate(2639.984375 0)"/>
    <use xlink:href="#ArialMT-48" transform="translate(2667.765625 0)"/>
    <use xlink:href="#ArialMT-3" transform="translate(2723.375 0)"/>
    <use xlink:href="#ArialMT-b" transform="translate(2751.15625 0)"/>
    <use xlink:href="#ArialMT-15" transform="translate(2784.453125 0)"/>
    <use xlink:href="#ArialMT-13" transform="translate(2840.0625 0)"/>
    <use xlink:href="#ArialMT-14" transform="translate(2895.671875 0)"/>
    <use xlink:href="#ArialMT-1b" transform="translate(2951.28125 0)"/>
    <use xlink:href="#ArialMT-c" transform="translate(3006.890625 0)"/>
   </g>
  </g>
  <g id="legend_1">
   <g id="patch_19">
    <path d="M 400.993203 185.014117 
L 454.969 185.014117 
Q 456.635 185.014117 456.635 183.348117 
L 456.635 40.391 
Q 456.635 38.725 454.969 38.725 
L 400.993203 38.725 
Q 399.327203 38.725 399.327203 40.391 
L 399.327203 183.348117 
Q 399.327203 185.014117 400.993203 185.014117 
z
" style="fill: #ffffff; opacity: 0.8; stroke: #cccccc; stroke-linejoin: miter"/>
   </g>
   <g id="patch_20">
    <path d="M 402.659203 48.121468 
L 419.319203 48.121468 
L 419.319203 42.290468 
L 402.659203 42.290468 
z
" style="fill: #eee6da; opacity: 0.5; stroke: #000000; stroke-linejoin: miter"/>
   </g>
   <g id="text_28">
    <!-- Sa -->
    <g transform="translate(425.983203 48.121468) scale(0.0833 -0.0833)">
     <use xlink:href="#ArialMT-36"/>
     <use xlink:href="#ArialMT-44" transform="translate(66.703125 0)"/>
    </g>
   </g>
   <g id="patch_21">
    <path d="M 402.659203 60.103978 
L 419.319203 60.103978 
L 419.319203 54.272978 
L 402.659203 54.272978 
z
" style="fill: #eacfbc; opacity: 0.5; stroke: #000000; stroke-linejoin: miter"/>
   </g>
   <g id="text_29">
    <!-- LoSa -->
    <g transform="translate(425.983203 60.103978) scale(0.0833 -0.0833)">
     <use xlink:href="#ArialMT-2f"/>
     <use xlink:href="#ArialMT-52" transform="translate(55.609375 0)"/>
     <use xlink:href="#ArialMT-36" transform="translate(111.21875 0)"/>
     <use xlink:href="#ArialMT-44" transform="translate(177.921875 0)"/>
    </g>
   </g>
   <g id="patch_22">
    <path d="M 402.659203 72.086487 
L 419.319203 72.086487 
L 419.319203 66.255487 
L 402.659203 66.255487 
z
" style="fill: #faba75; opacity: 0.5; stroke: #000000; stroke-linejoin: miter"/>
   </g>
   <g id="text_30">
    <!-- SaLo -->
    <g transform="translate(425.983203 72.086487) scale(0.0833 -0.0833)">
     <use xlink:href="#ArialMT-36"/>
     <use xlink:href="#ArialMT-44" transform="translate(66.703125 0)"/>
     <use xlink:href="#ArialMT-2f" transform="translate(122.3125 0)"/>
     <use xlink:href="#ArialMT-52" transform="translate(177.921875 0)"/>
    </g>
   </g>
   <g id="patch_23">
    <path d="M 402.659203 84.068997 
L 419.319203 84.068997 
L 419.319203 78.237997 
L 402.659203 78.237997 
z
" style="fill: #f0a654; opacity: 0.5; stroke: #000000; stroke-linejoin: miter"/>
   </g>
   <g id="text_31">
    <!-- Lo -->
    <g transform="translate(425.983203 84.068997) scale(0.0833 -0.0833)">
     <use xlink:href="#ArialMT-2f"/>
     <use xlink:href="#ArialMT-52" transform="translate(55.609375 0)"/>
    </g>
   </g>
   <g id="patch_24">
    <path d="M 402.659203 96.051507 
L 419.319203 96.051507 
L 419.319203 90.220507 
L 402.659203 90.220507 
z
" style="fill: #d09662; opacity: 0.5; stroke: #000000; stroke-linejoin: miter"/>
   </g>
   <g id="text_32">
    <!-- SiLo -->
    <g transform="translate(425.983203 96.051507) scale(0.0833 -0.0833)">
     <use xlink:href="#ArialMT-36"/>
     <use xlink:href="#ArialMT-4c" transform="translate(66.703125 0)"/>
     <use xlink:href="#ArialMT-2f" transform="translate(88.921875 0)"/>
     <use xlink:href="#ArialMT-52" transform="translate(144.53125 0)"/>
    </g>
   </g>
   <g id="patch_25">
    <path d="M 402.659203 108.034017 
L 419.319203 108.034017 
L 419.319203 102.203017 
L 402.659203 102.203017 
z
" style="fill: #dfb48f; opacity: 0.5; stroke: #000000; stroke-linejoin: miter"/>
   </g>
   <g id="text_33">
    <!-- Si -->
    <g transform="translate(425.983203 108.034017) scale(0.0833 -0.0833)">
     <use xlink:href="#ArialMT-36"/>
     <use xlink:href="#ArialMT-4c" transform="translate(66.703125 0)"/>
    </g>
   </g>
   <g id="patch_26">
    <path d="M 402.659203 120.016526 
L 419.319203 120.016526 
L 419.319203 114.185526 
L 402.659203 114.185526 
z
" style="fill: #efaf6f; opacity: 0.5; stroke: #000000; stroke-linejoin: miter"/>
   </g>
   <g id="text_34">
    <!-- SaClLo -->
    <g transform="translate(425.983203 120.016526) scale(0.0833 -0.0833)">
     <use xlink:href="#ArialMT-36"/>
     <use xlink:href="#ArialMT-44" transform="translate(66.703125 0)"/>
     <use xlink:href="#ArialMT-26" transform="translate(122.3125 0)"/>
     <use xlink:href="#ArialMT-4f" transform="translate(194.53125 0)"/>
     <use xlink:href="#ArialMT-2f" transform="translate(216.75 0)"/>
     <use xlink:href="#ArialMT-52" transform="translate(272.359375 0)"/>
    </g>
   </g>
   <g id="patch_27">
    <path d="M 402.659203 131.999036 
L 419.319203 131.999036 
L 419.319203 126.168036 
L 402.659203 126.168036 
z
" style="fill: #e47b3b; opacity: 0.5; stroke: #000000; stroke-linejoin: miter"/>
   </g>
   <g id="text_35">
    <!-- ClLo -->
    <g transform="translate(425.983203 131.999036) scale(0.0833 -0.0833)">
     <use xlink:href="#ArialMT-26"/>
     <use xlink:href="#ArialMT-4f" transform="translate(72.21875 0)"/>
     <use xlink:href="#ArialMT-2f" transform="translate(94.4375 0)"/>
     <use xlink:href="#ArialMT-52" transform="translate(150.046875 0)"/>
    </g>
   </g>
   <g id="patch_28">
    <path d="M 402.659203 143.981546 
L 419.319203 143.981546 
L 419.319203 138.150546 
L 402.659203 138.150546 
z
" style="fill: #ef9360; opacity: 0.5; stroke: #000000; stroke-linejoin: miter"/>
   </g>
   <g id="text_36">
    <!-- SiClLo -->
    <g transform="translate(425.983203 143.981546) scale(0.0833 -0.0833)">
     <use xlink:href="#ArialMT-36"/>
     <use xlink:href="#ArialMT-4c" transform="translate(66.703125 0)"/>
     <use xlink:href="#ArialMT-26" transform="translate(88.921875 0)"/>
     <use xlink:href="#ArialMT-4f" transform="translate(161.140625 0)"/>
     <use xlink:href="#ArialMT-2f" transform="translate(183.359375 0)"/>
     <use xlink:href="#ArialMT-52" transform="translate(238.96875 0)"/>
    </g>
   </g>
   <g id="patch_29">
    <path d="M 402.659203 155.964056 
L 419.319203 155.964056 
L 419.319203 150.133056 
L 402.659203 150.133056 
z
" style="fill: #e99641; opacity: 0.5; stroke: #000000; stroke-linejoin: miter"/>
   </g>
   <g id="text_37">
    <!-- SaCl -->
    <g transform="translate(425.983203 155.964056) scale(0.0833 -0.0833)">
     <use xlink:href="#ArialMT-36"/>
     <use xlink:href="#ArialMT-44" transform="translate(66.703125 0)"/>
     <use xlink:href="#ArialMT-26" transform="translate(122.3125 0)"/>
     <use xlink:href="#ArialMT-4f" transform="translate(194.53125 0)"/>
    </g>
   </g>
   <g id="patch_30">
    <path d="M 402.659203 167.946565 
L 419.319203 167.946565 
L 419.319203 162.115565 
L 402.659203 162.115565 
z
" style="fill: #be826c; opacity: 0.5; stroke: #000000; stroke-linejoin: miter"/>
   </g>
   <g id="text_38">
    <!-- Cl -->
    <g transform="translate(425.983203 167.946565) scale(0.0833 -0.0833)">
     <use xlink:href="#ArialMT-26"/>
     <use xlink:href="#ArialMT-4f" transform="translate(72.21875 0)"/>
    </g>
   </g>
   <g id="patch_31">
    <path d="M 402.659203 179.929075 
L 419.319203 179.929075 
L 419.319203 174.098075 
L 402.659203 174.098075 
z
" style="fill: #cc6d4d; opacity: 0.5; stroke: #000000; stroke-linejoin: miter"/>
   </g>
   <g id="text_39">
    <!-- SiCl -->
    <g transform="translate(425.983203 179.929075) scale(0.0833 -0.0833)">
     <use xlink:href="#ArialMT-36"/>
     <use xlink:href="#ArialMT-4c" transform="translate(66.703125 0)"/>
     <use xlink:href="#ArialMT-26" transform="translate(88.921875 0)"/>
     <use xlink:href="#ArialMT-4f" transform="translate(161.140625 0)"/>
    </g>
   </g>
  </g>
 </g>
 <defs>
  <clipPath id="p1475ceaa0d">
   <rect x="57.6" y="41.472" width="357.12" height="266.112"/>
  </clipPath>
 </defs>
</svg>
