<?xml version="1.0" encoding="utf-8" standalone="no"?>
<!DOCTYPE svg PUBLIC "-//W3C//DTD SVG 1.1//EN"
  "http://www.w3.org/Graphics/SVG/1.1/DTD/svg11.dtd">
<svg xmlns:xlink="http://www.w3.org/1999/xlink" width="460.8pt" height="345.6pt" viewBox="0 0 460.8 345.6" xmlns="http://www.w3.org/2000/svg" version="1.1">
 <metadata>
  <rdf:RDF xmlns:dc="http://purl.org/dc/elements/1.1/" xmlns:cc="http://creativecommons.org/ns#" xmlns:rdf="http://www.w3.org/1999/02/22-rdf-syntax-ns#">
   <cc:Work>
    <dc:type rdf:resource="http://purl.org/dc/dcmitype/StillImage"/>
    <dc:date>2026-07-14T10:05:22.098620</dc:date>
    <dc:format>image/svg+xml</dc:format>
    <dc:creator>
     <cc:Agent>
      <dc:title>Matplotlib v3.11.0, https://matplotlib.org/</dc:title>
     </cc:Agent>
    </dc:creator>
   </cc:Work>
  </rdf:RDF>
 </metadata>
 <defs>
  <style type="text/css">*{stroke-linejoin: round; stroke-linecap: butt}</style>
 </defs>
 <g id="figure_1">
  <g id="patch_1">
   <path d="M 0 345.6 
L 460.8 345.6 
L 460.8 0 
L 0 0 
z
" style="fill: #ffffff"/>
  </g>
  <g id="axes_1">
   <g id="patch_2">
    <path d="M 236.16 41.472 
L 236.16 41.472 
L 82.520165 307.584 
L 82.520165 307.584 
L 389.799835 307.584 
L 389.799835 307.584 
z
" style="fill: #ffffff"/>
   </g>
   <g id="patch_3">
    <path d="M 82.520165 307.584 
L 97.884149 280.9728 
L 128.612116 307.584 
z
" clip-path="url(#p6a833ca598)" style="fill: #eee6da; opacity: 0.5; stroke: #000000; stroke-linejoin: miter"/>
   </g>
   <g id="patch_4">
    <path d="M 97.884149 280.9728 
L 105.56614 267.6672 
L 174.704066 307.584 
L 128.612116 307.584 
z
" clip-path="url(#p6a833ca598)" style="fill: #eacfbc; opacity: 0.5; stroke: #000000; stroke-linejoin: miter"/>
   </g>
   <g id="patch_5">
    <path d="M 105.56614 267.6672 
L 113.248132 254.3616 
L 199.28644 254.3616 
L 219.259618 288.95616 
L 246.914788 288.95616 
L 236.16 307.584 
L 174.704066 307.584 
z
" clip-path="url(#p6a833ca598)" style="fill: #faba75; opacity: 0.5; stroke: #000000; stroke-linejoin: miter"/>
   </g>
   <g id="patch_6">
    <path d="M 246.914788 288.95616 
L 219.259618 288.95616 
L 199.28644 254.3616 
L 210.041228 235.73376 
L 277.642755 235.73376 
z
" clip-path="url(#p6a833ca598)" style="fill: #f0a654; opacity: 0.5; stroke: #000000; stroke-linejoin: miter"/>
   </g>
   <g id="patch_7">
    <path d="M 328.343901 307.584 
L 346.780681 275.65056 
L 371.363055 275.65056 
L 348.317079 235.73376 
L 277.642755 235.73376 
L 236.16 307.584 
z
" clip-path="url(#p6a833ca598)" style="fill: #d09662; opacity: 0.5; stroke: #000000; stroke-linejoin: miter"/>
   </g>
   <g id="patch_8">
    <path d="M 328.343901 307.584 
L 346.780681 275.65056 
L 371.363055 275.65056 
L 389.799835 307.584 
z
" clip-path="url(#p6a833ca598)" style="fill: #dfb48f; opacity: 0.5; stroke: #000000; stroke-linejoin: miter"/>
   </g>
   <g id="patch_9">
    <path d="M 210.041228 235.73376 
L 199.28644 254.3616 
L 113.248132 254.3616 
L 136.294107 214.4448 
L 197.750041 214.4448 
z
" clip-path="url(#p6a833ca598)" style="fill: #efaf6f; opacity: 0.5; stroke: #000000; stroke-linejoin: miter"/>
   </g>
   <g id="patch_10">
    <path d="M 210.041228 235.73376 
L 190.06805 201.1392 
L 266.887967 201.1392 
L 286.861145 235.73376 
z
" clip-path="url(#p6a833ca598)" style="fill: #e47b3b; opacity: 0.5; stroke: #000000; stroke-linejoin: miter"/>
   </g>
   <g id="patch_11">
    <path d="M 286.861145 235.73376 
L 266.887967 201.1392 
L 328.343901 201.1392 
L 348.317079 235.73376 
z
" clip-path="url(#p6a833ca598)" style="fill: #ef9360; opacity: 0.5; stroke: #000000; stroke-linejoin: miter"/>
   </g>
   <g id="patch_12">
    <path d="M 197.750041 214.4448 
L 136.294107 214.4448 
L 167.022074 161.2224 
z
" clip-path="url(#p6a833ca598)" style="fill: #e99641; opacity: 0.5; stroke: #000000; stroke-linejoin: miter"/>
   </g>
   <g id="patch_13">
    <path d="M 190.06805 201.1392 
L 167.022074 161.2224 
L 236.16 41.472 
L 297.615934 147.9168 
L 266.887967 201.1392 
z
" clip-path="url(#p6a833ca598)" style="fill: #be826c; opacity: 0.5; stroke: #000000; stroke-linejoin: miter"/>
   </g>
   <g id="patch_14">
    <path d="M 266.887967 201.1392 
L 297.615934 147.9168 
L 328.343901 201.1392 
z
" clip-path="url(#p6a833ca598)" style="fill: #cc6d4d; opacity: 0.5; stroke: #000000; stroke-linejoin: miter"/>
   </g>
   <g id="PathCollection_1">
    <defs>
     <path id="m90775736ab" d="M 0 3 
C 0.795609 3 1.55874 2.683901 2.12132 2.12132 
C 2.683901 1.55874 3 0.795609 3 0 
C 3 -0.795609 2.683901 -1.55874 2.12132 -2.12132 
C 1.55874 -2.683901 0.795609 -3 0 -3 
C -0.795609 -3 -1.55874 -2.683901 -2.12132 -2.12132 
C -2.683901 -1.55874 -3 -0.795609 -3 0 
C -3 0.795609 -2.683901 1.55874 -2.12132 2.12132 
C -1.55874 2.683901 -0.795609 3 0 3 
z
" style="stroke: #1f77b4"/>
    </defs>
    <g clip-path="url(#p6a833ca598)"/>
   </g>
   <g id="matplotlib.axis_1">
    <g id="xtick_1">
     <g id="line2d_1">
      <defs>
       <path id="m3073e38a0e" d="M 0 0 
L -3.5 -0 
" style="stroke: #000000; stroke-width: 0.8"/>
      </defs>
      <g>
       <use xlink:href="#m3073e38a0e" x="82.520165" y="307.584" style="stroke: #000000; stroke-width: 0.8"/>
      </g>
     </g>
     <g id="text_1">
      <!-- 0 -->
      <g transform="translate(69.959228 311.224137) scale(0.1 -0.1)">
       <defs>
        <path id="ArialMT-13" d="M 266 2259 
Q 266 3072 433 3567 
Q 600 4063 929 4331 
Q 1259 4600 1759 4600 
Q 2128 4600 2406 4451 
Q 2684 4303 2865 4023 
Q 3047 3744 3150 3342 
Q 3253 2941 3253 2259 
Q 3253 1453 3087 958 
Q 2922 463 2592 192 
Q 2263 -78 1759 -78 
Q 1097 -78 719 397 
Q 266 969 266 2259 
z
M 844 2259 
Q 844 1131 1108 757 
Q 1372 384 1759 384 
Q 2147 384 2411 759 
Q 2675 1134 2675 2259 
Q 2675 3391 2411 3762 
Q 2147 4134 1753 4134 
Q 1366 4134 1134 3806 
Q 844 3388 844 2259 
z
" transform="scale(0.015625)"/>
       </defs>
       <use xlink:href="#ArialMT-13"/>
      </g>
     </g>
    </g>
    <g id="xtick_2">
     <g id="line2d_2">
      <g>
       <use xlink:href="#m3073e38a0e" x="97.884149" y="280.9728" style="stroke: #000000; stroke-width: 0.8"/>
      </g>
     </g>
     <g id="text_2">
      <!-- 10 -->
      <g transform="translate(79.762274 284.612937) scale(0.1 -0.1)">
       <defs>
        <path id="ArialMT-14" d="M 2384 0 
L 1822 0 
L 1822 3584 
Q 1619 3391 1289 3197 
Q 959 3003 697 2906 
L 697 3450 
Q 1169 3672 1522 3987 
Q 1875 4303 2022 4600 
L 2384 4600 
L 2384 0 
z
" transform="scale(0.015625)"/>
       </defs>
       <use xlink:href="#ArialMT-14"/>
       <use xlink:href="#ArialMT-13" transform="translate(55.609375 0)"/>
      </g>
     </g>
    </g>
    <g id="xtick_3">
     <g id="line2d_3">
      <g>
       <use xlink:href="#m3073e38a0e" x="113.248132" y="254.3616" style="stroke: #000000; stroke-width: 0.8"/>
      </g>
     </g>
     <g id="text_3">
      <!-- 20 -->
      <g transform="translate(95.126257 258.001737) scale(0.1 -0.1)">
       <defs>
        <path id="ArialMT-15" d="M 3222 541 
L 3222 0 
L 194 0 
Q 188 203 259 391 
Q 375 700 629 1000 
Q 884 1300 1366 1694 
Q 2113 2306 2375 2664 
Q 2638 3022 2638 3341 
Q 2638 3675 2398 3904 
Q 2159 4134 1775 4134 
Q 1369 4134 1125 3890 
Q 881 3647 878 3216 
L 300 3275 
Q 359 3922 746 4261 
Q 1134 4600 1788 4600 
Q 2447 4600 2831 4234 
Q 3216 3869 3216 3328 
Q 3216 3053 3103 2787 
Q 2991 2522 2730 2228 
Q 2469 1934 1863 1422 
Q 1356 997 1212 845 
Q 1069 694 975 541 
L 3222 541 
z
" transform="scale(0.015625)"/>
       </defs>
       <use xlink:href="#ArialMT-15"/>
       <use xlink:href="#ArialMT-13" transform="translate(55.609375 0)"/>
      </g>
     </g>
    </g>
    <g id="xtick_4">
     <g id="line2d_4">
      <g>
       <use xlink:href="#m3073e38a0e" x="128.612116" y="227.7504" style="stroke: #000000; stroke-width: 0.8"/>
      </g>
     </g>
     <g id="text_4">
      <!-- 30 -->
      <g transform="translate(110.490241 231.390537) scale(0.1 -0.1)">
       <defs>
        <path id="ArialMT-16" d="M 269 1209 
L 831 1284 
Q 928 806 1161 595 
Q 1394 384 1728 384 
Q 2125 384 2398 659 
Q 2672 934 2672 1341 
Q 2672 1728 2419 1979 
Q 2166 2231 1775 2231 
Q 1616 2231 1378 2169 
L 1441 2663 
Q 1497 2656 1531 2656 
Q 1891 2656 2178 2843 
Q 2466 3031 2466 3422 
Q 2466 3731 2256 3934 
Q 2047 4138 1716 4138 
Q 1388 4138 1169 3931 
Q 950 3725 888 3313 
L 325 3413 
Q 428 3978 793 4289 
Q 1159 4600 1703 4600 
Q 2078 4600 2393 4439 
Q 2709 4278 2876 4000 
Q 3044 3722 3044 3409 
Q 3044 3113 2884 2869 
Q 2725 2625 2413 2481 
Q 2819 2388 3044 2092 
Q 3269 1797 3269 1353 
Q 3269 753 2831 336 
Q 2394 -81 1725 -81 
Q 1122 -81 723 278 
Q 325 638 269 1209 
z
" transform="scale(0.015625)"/>
       </defs>
       <use xlink:href="#ArialMT-16"/>
       <use xlink:href="#ArialMT-13" transform="translate(55.609375 0)"/>
      </g>
     </g>
    </g>
    <g id="xtick_5">
     <g id="line2d_5">
      <g>
       <use xlink:href="#m3073e38a0e" x="143.976099" y="201.1392" style="stroke: #000000; stroke-width: 0.8"/>
      </g>
     </g>
     <g id="text_5">
      <!-- 40 -->
      <g transform="translate(125.854224 204.779337) scale(0.1 -0.1)">
       <defs>
        <path id="ArialMT-17" d="M 2069 0 
L 2069 1097 
L 81 1097 
L 81 1613 
L 2172 4581 
L 2631 4581 
L 2631 1613 
L 3250 1613 
L 3250 1097 
L 2631 1097 
L 2631 0 
L 2069 0 
z
M 2069 1613 
L 2069 3678 
L 634 1613 
L 2069 1613 
z
" transform="scale(0.015625)"/>
       </defs>
       <use xlink:href="#ArialMT-17"/>
       <use xlink:href="#ArialMT-13" transform="translate(55.609375 0)"/>
      </g>
     </g>
    </g>
    <g id="xtick_6">
     <g id="line2d_6">
      <g>
       <use xlink:href="#m3073e38a0e" x="159.340083" y="174.528" style="stroke: #000000; stroke-width: 0.8"/>
      </g>
     </g>
     <g id="text_6">
      <!-- 50 -->
      <g transform="translate(141.218208 178.168137) scale(0.1 -0.1)">
       <defs>
        <path id="ArialMT-18" d="M 266 1200 
L 856 1250 
Q 922 819 1161 601 
Q 1400 384 1738 384 
Q 2144 384 2425 690 
Q 2706 997 2706 1503 
Q 2706 1984 2436 2262 
Q 2166 2541 1728 2541 
Q 1456 2541 1237 2417 
Q 1019 2294 894 2097 
L 366 2166 
L 809 4519 
L 3088 4519 
L 3088 3981 
L 1259 3981 
L 1013 2750 
Q 1425 3038 1878 3038 
Q 2478 3038 2890 2622 
Q 3303 2206 3303 1553 
Q 3303 931 2941 478 
Q 2500 -78 1738 -78 
Q 1113 -78 717 272 
Q 322 622 266 1200 
z
" transform="scale(0.015625)"/>
       </defs>
       <use xlink:href="#ArialMT-18"/>
       <use xlink:href="#ArialMT-13" transform="translate(55.609375 0)"/>
      </g>
     </g>
    </g>
    <g id="xtick_7">
     <g id="line2d_7">
      <g>
       <use xlink:href="#m3073e38a0e" x="174.704066" y="147.9168" style="stroke: #000000; stroke-width: 0.8"/>
      </g>
     </g>
     <g id="text_7">
      <!-- 60 -->
      <g transform="translate(156.582191 151.556937) scale(0.1 -0.1)">
       <defs>
        <path id="ArialMT-19" d="M 3184 3459 
L 2625 3416 
Q 2550 3747 2413 3897 
Q 2184 4138 1850 4138 
Q 1581 4138 1378 3988 
Q 1113 3794 959 3422 
Q 806 3050 800 2363 
Q 1003 2672 1297 2822 
Q 1591 2972 1913 2972 
Q 2475 2972 2870 2558 
Q 3266 2144 3266 1488 
Q 3266 1056 3080 686 
Q 2894 316 2569 119 
Q 2244 -78 1831 -78 
Q 1128 -78 684 439 
Q 241 956 241 2144 
Q 241 3472 731 4075 
Q 1159 4600 1884 4600 
Q 2425 4600 2770 4297 
Q 3116 3994 3184 3459 
z
M 888 1484 
Q 888 1194 1011 928 
Q 1134 663 1356 523 
Q 1578 384 1822 384 
Q 2178 384 2434 671 
Q 2691 959 2691 1453 
Q 2691 1928 2437 2201 
Q 2184 2475 1800 2475 
Q 1419 2475 1153 2201 
Q 888 1928 888 1484 
z
" transform="scale(0.015625)"/>
       </defs>
       <use xlink:href="#ArialMT-19"/>
       <use xlink:href="#ArialMT-13" transform="translate(55.609375 0)"/>
      </g>
     </g>
    </g>
    <g id="xtick_8">
     <g id="line2d_8">
      <g>
       <use xlink:href="#m3073e38a0e" x="190.06805" y="121.3056" style="stroke: #000000; stroke-width: 0.8"/>
      </g>
     </g>
     <g id="text_8">
      <!-- 70 -->
      <g transform="translate(171.946175 124.945737) scale(0.1 -0.1)">
       <defs>
        <path id="ArialMT-1a" d="M 303 3981 
L 303 4522 
L 3269 4522 
L 3269 4084 
Q 2831 3619 2401 2847 
Q 1972 2075 1738 1259 
Q 1569 684 1522 0 
L 944 0 
Q 953 541 1156 1306 
Q 1359 2072 1739 2783 
Q 2119 3494 2547 3981 
L 303 3981 
z
" transform="scale(0.015625)"/>
       </defs>
       <use xlink:href="#ArialMT-1a"/>
       <use xlink:href="#ArialMT-13" transform="translate(55.609375 0)"/>
      </g>
     </g>
    </g>
    <g id="xtick_9">
     <g id="line2d_9">
      <g>
       <use xlink:href="#m3073e38a0e" x="205.432033" y="94.6944" style="stroke: #000000; stroke-width: 0.8"/>
      </g>
     </g>
     <g id="text_9">
      <!-- 80 -->
      <g transform="translate(187.310158 98.334537) scale(0.1 -0.1)">
       <defs>
        <path id="ArialMT-1b" d="M 1131 2484 
Q 781 2613 612 2850 
Q 444 3088 444 3419 
Q 444 3919 803 4259 
Q 1163 4600 1759 4600 
Q 2359 4600 2725 4251 
Q 3091 3903 3091 3403 
Q 3091 3084 2923 2848 
Q 2756 2613 2416 2484 
Q 2838 2347 3058 2040 
Q 3278 1734 3278 1309 
Q 3278 722 2862 322 
Q 2447 -78 1769 -78 
Q 1091 -78 675 323 
Q 259 725 259 1325 
Q 259 1772 486 2073 
Q 713 2375 1131 2484 
z
M 1019 3438 
Q 1019 3113 1228 2906 
Q 1438 2700 1772 2700 
Q 2097 2700 2305 2904 
Q 2513 3109 2513 3406 
Q 2513 3716 2298 3927 
Q 2084 4138 1766 4138 
Q 1444 4138 1231 3931 
Q 1019 3725 1019 3438 
z
M 838 1322 
Q 838 1081 952 856 
Q 1066 631 1291 507 
Q 1516 384 1775 384 
Q 2178 384 2440 643 
Q 2703 903 2703 1303 
Q 2703 1709 2433 1975 
Q 2163 2241 1756 2241 
Q 1359 2241 1098 1978 
Q 838 1716 838 1322 
z
" transform="scale(0.015625)"/>
       </defs>
       <use xlink:href="#ArialMT-1b"/>
       <use xlink:href="#ArialMT-13" transform="translate(55.609375 0)"/>
      </g>
     </g>
    </g>
    <g id="xtick_10">
     <g id="line2d_10">
      <g>
       <use xlink:href="#m3073e38a0e" x="220.796017" y="68.0832" style="stroke: #000000; stroke-width: 0.8"/>
      </g>
     </g>
     <g id="text_10">
      <!-- 90 -->
      <g transform="translate(202.674142 71.723337) scale(0.1 -0.1)">
       <defs>
        <path id="ArialMT-1c" d="M 350 1059 
L 891 1109 
Q 959 728 1153 556 
Q 1347 384 1650 384 
Q 1909 384 2104 503 
Q 2300 622 2425 820 
Q 2550 1019 2634 1356 
Q 2719 1694 2719 2044 
Q 2719 2081 2716 2156 
Q 2547 1888 2255 1720 
Q 1963 1553 1622 1553 
Q 1053 1553 659 1965 
Q 266 2378 266 3053 
Q 266 3750 677 4175 
Q 1088 4600 1706 4600 
Q 2153 4600 2523 4359 
Q 2894 4119 3086 3673 
Q 3278 3228 3278 2384 
Q 3278 1506 3087 986 
Q 2897 466 2520 194 
Q 2144 -78 1638 -78 
Q 1100 -78 759 220 
Q 419 519 350 1059 
z
M 2653 3081 
Q 2653 3566 2395 3850 
Q 2138 4134 1775 4134 
Q 1400 4134 1122 3828 
Q 844 3522 844 3034 
Q 844 2597 1108 2323 
Q 1372 2050 1759 2050 
Q 2150 2050 2401 2323 
Q 2653 2597 2653 3081 
z
" transform="scale(0.015625)"/>
       </defs>
       <use xlink:href="#ArialMT-1c"/>
       <use xlink:href="#ArialMT-13" transform="translate(55.609375 0)"/>
      </g>
     </g>
    </g>
    <g id="xtick_11">
     <g id="line2d_11">
      <g>
       <use xlink:href="#m3073e38a0e" x="236.16" y="41.472" style="stroke: #000000; stroke-width: 0.8"/>
      </g>
     </g>
     <g id="text_11">
      <!-- 100 -->
      <g transform="translate(212.477188 45.112137) scale(0.1 -0.1)">
       <use xlink:href="#ArialMT-14"/>
       <use xlink:href="#ArialMT-13" transform="translate(55.609375 0)"/>
       <use xlink:href="#ArialMT-13" transform="translate(111.21875 0)"/>
      </g>
     </g>
    </g>
    <g id="text_12">
     <!-- Percent clay (%) -->
     <g transform="translate(116.377043 192.072822) rotate(-60) scale(0.1 -0.1)">
      <defs>
       <path id="ArialMT-33" d="M 494 0 
L 494 4581 
L 2222 4581 
Q 2678 4581 2919 4538 
Q 3256 4481 3484 4323 
Q 3713 4166 3852 3881 
Q 3991 3597 3991 3256 
Q 3991 2672 3619 2267 
Q 3247 1863 2275 1863 
L 1100 1863 
L 1100 0 
L 494 0 
z
M 1100 2403 
L 2284 2403 
Q 2872 2403 3119 2622 
Q 3366 2841 3366 3238 
Q 3366 3525 3220 3729 
Q 3075 3934 2838 4000 
Q 2684 4041 2272 4041 
L 1100 4041 
L 1100 2403 
z
" transform="scale(0.015625)"/>
       <path id="ArialMT-48" d="M 2694 1069 
L 3275 997 
Q 3138 488 2766 206 
Q 2394 -75 1816 -75 
Q 1088 -75 661 373 
Q 234 822 234 1631 
Q 234 2469 665 2931 
Q 1097 3394 1784 3394 
Q 2450 3394 2872 2941 
Q 3294 2488 3294 1666 
Q 3294 1616 3291 1516 
L 816 1516 
Q 847 969 1125 678 
Q 1403 388 1819 388 
Q 2128 388 2347 550 
Q 2566 713 2694 1069 
z
M 847 1978 
L 2700 1978 
Q 2663 2397 2488 2606 
Q 2219 2931 1791 2931 
Q 1403 2931 1139 2672 
Q 875 2413 847 1978 
z
" transform="scale(0.015625)"/>
       <path id="ArialMT-55" d="M 416 0 
L 416 3319 
L 922 3319 
L 922 2816 
Q 1116 3169 1280 3281 
Q 1444 3394 1641 3394 
Q 1925 3394 2219 3213 
L 2025 2691 
Q 1819 2813 1613 2813 
Q 1428 2813 1281 2702 
Q 1134 2591 1072 2394 
Q 978 2094 978 1738 
L 978 0 
L 416 0 
z
" transform="scale(0.015625)"/>
       <path id="ArialMT-46" d="M 2588 1216 
L 3141 1144 
Q 3050 572 2676 248 
Q 2303 -75 1759 -75 
Q 1078 -75 664 370 
Q 250 816 250 1647 
Q 250 2184 428 2587 
Q 606 2991 970 3192 
Q 1334 3394 1763 3394 
Q 2303 3394 2647 3120 
Q 2991 2847 3088 2344 
L 2541 2259 
Q 2463 2594 2264 2762 
Q 2066 2931 1784 2931 
Q 1359 2931 1093 2626 
Q 828 2322 828 1663 
Q 828 994 1084 691 
Q 1341 388 1753 388 
Q 2084 388 2306 591 
Q 2528 794 2588 1216 
z
" transform="scale(0.015625)"/>
       <path id="ArialMT-51" d="M 422 0 
L 422 3319 
L 928 3319 
L 928 2847 
Q 1294 3394 1984 3394 
Q 2284 3394 2536 3286 
Q 2788 3178 2913 3003 
Q 3038 2828 3088 2588 
Q 3119 2431 3119 2041 
L 3119 0 
L 2556 0 
L 2556 2019 
Q 2556 2363 2490 2533 
Q 2425 2703 2258 2804 
Q 2091 2906 1866 2906 
Q 1506 2906 1245 2678 
Q 984 2450 984 1813 
L 984 0 
L 422 0 
z
" transform="scale(0.015625)"/>
       <path id="ArialMT-57" d="M 1650 503 
L 1731 6 
Q 1494 -44 1306 -44 
Q 1000 -44 831 53 
Q 663 150 594 308 
Q 525 466 525 972 
L 525 2881 
L 113 2881 
L 113 3319 
L 525 3319 
L 525 4141 
L 1084 4478 
L 1084 3319 
L 1650 3319 
L 1650 2881 
L 1084 2881 
L 1084 941 
Q 1084 700 1114 631 
Q 1144 563 1211 522 
Q 1278 481 1403 481 
Q 1497 481 1650 503 
z
" transform="scale(0.015625)"/>
       <path id="ArialMT-3" transform="scale(0.015625)"/>
       <path id="ArialMT-4f" d="M 409 0 
L 409 4581 
L 972 4581 
L 972 0 
L 409 0 
z
" transform="scale(0.015625)"/>
       <path id="ArialMT-44" d="M 2588 409 
Q 2275 144 1986 34 
Q 1697 -75 1366 -75 
Q 819 -75 525 192 
Q 231 459 231 875 
Q 231 1119 342 1320 
Q 453 1522 633 1644 
Q 813 1766 1038 1828 
Q 1203 1872 1538 1913 
Q 2219 1994 2541 2106 
Q 2544 2222 2544 2253 
Q 2544 2597 2384 2738 
Q 2169 2928 1744 2928 
Q 1347 2928 1158 2789 
Q 969 2650 878 2297 
L 328 2372 
Q 403 2725 575 2942 
Q 747 3159 1072 3276 
Q 1397 3394 1825 3394 
Q 2250 3394 2515 3294 
Q 2781 3194 2906 3042 
Q 3031 2891 3081 2659 
Q 3109 2516 3109 2141 
L 3109 1391 
Q 3109 606 3145 398 
Q 3181 191 3288 0 
L 2700 0 
Q 2613 175 2588 409 
z
M 2541 1666 
Q 2234 1541 1622 1453 
Q 1275 1403 1131 1340 
Q 988 1278 909 1158 
Q 831 1038 831 891 
Q 831 666 1001 516 
Q 1172 366 1500 366 
Q 1825 366 2078 508 
Q 2331 650 2450 897 
Q 2541 1088 2541 1459 
L 2541 1666 
z
" transform="scale(0.015625)"/>
       <path id="ArialMT-5c" d="M 397 -1278 
L 334 -750 
Q 519 -800 656 -800 
Q 844 -800 956 -737 
Q 1069 -675 1141 -563 
Q 1194 -478 1313 -144 
Q 1328 -97 1363 -6 
L 103 3319 
L 709 3319 
L 1400 1397 
Q 1534 1031 1641 628 
Q 1738 1016 1872 1384 
L 2581 3319 
L 3144 3319 
L 1881 -56 
Q 1678 -603 1566 -809 
Q 1416 -1088 1222 -1217 
Q 1028 -1347 759 -1347 
Q 597 -1347 397 -1278 
z
" transform="scale(0.015625)"/>
       <path id="ArialMT-b" d="M 1497 -1347 
Q 1031 -759 709 28 
Q 388 816 388 1659 
Q 388 2403 628 3084 
Q 909 3875 1497 4659 
L 1900 4659 
Q 1522 4009 1400 3731 
Q 1209 3300 1100 2831 
Q 966 2247 966 1656 
Q 966 153 1900 -1347 
L 1497 -1347 
z
" transform="scale(0.015625)"/>
       <path id="ArialMT-8" d="M 372 3481 
Q 372 3972 619 4315 
Q 866 4659 1334 4659 
Q 1766 4659 2048 4351 
Q 2331 4044 2331 3447 
Q 2331 2866 2045 2552 
Q 1759 2238 1341 2238 
Q 925 2238 648 2547 
Q 372 2856 372 3481 
z
M 1350 4272 
Q 1141 4272 1002 4090 
Q 863 3909 863 3425 
Q 863 2984 1003 2804 
Q 1144 2625 1350 2625 
Q 1563 2625 1702 2806 
Q 1841 2988 1841 3469 
Q 1841 3913 1700 4092 
Q 1559 4272 1350 4272 
z
M 1353 -169 
L 3859 4659 
L 4316 4659 
L 1819 -169 
L 1353 -169 
z
M 3334 1075 
Q 3334 1569 3581 1911 
Q 3828 2253 4300 2253 
Q 4731 2253 5014 1945 
Q 5297 1638 5297 1041 
Q 5297 459 5011 145 
Q 4725 -169 4303 -169 
Q 3888 -169 3611 142 
Q 3334 453 3334 1075 
z
M 4316 1866 
Q 4103 1866 3964 1684 
Q 3825 1503 3825 1019 
Q 3825 581 3965 400 
Q 4106 219 4313 219 
Q 4528 219 4667 400 
Q 4806 581 4806 1063 
Q 4806 1506 4665 1686 
Q 4525 1866 4316 1866 
z
" transform="scale(0.015625)"/>
       <path id="ArialMT-c" d="M 791 -1347 
L 388 -1347 
Q 1322 153 1322 1656 
Q 1322 2244 1188 2822 
Q 1081 3291 891 3722 
Q 769 4003 388 4659 
L 791 4659 
Q 1378 3875 1659 3084 
Q 1900 2403 1900 1659 
Q 1900 816 1576 28 
Q 1253 -759 791 -1347 
z
" transform="scale(0.015625)"/>
      </defs>
      <use xlink:href="#ArialMT-33"/>
      <use xlink:href="#ArialMT-48" transform="translate(66.703125 0)"/>
      <use xlink:href="#ArialMT-55" transform="translate(122.3125 0)"/>
      <use xlink:href="#ArialMT-46" transform="translate(155.609375 0)"/>
      <use xlink:href="#ArialMT-48" transform="translate(205.609375 0)"/>
      <use xlink:href="#ArialMT-51" transform="translate(261.21875 0)"/>
      <use xlink:href="#ArialMT-57" transform="translate(316.828125 0)"/>
      <use xlink:href="#ArialMT-3" transform="translate(344.609375 0)"/>
      <use xlink:href="#ArialMT-46" transform="translate(372.390625 0)"/>
      <use xlink:href="#ArialMT-4f" transform="translate(422.390625 0)"/>
      <use xlink:href="#ArialMT-44" transform="translate(444.609375 0)"/>
      <use xlink:href="#ArialMT-5c" transform="translate(500.21875 0)"/>
      <use xlink:href="#ArialMT-3" transform="translate(550.21875 0)"/>
      <use xlink:href="#ArialMT-b" transform="translate(578 0)"/>
      <use xlink:href="#ArialMT-8" transform="translate(611.296875 0)"/>
      <use xlink:href="#ArialMT-c" transform="translate(700.21875 0)"/>
     </g>
    </g>
   </g>
   <g id="matplotlib.axis_2">
    <g id="xtick_12">
     <g id="line2d_12">
      <defs>
       <path id="mcf52cc3980" d="M 0 0 
L 1.75 3.031089 
" style="stroke: #000000; stroke-width: 0.8"/>
      </defs>
      <g>
       <use xlink:href="#mcf52cc3980" x="389.799835" y="307.584" style="stroke: #000000; stroke-width: 0.8"/>
      </g>
     </g>
     <g id="text_13">
      <!-- 0 -->
      <g transform="translate(390.147384 315.466246) rotate(-300) scale(0.1 -0.1)">
       <use xlink:href="#ArialMT-13"/>
      </g>
     </g>
    </g>
    <g id="xtick_13">
     <g id="line2d_13">
      <g>
       <use xlink:href="#mcf52cc3980" x="359.071868" y="307.584" style="stroke: #000000; stroke-width: 0.8"/>
      </g>
     </g>
     <g id="text_14">
      <!-- 10 -->
      <g transform="translate(359.419417 315.466246) rotate(-300) scale(0.1 -0.1)">
       <use xlink:href="#ArialMT-14"/>
       <use xlink:href="#ArialMT-13" transform="translate(55.609375 0)"/>
      </g>
     </g>
    </g>
    <g id="xtick_14">
     <g id="line2d_14">
      <g>
       <use xlink:href="#mcf52cc3980" x="328.343901" y="307.584" style="stroke: #000000; stroke-width: 0.8"/>
      </g>
     </g>
     <g id="text_15">
      <!-- 20 -->
      <g transform="translate(328.69145 315.466246) rotate(-300) scale(0.1 -0.1)">
       <use xlink:href="#ArialMT-15"/>
       <use xlink:href="#ArialMT-13" transform="translate(55.609375 0)"/>
      </g>
     </g>
    </g>
    <g id="xtick_15">
     <g id="line2d_15">
      <g>
       <use xlink:href="#mcf52cc3980" x="297.615934" y="307.584" style="stroke: #000000; stroke-width: 0.8"/>
      </g>
     </g>
     <g id="text_16">
      <!-- 30 -->
      <g transform="translate(297.963483 315.466246) rotate(-300) scale(0.1 -0.1)">
       <use xlink:href="#ArialMT-16"/>
       <use xlink:href="#ArialMT-13" transform="translate(55.609375 0)"/>
      </g>
     </g>
    </g>
    <g id="xtick_16">
     <g id="line2d_16">
      <g>
       <use xlink:href="#mcf52cc3980" x="266.887967" y="307.584" style="stroke: #000000; stroke-width: 0.8"/>
      </g>
     </g>
     <g id="text_17">
      <!-- 40 -->
      <g transform="translate(267.235516 315.466246) rotate(-300) scale(0.1 -0.1)">
       <use xlink:href="#ArialMT-17"/>
       <use xlink:href="#ArialMT-13" transform="translate(55.609375 0)"/>
      </g>
     </g>
    </g>
    <g id="xtick_17">
     <g id="line2d_17">
      <g>
       <use xlink:href="#mcf52cc3980" x="236.16" y="307.584" style="stroke: #000000; stroke-width: 0.8"/>
      </g>
     </g>
     <g id="text_18">
      <!-- 50 -->
      <g transform="translate(236.507549 315.466246) rotate(-300) scale(0.1 -0.1)">
       <use xlink:href="#ArialMT-18"/>
       <use xlink:href="#ArialMT-13" transform="translate(55.609375 0)"/>
      </g>
     </g>
    </g>
    <g id="xtick_18">
     <g id="line2d_18">
      <g>
       <use xlink:href="#mcf52cc3980" x="205.432033" y="307.584" style="stroke: #000000; stroke-width: 0.8"/>
      </g>
     </g>
     <g id="text_19">
      <!-- 60 -->
      <g transform="translate(205.779582 315.466246) rotate(-300) scale(0.1 -0.1)">
       <use xlink:href="#ArialMT-19"/>
       <use xlink:href="#ArialMT-13" transform="translate(55.609375 0)"/>
      </g>
     </g>
    </g>
    <g id="xtick_19">
     <g id="line2d_19">
      <g>
       <use xlink:href="#mcf52cc3980" x="174.704066" y="307.584" style="stroke: #000000; stroke-width: 0.8"/>
      </g>
     </g>
     <g id="text_20">
      <!-- 70 -->
      <g transform="translate(175.051615 315.466246) rotate(-300) scale(0.1 -0.1)">
       <use xlink:href="#ArialMT-1a"/>
       <use xlink:href="#ArialMT-13" transform="translate(55.609375 0)"/>
      </g>
     </g>
    </g>
    <g id="xtick_20">
     <g id="line2d_20">
      <g>
       <use xlink:href="#mcf52cc3980" x="143.976099" y="307.584" style="stroke: #000000; stroke-width: 0.8"/>
      </g>
     </g>
     <g id="text_21">
      <!-- 80 -->
      <g transform="translate(144.323648 315.466246) rotate(-300) scale(0.1 -0.1)">
       <use xlink:href="#ArialMT-1b"/>
       <use xlink:href="#ArialMT-13" transform="translate(55.609375 0)"/>
      </g>
     </g>
    </g>
    <g id="xtick_21">
     <g id="line2d_21">
      <g>
       <use xlink:href="#mcf52cc3980" x="113.248132" y="307.584" style="stroke: #000000; stroke-width: 0.8"/>
      </g>
     </g>
     <g id="text_22">
      <!-- 90 -->
      <g transform="translate(113.595681 315.466246) rotate(-300) scale(0.1 -0.1)">
       <use xlink:href="#ArialMT-1c"/>
       <use xlink:href="#ArialMT-13" transform="translate(55.609375 0)"/>
      </g>
     </g>
    </g>
    <g id="xtick_22">
     <g id="line2d_22">
      <g>
       <use xlink:href="#mcf52cc3980" x="82.520165" y="307.584" style="stroke: #000000; stroke-width: 0.8"/>
      </g>
     </g>
     <g id="text_23">
      <!-- 100 -->
      <g transform="translate(82.867714 315.466246) rotate(-300) scale(0.1 -0.1)">
       <use xlink:href="#ArialMT-14"/>
       <use xlink:href="#ArialMT-13" transform="translate(55.609375 0)"/>
       <use xlink:href="#ArialMT-13" transform="translate(111.21875 0)"/>
      </g>
     </g>
    </g>
    <g id="text_24">
     <!-- Percent sand (%) -->
     <g transform="translate(197.534219 342.246505) scale(0.1 -0.1)">
      <defs>
       <path id="ArialMT-56" d="M 197 991 
L 753 1078 
Q 800 744 1014 566 
Q 1228 388 1613 388 
Q 2000 388 2187 545 
Q 2375 703 2375 916 
Q 2375 1106 2209 1216 
Q 2094 1291 1634 1406 
Q 1016 1563 777 1677 
Q 538 1791 414 1992 
Q 291 2194 291 2438 
Q 291 2659 392 2848 
Q 494 3038 669 3163 
Q 800 3259 1026 3326 
Q 1253 3394 1513 3394 
Q 1903 3394 2198 3281 
Q 2494 3169 2634 2976 
Q 2775 2784 2828 2463 
L 2278 2388 
Q 2241 2644 2061 2787 
Q 1881 2931 1553 2931 
Q 1166 2931 1000 2803 
Q 834 2675 834 2503 
Q 834 2394 903 2306 
Q 972 2216 1119 2156 
Q 1203 2125 1616 2013 
Q 2213 1853 2448 1751 
Q 2684 1650 2818 1456 
Q 2953 1263 2953 975 
Q 2953 694 2789 445 
Q 2625 197 2315 61 
Q 2006 -75 1616 -75 
Q 969 -75 630 194 
Q 291 463 197 991 
z
" transform="scale(0.015625)"/>
       <path id="ArialMT-47" d="M 2575 0 
L 2575 419 
Q 2259 -75 1647 -75 
Q 1250 -75 917 144 
Q 584 363 401 755 
Q 219 1147 219 1656 
Q 219 2153 384 2558 
Q 550 2963 881 3178 
Q 1213 3394 1622 3394 
Q 1922 3394 2156 3267 
Q 2391 3141 2538 2938 
L 2538 4581 
L 3097 4581 
L 3097 0 
L 2575 0 
z
M 797 1656 
Q 797 1019 1065 703 
Q 1334 388 1700 388 
Q 2069 388 2326 689 
Q 2584 991 2584 1609 
Q 2584 2291 2321 2609 
Q 2059 2928 1675 2928 
Q 1300 2928 1048 2622 
Q 797 2316 797 1656 
z
" transform="scale(0.015625)"/>
      </defs>
      <use xlink:href="#ArialMT-33"/>
      <use xlink:href="#ArialMT-48" transform="translate(66.703125 0)"/>
      <use xlink:href="#ArialMT-55" transform="translate(122.3125 0)"/>
      <use xlink:href="#ArialMT-46" transform="translate(155.609375 0)"/>
      <use xlink:href="#ArialMT-48" transform="translate(205.609375 0)"/>
      <use xlink:href="#ArialMT-51" transform="translate(261.21875 0)"/>
      <use xlink:href="#ArialMT-57" transform="translate(316.828125 0)"/>
      <use xlink:href="#ArialMT-3" transform="translate(344.609375 0)"/>
      <use xlink:href="#ArialMT-56" transform="translate(372.390625 0)"/>
      <use xlink:href="#ArialMT-44" transform="translate(422.390625 0)"/>
      <use xlink:href="#ArialMT-51" transform="translate(478 0)"/>
      <use xlink:href="#ArialMT-47" transform="translate(533.609375 0)"/>
      <use xlink:href="#ArialMT-3" transform="translate(589.21875 0)"/>
      <use xlink:href="#ArialMT-b" transform="translate(617 0)"/>
      <use xlink:href="#ArialMT-8" transform="translate(650.296875 0)"/>
      <use xlink:href="#ArialMT-c" transform="translate(739.21875 0)"/>
     </g>
    </g>
   </g>
   <g id="matplotlib.axis_3">
    <g id="xtick_23">
     <g id="line2d_23">
      <defs>
       <path id="m415d564011" d="M 0 0 
L 1.75 -3.031089 
" style="stroke: #000000; stroke-width: 0.8"/>
      </defs>
      <g>
       <use xlink:href="#m415d564011" x="236.16" y="41.472" style="stroke: #000000; stroke-width: 0.8"/>
      </g>
     </g>
     <g id="text_25">
      <!-- 0 -->
      <g transform="translate(242.812451 37.229891) rotate(-60) scale(0.1 -0.1)">
       <use xlink:href="#ArialMT-13"/>
      </g>
     </g>
    </g>
    <g id="xtick_24">
     <g id="line2d_24">
      <g>
       <use xlink:href="#m415d564011" x="251.523983" y="68.0832" style="stroke: #000000; stroke-width: 0.8"/>
      </g>
     </g>
     <g id="text_26">
      <!-- 10 -->
      <g transform="translate(258.176434 63.841091) rotate(-60) scale(0.1 -0.1)">
       <use xlink:href="#ArialMT-14"/>
       <use xlink:href="#ArialMT-13" transform="translate(55.609375 0)"/>
      </g>
     </g>
    </g>
    <g id="xtick_25">
     <g id="line2d_25">
      <g>
       <use xlink:href="#m415d564011" x="266.887967" y="94.6944" style="stroke: #000000; stroke-width: 0.8"/>
      </g>
     </g>
     <g id="text_27">
      <!-- 20 -->
      <g transform="translate(273.540418 90.452291) rotate(-60) scale(0.1 -0.1)">
       <use xlink:href="#ArialMT-15"/>
       <use xlink:href="#ArialMT-13" transform="translate(55.609375 0)"/>
      </g>
     </g>
    </g>
    <g id="xtick_26">
     <g id="line2d_26">
      <g>
       <use xlink:href="#m415d564011" x="282.25195" y="121.3056" style="stroke: #000000; stroke-width: 0.8"/>
      </g>
     </g>
     <g id="text_28">
      <!-- 30 -->
      <g transform="translate(288.904401 117.063491) rotate(-60) scale(0.1 -0.1)">
       <use xlink:href="#ArialMT-16"/>
       <use xlink:href="#ArialMT-13" transform="translate(55.609375 0)"/>
      </g>
     </g>
    </g>
    <g id="xtick_27">
     <g id="line2d_27">
      <g>
       <use xlink:href="#m415d564011" x="297.615934" y="147.9168" style="stroke: #000000; stroke-width: 0.8"/>
      </g>
     </g>
     <g id="text_29">
      <!-- 40 -->
      <g transform="translate(304.268385 143.674691) rotate(-60) scale(0.1 -0.1)">
       <use xlink:href="#ArialMT-17"/>
       <use xlink:href="#ArialMT-13" transform="translate(55.609375 0)"/>
      </g>
     </g>
    </g>
    <g id="xtick_28">
     <g id="line2d_28">
      <g>
       <use xlink:href="#m415d564011" x="312.979917" y="174.528" style="stroke: #000000; stroke-width: 0.8"/>
      </g>
     </g>
     <g id="text_30">
      <!-- 50 -->
      <g transform="translate(319.632368 170.285891) rotate(-60) scale(0.1 -0.1)">
       <use xlink:href="#ArialMT-18"/>
       <use xlink:href="#ArialMT-13" transform="translate(55.609375 0)"/>
      </g>
     </g>
    </g>
    <g id="xtick_29">
     <g id="line2d_29">
      <g>
       <use xlink:href="#m415d564011" x="328.343901" y="201.1392" style="stroke: #000000; stroke-width: 0.8"/>
      </g>
     </g>
     <g id="text_31">
      <!-- 60 -->
      <g transform="translate(334.996352 196.897091) rotate(-60) scale(0.1 -0.1)">
       <use xlink:href="#ArialMT-19"/>
       <use xlink:href="#ArialMT-13" transform="translate(55.609375 0)"/>
      </g>
     </g>
    </g>
    <g id="xtick_30">
     <g id="line2d_30">
      <g>
       <use xlink:href="#m415d564011" x="343.707884" y="227.7504" style="stroke: #000000; stroke-width: 0.8"/>
      </g>
     </g>
     <g id="text_32">
      <!-- 70 -->
      <g transform="translate(350.360335 223.508291) rotate(-60) scale(0.1 -0.1)">
       <use xlink:href="#ArialMT-1a"/>
       <use xlink:href="#ArialMT-13" transform="translate(55.609375 0)"/>
      </g>
     </g>
    </g>
    <g id="xtick_31">
     <g id="line2d_31">
      <g>
       <use xlink:href="#m415d564011" x="359.071868" y="254.3616" style="stroke: #000000; stroke-width: 0.8"/>
      </g>
     </g>
     <g id="text_33">
      <!-- 80 -->
      <g transform="translate(365.724319 250.119491) rotate(-60) scale(0.1 -0.1)">
       <use xlink:href="#ArialMT-1b"/>
       <use xlink:href="#ArialMT-13" transform="translate(55.609375 0)"/>
      </g>
     </g>
    </g>
    <g id="xtick_32">
     <g id="line2d_32">
      <g>
       <use xlink:href="#m415d564011" x="374.435851" y="280.9728" style="stroke: #000000; stroke-width: 0.8"/>
      </g>
     </g>
     <g id="text_34">
      <!-- 90 -->
      <g transform="translate(381.088302 276.730691) rotate(-60) scale(0.1 -0.1)">
       <use xlink:href="#ArialMT-1c"/>
       <use xlink:href="#ArialMT-13" transform="translate(55.609375 0)"/>
      </g>
     </g>
    </g>
    <g id="xtick_33">
     <g id="line2d_33">
      <g>
       <use xlink:href="#m415d564011" x="389.799835" y="307.584" style="stroke: #000000; stroke-width: 0.8"/>
      </g>
     </g>
     <g id="text_35">
      <!-- 100 -->
      <g transform="translate(396.452286 303.341891) rotate(-60) scale(0.1 -0.1)">
       <use xlink:href="#ArialMT-14"/>
       <use xlink:href="#ArialMT-13" transform="translate(55.609375 0)"/>
       <use xlink:href="#ArialMT-13" transform="translate(111.21875 0)"/>
      </g>
     </g>
    </g>
    <g id="text_36">
     <!-- Percent silt (%) -->
     <g transform="translate(321.568682 130.430339) rotate(-300) scale(0.1 -0.1)">
      <defs>
       <path id="ArialMT-4c" d="M 425 3934 
L 425 4581 
L 988 4581 
L 988 3934 
L 425 3934 
z
M 425 0 
L 425 3319 
L 988 3319 
L 988 0 
L 425 0 
z
" transform="scale(0.015625)"/>
      </defs>
      <use xlink:href="#ArialMT-33"/>
      <use xlink:href="#ArialMT-48" transform="translate(66.703125 0)"/>
      <use xlink:href="#ArialMT-55" transform="translate(122.3125 0)"/>
      <use xlink:href="#ArialMT-46" transform="translate(155.609375 0)"/>
      <use xlink:href="#ArialMT-48" transform="translate(205.609375 0)"/>
      <use xlink:href="#ArialMT-51" transform="translate(261.21875 0)"/>
      <use xlink:href="#ArialMT-57" transform="translate(316.828125 0)"/>
      <use xlink:href="#ArialMT-3" transform="translate(344.609375 0)"/>
      <use xlink:href="#ArialMT-56" transform="translate(372.390625 0)"/>
      <use xlink:href="#ArialMT-4c" transform="translate(422.390625 0)"/>
      <use xlink:href="#ArialMT-4f" transform="translate(444.609375 0)"/>
      <use xlink:href="#ArialMT-57" transform="translate(466.828125 0)"/>
      <use xlink:href="#ArialMT-3" transform="translate(494.609375 0)"/>
      <use xlink:href="#ArialMT-b" transform="translate(522.390625 0)"/>
      <use xlink:href="#ArialMT-8" transform="translate(555.6875 0)"/>
      <use xlink:href="#ArialMT-c" transform="translate(644.609375 0)"/>
     </g>
    </g>
   </g>
   <g id="patch_15">
    <path d="M 389.799835 307.584 
L 82.520165 307.584 
" style="fill: none; stroke: #000000; stroke-width: 0.8; stroke-linejoin: miter; stroke-linecap: square"/>
   </g>
   <g id="patch_16">
    <path d="M 236.16 41.472 
L 236.16 41.472 
" style="fill: none; stroke: #000000; stroke-width: 0.8; stroke-linejoin: miter; stroke-linecap: square"/>
   </g>
   <g id="patch_17">
    <path d="M 236.16 41.472 
L 389.799835 307.584 
" style="fill: none; stroke: #000000; stroke-width: 0.8; stroke-linejoin: miter; stroke-linecap: square"/>
   </g>
   <g id="patch_18">
    <path d="M 82.520165 307.584 
L 82.520165 307.584 
" style="fill: none; stroke: #000000; stroke-width: 0.8; stroke-linejoin: miter; stroke-linecap: square"/>
   </g>
   <g id="patch_19">
    <path d="M 82.520165 307.584 
L 236.16 41.472 
" style="fill: none; stroke: #000000; stroke-width: 0.8; stroke-linejoin: miter; stroke-linecap: square"/>
   </g>
   <g id="patch_20">
    <path d="M 389.799835 307.584 
L 389.799835 307.584 
" style="fill: none; stroke: #000000; stroke-width: 0.8; stroke-linejoin: miter; stroke-linecap: square"/>
   </g>
   <g id="text_37">
    <!-- Sa -->
    <g transform="translate(96.8898 301.301579) scale(0.1 -0.1)">
     <defs>
      <path id="ArialMT-36" d="M 288 1472 
L 859 1522 
Q 900 1178 1048 958 
Q 1197 738 1509 602 
Q 1822 466 2213 466 
Q 2559 466 2825 569 
Q 3091 672 3220 851 
Q 3350 1031 3350 1244 
Q 3350 1459 3225 1620 
Q 3100 1781 2813 1891 
Q 2628 1963 1997 2114 
Q 1366 2266 1113 2400 
Q 784 2572 623 2826 
Q 463 3081 463 3397 
Q 463 3744 659 4045 
Q 856 4347 1234 4503 
Q 1613 4659 2075 4659 
Q 2584 4659 2973 4495 
Q 3363 4331 3572 4012 
Q 3781 3694 3797 3291 
L 3216 3247 
Q 3169 3681 2898 3903 
Q 2628 4125 2100 4125 
Q 1550 4125 1298 3923 
Q 1047 3722 1047 3438 
Q 1047 3191 1225 3031 
Q 1400 2872 2139 2705 
Q 2878 2538 3153 2413 
Q 3553 2228 3743 1945 
Q 3934 1663 3934 1294 
Q 3934 928 3725 604 
Q 3516 281 3123 101 
Q 2731 -78 2241 -78 
Q 1619 -78 1198 103 
Q 778 284 539 648 
Q 300 1013 288 1472 
z
" transform="scale(0.015625)"/>
     </defs>
     <use xlink:href="#ArialMT-36"/>
     <use xlink:href="#ArialMT-44" transform="translate(66.703125 0)"/>
    </g>
   </g>
   <g id="text_38">
    <!-- LoSa -->
    <g transform="translate(118.215834 294.648779) scale(0.1 -0.1)">
     <defs>
      <path id="ArialMT-2f" d="M 469 0 
L 469 4581 
L 1075 4581 
L 1075 541 
L 3331 541 
L 3331 0 
L 469 0 
z
" transform="scale(0.015625)"/>
      <path id="ArialMT-52" d="M 213 1659 
Q 213 2581 725 3025 
Q 1153 3394 1769 3394 
Q 2453 3394 2887 2945 
Q 3322 2497 3322 1706 
Q 3322 1066 3130 698 
Q 2938 331 2570 128 
Q 2203 -75 1769 -75 
Q 1072 -75 642 372 
Q 213 819 213 1659 
z
M 791 1659 
Q 791 1022 1069 705 
Q 1347 388 1769 388 
Q 2188 388 2466 706 
Q 2744 1025 2744 1678 
Q 2744 2294 2464 2611 
Q 2184 2928 1769 2928 
Q 1347 2928 1069 2612 
Q 791 2297 791 1659 
z
" transform="scale(0.015625)"/>
     </defs>
     <use xlink:href="#ArialMT-2f"/>
     <use xlink:href="#ArialMT-52" transform="translate(55.609375 0)"/>
     <use xlink:href="#ArialMT-36" transform="translate(111.21875 0)"/>
     <use xlink:href="#ArialMT-44" transform="translate(177.921875 0)"/>
    </g>
   </g>
   <g id="text_39">
    <!-- SaLo -->
    <g transform="translate(163.611489 282.462446) scale(0.1 -0.1)">
     <use xlink:href="#ArialMT-36"/>
     <use xlink:href="#ArialMT-44" transform="translate(66.703125 0)"/>
     <use xlink:href="#ArialMT-2f" transform="translate(122.3125 0)"/>
     <use xlink:href="#ArialMT-52" transform="translate(177.921875 0)"/>
    </g>
   </g>
   <g id="text_40">
    <!-- Lo -->
    <g transform="translate(229.855752 261.348539) scale(0.1 -0.1)">
     <use xlink:href="#ArialMT-2f"/>
     <use xlink:href="#ArialMT-52" transform="translate(55.609375 0)"/>
    </g>
   </g>
   <g id="text_41">
    <!-- SiLo -->
    <g transform="translate(293.500683 275.015834) scale(0.1 -0.1)">
     <use xlink:href="#ArialMT-36"/>
     <use xlink:href="#ArialMT-4c" transform="translate(66.703125 0)"/>
     <use xlink:href="#ArialMT-2f" transform="translate(88.921875 0)"/>
     <use xlink:href="#ArialMT-52" transform="translate(144.53125 0)"/>
    </g>
   </g>
   <g id="text_42">
    <!-- Si -->
    <g transform="translate(354.625651 296.48603) scale(0.1 -0.1)">
     <use xlink:href="#ArialMT-36"/>
     <use xlink:href="#ArialMT-4c" transform="translate(66.703125 0)"/>
    </g>
   </g>
   <g id="text_43">
    <!-- SaClLo -->
    <g transform="translate(147.907285 238.051813) scale(0.1 -0.1)">
     <defs>
      <path id="ArialMT-26" d="M 3763 1606 
L 4369 1453 
Q 4178 706 3683 314 
Q 3188 -78 2472 -78 
Q 1731 -78 1267 223 
Q 803 525 561 1097 
Q 319 1669 319 2325 
Q 319 3041 592 3573 
Q 866 4106 1370 4382 
Q 1875 4659 2481 4659 
Q 3169 4659 3637 4309 
Q 4106 3959 4291 3325 
L 3694 3184 
Q 3534 3684 3231 3912 
Q 2928 4141 2469 4141 
Q 1941 4141 1586 3887 
Q 1231 3634 1087 3207 
Q 944 2781 944 2328 
Q 944 1744 1114 1308 
Q 1284 872 1643 656 
Q 2003 441 2422 441 
Q 2931 441 3284 734 
Q 3638 1028 3763 1606 
z
" transform="scale(0.015625)"/>
     </defs>
     <use xlink:href="#ArialMT-36"/>
     <use xlink:href="#ArialMT-44" transform="translate(66.703125 0)"/>
     <use xlink:href="#ArialMT-26" transform="translate(122.3125 0)"/>
     <use xlink:href="#ArialMT-4f" transform="translate(194.53125 0)"/>
     <use xlink:href="#ArialMT-2f" transform="translate(216.75 0)"/>
     <use xlink:href="#ArialMT-52" transform="translate(272.359375 0)"/>
    </g>
   </g>
   <g id="text_44">
    <!-- ClLo -->
    <g transform="translate(228.181785 221.024371) scale(0.1 -0.1)">
     <use xlink:href="#ArialMT-26"/>
     <use xlink:href="#ArialMT-4f" transform="translate(72.21875 0)"/>
     <use xlink:href="#ArialMT-2f" transform="translate(94.4375 0)"/>
     <use xlink:href="#ArialMT-52" transform="translate(150.046875 0)"/>
    </g>
   </g>
   <g id="text_45">
    <!-- SiClLo -->
    <g transform="translate(292.873617 221.024371) scale(0.1 -0.1)">
     <use xlink:href="#ArialMT-36"/>
     <use xlink:href="#ArialMT-4c" transform="translate(66.703125 0)"/>
     <use xlink:href="#ArialMT-26" transform="translate(88.921875 0)"/>
     <use xlink:href="#ArialMT-4f" transform="translate(161.140625 0)"/>
     <use xlink:href="#ArialMT-2f" transform="translate(183.359375 0)"/>
     <use xlink:href="#ArialMT-52" transform="translate(238.96875 0)"/>
    </g>
   </g>
   <g id="text_46">
    <!-- SaCl -->
    <g transform="translate(156.184643 199.291913) scale(0.1 -0.1)">
     <use xlink:href="#ArialMT-36"/>
     <use xlink:href="#ArialMT-44" transform="translate(66.703125 0)"/>
     <use xlink:href="#ArialMT-26" transform="translate(122.3125 0)"/>
     <use xlink:href="#ArialMT-4f" transform="translate(194.53125 0)"/>
    </g>
   </g>
   <g id="text_47">
    <!-- Cl -->
    <g transform="translate(228.404046 142.71506) scale(0.1 -0.1)">
     <use xlink:href="#ArialMT-26"/>
     <use xlink:href="#ArialMT-4f" transform="translate(72.21875 0)"/>
    </g>
   </g>
   <g id="text_48">
    <!-- SiCl -->
    <g transform="translate(288.447904 185.986326) scale(0.1 -0.1)">
     <use xlink:href="#ArialMT-36"/>
     <use xlink:href="#ArialMT-4c" transform="translate(66.703125 0)"/>
     <use xlink:href="#ArialMT-26" transform="translate(88.921875 0)"/>
     <use xlink:href="#ArialMT-4f" transform="translate(161.140625 0)"/>
    </g>
   </g>
  </g>
  <g id="text_49">
   <!-- USDA texture triangle by United States Department of Agriculture (1993) -->
   <g transform="translate(38.314688 15.648328) scale(0.12 -0.12)">
    <defs>
     <path id="ArialMT-38" d="M 3500 4581 
L 4106 4581 
L 4106 1934 
Q 4106 1244 3950 837 
Q 3794 431 3386 176 
Q 2978 -78 2316 -78 
Q 1672 -78 1262 144 
Q 853 366 678 786 
Q 503 1206 503 1934 
L 503 4581 
L 1109 4581 
L 1109 1938 
Q 1109 1341 1220 1058 
Q 1331 775 1601 622 
Q 1872 469 2263 469 
Q 2931 469 3215 772 
Q 3500 1075 3500 1938 
L 3500 4581 
z
" transform="scale(0.015625)"/>
     <path id="ArialMT-27" d="M 494 0 
L 494 4581 
L 2072 4581 
Q 2606 4581 2888 4516 
Q 3281 4425 3559 4188 
Q 3922 3881 4101 3404 
Q 4281 2928 4281 2316 
Q 4281 1794 4159 1391 
Q 4038 988 3847 723 
Q 3656 459 3429 307 
Q 3203 156 2883 78 
Q 2563 0 2147 0 
L 494 0 
z
M 1100 541 
L 2078 541 
Q 2531 541 2789 625 
Q 3047 709 3200 863 
Q 3416 1078 3536 1442 
Q 3656 1806 3656 2325 
Q 3656 3044 3420 3430 
Q 3184 3816 2847 3947 
Q 2603 4041 2063 4041 
L 1100 4041 
L 1100 541 
z
" transform="scale(0.015625)"/>
     <path id="ArialMT-24" d="M -9 0 
L 1750 4581 
L 2403 4581 
L 4278 0 
L 3588 0 
L 3053 1388 
L 1138 1388 
L 634 0 
L -9 0 
z
M 1313 1881 
L 2866 1881 
L 2388 3150 
Q 2169 3728 2063 4100 
Q 1975 3659 1816 3225 
L 1313 1881 
z
" transform="scale(0.015625)"/>
     <path id="ArialMT-5b" d="M 47 0 
L 1259 1725 
L 138 3319 
L 841 3319 
L 1350 2541 
Q 1494 2319 1581 2169 
Q 1719 2375 1834 2534 
L 2394 3319 
L 3066 3319 
L 1919 1756 
L 3153 0 
L 2463 0 
L 1781 1031 
L 1600 1309 
L 728 0 
L 47 0 
z
" transform="scale(0.015625)"/>
     <path id="ArialMT-58" d="M 2597 0 
L 2597 488 
Q 2209 -75 1544 -75 
Q 1250 -75 995 37 
Q 741 150 617 320 
Q 494 491 444 738 
Q 409 903 409 1263 
L 409 3319 
L 972 3319 
L 972 1478 
Q 972 1038 1006 884 
Q 1059 663 1231 536 
Q 1403 409 1656 409 
Q 1909 409 2131 539 
Q 2353 669 2445 892 
Q 2538 1116 2538 1541 
L 2538 3319 
L 3100 3319 
L 3100 0 
L 2597 0 
z
" transform="scale(0.015625)"/>
     <path id="ArialMT-4a" d="M 319 -275 
L 866 -356 
Q 900 -609 1056 -725 
Q 1266 -881 1628 -881 
Q 2019 -881 2231 -725 
Q 2444 -569 2519 -288 
Q 2563 -116 2559 434 
Q 2191 0 1641 0 
Q 956 0 581 494 
Q 206 988 206 1678 
Q 206 2153 378 2554 
Q 550 2956 876 3175 
Q 1203 3394 1644 3394 
Q 2231 3394 2613 2919 
L 2613 3319 
L 3131 3319 
L 3131 450 
Q 3131 -325 2973 -648 
Q 2816 -972 2473 -1159 
Q 2131 -1347 1631 -1347 
Q 1038 -1347 672 -1080 
Q 306 -813 319 -275 
z
M 784 1719 
Q 784 1066 1043 766 
Q 1303 466 1694 466 
Q 2081 466 2343 764 
Q 2606 1063 2606 1700 
Q 2606 2309 2336 2618 
Q 2066 2928 1684 2928 
Q 1309 2928 1046 2623 
Q 784 2319 784 1719 
z
" transform="scale(0.015625)"/>
     <path id="ArialMT-45" d="M 941 0 
L 419 0 
L 419 4581 
L 981 4581 
L 981 2947 
Q 1338 3394 1891 3394 
Q 2197 3394 2470 3270 
Q 2744 3147 2920 2923 
Q 3097 2700 3197 2384 
Q 3297 2069 3297 1709 
Q 3297 856 2875 390 
Q 2453 -75 1863 -75 
Q 1275 -75 941 416 
L 941 0 
z
M 934 1684 
Q 934 1088 1097 822 
Q 1363 388 1816 388 
Q 2184 388 2453 708 
Q 2722 1028 2722 1663 
Q 2722 2313 2464 2622 
Q 2206 2931 1841 2931 
Q 1472 2931 1203 2611 
Q 934 2291 934 1684 
z
" transform="scale(0.015625)"/>
     <path id="ArialMT-53" d="M 422 -1272 
L 422 3319 
L 934 3319 
L 934 2888 
Q 1116 3141 1344 3267 
Q 1572 3394 1897 3394 
Q 2322 3394 2647 3175 
Q 2972 2956 3137 2557 
Q 3303 2159 3303 1684 
Q 3303 1175 3120 767 
Q 2938 359 2589 142 
Q 2241 -75 1856 -75 
Q 1575 -75 1351 44 
Q 1128 163 984 344 
L 984 -1272 
L 422 -1272 
z
M 931 1641 
Q 931 1000 1190 694 
Q 1450 388 1819 388 
Q 2194 388 2461 705 
Q 2728 1022 2728 1688 
Q 2728 2322 2467 2637 
Q 2206 2953 1844 2953 
Q 1484 2953 1207 2617 
Q 931 2281 931 1641 
z
" transform="scale(0.015625)"/>
     <path id="ArialMT-50" d="M 422 0 
L 422 3319 
L 925 3319 
L 925 2853 
Q 1081 3097 1340 3245 
Q 1600 3394 1931 3394 
Q 2300 3394 2536 3241 
Q 2772 3088 2869 2813 
Q 3263 3394 3894 3394 
Q 4388 3394 4653 3120 
Q 4919 2847 4919 2278 
L 4919 0 
L 4359 0 
L 4359 2091 
Q 4359 2428 4304 2576 
Q 4250 2725 4106 2815 
Q 3963 2906 3769 2906 
Q 3419 2906 3187 2673 
Q 2956 2441 2956 1928 
L 2956 0 
L 2394 0 
L 2394 2156 
Q 2394 2531 2256 2718 
Q 2119 2906 1806 2906 
Q 1569 2906 1367 2781 
Q 1166 2656 1075 2415 
Q 984 2175 984 1722 
L 984 0 
L 422 0 
z
" transform="scale(0.015625)"/>
     <path id="ArialMT-49" d="M 556 0 
L 556 2881 
L 59 2881 
L 59 3319 
L 556 3319 
L 556 3672 
Q 556 4006 616 4169 
Q 697 4388 901 4523 
Q 1106 4659 1475 4659 
Q 1713 4659 2000 4603 
L 1916 4113 
Q 1741 4144 1584 4144 
Q 1328 4144 1222 4034 
Q 1116 3925 1116 3625 
L 1116 3319 
L 1763 3319 
L 1763 2881 
L 1116 2881 
L 1116 0 
L 556 0 
z
" transform="scale(0.015625)"/>
    </defs>
    <use xlink:href="#ArialMT-38"/>
    <use xlink:href="#ArialMT-36" transform="translate(72.21875 0)"/>
    <use xlink:href="#ArialMT-27" transform="translate(138.921875 0)"/>
    <use xlink:href="#ArialMT-24" transform="translate(211.140625 0)"/>
    <use xlink:href="#ArialMT-3" transform="translate(272.328125 0)"/>
    <use xlink:href="#ArialMT-57" transform="translate(300.109375 0)"/>
    <use xlink:href="#ArialMT-48" transform="translate(327.890625 0)"/>
    <use xlink:href="#ArialMT-5b" transform="translate(383.5 0)"/>
    <use xlink:href="#ArialMT-57" transform="translate(433.5 0)"/>
    <use xlink:href="#ArialMT-58" transform="translate(461.28125 0)"/>
    <use xlink:href="#ArialMT-55" transform="translate(516.890625 0)"/>
    <use xlink:href="#ArialMT-48" transform="translate(550.1875 0)"/>
    <use xlink:href="#ArialMT-3" transform="translate(605.796875 0)"/>
    <use xlink:href="#ArialMT-57" transform="translate(633.578125 0)"/>
    <use xlink:href="#ArialMT-55" transform="translate(661.359375 0)"/>
    <use xlink:href="#ArialMT-4c" transform="translate(694.65625 0)"/>
    <use xlink:href="#ArialMT-44" transform="translate(716.875 0)"/>
    <use xlink:href="#ArialMT-51" transform="translate(772.484375 0)"/>
    <use xlink:href="#ArialMT-4a" transform="translate(828.09375 0)"/>
    <use xlink:href="#ArialMT-4f" transform="translate(883.703125 0)"/>
    <use xlink:href="#ArialMT-48" transform="translate(905.921875 0)"/>
    <use xlink:href="#ArialMT-3" transform="translate(961.53125 0)"/>
    <use xlink:href="#ArialMT-45" transform="translate(989.3125 0)"/>
    <use xlink:href="#ArialMT-5c" transform="translate(1044.921875 0)"/>
    <use xlink:href="#ArialMT-3" transform="translate(1094.921875 0)"/>
    <use xlink:href="#ArialMT-38" transform="translate(1122.703125 0)"/>
    <use xlink:href="#ArialMT-51" transform="translate(1194.921875 0)"/>
    <use xlink:href="#ArialMT-4c" transform="translate(1250.53125 0)"/>
    <use xlink:href="#ArialMT-57" transform="translate(1272.75 0)"/>
    <use xlink:href="#ArialMT-48" transform="translate(1300.53125 0)"/>
    <use xlink:href="#ArialMT-47" transform="translate(1356.140625 0)"/>
    <use xlink:href="#ArialMT-3" transform="translate(1411.75 0)"/>
    <use xlink:href="#ArialMT-36" transform="translate(1439.53125 0)"/>
    <use xlink:href="#ArialMT-57" transform="translate(1506.234375 0)"/>
    <use xlink:href="#ArialMT-44" transform="translate(1534.015625 0)"/>
    <use xlink:href="#ArialMT-57" transform="translate(1589.625 0)"/>
    <use xlink:href="#ArialMT-48" transform="translate(1617.40625 0)"/>
    <use xlink:href="#ArialMT-56" transform="translate(1673.015625 0)"/>
    <use xlink:href="#ArialMT-3" transform="translate(1723.015625 0)"/>
    <use xlink:href="#ArialMT-27" transform="translate(1750.796875 0)"/>
    <use xlink:href="#ArialMT-48" transform="translate(1823.015625 0)"/>
    <use xlink:href="#ArialMT-53" transform="translate(1878.625 0)"/>
    <use xlink:href="#ArialMT-44" transform="translate(1934.234375 0)"/>
    <use xlink:href="#ArialMT-55" transform="translate(1989.84375 0)"/>
    <use xlink:href="#ArialMT-57" transform="translate(2023.140625 0)"/>
    <use xlink:href="#ArialMT-50" transform="translate(2050.921875 0)"/>
    <use xlink:href="#ArialMT-48" transform="translate(2134.21875 0)"/>
    <use xlink:href="#ArialMT-51" transform="translate(2189.828125 0)"/>
    <use xlink:href="#ArialMT-57" transform="translate(2245.4375 0)"/>
    <use xlink:href="#ArialMT-3" transform="translate(2273.21875 0)"/>
    <use xlink:href="#ArialMT-52" transform="translate(2301 0)"/>
    <use xlink:href="#ArialMT-49" transform="translate(2356.609375 0)"/>
    <use xlink:href="#ArialMT-3" transform="translate(2384.390625 0)"/>
    <use xlink:href="#ArialMT-24" transform="translate(2406.65625 0)"/>
    <use xlink:href="#ArialMT-4a" transform="translate(2473.359375 0)"/>
    <use xlink:href="#ArialMT-55" transform="translate(2528.96875 0)"/>
    <use xlink:href="#ArialMT-4c" transform="translate(2562.265625 0)"/>
    <use xlink:href="#ArialMT-46" transform="translate(2584.484375 0)"/>
    <use xlink:href="#ArialMT-58" transform="translate(2634.484375 0)"/>
    <use xlink:href="#ArialMT-4f" transform="translate(2690.09375 0)"/>
    <use xlink:href="#ArialMT-57" transform="translate(2712.3125 0)"/>
    <use xlink:href="#ArialMT-58" transform="translate(2740.09375 0)"/>
    <use xlink:href="#ArialMT-55" transform="translate(2795.703125 0)"/>
    <use xlink:href="#ArialMT-48" transform="translate(2829 0)"/>
    <use xlink:href="#ArialMT-3" transform="translate(2884.609375 0)"/>
    <use xlink:href="#ArialMT-b" transform="translate(2912.390625 0)"/>
    <use xlink:href="#ArialMT-14" transform="translate(2945.6875 0)"/>
    <use xlink:href="#ArialMT-1c" transform="translate(3001.296875 0)"/>
    <use xlink:href="#ArialMT-1c" transform="translate(3056.90625 0)"/>
    <use xlink:href="#ArialMT-16" transform="translate(3112.515625 0)"/>
    <use xlink:href="#ArialMT-c" transform="translate(3168.125 0)"/>
   </g>
  </g>
  <g id="legend_1">
   <g id="patch_21">
    <path d="M 400.993203 185.014117 
L 454.969 185.014117 
Q 456.635 185.014117 456.635 183.348117 
L 456.635 40.391 
Q 456.635 38.725 454.969 38.725 
L 400.993203 38.725 
Q 399.327203 38.725 399.327203 40.391 
L 399.327203 183.348117 
Q 399.327203 185.014117 400.993203 185.014117 
z
" style="fill: #ffffff; opacity: 0.8; stroke: #cccccc; stroke-linejoin: miter"/>
   </g>
   <g id="patch_22">
    <path d="M 402.659203 48.121468 
L 419.319203 48.121468 
L 419.319203 42.290468 
L 402.659203 42.290468 
z
" style="fill: #eee6da; opacity: 0.5; stroke: #000000; stroke-linejoin: miter"/>
   </g>
   <g id="text_50">
    <!-- Sa -->
    <g transform="translate(425.983203 48.121468) scale(0.0833 -0.0833)">
     <use xlink:href="#ArialMT-36"/>
     <use xlink:href="#ArialMT-44" transform="translate(66.703125 0)"/>
    </g>
   </g>
   <g id="patch_23">
    <path d="M 402.659203 60.103978 
L 419.319203 60.103978 
L 419.319203 54.272978 
L 402.659203 54.272978 
z
" style="fill: #eacfbc; opacity: 0.5; stroke: #000000; stroke-linejoin: miter"/>
   </g>
   <g id="text_51">
    <!-- LoSa -->
    <g transform="translate(425.983203 60.103978) scale(0.0833 -0.0833)">
     <use xlink:href="#ArialMT-2f"/>
     <use xlink:href="#ArialMT-52" transform="translate(55.609375 0)"/>
     <use xlink:href="#ArialMT-36" transform="translate(111.21875 0)"/>
     <use xlink:href="#ArialMT-44" transform="translate(177.921875 0)"/>
    </g>
   </g>
   <g id="patch_24">
    <path d="M 402.659203 72.086487 
L 419.319203 72.086487 
L 419.319203 66.255487 
L 402.659203 66.255487 
z
" style="fill: #faba75; opacity: 0.5; stroke: #000000; stroke-linejoin: miter"/>
   </g>
   <g id="text_52">
    <!-- SaLo -->
    <g transform="translate(425.983203 72.086487) scale(0.0833 -0.0833)">
     <use xlink:href="#ArialMT-36"/>
     <use xlink:href="#ArialMT-44" transform="translate(66.703125 0)"/>
     <use xlink:href="#ArialMT-2f" transform="translate(122.3125 0)"/>
     <use xlink:href="#ArialMT-52" transform="translate(177.921875 0)"/>
    </g>
   </g>
   <g id="patch_25">
    <path d="M 402.659203 84.068997 
L 419.319203 84.068997 
L 419.319203 78.237997 
L 402.659203 78.237997 
z
" style="fill: #f0a654; opacity: 0.5; stroke: #000000; stroke-linejoin: miter"/>
   </g>
   <g id="text_53">
    <!-- Lo -->
    <g transform="translate(425.983203 84.068997) scale(0.0833 -0.0833)">
     <use xlink:href="#ArialMT-2f"/>
     <use xlink:href="#ArialMT-52" transform="translate(55.609375 0)"/>
    </g>
   </g>
   <g id="patch_26">
    <path d="M 402.659203 96.051507 
L 419.319203 96.051507 
L 419.319203 90.220507 
L 402.659203 90.220507 
z
" style="fill: #d09662; opacity: 0.5; stroke: #000000; stroke-linejoin: miter"/>
   </g>
   <g id="text_54">
    <!-- SiLo -->
    <g transform="translate(425.983203 96.051507) scale(0.0833 -0.0833)">
     <use xlink:href="#ArialMT-36"/>
     <use xlink:href="#ArialMT-4c" transform="translate(66.703125 0)"/>
     <use xlink:href="#ArialMT-2f" transform="translate(88.921875 0)"/>
     <use xlink:href="#ArialMT-52" transform="translate(144.53125 0)"/>
    </g>
   </g>
   <g id="patch_27">
    <path d="M 402.659203 108.034017 
L 419.319203 108.034017 
L 419.319203 102.203017 
L 402.659203 102.203017 
z
" style="fill: #dfb48f; opacity: 0.5; stroke: #000000; stroke-linejoin: miter"/>
   </g>
   <g id="text_55">
    <!-- Si -->
    <g transform="translate(425.983203 108.034017) scale(0.0833 -0.0833)">
     <use xlink:href="#ArialMT-36"/>
     <use xlink:href="#ArialMT-4c" transform="translate(66.703125 0)"/>
    </g>
   </g>
   <g id="patch_28">
    <path d="M 402.659203 120.016526 
L 419.319203 120.016526 
L 419.319203 114.185526 
L 402.659203 114.185526 
z
" style="fill: #efaf6f; opacity: 0.5; stroke: #000000; stroke-linejoin: miter"/>
   </g>
   <g id="text_56">
    <!-- SaClLo -->
    <g transform="translate(425.983203 120.016526) scale(0.0833 -0.0833)">
     <use xlink:href="#ArialMT-36"/>
     <use xlink:href="#ArialMT-44" transform="translate(66.703125 0)"/>
     <use xlink:href="#ArialMT-26" transform="translate(122.3125 0)"/>
     <use xlink:href="#ArialMT-4f" transform="translate(194.53125 0)"/>
     <use xlink:href="#ArialMT-2f" transform="translate(216.75 0)"/>
     <use xlink:href="#ArialMT-52" transform="translate(272.359375 0)"/>
    </g>
   </g>
   <g id="patch_29">
    <path d="M 402.659203 131.999036 
L 419.319203 131.999036 
L 419.319203 126.168036 
L 402.659203 126.168036 
z
" style="fill: #e47b3b; opacity: 0.5; stroke: #000000; stroke-linejoin: miter"/>
   </g>
   <g id="text_57">
    <!-- ClLo -->
    <g transform="translate(425.983203 131.999036) scale(0.0833 -0.0833)">
     <use xlink:href="#ArialMT-26"/>
     <use xlink:href="#ArialMT-4f" transform="translate(72.21875 0)"/>
     <use xlink:href="#ArialMT-2f" transform="translate(94.4375 0)"/>
     <use xlink:href="#ArialMT-52" transform="translate(150.046875 0)"/>
    </g>
   </g>
   <g id="patch_30">
    <path d="M 402.659203 143.981546 
L 419.319203 143.981546 
L 419.319203 138.150546 
L 402.659203 138.150546 
z
" style="fill: #ef9360; opacity: 0.5; stroke: #000000; stroke-linejoin: miter"/>
   </g>
   <g id="text_58">
    <!-- SiClLo -->
    <g transform="translate(425.983203 143.981546) scale(0.0833 -0.0833)">
     <use xlink:href="#ArialMT-36"/>
     <use xlink:href="#ArialMT-4c" transform="translate(66.703125 0)"/>
     <use xlink:href="#ArialMT-26" transform="translate(88.921875 0)"/>
     <use xlink:href="#ArialMT-4f" transform="translate(161.140625 0)"/>
     <use xlink:href="#ArialMT-2f" transform="translate(183.359375 0)"/>
     <use xlink:href="#ArialMT-52" transform="translate(238.96875 0)"/>
    </g>
   </g>
   <g id="patch_31">
    <path d="M 402.659203 155.964056 
L 419.319203 155.964056 
L 419.319203 150.133056 
L 402.659203 150.133056 
z
" style="fill: #e99641; opacity: 0.5; stroke: #000000; stroke-linejoin: miter"/>
   </g>
   <g id="text_59">
    <!-- SaCl -->
    <g transform="translate(425.983203 155.964056) scale(0.0833 -0.0833)">
     <use xlink:href="#ArialMT-36"/>
     <use xlink:href="#ArialMT-44" transform="translate(66.703125 0)"/>
     <use xlink:href="#ArialMT-26" transform="translate(122.3125 0)"/>
     <use xlink:href="#ArialMT-4f" transform="translate(194.53125 0)"/>
    </g>
   </g>
   <g id="patch_32">
    <path d="M 402.659203 167.946565 
L 419.319203 167.946565 
L 419.319203 162.115565 
L 402.659203 162.115565 
z
" style="fill: #be826c; opacity: 0.5; stroke: #000000; stroke-linejoin: miter"/>
   </g>
   <g id="text_60">
    <!-- Cl -->
    <g transform="translate(425.983203 167.946565) scale(0.0833 -0.0833)">
     <use xlink:href="#ArialMT-26"/>
     <use xlink:href="#ArialMT-4f" transform="translate(72.21875 0)"/>
    </g>
   </g>
   <g id="patch_33">
    <path d="M 402.659203 179.929075 
L 419.319203 179.929075 
L 419.319203 174.098075 
L 402.659203 174.098075 
z
" style="fill: #cc6d4d; opacity: 0.5; stroke: #000000; stroke-linejoin: miter"/>
   </g>
   <g id="text_61">
    <!-- SiCl -->
    <g transform="translate(425.983203 179.929075) scale(0.0833 -0.0833)">
     <use xlink:href="#ArialMT-36"/>
     <use xlink:href="#ArialMT-4c" transform="translate(66.703125 0)"/>
     <use xlink:href="#ArialMT-26" transform="translate(88.921875 0)"/>
     <use xlink:href="#ArialMT-4f" transform="translate(161.140625 0)"/>
    </g>
   </g>
  </g>
 </g>
 <defs>
  <clipPath id="p6a833ca598">
   <path d="M 236.16 41.472 
L 236.16 41.472 
L 82.520165 307.584 
L 82.520165 307.584 
L 389.799835 307.584 
L 389.799835 307.584 
z
"/>
  </clipPath>
 </defs>
</svg>
