<?xml version="1.0" encoding="UTF-8"?>
<svg width="57.6" height="38.4" version="1.1" xmlns="http://www.w3.org/2000/svg">
 <polyline points="9.12 32.352 7.68 27.168 2.4 28.512 9.12 32.352" fill="none" stroke="#000"/>
 <polyline points="15.36 23.04 15.36 15.36 11.52 19.2 15.36 23.04" fill="none" stroke="#000"/>
 <polyline points="5.28 13.152 12 9.312 6.72 7.968 5.28 13.152" fill="none" stroke="#000"/>
 <polyline points="18.24 36.48 25.92 36.48 22.08 32.64 18.24 36.48" fill="none" stroke="#000"/>
 <polyline points="25.728 25.344 31.104 25.344 31.104 19.968 25.728 25.344" fill="none" stroke="#000"/>
 <polyline points="24.576 10.944 29.952 10.944 24.576 5.568 24.576 10.944" fill="none" stroke="#000"/>
 <polyline points="38.592 34.848 46.272 34.176 42.048 30.72 38.592 34.848" fill="none" stroke="#000"/>
 <polyline points="50.4 21.024 53.088 16.32 45.696 18.336 50.4 21.024" fill="none" stroke="#000"/>
 <polyline points="43.488 11.808 44.832 4.224 40.32 7.392 43.488 11.808" fill="none" stroke="#000"/>
</svg>
