<svg class="main-svg" xmlns="http://www.w3.org/2000/svg" xmlns:xlink="http://www.w3.org/1999/xlink" width="700" height="500" style="" viewBox="0 0 700 500"><rect x="0" y="0" width="700" height="500" style="fill: rgb(255, 255, 255); fill-opacity: 1;"/><defs id="defs-ee991a"><g class="clips"><clipPath id="clipee991axyplot" class="plotclip"><rect width="521" height="360"/></clipPath><clipPath class="axesclip" id="clipee991ax"><rect x="80" y="0" width="521" height="500"/></clipPath><clipPath class="axesclip" id="clipee991ay"><rect x="0" y="60" width="700" height="360"/></clipPath><clipPath class="axesclip" id="clipee991axy"><rect x="80" y="60" width="521" height="360"/></clipPath></g><g class="gradients"/><g class="patterns"/></defs><g class="bglayer"/><g class="layer-below"><g class="imagelayer"/><g class="shapelayer"/></g><g class="cartesianlayer"><g class="subplot xy"><g class="layer-subplot"><g class="shapelayer"/><g class="imagelayer"/></g><g class="minor-gridlayer"><g class="x"/><g class="y"/></g><g class="gridlayer"><g class="x"><path class="xgrid crisp" transform="translate(210.25,0)" d="M0,60v360" style="stroke: rgb(0, 0, 0); stroke-opacity: 0.07; stroke-width: 1px;"/><path class="xgrid crisp" transform="translate(340.5,0)" d="M0,60v360" style="stroke: rgb(0, 0, 0); stroke-opacity: 0.07; stroke-width: 1px;"/><path class="xgrid crisp" transform="translate(470.75,0)" d="M0,60v360" style="stroke: rgb(0, 0, 0); stroke-opacity: 0.07; stroke-width: 1px;"/></g><g class="y"><path class="ygrid crisp" transform="translate(0,348)" d="M80,0h521" style="stroke: rgb(0, 0, 0); stroke-opacity: 0.07; stroke-width: 1px;"/><path class="ygrid crisp" transform="translate(0,276)" d="M80,0h521" style="stroke: rgb(0, 0, 0); stroke-opacity: 0.07; stroke-width: 1px;"/><path class="ygrid crisp" transform="translate(0,204)" d="M80,0h521" style="stroke: rgb(0, 0, 0); stroke-opacity: 0.07; stroke-width: 1px;"/><path class="ygrid crisp" transform="translate(0,132)" d="M80,0h521" style="stroke: rgb(0, 0, 0); stroke-opacity: 0.07; stroke-width: 1px;"/></g></g><g class="zerolinelayer"/><g class="layer-between"><g class="shapelayer"/><g class="imagelayer"/></g><path class="xlines-below"/><path class="ylines-below"/><g class="overlines-below"/><g class="xaxislayer-below"/><g class="yaxislayer-below"/><g class="overaxes-below"/><g class="overplot"><g class="xy" transform="translate(80,60)" clip-path="url(#clipee991axyplot)"><g class="scatterlayer mlayer"><g class="trace scatter trace97b805" style="stroke-miterlimit: 2; opacity: 1;"><g class="fills"/><g class="errorbars"/><g class="lines"><path class="js-line" d="M0,360L26.05,358.2L52.1,354.6L78.15,348.84L104.2,340.56L130.25,330.48L156.3,317.88L182.35,303.84L208.4,288L234.45,270.72L260.5,252.36L286.55,232.56L312.6,211.68L338.65,190.08L364.7,167.4L416.8,120.24L442.85,95.76L494.95,45.72L521,20.16" style="vector-effect: none; fill: none; stroke: rgb(0, 0, 0); stroke-opacity: 1; stroke-dasharray: 3px, 3px; stroke-width: 2px; opacity: 1;"/></g><g class="points"/><g class="text"/></g><g class="trace scatter trace103733" style="stroke-miterlimit: 2; opacity: 1;"><g class="fills"/><g class="errorbars"/><g class="lines"><path class="js-line" d="M0,360L52.1,356.04L78.15,352.8L104.2,348.12L130.25,342L156.3,334.08L182.35,325.08L234.45,302.76L260.5,289.8L312.6,261.72L338.65,246.24L390.75,212.76L416.8,195.12L468.9,158.76L494.95,139.32L521,120.24" style="vector-effect: none; fill: none; stroke: rgb(0, 0, 0); stroke-opacity: 1; stroke-dasharray: 9px, 9px; stroke-width: 2px; opacity: 1;"/></g><g class="points"/><g class="text"/></g><g class="trace scatter trace4f9d7f" style="stroke-miterlimit: 2; opacity: 1;"><g class="fills"/><g class="errorbars"/><g class="lines"><path class="js-line" d="M0,360L52.1,357.48L78.15,354.6L104.2,350.28L130.25,344.52L156.3,337.68L182.35,329.76L208.4,320.4L234.45,309.96L260.5,298.44L286.55,285.84L312.6,272.52L338.65,258.12L390.75,227.52L416.8,211.32L468.9,176.76L494.95,159.12L521,141.12" style="vector-effect: none; fill: none; stroke: rgb(0, 0, 0); stroke-opacity: 1; stroke-width: 2px; opacity: 1;"/></g><g class="points"/><g class="text"/></g><g class="trace scatter trace5f89f5" style="stroke-miterlimit: 2; opacity: 1;"><g class="fills"/><g class="errorbars"/><g class="lines"/><g class="points"/><g class="text"/></g></g></g></g><g class="zerolinelayer-above"/><path class="xlines-above crisp" d="M79,420.5H602M79,59.5H602" style="fill: none; stroke-width: 1px; stroke: rgb(36, 36, 36); stroke-opacity: 1;"/><path class="ylines-above crisp" d="M79.5,60V420M601.5,60V420" style="fill: none; stroke-width: 1px; stroke: rgb(36, 36, 36); stroke-opacity: 1;"/><g class="overlines-above"/><g class="xaxislayer-above"><path class="xtick ticks crisp" d="M0,421v5" transform="translate(80,0)" style="stroke: rgb(68, 68, 68); stroke-opacity: 1; stroke-width: 1px;"/><path class="xtick ticks crisp" d="M0,421v5" transform="translate(210.25,0)" style="stroke: rgb(68, 68, 68); stroke-opacity: 1; stroke-width: 1px;"/><path class="xtick ticks crisp" d="M0,421v5" transform="translate(340.5,0)" style="stroke: rgb(68, 68, 68); stroke-opacity: 1; stroke-width: 1px;"/><path class="xtick ticks crisp" d="M0,421v5" transform="translate(470.75,0)" style="stroke: rgb(68, 68, 68); stroke-opacity: 1; stroke-width: 1px;"/><path class="xtick ticks crisp" d="M0,421v5" transform="translate(601,0)" style="stroke: rgb(68, 68, 68); stroke-opacity: 1; stroke-width: 1px;"/><g class="xtick"><text text-anchor="middle" x="0" y="441.6" transform="translate(80,0)" style="font-family: Arial; font-size: 13px; fill: rgb(36, 36, 36); fill-opacity: 1; white-space: pre;">0</text></g><g class="xtick"><text text-anchor="middle" x="0" y="441.6" style="font-family: Arial; font-size: 13px; fill: rgb(36, 36, 36); fill-opacity: 1; white-space: pre;" transform="translate(210.25,0)">0.1</text></g><g class="xtick"><text text-anchor="middle" x="0" y="441.6" style="font-family: Arial; font-size: 13px; fill: rgb(36, 36, 36); fill-opacity: 1; white-space: pre;" transform="translate(340.5,0)">0.2</text></g><g class="xtick"><text text-anchor="middle" x="0" y="441.6" style="font-family: Arial; font-size: 13px; fill: rgb(36, 36, 36); fill-opacity: 1; white-space: pre;" transform="translate(470.75,0)">0.3</text></g><g class="xtick"><text text-anchor="middle" x="0" y="441.6" style="font-family: Arial; font-size: 13px; fill: rgb(36, 36, 36); fill-opacity: 1; white-space: pre;" transform="translate(601,0)">0.4</text></g></g><g class="yaxislayer-above"><path class="ytick ticks crisp" d="M79,0h-5" transform="translate(0,420)" style="stroke: rgb(68, 68, 68); stroke-opacity: 1; stroke-width: 1px;"/><path class="ytick ticks crisp" d="M79,0h-5" transform="translate(0,348)" style="stroke: rgb(68, 68, 68); stroke-opacity: 1; stroke-width: 1px;"/><path class="ytick ticks crisp" d="M79,0h-5" transform="translate(0,276)" style="stroke: rgb(68, 68, 68); stroke-opacity: 1; stroke-width: 1px;"/><path class="ytick ticks crisp" d="M79,0h-5" transform="translate(0,204)" style="stroke: rgb(68, 68, 68); stroke-opacity: 1; stroke-width: 1px;"/><path class="ytick ticks crisp" d="M79,0h-5" transform="translate(0,132)" style="stroke: rgb(68, 68, 68); stroke-opacity: 1; stroke-width: 1px;"/><path class="ytick ticks crisp" d="M79,0h-5" transform="translate(0,60)" style="stroke: rgb(68, 68, 68); stroke-opacity: 1; stroke-width: 1px;"/><g class="ytick"><text text-anchor="end" x="71.4" y="4.55" transform="translate(0,420)" style="font-family: Arial; font-size: 13px; fill: rgb(36, 36, 36); fill-opacity: 1; white-space: pre;">1</text></g><g class="ytick"><text text-anchor="end" x="71.4" y="4.55" style="font-family: Arial; font-size: 13px; fill: rgb(36, 36, 36); fill-opacity: 1; white-space: pre;" transform="translate(0,348)">1.2</text></g><g class="ytick"><text text-anchor="end" x="71.4" y="4.55" style="font-family: Arial; font-size: 13px; fill: rgb(36, 36, 36); fill-opacity: 1; white-space: pre;" transform="translate(0,276)">1.4</text></g><g class="ytick"><text text-anchor="end" x="71.4" y="4.55" style="font-family: Arial; font-size: 13px; fill: rgb(36, 36, 36); fill-opacity: 1; white-space: pre;" transform="translate(0,204)">1.6</text></g><g class="ytick"><text text-anchor="end" x="71.4" y="4.55" style="font-family: Arial; font-size: 13px; fill: rgb(36, 36, 36); fill-opacity: 1; white-space: pre;" transform="translate(0,132)">1.8</text></g><g class="ytick"><text text-anchor="end" x="71.4" y="4.55" style="font-family: Arial; font-size: 13px; fill: rgb(36, 36, 36); fill-opacity: 1; white-space: pre;" transform="translate(0,60)">2</text></g></g><g class="overaxes-above"/></g></g><g class="polarlayer"/><g class="smithlayer"/><g class="ternarylayer"/><g class="geolayer"/><g class="funnelarealayer"/><g class="pielayer"/><g class="iciclelayer"/><g class="treemaplayer"/><g class="sunburstlayer"/><g class="glimages"/><defs id="topdefs-ee991a"><g class="clips"/><clipPath id="legendee991a"><rect width="77" height="67" x="0" y="0"/></clipPath></defs><g class="layer-above"><g class="imagelayer"/><g class="shapelayer"/></g><g class="infolayer"><g class="legend" pointer-events="all" transform="translate(611.42,60)"><rect class="bg" shape-rendering="crispEdges" style="stroke: rgb(68, 68, 68); stroke-opacity: 1; fill: rgb(255, 255, 255); fill-opacity: 1; stroke-width: 0px;" width="77" height="67" x="0" y="0"/><g class="scrollbox" transform="" clip-path="url(#legendee991a)"><g class="groups" transform=""><g class="traces" transform="translate(0,14.5)" style="opacity: 1;"><text class="legendtext" text-anchor="start" x="40" y="4.680000000000001" style="font-family: Arial; font-size: 12px; fill: rgb(36, 36, 36); fill-opacity: 1; white-space: pre;">h/B=4</text><g class="layers" style="opacity: 1;"><g class="legendfill"/><g class="legendlines"><path class="js-line" d="M5,0h30" style="fill: none; stroke: rgb(0, 0, 0); stroke-opacity: 1; stroke-dasharray: 3px, 3px; stroke-width: 2px;"/></g><g class="legendsymbols"><g class="legendpoints"/></g></g><rect class="legendtoggle" x="0" y="-9.5" width="72" height="19" style="fill: rgb(0, 0, 0); fill-opacity: 0;"/></g></g><g class="groups" transform=""><g class="traces" transform="translate(0,33.5)" style="opacity: 1;"><text class="legendtext" text-anchor="start" x="40" y="4.680000000000001" style="font-family: Arial; font-size: 12px; fill: rgb(36, 36, 36); fill-opacity: 1; white-space: pre;">h/B=2</text><g class="layers" style="opacity: 1;"><g class="legendfill"/><g class="legendlines"><path class="js-line" d="M5,0h30" style="fill: none; stroke: rgb(0, 0, 0); stroke-opacity: 1; stroke-dasharray: 9px, 9px; stroke-width: 2px;"/></g><g class="legendsymbols"><g class="legendpoints"/></g></g><rect class="legendtoggle" x="0" y="-9.5" width="72" height="19" style="fill: rgb(0, 0, 0); fill-opacity: 0;"/></g></g><g class="groups" transform=""><g class="traces" transform="translate(0,52.5)" style="opacity: 1;"><text class="legendtext" text-anchor="start" x="40" y="4.680000000000001" style="font-family: Arial; font-size: 12px; fill: rgb(36, 36, 36); fill-opacity: 1; white-space: pre;">h/B=1</text><g class="layers" style="opacity: 1;"><g class="legendfill"/><g class="legendlines"><path class="js-line" d="M5,0h30" style="fill: none; stroke: rgb(0, 0, 0); stroke-opacity: 1; stroke-width: 2px;"/></g><g class="legendsymbols"><g class="legendpoints"/></g></g><rect class="legendtoggle" x="0" y="-9.5" width="72" height="19" style="fill: rgb(0, 0, 0); fill-opacity: 0;"/></g></g></g><rect class="scrollbar" rx="20" ry="3" width="0" height="0" style="fill: rgb(128, 139, 164); fill-opacity: 1;" x="0" y="0"/></g><g class="g-gtitle"><text class="gtitle" x="350" y="12.5" text-anchor="middle" dy="0em" style="opacity: 1; font-family: Arial; font-size: 14px; fill: rgb(36, 36, 36); fill-opacity: 1; white-space: pre;">Period lengthening ratio by NIST (2012)</text></g><g class="g-xtitle"><text class="xtitle" x="340.5" y="470.299609375" text-anchor="middle" style="opacity: 1; font-family: Arial; font-size: 16px; fill: rgb(36, 36, 36); fill-opacity: 1; white-space: pre;">Structure-to-soil stiffness ratio</text></g><g class="g-ytitle"><text class="ytitle" transform="rotate(-90,33.300390625,240)" x="33.300390625" y="240" text-anchor="middle" style="opacity: 1; font-family: Arial; font-size: 16px; fill: rgb(36, 36, 36); fill-opacity: 1; white-space: pre;">Period lengthening ratio</text></g></g></svg>